<svg width="25" height="28" viewBox="0 0 25 28" fill="none" xmlns="http://www.w3.org/2000/svg">
<path d="M11.82 1.8591C8.80482 1.86408 5.88698 2.92694 3.575 4.86244V0.329102H1.26584V9.53744H10.4742V7.2141H4.425C6.02112 5.65462 8.0699 4.64038 10.2778 4.31671C12.4857 3.99304 14.7394 4.37655 16.7159 5.41228C18.6925 6.44802 20.2905 8.08283 21.281 10.0825C22.2714 12.0821 22.6035 14.3439 22.2297 16.5439C21.8558 18.7439 20.7952 20.769 19.1997 22.3292C17.6043 23.8894 15.556 24.9045 13.3482 25.2292C11.1405 25.5538 8.88661 25.1713 6.90959 24.1364C4.93256 23.1016 3.33385 21.4675 2.3425 19.4683L0.27417 20.5024C1.29689 22.5631 2.85182 24.3129 4.77798 25.5708C6.70414 26.8286 8.9315 27.5487 11.2295 27.6566C13.5274 27.7644 15.8124 27.2561 17.8479 26.1842C19.8834 25.1123 21.5954 23.5158 22.8067 21.56C24.0179 19.6042 24.6843 17.3602 24.737 15.0603C24.7896 12.7604 24.2266 10.4882 23.1061 8.47907C21.9856 6.46989 20.3485 4.79673 18.3642 3.63281C16.3799 2.46888 14.1205 1.85652 11.82 1.8591Z" fill="white"/>
</svg>
