<svg width="414" height="329" viewBox="0 0 414 329" fill="none" xmlns="http://www.w3.org/2000/svg">
<g clip-path="url(#clip0_127_2688)">
<path d="M279.952 17.8521C279.952 18.6571 280.293 19.1889 280.927 19.8644C281.6 18.7401 282.437 17.8555 283.375 17.2772C282.932 16.6924 282.648 15.8906 282.575 15.0205C281.578 15.6893 280.686 16.6531 279.952 17.8521Z" fill="url(#paint0_linear_127_2688)"/>
<path d="M92.9369 216.267C93.0765 215.952 93.1572 215.588 93.1709 215.212C93.1846 214.836 93.1308 214.461 93.0149 214.125C92.5554 213.855 92.0484 213.815 91.5718 214.01C91.4009 214.906 91.063 215.712 90.5967 216.339C91.365 216.077 92.1619 216.052 92.9369 216.267Z" fill="url(#paint1_linear_127_2688)"/>
<path d="M34.1777 97.54C34.2122 98.8923 34.4069 100.225 34.753 101.478C35.2651 101.173 35.7151 100.678 36.0597 100.041C35.7614 99.3222 35.6312 98.479 35.6891 97.6407C35.4478 97.7891 35.1871 97.857 34.9258 97.8396C34.6645 97.8223 34.4091 97.7199 34.1777 97.54Z" fill="url(#paint2_linear_127_2688)"/>
<path d="M288.855 0C289.035 1.77667 289.6 3.42019 290.464 4.68583C291.326 4.67085 292.184 4.8502 293.009 5.21766C292.629 4.09651 292.785 3.26283 293.429 1.76797C291.849 1.54662 290.305 0.949557 288.855 0Z" fill="url(#paint3_linear_127_2688)"/>
<path d="M348.414 65.7884C347.021 65.6997 345.653 65.2115 344.387 64.3511C344.044 65.3178 343.921 66.4213 344.036 67.4989C345.32 68.4261 346.69 69.0656 348.102 69.3962C347.78 67.7145 347.8 66.7802 348.414 65.7884Z" fill="url(#paint4_linear_127_2688)"/>
<path d="M35.6592 58.9897C35.8867 59.2941 36.0553 59.682 36.1478 60.1138C36.2403 60.5456 36.2534 61.0059 36.1857 61.4477C37.0002 61.0197 37.735 60.3156 38.331 59.3922C38.3715 58.9943 38.3396 58.5876 38.2385 58.2138C38.1374 57.84 37.9708 57.5126 37.7557 57.2649C37.1865 58.1301 36.4575 58.7299 35.6592 58.9897Z" fill="url(#paint5_linear_127_2688)"/>
<path d="M102.757 15.1355C102.986 15.4409 103.155 15.8318 103.246 16.2669C103.337 16.702 103.346 17.1653 103.274 17.6078C104.076 17.1627 104.8 16.455 105.39 15.538C105.429 15.1401 105.397 14.7339 105.296 14.3604C105.195 13.9869 105.029 13.6593 104.814 13.4106C104.259 14.2729 103.543 14.8732 102.757 15.1355Z" fill="url(#paint6_linear_127_2688)"/>
<path d="M414.01 41.6119C413.605 40.7289 413.388 39.688 413.386 38.6222C413.258 38.6922 413.122 38.722 412.986 38.7096C412.85 38.6973 412.717 38.643 412.596 38.5503C412.544 39.7318 412.716 40.9113 413.093 41.9569C413.414 41.9677 413.731 41.8484 414.01 41.6119Z" fill="url(#paint7_linear_127_2688)"/>
<path d="M205.805 6.52556C205.21 6.30996 204.674 5.72063 203.855 3.85205C203.357 4.52205 203.015 5.40776 202.88 6.38183C203.449 7.51353 204.204 8.41365 205.074 8.99784C205.132 8.07968 205.388 7.21319 205.805 6.52556Z" fill="url(#paint8_linear_127_2688)"/>
<path d="M288.348 98.891C288.118 100.595 288.276 102.363 288.796 103.922C289.849 102.962 291.084 102.533 292.317 102.7C292.57 101.102 292.603 99.4449 292.414 97.8274C291.119 98.5701 289.737 98.9314 288.348 98.891Z" fill="url(#paint9_linear_127_2688)"/>
<path d="M361.159 19.2609C360.925 20.96 361.083 22.7253 361.607 24.2773C362.661 23.3353 363.889 22.9077 365.118 23.0556C365.38 21.4591 365.414 19.7993 365.215 18.1829C363.923 18.9254 362.545 19.2915 361.159 19.2609Z" fill="url(#paint10_linear_127_2688)"/>
<path d="M16.8786 189.388C16.4789 189.661 16.3131 190.107 16.0498 190.826C17.2826 191.789 18.3862 193.075 19.3067 194.62C19.513 194.083 19.8357 193.662 20.2233 193.427C19.319 191.741 18.178 190.363 16.8786 189.388Z" fill="url(#paint11_linear_127_2688)"/>
<path d="M21.1602 115.938C21.4761 115.265 21.6879 114.498 21.7806 113.691C21.8733 112.883 21.8446 112.056 21.6965 111.267C19.9151 110.569 18.1965 109.561 16.5772 108.263C16.5197 109.147 16.3081 109.993 15.9629 110.721C17.8649 112.061 19.6174 113.821 21.1602 115.938Z" fill="url(#paint12_linear_127_2688)"/>
<path d="M262.147 7.90552C261.832 8.42961 261.605 9.05459 261.483 9.73079C261.361 10.407 261.348 11.1158 261.445 11.8008C263.112 11.8335 264.751 12.4388 266.232 13.5688C266.261 12.1339 266.638 10.7619 267.295 9.70223C265.68 8.59282 263.928 7.98142 262.147 7.90552Z" fill="url(#paint13_linear_127_2688)"/>
<path d="M0.214405 130.959C0.00175476 132.286 -0.0510534 133.658 0.0583884 135.012C0.624536 134.912 1.161 134.584 1.6088 134.064C1.44408 133.248 1.46462 132.374 1.66731 131.577C1.40919 131.642 1.14441 131.621 0.892794 131.514C0.64118 131.406 0.409259 131.217 0.214405 130.959Z" fill="url(#paint14_linear_127_2688)"/>
<path d="M72.5576 135.975C73.1256 137.15 73.5117 138.495 73.6887 139.914C75.1433 138.034 76.7637 136.453 78.5057 135.214C78.5773 133.794 78.2889 132.385 77.6964 131.261C75.8616 132.523 74.1364 134.106 72.5576 135.975Z" fill="url(#paint15_linear_127_2688)"/>
<path d="M12.3739 250.002C11.554 250.376 10.8388 251.133 10.3359 252.158C10.4287 253.044 10.4287 253.946 10.3359 254.832C10.8332 254.328 11.2428 254.386 12.0229 254.832C11.9589 253.204 12.0775 251.572 12.3739 250.002Z" fill="url(#paint16_linear_127_2688)"/>
<path d="M361.266 195.598C361.023 195.831 360.741 195.963 360.45 195.978C360.16 195.993 359.872 195.892 359.618 195.684C359.696 196.869 359.952 198.013 360.369 199.033C360.605 199.182 360.863 199.238 361.117 199.195C361.372 199.153 361.615 199.012 361.822 198.789C361.425 197.83 361.232 196.719 361.266 195.598Z" fill="url(#paint17_linear_127_2688)"/>
<path d="M13.5832 286.425C13.5206 286.852 13.3804 287.246 13.1778 287.565C12.9752 287.884 12.7176 288.116 12.4326 288.236C13.0699 289.021 13.8203 289.582 14.6266 289.875C14.88 289.74 15.1042 289.508 15.2758 289.202C15.4473 288.896 15.5599 288.528 15.6017 288.136C14.8295 287.87 14.1275 287.275 13.5832 286.425Z" fill="url(#paint18_linear_127_2688)"/>
<path d="M360.408 138.936C360.555 139 360.69 139.108 360.806 139.254C360.922 139.4 361.016 139.581 361.081 139.784C361.671 138.939 362.174 137.97 362.573 136.91C362.373 136.453 362.089 136.089 361.754 135.86C361.493 137.04 361.029 138.099 360.408 138.936Z" fill="url(#paint19_linear_127_2688)"/>
<path d="M25.7919 318.608C25.3727 317.688 25.2069 316.495 25.5189 313.836C24.6874 313.824 23.8761 314.213 23.2079 314.942C23.1017 316.672 23.2963 318.414 23.7735 320.002C24.3253 319.225 25.034 318.736 25.7919 318.608Z" fill="url(#paint20_linear_127_2688)"/>
<path d="M372.5 60.9447C372.755 62.4085 373.331 63.7071 374.138 64.6387C374.72 63.3189 375.575 62.3108 376.576 61.764C376.369 60.369 375.974 59.0493 375.416 57.8831C374.588 59.1739 373.598 60.2139 372.5 60.9447Z" fill="url(#paint21_linear_127_2688)"/>
<path d="M71.7386 70.8912C72.7189 70.3673 73.555 69.3823 74.1178 68.0883C73.1421 67.3496 72.3551 66.1643 71.8751 64.7104C70.9345 65.1571 70.0654 65.8809 69.3203 66.8378C70.2966 67.9457 71.1179 69.3222 71.7386 70.8912Z" fill="url(#paint22_linear_127_2688)"/>
<path d="M83.6935 101.004C83.2126 100.26 82.5643 99.8006 81.8701 99.7104C81.3504 102.831 80.4518 105.787 79.2178 108.435C79.8578 108.71 80.4151 109.298 80.7974 110.103C82.1929 107.41 83.1805 104.307 83.6935 101.004Z" fill="url(#paint23_linear_127_2688)"/>
<path d="M85.2335 189C85.7015 188.684 85.8965 188.166 86.2086 187.304C84.7734 186.178 83.4909 184.672 82.4252 182.862C82.189 183.507 81.8107 184.015 81.3525 184.3C82.4019 186.259 83.7256 187.863 85.2335 189Z" fill="url(#paint24_linear_127_2688)"/>
<path d="M218.267 115.407C218.432 115.022 218.539 114.589 218.581 114.138C218.623 113.686 218.599 113.227 218.511 112.791C217.512 112.453 216.545 111.931 215.634 111.238C215.619 111.75 215.511 112.246 215.322 112.676C216.393 113.359 217.386 114.28 218.267 115.407Z" fill="url(#paint25_linear_127_2688)"/>
<path d="M287.139 68.8501C287.666 69.1094 288.226 69.1949 288.779 69.1005C289.332 69.0062 289.863 68.7342 290.337 68.3039C290.302 65.5698 290.485 62.8393 290.883 60.1683C290.291 60.3383 289.68 60.2789 289.108 59.9958C288.753 63.0747 288.089 66.0587 287.139 68.8501Z" fill="url(#paint26_linear_127_2688)"/>
<path d="M143.886 5.83569C143.379 7.27164 143.182 8.90144 143.32 10.5072C144.575 10.9359 145.772 11.6746 146.86 12.692C146.937 11.8179 147.118 10.971 147.396 10.1909C146.043 9.09489 144.85 7.6147 143.886 5.83569Z" fill="url(#paint27_linear_127_2688)"/>
<path d="M249.441 97.08C249.589 97.5533 249.822 97.9584 250.114 98.2521C250.406 98.5458 250.746 98.717 251.099 98.7473C251.643 98.1492 252.035 97.2986 252.211 96.3326C251.621 95.4115 251.215 94.267 251.041 93.0266C250.694 94.5196 250.15 95.897 249.441 97.08Z" fill="url(#paint28_linear_127_2688)"/>
<path d="M402.514 34.08C402.881 34.6556 403.345 35.0791 403.858 35.3086C404.371 35.5381 404.916 35.5655 405.439 35.3881C406.054 34.1383 406.363 32.6182 406.317 31.0759C405.174 30.144 404.234 28.7535 403.606 27.0657C403.57 29.489 403.198 31.876 402.514 34.08Z" fill="url(#paint29_linear_127_2688)"/>
<path d="M28.2581 220.263C27.3735 220.747 26.5522 221.452 25.8301 222.347C26.203 223.008 26.6921 223.506 27.244 223.785C27.6236 223.118 28.1408 222.654 28.7164 222.462C28.5355 222.167 28.4007 221.818 28.3215 221.438C28.2423 221.058 28.2207 220.657 28.2581 220.263Z" fill="url(#paint30_linear_127_2688)"/>
<path d="M10.9698 85.9692C10.4714 85.4957 10.0488 84.8679 9.73146 84.1294C9.21653 85.6681 8.5603 87.0949 7.78125 88.3696C7.96182 89.1906 8.33986 89.8859 8.84411 90.3245C9.6668 89.0015 10.3803 87.5395 10.9698 85.9692Z" fill="url(#paint31_linear_127_2688)"/>
<path d="M45.0693 288.337C45.8357 288.759 46.531 289.421 47.1073 290.277C47.4856 287.964 48.0795 285.739 48.8722 283.665C48.4826 282.659 47.8538 281.901 47.1073 281.538C46.2464 283.676 45.5622 285.959 45.0693 288.337Z" fill="url(#paint32_linear_127_2688)"/>
<path d="M78.4762 88.2259C77.628 87.919 76.7352 88.0249 75.9312 88.5277C75.6932 89.3805 75.364 90.1715 74.9561 90.8706C75.5606 90.8706 75.9312 91.1869 76.3895 92.2218C76.931 90.7295 77.6361 89.3794 78.4762 88.2259Z" fill="url(#paint33_linear_127_2688)"/>
<path d="M82.562 23.6735C82.9363 22.7864 83.4309 22.0229 84.0149 21.4312C83.822 20.9663 83.5308 20.6078 83.1861 20.4106C82.5849 21.0058 82.0489 21.7329 81.5967 22.5667C82.1525 22.7679 82.4255 23.0123 82.562 23.6735Z" fill="url(#paint34_linear_127_2688)"/>
<path d="M386.385 120.423C385.821 120.837 385.209 121.086 384.581 121.156C384.589 121.65 384.709 122.126 384.922 122.507C385.564 122.457 386.195 122.259 386.795 121.918C386.443 121.386 386.287 121.012 386.385 120.423Z" fill="url(#paint35_linear_127_2688)"/>
<path d="M139.859 84.9056C139.633 84.0687 139.564 83.1577 139.658 82.2677C139.752 81.3777 140.007 80.5413 140.395 79.846C138.697 79.597 136.982 79.9265 135.383 80.8091C135.081 81.4718 134.901 82.2395 134.862 83.0362C134.822 83.8328 134.925 84.6309 135.159 85.3512C136.662 84.5225 138.297 84.3675 139.859 84.9056Z" fill="url(#paint36_linear_127_2688)"/>
<path d="M31.0762 32.9876C31.3878 33.5415 31.5921 34.2092 31.6676 34.9201C31.7432 35.631 31.687 36.3588 31.5052 37.0266C32.8387 36.6199 34.0902 35.7639 35.1619 34.5256C35.278 33.9229 35.2869 33.2864 35.1879 32.6772C35.0888 32.0681 34.8851 31.5067 34.5963 31.0471C33.5772 32.1882 32.3532 32.8629 31.0762 32.9876Z" fill="url(#paint37_linear_127_2688)"/>
<path d="M382.338 264.131C383.244 265.01 384.296 265.507 385.38 265.569C385.774 264.781 385.967 263.814 385.926 262.838C384.857 262.805 383.819 262.304 382.942 261.4C383.005 261.894 382.983 262.403 382.877 262.88C382.772 263.357 382.586 263.788 382.338 264.131Z" fill="url(#paint38_linear_127_2688)"/>
<path d="M302.477 191.07C302.988 190.374 303.654 189.98 304.349 189.963C303.82 188.554 303.138 187.282 302.331 186.197C301.763 186.683 301.274 187.345 300.897 188.137C301.563 188.933 302.103 189.934 302.477 191.07Z" fill="url(#paint39_linear_127_2688)"/>
<path d="M402.201 73.2341C403.19 71.8426 404.492 71.0389 405.858 70.9774C404.79 68.2371 403.419 65.779 401.802 63.7043C400.704 64.6817 399.766 66.0015 399.052 67.5709C400.212 68.6633 400.982 70.3306 402.201 73.2341Z" fill="url(#paint40_linear_127_2688)"/>
<path d="M188.751 56.3307C188.509 55.9809 188.322 55.5586 188.201 55.0923C188.079 54.626 188.028 54.1267 188.049 53.6284C186.282 54.3688 184.597 55.4824 183.047 56.9344C183.115 58.1422 183.405 59.2998 183.885 60.2834C185.246 58.3637 186.923 57.0011 188.751 56.3307Z" fill="url(#paint41_linear_127_2688)"/>
<path d="M318.557 64.8398C318.717 64.4047 318.939 64.0263 319.209 63.7309C319.478 63.4355 319.788 63.2302 320.117 63.1293C319.167 60.8511 317.998 58.7885 316.646 57.0061C315.878 57.4171 315.203 58.1336 314.695 59.0759C316.302 60.4666 317.634 62.454 318.557 64.8398Z" fill="url(#paint42_linear_127_2688)"/>
<path d="M308.016 11.2404C308.709 11.6414 309.304 12.3431 309.722 13.2527C309.804 13.0847 309.909 12.9432 310.03 12.8369C310.151 12.7307 310.285 12.6618 310.424 12.6346C310.001 11.5839 309.39 10.724 308.659 10.1479C308.378 10.4138 308.155 10.793 308.016 11.2404Z" fill="url(#paint43_linear_127_2688)"/>
<path d="M154.232 39.0678C153.091 39.5996 151.804 39.4415 149.181 37.5442C148.808 39.4066 148.849 41.3962 149.298 43.2218C151.036 44.2445 152.924 44.5862 154.778 44.2136C154.222 42.6312 154.031 40.825 154.232 39.0678Z" fill="url(#paint44_linear_127_2688)"/>
<path d="M342.067 186.945C342.291 188.238 342.155 189.676 341.092 192.493C342.033 192.995 343.058 193.04 344.017 192.622C344.605 190.729 344.86 188.648 344.758 186.571C343.912 187.121 342.968 187.252 342.067 186.945Z" fill="url(#paint45_linear_127_2688)"/>
<path d="M374.859 225.94C374.082 227.339 373.64 229.078 373.602 230.885C374.887 230.776 376.162 231.28 377.239 232.322C378.01 231.041 378.594 229.539 378.955 227.91C377.516 227.649 376.126 226.98 374.859 225.94Z" fill="url(#paint46_linear_127_2688)"/>
<path d="M24.6795 8.45163C25.8094 9.00622 27.0307 9.00622 28.1606 8.45163C27.6547 6.76662 27.5349 4.88457 27.8193 3.09024C26.7771 2.50864 25.6665 2.23986 24.5527 2.29968C24.868 4.3183 24.911 6.40854 24.6795 8.45163Z" fill="url(#paint47_linear_127_2688)"/>
<path d="M390.773 45.6079C391.406 45.4289 391.974 44.9184 392.372 44.1705C390.944 42.0236 389.794 39.51 388.979 36.7537C388.527 37.3725 387.946 37.7474 387.331 37.8173C388.09 40.7449 389.264 43.4006 390.773 45.6079Z" fill="url(#paint48_linear_127_2688)"/>
<path d="M94.8877 60.9014C95.0047 61.577 95.307 61.9794 95.8628 62.3388C96.3372 61.2994 96.9636 60.43 97.696 59.7946C97.2711 59.3861 96.957 58.7705 96.8087 58.0554C96.0461 58.806 95.393 59.7736 94.8877 60.9014Z" fill="url(#paint49_linear_127_2688)"/>
<path d="M55.21 239.739C55.2363 241.303 55.0334 242.858 54.6152 244.296C56.6957 243.881 58.8046 243.881 60.8852 244.296C61.5429 243.077 61.8634 241.536 61.7823 239.984C59.6064 239.508 57.3994 239.426 55.21 239.739Z" fill="url(#paint50_linear_127_2688)"/>
<path d="M359.892 96.9507C360.58 97.0522 361.245 97.3709 361.842 97.885C361.833 95.8849 362.01 93.8924 362.368 91.9631C361.891 91.2545 361.251 90.8342 360.574 90.7844C360.184 92.7934 359.955 94.863 359.892 96.9507Z" fill="url(#paint51_linear_127_2688)"/>
<path d="M42.5244 305.168C43.0553 305.939 43.7379 306.442 44.4746 306.606C44.9061 306.143 45.3828 305.779 45.8885 305.528C45.4205 305.154 45.2937 304.665 45.2547 303.573C44.409 304.319 43.487 304.857 42.5244 305.168Z" fill="url(#paint52_linear_127_2688)"/>
<path d="M33.3488 147.216C32.4345 145.709 31.7319 143.95 31.2816 142.041C30.5875 142.343 29.9806 142.974 29.5557 143.838C29.9841 145.806 30.6191 147.664 31.4376 149.343C31.9934 147.862 32.481 147.244 33.3488 147.216Z" fill="url(#paint53_linear_127_2688)"/>
<path d="M224.322 18.7434C225.668 19.6166 226.887 20.8662 227.911 22.4231C228.487 21.6664 228.887 20.6601 229.052 19.5484C228.03 17.9195 226.846 16.5286 225.541 15.4231C225.444 17.2198 225.19 18.111 224.322 18.7434Z" fill="url(#paint54_linear_127_2688)"/>
<path d="M291.858 242.197C291.87 242.67 291.796 243.14 291.643 243.557C291.49 243.974 291.265 244.323 290.99 244.569C291.801 245.131 292.688 245.411 293.584 245.388C293.814 245.14 293.996 244.808 294.112 244.425C294.228 244.042 294.275 243.621 294.247 243.203C293.4 243.228 292.568 242.877 291.858 242.197Z" fill="url(#paint55_linear_127_2688)"/>
<path d="M1.45312 168.359C1.72065 169.563 2.20616 170.637 2.85728 171.464C3.36782 171.26 3.81528 170.803 4.12491 170.17C3.46995 169.377 2.99388 168.31 2.75977 167.109C2.63091 167.463 2.44361 167.763 2.21522 167.981C1.98682 168.2 1.7247 168.33 1.45312 168.359Z" fill="url(#paint56_linear_127_2688)"/>
<path d="M376.809 323.595C376.273 324.435 375.542 324.948 374.762 325.033C375.405 326.556 376.212 327.915 377.151 329.057C377.756 328.443 378.265 327.644 378.643 326.715C377.879 325.893 377.253 324.826 376.809 323.595Z" fill="url(#paint57_linear_127_2688)"/>
<path d="M10.5507 40.4045C10.5401 41.3407 10.2933 42.2375 9.8584 42.9199C10.8116 43.2929 11.7997 43.4337 12.7837 43.3368C12.9186 42.481 12.9186 41.591 12.7837 40.7351C12.0319 40.8641 11.2701 40.7513 10.5507 40.4045Z" fill="url(#paint58_linear_127_2688)"/>
<path d="M327.937 217.359C326.788 217.834 325.568 217.789 324.437 217.23C324.443 217.561 324.403 217.89 324.319 218.196C324.235 218.503 324.109 218.781 323.949 219.012C325.183 219.759 326.533 219.988 327.85 219.673C328.019 218.928 328.049 218.128 327.937 217.359Z" fill="url(#paint59_linear_127_2688)"/>
<path d="M402.669 128.372C402.552 129.191 402.201 129.938 401.051 131.074C401.483 131.745 402.051 132.194 402.669 132.353C403.365 131.54 403.906 130.475 404.239 129.263C403.665 129.219 403.115 128.907 402.669 128.372Z" fill="url(#paint60_linear_127_2688)"/>
<path d="M386.004 6.49683C385.878 7.31613 385.527 8.06356 384.376 9.19909C384.808 9.8706 385.376 10.3191 385.995 10.4783C386.693 9.65954 387.237 8.59059 387.574 7.37362C387 7.34598 386.447 7.03755 386.004 6.49683Z" fill="url(#paint61_linear_127_2688)"/>
<path d="M20.0088 72.9466C20.7986 72.4436 21.7347 72.4004 23.7044 73.4785C23.8823 72.0991 23.7523 70.672 23.3339 69.4107C22.0322 68.8754 20.6591 68.8407 19.3457 69.3101C19.8216 70.3887 20.0537 71.6617 20.0088 72.9466Z" fill="url(#paint62_linear_127_2688)"/>
<path d="M127.066 223.971C126.869 224.239 126.717 224.571 126.622 224.94C126.528 225.309 126.492 225.706 126.52 226.098C127.464 226.269 128.369 226.762 129.162 227.536C129.228 226.727 129.491 225.981 129.903 225.437C129.037 224.662 128.071 224.163 127.066 223.971Z" fill="url(#paint63_linear_127_2688)"/>
<path d="M55.5033 6.97136C55.4967 7.4852 55.5837 7.99224 55.7552 8.43969C55.9267 8.88714 56.1764 9.25864 56.4784 9.51551C57.1338 9.35037 57.7338 8.87027 58.1848 8.15001C57.9535 6.9667 57.9535 5.71114 58.1848 4.52783C57.4173 5.61083 56.5036 6.4434 55.5033 6.97136Z" fill="url(#paint64_linear_127_2688)"/>
<path d="M400.182 98.8911C400.654 97.4938 400.958 95.986 401.079 94.4353C400.43 94.33 399.773 94.4839 399.178 94.8809C399.222 95.8583 399.044 96.8296 398.671 97.6406C398.97 97.6735 399.26 97.8025 399.521 98.0185C399.782 98.2346 400.008 98.5325 400.182 98.8911Z" fill="url(#paint65_linear_127_2688)"/>
<path d="M292.58 31.4784C294.412 32.8444 296.392 33.7296 298.431 34.0945C298.574 32.2569 298.382 30.3963 297.875 28.7043C296.599 28.7921 295.339 28.262 294.287 27.1951C294.237 28.0517 294.059 28.8811 293.763 29.6224C293.468 30.3637 293.064 30.9979 292.58 31.4784Z" fill="url(#paint66_linear_127_2688)"/>
<path d="M154.369 91.1581C155.126 92.4336 155.687 93.9335 156.017 95.5565C157.558 93.0927 159.32 90.9504 161.253 89.1889C161.231 87.5088 160.774 85.9049 159.976 84.7043C157.938 86.5166 156.056 88.6834 154.369 91.1581Z" fill="url(#paint67_linear_127_2688)"/>
<path d="M125.506 42.1295C124.565 41.0726 123.421 40.4837 122.239 40.4478C121.648 41.2908 120.974 41.9982 120.24 42.5463C121.011 42.9632 121.293 43.6962 121.527 45.4211C122.726 44.0186 124.069 42.9074 125.506 42.1295Z" fill="url(#paint68_linear_127_2688)"/>
<path d="M253.118 66.4496C252.238 65.1381 251.097 64.2767 249.861 63.9917C249.153 64.7776 248.367 65.3981 247.53 65.8315C248.301 66.4209 248.505 67.2689 248.593 69.0656C249.996 67.8405 251.524 66.9571 253.118 66.4496Z" fill="url(#paint69_linear_127_2688)"/>
<path d="M182.208 18.2833C182.373 17.3675 182.658 16.5082 183.047 15.7535C182.773 15.4149 182.429 15.2225 182.072 15.2073C181.661 15.9726 181.333 16.8257 181.097 17.737C181.672 17.6652 181.965 17.7658 182.208 18.2833Z" fill="url(#paint70_linear_127_2688)"/>
<path d="M49.3594 114.3C49.6276 114.627 49.8314 115.054 49.9498 115.537C50.0681 116.02 50.0965 116.541 50.0322 117.045C50.931 116.491 51.7292 115.635 52.3627 114.544C52.392 114.089 52.3399 113.631 52.2116 113.214C52.0832 112.798 51.8832 112.439 51.6314 112.172C51.0328 113.196 50.2424 113.936 49.3594 114.3Z" fill="url(#paint71_linear_127_2688)"/>
<path d="M59.3838 108.895C59.2766 107.907 58.9864 106.982 58.5452 106.222C58.132 106.29 57.7469 106.564 57.4531 106.998C57.8904 107.746 58.1714 108.664 58.2625 109.643C58.3916 109.389 58.562 109.187 58.7581 109.057C58.9541 108.926 59.1693 108.87 59.3838 108.895Z" fill="url(#paint72_linear_127_2688)"/>
<path d="M339.522 233.86C339.114 232.057 339.177 230.094 339.697 228.355C337.679 228.588 335.702 229.317 333.847 230.511C333.968 232.291 334.354 234.008 334.978 235.542C336.07 234.522 337.357 234.234 339.522 233.86Z" fill="url(#paint73_linear_127_2688)"/>
<path d="M388.598 161.359C387.973 160.991 387.463 160.294 387.165 159.405C386.555 160.671 386.088 162.073 385.78 163.559C386.303 164.079 386.895 164.431 387.516 164.593C387.707 163.409 388.077 162.304 388.598 161.359Z" fill="url(#paint74_linear_127_2688)"/>
<path d="M393.367 200.298C393.061 200.607 392.714 200.814 392.349 200.906C391.983 200.998 391.609 200.972 391.251 200.83C391.394 203.781 391.827 206.686 392.538 209.454C393.433 209.613 394.339 209.409 395.161 208.865C394.061 206.292 393.442 203.337 393.367 200.298Z" fill="url(#paint75_linear_127_2688)"/>
<path d="M51.0857 133.101C50.9163 133.443 50.699 133.729 50.4483 133.937C50.1976 134.145 49.9195 134.272 49.6328 134.308C50.2717 136.389 51.109 138.325 52.1193 140.057C52.7955 139.819 53.4175 139.323 53.9233 138.62C52.6711 137.171 51.6937 135.27 51.0857 133.101Z" fill="url(#paint76_linear_127_2688)"/>
<path d="M327.986 165.945C327.201 165.959 326.43 165.629 325.773 164.996C325.739 165.209 325.675 165.41 325.586 165.585C325.497 165.761 325.385 165.908 325.256 166.016C325.955 166.787 326.785 167.26 327.655 167.382C327.851 166.955 327.965 166.459 327.986 165.945Z" fill="url(#paint77_linear_127_2688)"/>
<path d="M335.416 6.10884C336.538 5.6345 337.786 5.85011 340.292 7.81931C340.694 6.01733 340.694 4.07304 340.292 2.27105C338.623 1.20615 336.796 0.795183 334.987 1.07804C335.492 2.64421 335.642 4.40742 335.416 6.10884Z" fill="url(#paint78_linear_127_2688)"/>
<path d="M387.233 298.197C386.522 297.32 386.063 296.027 385.82 292.75C384.844 293.155 383.985 294.018 383.372 295.207C383.644 297.284 384.271 299.224 385.196 300.842C385.662 299.658 386.377 298.729 387.233 298.197Z" fill="url(#paint79_linear_127_2688)"/>
<path d="M63.7329 42.1437C63.6121 43.0081 63.6875 43.9071 63.9474 44.7022C64.4869 44.2267 65.1161 44.02 65.7416 44.1129C65.8774 43.2992 65.9006 42.4535 65.8098 41.6262C65.1468 41.9954 64.4414 42.1712 63.7329 42.1437Z" fill="url(#paint80_linear_127_2688)"/>
<path d="M371.817 302.624C372.639 302.549 373.415 302.039 374.002 301.187C372.51 298.097 371.409 294.635 370.755 290.967C370.114 291.612 369.344 291.916 368.57 291.83C369.118 295.728 370.225 299.409 371.817 302.624Z" fill="url(#paint81_linear_127_2688)"/>
<path d="M351.018 257.563C350.712 257.186 350.353 256.914 349.967 256.765C349.581 256.616 349.178 256.594 348.785 256.7C348.326 258.534 347.721 260.281 346.981 261.903C347.407 262.026 347.806 262.303 348.142 262.708C348.916 260.786 349.886 259.05 351.018 257.563Z" fill="url(#paint82_linear_127_2688)"/>
</g>
<defs>
<linearGradient id="paint0_linear_127_2688" x1="291.085" y1="13.2106" x2="288.751" y2="11.1047" gradientUnits="userSpaceOnUse">
<stop stop-color="#FF5C5C"/>
<stop offset="0.3" stop-color="#F44444"/>
<stop offset="0.93" stop-color="#D60707"/>
<stop offset="1" stop-color="#D30000"/>
</linearGradient>
<linearGradient id="paint1_linear_127_2688" x1="4365.85" y1="3087.16" x2="4366.14" y2="3081.96" gradientUnits="userSpaceOnUse">
<stop stop-color="#FF5C5C"/>
<stop offset="0.3" stop-color="#F44444"/>
<stop offset="0.93" stop-color="#D60707"/>
<stop offset="1" stop-color="#D30000"/>
</linearGradient>
<linearGradient id="paint2_linear_127_2688" x1="585.031" y1="3126.46" x2="588.908" y2="3125.56" gradientUnits="userSpaceOnUse">
<stop stop-color="#FF5C5C"/>
<stop offset="0.3" stop-color="#F44444"/>
<stop offset="0.93" stop-color="#D60707"/>
<stop offset="1" stop-color="#D30000"/>
</linearGradient>
<linearGradient id="paint3_linear_127_2688" x1="3946.46" y1="-2197.48" x2="3940.86" y2="-2179.57" gradientUnits="userSpaceOnUse">
<stop stop-color="#FF5C5C"/>
<stop offset="0.3" stop-color="#F44444"/>
<stop offset="0.93" stop-color="#D60707"/>
<stop offset="1" stop-color="#D30000"/>
</linearGradient>
<linearGradient id="paint4_linear_127_2688" x1="12502.6" y1="1745.79" x2="12498.2" y2="1764.93" gradientUnits="userSpaceOnUse">
<stop stop-color="#FF5C5C"/>
<stop offset="0.3" stop-color="#F44444"/>
<stop offset="0.93" stop-color="#D60707"/>
<stop offset="1" stop-color="#D30000"/>
</linearGradient>
<linearGradient id="paint5_linear_127_2688" x1="-157.778" y1="3876.29" x2="-152.512" y2="3883.05" gradientUnits="userSpaceOnUse">
<stop stop-color="#FF5C5C"/>
<stop offset="0.3" stop-color="#F44444"/>
<stop offset="0.93" stop-color="#D60707"/>
<stop offset="1" stop-color="#D30000"/>
</linearGradient>
<linearGradient id="paint6_linear_127_2688" x1="93.1344" y1="3668.88" x2="98.4061" y2="3675.67" gradientUnits="userSpaceOnUse">
<stop stop-color="#FF5C5C"/>
<stop offset="0.3" stop-color="#F44444"/>
<stop offset="0.93" stop-color="#D60707"/>
<stop offset="1" stop-color="#D30000"/>
</linearGradient>
<linearGradient id="paint7_linear_127_2688" x1="231.697" y1="3304.97" x2="234.722" y2="3304.9" gradientUnits="userSpaceOnUse">
<stop stop-color="#FF5C5C"/>
<stop offset="0.3" stop-color="#F44444"/>
<stop offset="0.93" stop-color="#D60707"/>
<stop offset="1" stop-color="#D30000"/>
</linearGradient>
<linearGradient id="paint8_linear_127_2688" x1="8549.49" y1="5247.61" x2="8541.15" y2="5255.05" gradientUnits="userSpaceOnUse">
<stop stop-color="#FF5C5C"/>
<stop offset="0.3" stop-color="#F44444"/>
<stop offset="0.93" stop-color="#D60707"/>
<stop offset="1" stop-color="#D30000"/>
</linearGradient>
<linearGradient id="paint9_linear_127_2688" x1="-569.41" y1="-2481.25" x2="-563.654" y2="-2457.19" gradientUnits="userSpaceOnUse">
<stop stop-color="#FF5C5C"/>
<stop offset="0.3" stop-color="#F44444"/>
<stop offset="0.93" stop-color="#D60707"/>
<stop offset="1" stop-color="#D30000"/>
</linearGradient>
<linearGradient id="paint10_linear_127_2688" x1="-146.259" y1="-2931.65" x2="-140.504" y2="-2907.67" gradientUnits="userSpaceOnUse">
<stop stop-color="#FF5C5C"/>
<stop offset="0.3" stop-color="#F44444"/>
<stop offset="0.93" stop-color="#D60707"/>
<stop offset="1" stop-color="#D30000"/>
</linearGradient>
<linearGradient id="paint11_linear_127_2688" x1="4722.82" y1="68.8418" x2="4715.26" y2="73.8647" gradientUnits="userSpaceOnUse">
<stop stop-color="#FF5C5C"/>
<stop offset="0.3" stop-color="#F44444"/>
<stop offset="0.93" stop-color="#D60707"/>
<stop offset="1" stop-color="#D30000"/>
</linearGradient>
<linearGradient id="paint12_linear_127_2688" x1="12383.5" y1="31168.1" x2="12370.9" y2="31190.9" gradientUnits="userSpaceOnUse">
<stop stop-color="#FF5C5C"/>
<stop offset="0.3" stop-color="#F44444"/>
<stop offset="0.93" stop-color="#D60707"/>
<stop offset="1" stop-color="#D30000"/>
</linearGradient>
<linearGradient id="paint13_linear_127_2688" x1="263.74" y1="13.8803" x2="265.671" y2="8.18477" gradientUnits="userSpaceOnUse">
<stop stop-color="#4D8EFF"/>
<stop offset="0.43" stop-color="#3F76FF"/>
<stop offset="1" stop-color="#2850FF"/>
</linearGradient>
<linearGradient id="paint14_linear_127_2688" x1="374.147" y1="2594.25" x2="377.572" y2="2594.06" gradientUnits="userSpaceOnUse">
<stop stop-color="#4D8EFF"/>
<stop offset="0.43" stop-color="#3F76FF"/>
<stop offset="1" stop-color="#2850FF"/>
</linearGradient>
<linearGradient id="paint15_linear_127_2688" x1="-5362.5" y1="6012.01" x2="-5386.36" y2="5985" gradientUnits="userSpaceOnUse">
<stop stop-color="#4D8EFF"/>
<stop offset="0.43" stop-color="#3F76FF"/>
<stop offset="1" stop-color="#2850FF"/>
</linearGradient>
<linearGradient id="paint16_linear_127_2688" x1="7210.61" y1="4674.82" x2="7203.63" y2="4676.08" gradientUnits="userSpaceOnUse">
<stop stop-color="#4D8EFF"/>
<stop offset="0.43" stop-color="#3F76FF"/>
<stop offset="1" stop-color="#2850FF"/>
</linearGradient>
<linearGradient id="paint17_linear_127_2688" x1="3827.56" y1="821.732" x2="3822.25" y2="822.508" gradientUnits="userSpaceOnUse">
<stop stop-color="#4D8EFF"/>
<stop offset="0.43" stop-color="#3F76FF"/>
<stop offset="1" stop-color="#2850FF"/>
</linearGradient>
<linearGradient id="paint18_linear_127_2688" x1="2042.73" y1="1341.11" x2="2038.3" y2="1346.18" gradientUnits="userSpaceOnUse">
<stop stop-color="#4D8EFF"/>
<stop offset="0.43" stop-color="#3F76FF"/>
<stop offset="1" stop-color="#2850FF"/>
</linearGradient>
<linearGradient id="paint19_linear_127_2688" x1="1269.27" y1="3819.32" x2="1273.2" y2="3821.05" gradientUnits="userSpaceOnUse">
<stop stop-color="#4D8EFF"/>
<stop offset="0.43" stop-color="#3F76FF"/>
<stop offset="1" stop-color="#2850FF"/>
</linearGradient>
<linearGradient id="paint20_linear_127_2688" x1="6982.17" y1="14682.3" x2="6972.12" y2="14683.8" gradientUnits="userSpaceOnUse">
<stop stop-color="#4D8EFF"/>
<stop offset="0.43" stop-color="#3F76FF"/>
<stop offset="1" stop-color="#2850FF"/>
</linearGradient>
<linearGradient id="paint21_linear_127_2688" x1="-2287.37" y1="4076.72" x2="-2272.48" y2="4090.34" gradientUnits="userSpaceOnUse">
<stop stop-color="#4D8EFF"/>
<stop offset="0.43" stop-color="#3F76FF"/>
<stop offset="1" stop-color="#2850FF"/>
</linearGradient>
<linearGradient id="paint22_linear_127_2688" x1="4560.08" y1="25187.9" x2="4575.2" y2="25179.4" gradientUnits="userSpaceOnUse">
<stop stop-color="#4D8EFF"/>
<stop offset="0.43" stop-color="#3F76FF"/>
<stop offset="1" stop-color="#2850FF"/>
</linearGradient>
<linearGradient id="paint23_linear_127_2688" x1="25943.8" y1="14134.6" x2="25919.5" y2="14124.5" gradientUnits="userSpaceOnUse">
<stop stop-color="#4D8EFF"/>
<stop offset="0.43" stop-color="#3F76FF"/>
<stop offset="1" stop-color="#2850FF"/>
</linearGradient>
<linearGradient id="paint24_linear_127_2688" x1="7269.16" y1="22497.3" x2="7279.63" y2="22490.4" gradientUnits="userSpaceOnUse">
<stop stop-color="#4D8EFF"/>
<stop offset="0.43" stop-color="#3F76FF"/>
<stop offset="1" stop-color="#2850FF"/>
</linearGradient>
<linearGradient id="paint25_linear_127_2688" x1="5994.59" y1="10144.1" x2="5990.94" y2="10151.2" gradientUnits="userSpaceOnUse">
<stop stop-color="#4D8EFF"/>
<stop offset="0.43" stop-color="#3F76FF"/>
<stop offset="1" stop-color="#2850FF"/>
</linearGradient>
<linearGradient id="paint26_linear_127_2688" x1="-442.922" y1="12830.2" x2="-464.662" y2="12831.2" gradientUnits="userSpaceOnUse">
<stop stop-color="#4D8EFF"/>
<stop offset="0.43" stop-color="#3F76FF"/>
<stop offset="1" stop-color="#2850FF"/>
</linearGradient>
<linearGradient id="paint27_linear_127_2688" x1="-6332.96" y1="7965.23" x2="-6323.07" y2="7943.6" gradientUnits="userSpaceOnUse">
<stop stop-color="#4D8EFF"/>
<stop offset="0.43" stop-color="#3F76FF"/>
<stop offset="1" stop-color="#2850FF"/>
</linearGradient>
<linearGradient id="paint28_linear_127_2688" x1="255.343" y1="103.552" x2="258.23" y2="104.841" gradientUnits="userSpaceOnUse">
<stop stop-color="#FC9512"/>
<stop offset="0.01" stop-color="#FC9612"/>
<stop offset="0.68" stop-color="#FED319"/>
<stop offset="1" stop-color="#FFEB1C"/>
</linearGradient>
<linearGradient id="paint29_linear_127_2688" x1="-2471.3" y1="13400.8" x2="-2445.5" y2="13405.9" gradientUnits="userSpaceOnUse">
<stop stop-color="#FC9512"/>
<stop offset="0.01" stop-color="#FC9612"/>
<stop offset="0.68" stop-color="#FED319"/>
<stop offset="1" stop-color="#FFEB1C"/>
</linearGradient>
<linearGradient id="paint30_linear_127_2688" x1="2679.77" y1="1453.37" x2="2685.08" y2="1458.95" gradientUnits="userSpaceOnUse">
<stop stop-color="#FC9512"/>
<stop offset="0.01" stop-color="#FC9612"/>
<stop offset="0.68" stop-color="#FED319"/>
<stop offset="1" stop-color="#FFEB1C"/>
</linearGradient>
<linearGradient id="paint31_linear_127_2688" x1="9894.21" y1="9420.11" x2="9906.21" y2="9425.73" gradientUnits="userSpaceOnUse">
<stop stop-color="#FC9512"/>
<stop offset="0.01" stop-color="#FC9612"/>
<stop offset="0.68" stop-color="#FED319"/>
<stop offset="1" stop-color="#FFEB1C"/>
</linearGradient>
<linearGradient id="paint32_linear_127_2688" x1="-615.383" y1="11579" x2="-638.639" y2="11573.3" gradientUnits="userSpaceOnUse">
<stop stop-color="#FC9512"/>
<stop offset="0.01" stop-color="#FC9612"/>
<stop offset="0.68" stop-color="#FED319"/>
<stop offset="1" stop-color="#FFEB1C"/>
</linearGradient>
<linearGradient id="paint33_linear_127_2688" x1="7346.48" y1="4901.09" x2="7339.07" y2="4897.77" gradientUnits="userSpaceOnUse">
<stop stop-color="#FC9512"/>
<stop offset="0.01" stop-color="#FC9612"/>
<stop offset="0.68" stop-color="#FED319"/>
<stop offset="1" stop-color="#FFEB1C"/>
</linearGradient>
<linearGradient id="paint34_linear_127_2688" x1="2007.26" y1="6927.79" x2="2003.48" y2="6925.52" gradientUnits="userSpaceOnUse">
<stop stop-color="#FC9512"/>
<stop offset="0.01" stop-color="#FC9612"/>
<stop offset="0.68" stop-color="#FED319"/>
<stop offset="1" stop-color="#FFEB1C"/>
</linearGradient>
<linearGradient id="paint35_linear_127_2688" x1="1546.94" y1="1838.79" x2="1549.18" y2="1842.1" gradientUnits="userSpaceOnUse">
<stop stop-color="#FC9512"/>
<stop offset="0.01" stop-color="#FC9612"/>
<stop offset="0.68" stop-color="#FED319"/>
<stop offset="1" stop-color="#FFEB1C"/>
</linearGradient>
<linearGradient id="paint36_linear_127_2688" x1="19271.7" y1="15038.4" x2="19269.3" y2="15013.1" gradientUnits="userSpaceOnUse">
<stop stop-color="#FC9512"/>
<stop offset="0.01" stop-color="#FC9612"/>
<stop offset="0.68" stop-color="#FED319"/>
<stop offset="1" stop-color="#FFEB1C"/>
</linearGradient>
<linearGradient id="paint37_linear_127_2688" x1="-3567.01" y1="4034.54" x2="-3557.43" y2="4052.72" gradientUnits="userSpaceOnUse">
<stop stop-color="#FC9512"/>
<stop offset="0.01" stop-color="#FC9612"/>
<stop offset="0.68" stop-color="#FED319"/>
<stop offset="1" stop-color="#FFEB1C"/>
</linearGradient>
<linearGradient id="paint38_linear_127_2688" x1="-620.649" y1="11210.3" x2="-616.196" y2="11199.5" gradientUnits="userSpaceOnUse">
<stop stop-color="#FC9512"/>
<stop offset="0.01" stop-color="#FC9612"/>
<stop offset="0.68" stop-color="#FED319"/>
<stop offset="1" stop-color="#FFEB1C"/>
</linearGradient>
<linearGradient id="paint39_linear_127_2688" x1="3109.73" y1="12547.1" x2="3119.09" y2="12542.5" gradientUnits="userSpaceOnUse">
<stop stop-color="#FC9512"/>
<stop offset="0.01" stop-color="#FC9612"/>
<stop offset="0.68" stop-color="#FED319"/>
<stop offset="1" stop-color="#FFEB1C"/>
</linearGradient>
<linearGradient id="paint40_linear_127_2688" x1="4817.28" y1="42302.5" x2="4853.12" y2="42284.6" gradientUnits="userSpaceOnUse">
<stop stop-color="#FC9512"/>
<stop offset="0.01" stop-color="#FC9612"/>
<stop offset="0.68" stop-color="#FED319"/>
<stop offset="1" stop-color="#FFEB1C"/>
</linearGradient>
<linearGradient id="paint41_linear_127_2688" x1="19868.3" y1="15930.1" x2="19856.9" y2="15913.1" gradientUnits="userSpaceOnUse">
<stop stop-color="#FC9512"/>
<stop offset="0.01" stop-color="#FC9612"/>
<stop offset="0.68" stop-color="#FED319"/>
<stop offset="1" stop-color="#FFEB1C"/>
</linearGradient>
<linearGradient id="paint42_linear_127_2688" x1="4430.97" y1="31643" x2="4448.08" y2="31632.7" gradientUnits="userSpaceOnUse">
<stop stop-color="#FC9512"/>
<stop offset="0.01" stop-color="#FC9612"/>
<stop offset="0.68" stop-color="#FED319"/>
<stop offset="1" stop-color="#FFEB1C"/>
</linearGradient>
<linearGradient id="paint43_linear_127_2688" x1="1384.14" y1="995.121" x2="1380.78" y2="998.199" gradientUnits="userSpaceOnUse">
<stop stop-color="#FC9512"/>
<stop offset="0.01" stop-color="#FC9612"/>
<stop offset="0.68" stop-color="#FED319"/>
<stop offset="1" stop-color="#FFEB1C"/>
</linearGradient>
<linearGradient id="paint44_linear_127_2688" x1="13823.9" y1="-3005.74" x2="13812.8" y2="-2955.77" gradientUnits="userSpaceOnUse">
<stop stop-color="#FC9512"/>
<stop offset="0.01" stop-color="#FC9612"/>
<stop offset="0.68" stop-color="#FED319"/>
<stop offset="1" stop-color="#FFEB1C"/>
</linearGradient>
<linearGradient id="paint45_linear_127_2688" x1="1802.52" y1="488.749" x2="1819.4" y2="490.589" gradientUnits="userSpaceOnUse">
<stop stop-color="#FC9512"/>
<stop offset="0.01" stop-color="#FC9612"/>
<stop offset="0.68" stop-color="#FED319"/>
<stop offset="1" stop-color="#FFEB1C"/>
</linearGradient>
<linearGradient id="paint46_linear_127_2688" x1="4282.19" y1="-6176.14" x2="4269.87" y2="-6153.52" gradientUnits="userSpaceOnUse">
<stop stop-color="#FC9512"/>
<stop offset="0.01" stop-color="#FC9612"/>
<stop offset="0.68" stop-color="#FED319"/>
<stop offset="1" stop-color="#FFEB1C"/>
</linearGradient>
<linearGradient id="paint47_linear_127_2688" x1="-2544.73" y1="14070.3" x2="-2526.39" y2="14069.4" gradientUnits="userSpaceOnUse">
<stop stop-color="#FC9512"/>
<stop offset="0.01" stop-color="#FC9612"/>
<stop offset="0.68" stop-color="#FED319"/>
<stop offset="1" stop-color="#FFEB1C"/>
</linearGradient>
<linearGradient id="paint48_linear_127_2688" x1="2442.47" y1="27614.3" x2="2461.82" y2="27607.7" gradientUnits="userSpaceOnUse">
<stop stop-color="#FC9512"/>
<stop offset="0.01" stop-color="#FC9612"/>
<stop offset="0.68" stop-color="#FED319"/>
<stop offset="1" stop-color="#FFEB1C"/>
</linearGradient>
<linearGradient id="paint49_linear_127_2688" x1="97.9379" y1="76.1486" x2="95.8" y2="74.7474" gradientUnits="userSpaceOnUse">
<stop stop-color="#FF3EB9"/>
<stop offset="0.04" stop-color="#FF44BC"/>
<stop offset="0.7" stop-color="#FF98E3"/>
<stop offset="1" stop-color="#FFB9F2"/>
</linearGradient>
<linearGradient id="paint50_linear_127_2688" x1="-1879" y1="-2077.91" x2="-1874.69" y2="-2101.93" gradientUnits="userSpaceOnUse">
<stop stop-color="#FF3EB9"/>
<stop offset="0.04" stop-color="#FF44BC"/>
<stop offset="0.7" stop-color="#FF98E3"/>
<stop offset="1" stop-color="#FFB9F2"/>
</linearGradient>
<linearGradient id="paint51_linear_127_2688" x1="3439.64" y1="6675.61" x2="3423.9" y2="6675.04" gradientUnits="userSpaceOnUse">
<stop stop-color="#FF3EB9"/>
<stop offset="0.04" stop-color="#FF44BC"/>
<stop offset="0.7" stop-color="#FF98E3"/>
<stop offset="1" stop-color="#FFB9F2"/>
</linearGradient>
<linearGradient id="paint52_linear_127_2688" x1="1040.49" y1="1700.2" x2="1043.58" y2="1706.15" gradientUnits="userSpaceOnUse">
<stop stop-color="#FF3EB9"/>
<stop offset="0.04" stop-color="#FF44BC"/>
<stop offset="0.7" stop-color="#FF98E3"/>
<stop offset="1" stop-color="#FFB9F2"/>
</linearGradient>
<linearGradient id="paint53_linear_127_2688" x1="13676.1" y1="20839.9" x2="13664.2" y2="20844.1" gradientUnits="userSpaceOnUse">
<stop stop-color="#FF3EB9"/>
<stop offset="0.04" stop-color="#FF44BC"/>
<stop offset="0.7" stop-color="#FF98E3"/>
<stop offset="1" stop-color="#FFB9F2"/>
</linearGradient>
<linearGradient id="paint54_linear_127_2688" x1="-6119.46" y1="8408.12" x2="-6105.59" y2="8394.2" gradientUnits="userSpaceOnUse">
<stop stop-color="#FF3EB9"/>
<stop offset="0.04" stop-color="#FF44BC"/>
<stop offset="0.7" stop-color="#FF98E3"/>
<stop offset="1" stop-color="#FFB9F2"/>
</linearGradient>
<linearGradient id="paint55_linear_127_2688" x1="2568.61" y1="1206.63" x2="2565.75" y2="1213.49" gradientUnits="userSpaceOnUse">
<stop stop-color="#FF3EB9"/>
<stop offset="0.04" stop-color="#FF44BC"/>
<stop offset="0.7" stop-color="#FF98E3"/>
<stop offset="1" stop-color="#FFB9F2"/>
</linearGradient>
<linearGradient id="paint56_linear_127_2688" x1="-224.082" y1="4395.89" x2="-219.277" y2="4393.57" gradientUnits="userSpaceOnUse">
<stop stop-color="#FF3EB9"/>
<stop offset="0.04" stop-color="#FF44BC"/>
<stop offset="0.7" stop-color="#FF98E3"/>
<stop offset="1" stop-color="#FFB9F2"/>
</linearGradient>
<linearGradient id="paint57_linear_127_2688" x1="6351.99" y1="829.359" x2="6340.32" y2="835.588" gradientUnits="userSpaceOnUse">
<stop stop-color="#FF3EB9"/>
<stop offset="0.04" stop-color="#FF44BC"/>
<stop offset="0.7" stop-color="#FF98E3"/>
<stop offset="1" stop-color="#FFB9F2"/>
</linearGradient>
<linearGradient id="paint58_linear_127_2688" x1="1869.1" y1="842.028" x2="1866.96" y2="849.359" gradientUnits="userSpaceOnUse">
<stop stop-color="#FF3EB9"/>
<stop offset="0.04" stop-color="#FF44BC"/>
<stop offset="0.7" stop-color="#FF98E3"/>
<stop offset="1" stop-color="#FFB9F2"/>
</linearGradient>
<linearGradient id="paint59_linear_127_2688" x1="7767.24" y1="-1077.2" x2="7764.42" y2="-1084.44" gradientUnits="userSpaceOnUse">
<stop stop-color="#FF3EB9"/>
<stop offset="0.04" stop-color="#FF44BC"/>
<stop offset="0.7" stop-color="#FF98E3"/>
<stop offset="1" stop-color="#FFB9F2"/>
</linearGradient>
<linearGradient id="paint60_linear_127_2688" x1="3317.36" y1="1818.37" x2="3326.45" y2="1823.17" gradientUnits="userSpaceOnUse">
<stop stop-color="#FF3EB9"/>
<stop offset="0.04" stop-color="#FF44BC"/>
<stop offset="0.7" stop-color="#FF98E3"/>
<stop offset="1" stop-color="#FFB9F2"/>
</linearGradient>
<linearGradient id="paint61_linear_127_2688" x1="3274.78" y1="1391.1" x2="3283.88" y2="1395.91" gradientUnits="userSpaceOnUse">
<stop stop-color="#FF3EB9"/>
<stop offset="0.04" stop-color="#FF44BC"/>
<stop offset="0.7" stop-color="#FF98E3"/>
<stop offset="1" stop-color="#FFB9F2"/>
</linearGradient>
<linearGradient id="paint62_linear_127_2688" x1="1078.14" y1="18081.7" x2="1080.8" y2="18053.8" gradientUnits="userSpaceOnUse">
<stop stop-color="#FF3EB9"/>
<stop offset="0.04" stop-color="#FF44BC"/>
<stop offset="0.7" stop-color="#FF98E3"/>
<stop offset="1" stop-color="#FFB9F2"/>
</linearGradient>
<linearGradient id="paint63_linear_127_2688" x1="127.18" y1="228.206" x2="128.665" y2="225.238" gradientUnits="userSpaceOnUse">
<stop stop-color="#00EE98"/>
<stop offset="0.28" stop-color="#00D685"/>
<stop offset="0.87" stop-color="#009955"/>
<stop offset="1" stop-color="#008A49"/>
</linearGradient>
<linearGradient id="paint64_linear_127_2688" x1="-180.975" y1="4269.35" x2="-172.893" y2="4279.08" gradientUnits="userSpaceOnUse">
<stop stop-color="#00EE98"/>
<stop offset="0.28" stop-color="#00D685"/>
<stop offset="0.87" stop-color="#009955"/>
<stop offset="1" stop-color="#008A49"/>
</linearGradient>
<linearGradient id="paint65_linear_127_2688" x1="4664.36" y1="8736.02" x2="4658.67" y2="8735.32" gradientUnits="userSpaceOnUse">
<stop stop-color="#00EE98"/>
<stop offset="0.28" stop-color="#00D685"/>
<stop offset="0.87" stop-color="#009955"/>
<stop offset="1" stop-color="#008A49"/>
</linearGradient>
<linearGradient id="paint66_linear_127_2688" x1="-3301.44" y1="29225.7" x2="-3287.54" y2="29190.5" gradientUnits="userSpaceOnUse">
<stop stop-color="#00EE98"/>
<stop offset="0.28" stop-color="#00D685"/>
<stop offset="0.87" stop-color="#009955"/>
<stop offset="1" stop-color="#008A49"/>
</linearGradient>
<linearGradient id="paint67_linear_127_2688" x1="-9443.58" y1="9293.12" x2="-9481.69" y2="9259.67" gradientUnits="userSpaceOnUse">
<stop stop-color="#00EE98"/>
<stop offset="0.28" stop-color="#00D685"/>
<stop offset="0.87" stop-color="#009955"/>
<stop offset="1" stop-color="#008A49"/>
</linearGradient>
<linearGradient id="paint68_linear_127_2688" x1="15374.3" y1="9017.82" x2="15364.2" y2="9005.22" gradientUnits="userSpaceOnUse">
<stop stop-color="#00EE98"/>
<stop offset="0.28" stop-color="#00D685"/>
<stop offset="0.87" stop-color="#009955"/>
<stop offset="1" stop-color="#008A49"/>
</linearGradient>
<linearGradient id="paint69_linear_127_2688" x1="16202.6" y1="12584.2" x2="16193.9" y2="12567.9" gradientUnits="userSpaceOnUse">
<stop stop-color="#00EE98"/>
<stop offset="0.28" stop-color="#00D685"/>
<stop offset="0.87" stop-color="#009955"/>
<stop offset="1" stop-color="#008A49"/>
</linearGradient>
<linearGradient id="paint70_linear_127_2688" x1="1935.45" y1="4429.42" x2="1932.61" y2="4428.48" gradientUnits="userSpaceOnUse">
<stop stop-color="#00EE98"/>
<stop offset="0.28" stop-color="#00D685"/>
<stop offset="0.87" stop-color="#009955"/>
<stop offset="1" stop-color="#008A49"/>
</linearGradient>
<linearGradient id="paint71_linear_127_2688" x1="-543.538" y1="5030.73" x2="-536.298" y2="5039.18" gradientUnits="userSpaceOnUse">
<stop stop-color="#00EE98"/>
<stop offset="0.28" stop-color="#00D685"/>
<stop offset="0.87" stop-color="#009955"/>
<stop offset="1" stop-color="#008A49"/>
</linearGradient>
<linearGradient id="paint72_linear_127_2688" x1="3397.87" y1="4863.2" x2="3395.1" y2="4864.14" gradientUnits="userSpaceOnUse">
<stop stop-color="#00EE98"/>
<stop offset="0.28" stop-color="#00D685"/>
<stop offset="0.87" stop-color="#009955"/>
<stop offset="1" stop-color="#008A49"/>
</linearGradient>
<linearGradient id="paint73_linear_127_2688" x1="21280.6" y1="21869.7" x2="21271.3" y2="21833.5" gradientUnits="userSpaceOnUse">
<stop stop-color="#00EE98"/>
<stop offset="0.28" stop-color="#00D685"/>
<stop offset="0.87" stop-color="#009955"/>
<stop offset="1" stop-color="#008A49"/>
</linearGradient>
<linearGradient id="paint74_linear_127_2688" x1="8343.09" y1="6939.92" x2="8333.4" y2="6936.64" gradientUnits="userSpaceOnUse">
<stop stop-color="#00EE98"/>
<stop offset="0.28" stop-color="#00D685"/>
<stop offset="0.87" stop-color="#009955"/>
<stop offset="1" stop-color="#008A49"/>
</linearGradient>
<linearGradient id="paint75_linear_127_2688" x1="21006" y1="-4117.86" x2="20983.8" y2="-4112.15" gradientUnits="userSpaceOnUse">
<stop stop-color="#00EE98"/>
<stop offset="0.28" stop-color="#00D685"/>
<stop offset="0.87" stop-color="#009955"/>
<stop offset="1" stop-color="#008A49"/>
</linearGradient>
<linearGradient id="paint76_linear_127_2688" x1="9272.29" y1="-4530.95" x2="9259.13" y2="-4524.5" gradientUnits="userSpaceOnUse">
<stop stop-color="#00EE98"/>
<stop offset="0.28" stop-color="#00D685"/>
<stop offset="0.87" stop-color="#009955"/>
<stop offset="1" stop-color="#008A49"/>
</linearGradient>
<linearGradient id="paint77_linear_127_2688" x1="4581.78" y1="1555.43" x2="4582.42" y2="1550.75" gradientUnits="userSpaceOnUse">
<stop stop-color="#00EE98"/>
<stop offset="0.28" stop-color="#00D685"/>
<stop offset="0.87" stop-color="#009955"/>
<stop offset="1" stop-color="#008A49"/>
</linearGradient>
<linearGradient id="paint78_linear_127_2688" x1="-1451.79" y1="26011.6" x2="-1439.93" y2="25965.7" gradientUnits="userSpaceOnUse">
<stop stop-color="#00EE98"/>
<stop offset="0.28" stop-color="#00D685"/>
<stop offset="0.87" stop-color="#009955"/>
<stop offset="1" stop-color="#008A49"/>
</linearGradient>
<linearGradient id="paint79_linear_127_2688" x1="15059.4" y1="18089.7" x2="15041.5" y2="18096.1" gradientUnits="userSpaceOnUse">
<stop stop-color="#00EE98"/>
<stop offset="0.28" stop-color="#00D685"/>
<stop offset="0.87" stop-color="#009955"/>
<stop offset="1" stop-color="#008A49"/>
</linearGradient>
<linearGradient id="paint80_linear_127_2688" x1="606.606" y1="1131.01" x2="607.994" y2="1137.23" gradientUnits="userSpaceOnUse">
<stop stop-color="#00EE98"/>
<stop offset="0.28" stop-color="#00D685"/>
<stop offset="0.87" stop-color="#009955"/>
<stop offset="1" stop-color="#008A49"/>
</linearGradient>
<linearGradient id="paint81_linear_127_2688" x1="-2492.33" y1="34497.1" x2="-2460.18" y2="34490.1" gradientUnits="userSpaceOnUse">
<stop stop-color="#00EE98"/>
<stop offset="0.28" stop-color="#00D685"/>
<stop offset="0.87" stop-color="#009955"/>
<stop offset="1" stop-color="#008A49"/>
</linearGradient>
<linearGradient id="paint82_linear_127_2688" x1="11730.2" y1="7103.64" x2="11741" y2="7106.92" gradientUnits="userSpaceOnUse">
<stop stop-color="#00EE98"/>
<stop offset="0.28" stop-color="#00D685"/>
<stop offset="0.87" stop-color="#009955"/>
<stop offset="1" stop-color="#008A49"/>
</linearGradient>
<clipPath id="clip0_127_2688">
<rect width="414" height="329" fill="white"/>
</clipPath>
</defs>
</svg>
