<svg width="305" height="305" viewBox="0 0 305 305" fill="none" xmlns="http://www.w3.org/2000/svg">
<path d="M305 233.264H0V233.417H305V233.264Z" fill="#EBEBEB"/>
<path d="M264.611 239.754H244.408V239.907H264.611V239.754Z" fill="#EBEBEB"/>
<path d="M190.973 239.681H185.672V239.834H190.973V239.681Z" fill="#EBEBEB"/>
<path d="M274.439 243.079H262.733V243.231H274.439V243.079Z" fill="#EBEBEB"/>
<path d="M69.9055 245.104H43.5596V245.257H69.9055V245.104Z" fill="#EBEBEB"/>
<path d="M67.6435 238.443H63.7822V238.595H67.6435V238.443Z" fill="#EBEBEB"/>
<path d="M151.554 239.096H114.405V239.248H151.554V239.096Z" fill="#EBEBEB"/>
<path d="M144.57 206.058H26.7846C25.8619 206.056 24.9775 205.689 24.3256 205.036C23.6737 204.383 23.3076 203.498 23.3076 202.575V37.0026C23.3156 36.0852 23.6853 35.208 24.3363 34.5616C24.9874 33.9151 25.8672 33.5516 26.7846 33.55H144.57C145.493 33.55 146.379 33.917 147.032 34.5702C147.686 35.2234 148.053 36.1094 148.053 37.0331V202.575C148.053 203.499 147.686 204.385 147.032 205.038C146.379 205.691 145.493 206.058 144.57 206.058ZM26.7846 33.672C25.9023 33.6737 25.0568 34.0253 24.4335 34.6497C23.8102 35.2741 23.4601 36.1204 23.4601 37.0026V202.575C23.4601 203.457 23.8102 204.303 24.4335 204.928C25.0568 205.552 25.9023 205.904 26.7846 205.906H144.57C145.452 205.904 146.299 205.553 146.923 204.928C147.547 204.304 147.899 203.458 147.9 202.575V37.0026C147.899 36.1198 147.547 35.2736 146.923 34.6493C146.299 34.0251 145.452 33.6737 144.57 33.672H26.7846Z" fill="#EBEBEB"/>
<path d="M276.519 206.058H158.728C157.805 206.056 156.92 205.689 156.267 205.036C155.614 204.383 155.247 203.498 155.245 202.575V37.0026C155.255 36.0847 155.626 35.2075 156.278 34.5612C156.93 33.9149 157.81 33.5516 158.728 33.55H276.519C277.436 33.5532 278.314 33.9174 278.964 34.5637C279.613 35.21 279.982 36.0863 279.99 37.0026V202.575C279.99 203.497 279.625 204.381 278.974 205.034C278.324 205.686 277.441 206.055 276.519 206.058ZM158.728 33.672C157.845 33.6737 156.999 34.0251 156.375 34.6493C155.751 35.2736 155.399 36.1198 155.398 37.0026V202.575C155.399 203.458 155.751 204.304 156.375 204.928C156.999 205.553 157.845 205.904 158.728 205.906H276.519C277.402 205.904 278.248 205.553 278.872 204.928C279.497 204.304 279.848 203.458 279.85 202.575V37.0026C279.848 36.1198 279.497 35.2736 278.872 34.6493C278.248 34.0251 277.402 33.6737 276.519 33.672H158.728Z" fill="#EBEBEB"/>
<path d="M261.623 58.7615H43.377V149.584H261.623V58.7615Z" fill="#F0F0F0"/>
<path d="M257.353 145.32V63.0374L47.6467 63.0374V145.32H257.353Z" fill="#FAFAFA"/>
<path d="M75.2559 145.314L96.7645 63.0312H112.624L91.1159 145.314H75.2559Z" fill="white"/>
<path d="M94.7754 145.314L116.284 63.0312H123.378L101.87 145.314H94.7754Z" fill="white"/>
<path d="M129.484 145.314L150.999 63.0312H166.859L145.344 145.314H129.484Z" fill="white"/>
<path d="M169.477 145.314L190.985 63.0312H198.086L176.571 145.314H169.477Z" fill="white"/>
<path d="M103.828 145.32V63.0374H102.742V145.32H103.828Z" fill="#E0E0E0"/>
<path d="M48.7324 145.32L48.7324 63.0374H47.6466L47.6466 145.32H48.7324Z" fill="#E0E0E0"/>
<path d="M102.742 145.32V63.0374H98.4722V145.32H102.742Z" fill="#F0F0F0"/>
<path d="M156.771 145.32V63.0374H155.685V145.32H156.771Z" fill="#E0E0E0"/>
<path d="M155.684 145.32V63.0374H151.414V145.32H155.684Z" fill="#F0F0F0"/>
<path d="M209.736 145.314V63.0312H208.651V145.314H209.736Z" fill="#E0E0E0"/>
<path d="M208.65 145.314V63.0312H204.38V145.314H208.65Z" fill="#F0F0F0"/>
<path d="M262.708 149.584V58.7612H261.622V149.584H262.708Z" fill="#E0E0E0"/>
<path d="M265.148 52.5272H39.8508C39.6005 52.5256 39.3609 52.4255 39.184 52.2485C39.007 52.0716 38.9069 51.832 38.9053 51.5817C38.9053 51.3304 39.0047 51.0893 39.1818 50.911C39.359 50.7327 39.5995 50.6317 39.8508 50.6301H265.148C265.4 50.6317 265.64 50.7327 265.817 50.911C265.994 51.0893 266.094 51.3304 266.094 51.5817C266.092 51.832 265.992 52.0716 265.815 52.2485C265.638 52.4255 265.398 52.5256 265.148 52.5272Z" fill="#E0E0E0"/>
<g opacity="0.6">
<path opacity="0.6" d="M86.8279 48.8H40.7363V214.519H86.8279V48.8Z" fill="#F5F5F5"/>
<path opacity="0.6" d="M65.7099 215.873H61.8486L62.9344 50.1543H64.6607L65.7099 215.873Z" fill="#E6E6E6"/>
<path opacity="0.6" d="M52.9184 215.873H51.0518L51.5764 50.1543H52.4121L52.9184 215.873Z" fill="#E6E6E6"/>
<path opacity="0.6" d="M78.5385 215.873H76.6719L77.1965 50.1543H78.0322L78.5385 215.873Z" fill="#E6E6E6"/>
</g>
<g opacity="0.6">
<path opacity="0.6" d="M263.716 48.8H217.624V214.519H263.716V48.8Z" fill="#F5F5F5"/>
<path opacity="0.6" d="M235.686 215.873H231.825L232.911 50.1543H234.637L235.686 215.873Z" fill="#E6E6E6"/>
<path opacity="0.6" d="M227.164 215.873H225.304L225.822 50.1543H226.658L227.164 215.873Z" fill="#E6E6E6"/>
<path opacity="0.6" d="M246.886 215.873H245.025L245.55 50.1543H246.38L246.886 215.873Z" fill="#E6E6E6"/>
<path opacity="0.6" d="M256.377 215.873H254.517L255.035 50.1543H255.871L256.377 215.873Z" fill="#E6E6E6"/>
</g>
<path d="M198.377 232.227H207.039V182.585H198.377V232.227Z" fill="#E6E6E6"/>
<path d="M97.959 232.227H201.714V182.585H97.959V232.227Z" fill="#F0F0F0"/>
<path d="M199.385 232.227H196.262H102.438V233.264H196.262H199.385H202.563V232.227H199.385Z" fill="#E0E0E0"/>
<path opacity="0.5" d="M100.918 205.723H198.756V185.69H100.918V205.723Z" fill="#FAFAFA"/>
<path opacity="0.5" d="M100.918 228.988H198.756V208.956H100.918V228.988Z" fill="#FAFAFA"/>
<path d="M115.748 195.706C115.748 196.142 115.619 196.568 115.377 196.93C115.135 197.292 114.791 197.574 114.389 197.741C113.986 197.907 113.543 197.951 113.116 197.866C112.689 197.781 112.297 197.571 111.989 197.263C111.681 196.955 111.471 196.563 111.386 196.136C111.301 195.709 111.345 195.266 111.511 194.864C111.678 194.461 111.96 194.117 112.322 193.875C112.685 193.633 113.11 193.504 113.546 193.504C113.835 193.504 114.121 193.561 114.389 193.672C114.656 193.782 114.898 193.945 115.103 194.149C115.307 194.354 115.47 194.596 115.58 194.864C115.691 195.131 115.748 195.417 115.748 195.706Z" fill="#E0E0E0"/>
<path d="M188.325 195.706C188.325 196.142 188.196 196.568 187.954 196.93C187.712 197.292 187.368 197.574 186.966 197.741C186.563 197.907 186.121 197.951 185.693 197.866C185.266 197.781 184.874 197.571 184.566 197.263C184.258 196.955 184.048 196.563 183.963 196.136C183.878 195.709 183.922 195.266 184.089 194.864C184.255 194.461 184.537 194.117 184.9 193.875C185.262 193.633 185.687 193.504 186.123 193.504C186.412 193.504 186.699 193.561 186.966 193.672C187.233 193.782 187.476 193.945 187.68 194.149C187.885 194.354 188.047 194.596 188.157 194.864C188.268 195.131 188.325 195.417 188.325 195.706Z" fill="#E0E0E0"/>
<path d="M113.546 221.174C114.762 221.174 115.748 220.188 115.748 218.972C115.748 217.755 114.762 216.77 113.546 216.77C112.33 216.77 111.344 217.755 111.344 218.972C111.344 220.188 112.33 221.174 113.546 221.174Z" fill="#E0E0E0"/>
<path d="M188.325 218.99C188.325 219.425 188.196 219.851 187.954 220.213C187.712 220.575 187.368 220.858 186.966 221.024C186.563 221.191 186.121 221.235 185.693 221.15C185.266 221.065 184.874 220.855 184.566 220.547C184.258 220.239 184.048 219.847 183.963 219.42C183.878 218.992 183.922 218.55 184.089 218.147C184.255 217.745 184.537 217.401 184.9 217.159C185.262 216.917 185.687 216.788 186.123 216.788C186.707 216.788 187.267 217.02 187.68 217.433C188.093 217.846 188.325 218.406 188.325 218.99Z" fill="#E0E0E0"/>
<path d="M152.036 195.706C152.036 196.142 151.907 196.568 151.665 196.93C151.423 197.292 151.079 197.574 150.677 197.741C150.274 197.907 149.831 197.951 149.404 197.866C148.977 197.781 148.585 197.571 148.277 197.263C147.969 196.955 147.759 196.563 147.674 196.136C147.589 195.709 147.633 195.266 147.799 194.864C147.966 194.461 148.248 194.117 148.611 193.875C148.973 193.633 149.398 193.504 149.834 193.504C150.123 193.504 150.409 193.561 150.677 193.672C150.944 193.782 151.187 193.945 151.391 194.149C151.596 194.354 151.758 194.596 151.868 194.864C151.979 195.131 152.036 195.417 152.036 195.706Z" fill="#E0E0E0"/>
<path d="M149.834 221.174C151.05 221.174 152.036 220.188 152.036 218.972C152.036 217.755 151.05 216.77 149.834 216.77C148.618 216.77 147.632 217.755 147.632 218.972C147.632 220.188 148.618 221.174 149.834 221.174Z" fill="#E0E0E0"/>
<path d="M195.297 174.155C195.297 176.391 194.409 178.535 192.828 180.116C191.247 181.697 189.103 182.585 186.867 182.585C184.631 182.585 182.487 181.697 180.906 180.116C179.325 178.535 178.437 176.391 178.437 174.155H195.297Z" fill="#F0F0F0"/>
<path d="M128.642 172.63C128.642 175.265 127.595 177.793 125.732 179.656C123.868 181.52 121.341 182.567 118.705 182.567C116.07 182.567 113.543 181.52 111.679 179.656C109.815 177.793 108.769 175.265 108.769 172.63H128.642Z" fill="#F0F0F0"/>
<path d="M171.361 176.735C171.361 178.287 170.745 179.775 169.648 180.872C168.55 181.969 167.063 182.585 165.511 182.585C163.96 182.585 162.472 181.969 161.375 180.872C160.277 179.775 159.661 178.287 159.661 176.735H171.361Z" fill="#F0F0F0"/>
<path d="M152.5 260.811C217.821 260.811 270.773 257.72 270.773 253.906C270.773 250.093 217.821 247.001 152.5 247.001C87.1801 247.001 34.2275 250.093 34.2275 253.906C34.2275 257.72 87.1801 260.811 152.5 260.811Z" fill="#F5F5F5"/>
<path d="M212.371 70.3697C211.072 69.0704 208.571 64.1477 210.968 61.8297C213.366 59.5117 215.501 61.6162 215.665 62.7447C215.83 63.8732 215.391 73.3831 212.371 70.3697Z" fill="#263238"/>
<path d="M211.823 247.447L206.376 247.495L204.894 234.905L210.335 234.856L211.823 247.447Z" fill="#FF8B7B"/>
<path d="M206.369 246.867L212.311 246.812C212.42 246.814 212.526 246.85 212.614 246.916C212.702 246.981 212.766 247.073 212.799 247.178L214.238 252.003C214.276 252.115 214.287 252.235 214.269 252.353C214.251 252.47 214.205 252.581 214.135 252.677C214.065 252.773 213.973 252.85 213.867 252.903C213.761 252.955 213.643 252.982 213.524 252.979C211.383 252.979 208.272 252.863 205.594 252.888C202.447 252.888 201.044 253.107 197.347 253.144C195.115 253.144 194.297 250.911 195.243 250.704C199.433 249.734 201.599 249.606 205.106 247.306C205.476 247.04 205.914 246.887 206.369 246.867Z" fill="#263238"/>
<path opacity="0.2" d="M204.894 234.911L205.662 241.402L211.103 241.353L210.341 234.862L204.894 234.911Z" fill="black"/>
<path d="M204.118 247.837C204.706 247.826 205.29 247.755 205.863 247.623C205.89 247.619 205.915 247.606 205.934 247.586C205.953 247.567 205.964 247.541 205.967 247.514C205.969 247.487 205.963 247.461 205.95 247.438C205.937 247.415 205.917 247.397 205.893 247.386C205.637 247.257 203.35 246.165 202.721 246.55C202.663 246.587 202.616 246.638 202.584 246.699C202.552 246.76 202.536 246.829 202.538 246.898C202.537 247.015 202.563 247.131 202.613 247.237C202.664 247.343 202.739 247.435 202.831 247.508C203.213 247.755 203.665 247.871 204.118 247.837ZM205.424 247.447C204.246 247.654 203.35 247.611 202.984 247.318C202.92 247.269 202.87 247.205 202.837 247.131C202.804 247.058 202.789 246.978 202.795 246.898C202.791 246.873 202.795 246.847 202.806 246.824C202.817 246.801 202.834 246.782 202.856 246.769C203.197 246.562 204.49 247.05 205.424 247.447Z" fill="#407BFF"/>
<path d="M205.838 247.66C205.867 247.658 205.895 247.647 205.918 247.629C205.936 247.616 205.95 247.597 205.958 247.575C205.965 247.553 205.966 247.53 205.96 247.507C205.96 247.41 205.533 245.067 204.24 245.214C203.899 245.25 203.801 245.427 203.783 245.562C203.691 246.172 205.088 247.355 205.783 247.648L205.838 247.66ZM204.35 245.464C205.131 245.464 205.521 246.739 205.655 247.294C204.936 246.891 203.984 245.964 204.039 245.598C204.039 245.598 204.039 245.494 204.271 245.47L204.35 245.464Z" fill="#407BFF"/>
<path d="M207.974 97.8623L207.413 98.4723L206.888 98.9908C206.54 99.3324 206.18 99.6557 205.82 99.9729C205.105 100.615 204.373 101.225 203.624 101.803C202.114 103.003 200.525 104.1 198.866 105.085C198.031 105.579 197.171 106.049 196.298 106.494C195.426 106.939 194.505 107.323 193.578 107.714C191.676 108.472 189.696 109.015 187.673 109.33L187.222 109.397C186.928 109.435 186.633 109.454 186.337 109.452C185.658 109.446 184.986 109.314 184.355 109.062C183.729 108.811 183.156 108.444 182.665 107.982C182.274 107.609 181.933 107.187 181.652 106.726C181.263 106.056 180.969 105.336 180.78 104.585C180.632 104.003 180.524 103.412 180.457 102.816C180.346 101.785 180.315 100.746 180.365 99.7106C180.408 98.7224 180.487 97.7708 180.597 96.8375C180.829 94.9648 181.158 93.1775 181.561 91.3475C181.963 89.5175 182.421 87.8278 183.013 86.0588L187.02 86.8518C186.874 90.28 186.709 93.7936 186.819 97.112C186.839 98.6529 187.002 100.189 187.307 101.699C187.367 101.978 187.451 102.252 187.557 102.517C187.642 102.724 187.746 102.852 187.74 102.797C187.705 102.704 187.648 102.621 187.575 102.553C187.409 102.393 187.215 102.264 187.002 102.175C186.783 102.083 186.55 102.027 186.313 102.01C186.203 102.01 186.154 102.01 186.087 102.01H186.154L186.282 101.974C187.727 101.603 189.133 101.092 190.479 100.449C191.888 99.769 193.251 98.9988 194.56 98.1429C195.884 97.2645 197.189 96.3129 198.446 95.3064C199.056 94.8062 199.696 94.2816 200.276 93.7509L201.166 92.9457L201.593 92.5492L201.965 92.1954L207.974 97.8623Z" fill="#FF8B7B"/>
<path d="M211.201 95.7091C210.994 89.9568 206.272 87.956 200.355 91.8783C197.747 93.5322 195.236 95.3347 192.834 97.2768L196.659 109.562C196.659 109.562 203.979 107.238 208.212 102.675C211.061 99.5765 211.274 97.6672 211.201 95.7091Z" fill="#263238"/>
<path opacity="0.2" d="M203.996 98.1614C203.996 98.1614 200.464 103.212 199.214 108.58C200.95 107.84 202.623 106.958 204.216 105.945L203.996 98.1614Z" fill="black"/>
<path d="M186.818 88.6758L188.868 84.0459L183.067 82.3501C183.067 82.3501 182.072 84.5644 182.64 88.3647L186.818 88.6758Z" fill="#FF8B7B"/>
<path d="M189.485 78.6169L184.44 79.2208L183.067 82.3501L188.868 84.0459L189.485 78.6169Z" fill="#FF8B7B"/>
<path d="M204.033 137.409C204.033 137.409 200.288 168.799 199.873 185.599C199.446 203.051 202.868 238.254 202.868 238.254L212.695 238.047C212.695 238.047 213.878 200.361 215.306 183.092C216.855 164.267 220.759 137.067 220.759 137.067L204.033 137.409Z" fill="#407BFF"/>
<path opacity="0.6" d="M204.033 137.409C204.033 137.409 200.288 168.799 199.873 185.599C199.446 203.051 202.868 238.254 202.868 238.254L212.695 238.047C212.695 238.047 213.878 200.361 215.306 183.092C216.855 164.267 220.759 137.067 220.759 137.067L204.033 137.409Z" fill="white"/>
<path opacity="0.2" d="M215.739 146.296C211.347 155.977 212.525 177.601 215.019 186.873C215.111 185.525 215.209 184.25 215.306 183.073C216.325 170.666 218.356 154.629 219.643 145.131C218.448 143.399 217.112 143.265 215.739 146.296Z" fill="black"/>
<path d="M213.903 238.467L202.35 238.699L201.496 234.862L213.763 234.832L213.903 238.467Z" fill="#407BFF"/>
<path d="M236.095 247.447L230.654 247.495L229.172 234.905L234.613 234.856L236.095 247.447Z" fill="#FF8B7B"/>
<path d="M230.641 246.867L236.589 246.812C236.698 246.815 236.804 246.851 236.892 246.917C236.979 246.982 237.044 247.074 237.077 247.178L238.517 252.003C238.553 252.115 238.563 252.235 238.544 252.352C238.526 252.468 238.48 252.579 238.41 252.674C238.34 252.77 238.249 252.847 238.143 252.9C238.038 252.953 237.921 252.98 237.803 252.979C235.656 252.979 232.551 252.863 229.873 252.888C226.725 252.888 225.316 253.107 221.626 253.144C219.393 253.144 218.576 250.911 219.521 250.704C223.706 249.734 225.871 249.606 229.385 247.306C229.752 247.04 230.189 246.887 230.641 246.867Z" fill="#263238"/>
<path opacity="0.2" d="M229.172 234.911L229.934 241.402L235.382 241.353L234.619 234.862L229.172 234.911Z" fill="black"/>
<path d="M228.396 247.837C228.983 247.826 229.568 247.754 230.14 247.623C230.167 247.619 230.191 247.606 230.209 247.586C230.227 247.566 230.237 247.54 230.238 247.514C230.242 247.488 230.238 247.462 230.226 247.439C230.213 247.416 230.194 247.397 230.171 247.386C229.909 247.257 227.621 246.165 226.999 246.55C226.94 246.586 226.892 246.637 226.86 246.699C226.827 246.76 226.812 246.828 226.816 246.898C226.815 247.014 226.84 247.13 226.89 247.235C226.939 247.341 227.012 247.434 227.103 247.508C227.487 247.754 227.941 247.87 228.396 247.837ZM229.701 247.447C228.524 247.654 227.627 247.611 227.261 247.318C227.198 247.268 227.148 247.204 227.114 247.131C227.08 247.058 227.064 246.978 227.066 246.898C227.062 246.873 227.066 246.847 227.077 246.824C227.088 246.801 227.105 246.782 227.127 246.769C227.469 246.562 228.75 247.05 229.701 247.447Z" fill="#407BFF"/>
<path d="M230.11 247.66C230.129 247.659 230.147 247.655 230.164 247.646C230.181 247.638 230.196 247.627 230.208 247.612C230.22 247.598 230.229 247.581 230.234 247.563C230.24 247.545 230.241 247.526 230.238 247.507C230.238 247.41 229.811 245.067 228.518 245.214C228.177 245.25 228.079 245.427 228.055 245.562C227.969 246.172 229.366 247.355 230.061 247.648L230.11 247.66ZM228.628 245.464C229.403 245.464 229.799 246.739 229.933 247.294C229.214 246.891 228.256 245.964 228.311 245.598C228.311 245.598 228.311 245.494 228.543 245.47L228.628 245.464Z" fill="#407BFF"/>
<path d="M213.622 137.201C213.622 137.201 216.337 170.977 218.319 187.642C220.375 204.978 227.146 238.235 227.146 238.235L236.973 238.028C236.973 238.028 234.277 200.269 233.234 182.969C232.093 164.09 231.8 136.786 231.8 136.786L213.622 137.201Z" fill="#407BFF"/>
<path opacity="0.6" d="M213.622 137.201C213.622 137.201 216.337 170.977 218.319 187.642C220.375 204.978 227.146 238.235 227.146 238.235L236.973 238.028C236.973 238.028 234.277 200.269 233.234 182.969C232.093 164.09 231.8 136.786 231.8 136.786L213.622 137.201Z" fill="white"/>
<path d="M238.181 238.467L226.621 238.699L225.773 234.862L238.041 234.832L238.181 238.467Z" fill="#407BFF"/>
<path d="M203.356 90.3715C203.356 90.3715 199.336 105.292 204.033 137.409C212.805 137.219 227.536 136.878 231.8 136.799C231.91 132.327 228.61 110.404 232.471 89.2674C229.693 88.7877 226.883 88.5145 224.065 88.45C219.94 88.2994 215.809 88.389 211.694 88.7184C208.876 89.0518 206.088 89.6045 203.356 90.3715Z" fill="#263238"/>
<path opacity="0.2" d="M230.789 104.31L226.244 100.546C226.543 103.487 229.203 110.691 230.606 114.338C230.581 111.142 230.612 107.769 230.789 104.31Z" fill="black"/>
<path d="M214.531 99.0212L209.572 108.836C209.467 109.042 209.43 109.276 209.467 109.504C209.504 109.733 209.612 109.943 209.776 110.106C209.94 110.269 210.152 110.375 210.38 110.41C210.609 110.445 210.843 110.407 211.048 110.3L214.287 108.519C214.463 108.424 214.662 108.381 214.862 108.394C215.061 108.407 215.253 108.475 215.415 108.592L218.606 110.892C218.789 111.025 219.01 111.096 219.237 111.094C219.463 111.092 219.683 111.016 219.864 110.88C220.044 110.743 220.176 110.552 220.24 110.334C220.303 110.116 220.295 109.884 220.216 109.672L216.489 99.192C216.424 98.9927 216.302 98.8168 216.138 98.6863C215.974 98.5559 215.775 98.4766 215.567 98.4584C215.358 98.4402 215.148 98.4838 214.964 98.5839C214.78 98.684 214.629 98.8361 214.531 99.0212Z" fill="white"/>
<path d="M222.541 74.5176C221.846 78.5192 221.224 85.827 224.066 88.4195C224.066 88.4195 223.237 92.0429 215.667 93.2995C210.579 91.6647 211.696 88.7123 211.696 88.7123C216.112 87.5533 215.923 84.2654 215.087 81.191L222.541 74.5176Z" fill="#FF8B7B"/>
<path opacity="0.2" d="M219.503 77.2322L215.087 81.1606C215.292 81.8768 215.435 82.6095 215.514 83.3505C217.21 83.0699 219.497 81.1545 219.638 79.3794C219.724 78.6614 219.678 77.9338 219.503 77.2322Z" fill="black"/>
<path d="M224.962 69.595C223.492 74.7922 222.901 77.9093 219.655 80.0382C214.775 83.2346 208.791 79.4282 208.675 73.8833C208.566 68.9057 210.981 61.238 216.605 60.262C217.841 60.0428 219.112 60.1427 220.298 60.5522C221.484 60.9617 222.545 61.6672 223.382 62.6019C224.219 63.5366 224.804 64.6695 225.08 65.8933C225.357 67.1171 225.316 68.3912 224.962 69.595Z" fill="#FF8B7B"/>
<path d="M221.833 72.779C221.15 71.1198 220.656 65.6542 223.505 64.3122C226.353 62.9702 229.312 66.2459 228.562 67.7953C227.409 70.1987 223.419 76.622 221.833 72.779Z" fill="#263238"/>
<path d="M223.535 66.2398C222.833 64.4098 214.47 63.3728 213.299 61.4025C211.908 59.0601 217.611 58.7795 221.534 59.969C224.98 61.0182 227.28 62.0308 226.877 64.5928C226.652 66.0446 223.535 66.2398 223.535 66.2398Z" fill="#263238"/>
<path d="M225.353 64.355C225.353 64.355 227.183 64.8552 228.183 63.5132C227.866 64.843 226.31 66.185 225.353 64.355Z" fill="#263238"/>
<path d="M216.978 58.7125C214.465 56.7605 211.043 59.0541 211.366 61.5978C211.689 64.1415 220.162 66.0752 220.162 66.0752C220.162 66.0752 220.315 61.305 216.978 58.7125Z" fill="#263238"/>
<path d="M211.371 61.61C211.755 63.3912 213.055 64.7881 215.684 65.8251C214.162 64.6999 213.009 63.1478 212.371 61.366L211.371 61.61Z" fill="#263238"/>
<path d="M216.649 69.3326C216.557 69.7657 216.258 70.0646 215.978 70.0036C215.697 69.9426 215.544 69.54 215.636 69.113C215.727 68.686 216.032 68.3871 216.313 68.4481C216.594 68.5091 216.746 68.93 216.649 69.3326Z" fill="#263238"/>
<path d="M211.804 68.2836C211.706 68.7106 211.408 69.0095 211.127 68.9485C210.846 68.8875 210.694 68.491 210.785 68.064C210.877 67.637 211.182 67.3381 211.462 67.393C211.743 67.4479 211.896 67.8566 211.804 68.2836Z" fill="#263238"/>
<path d="M213.3 68.8325C212.504 70.0325 211.545 71.1164 210.451 72.0533C211.061 72.9256 212.421 72.8829 212.421 72.8829L213.3 68.8325Z" fill="#FF5652"/>
<path d="M213.409 74.3406C213.982 74.4829 214.58 74.4845 215.154 74.3454C215.728 74.2062 216.259 73.9305 216.703 73.5415C216.715 73.5296 216.725 73.5154 216.731 73.4997C216.738 73.484 216.741 73.4671 216.741 73.45C216.741 73.433 216.738 73.4161 216.731 73.4004C216.725 73.3847 216.715 73.3705 216.703 73.3585C216.678 73.3354 216.645 73.3225 216.611 73.3225C216.578 73.3225 216.545 73.3354 216.52 73.3585C216.103 73.7091 215.611 73.9573 215.081 74.0833C214.551 74.2094 214 74.2098 213.47 74.0844C213.436 74.0772 213.401 74.0837 213.371 74.1025C213.342 74.1214 213.322 74.1511 213.314 74.1851C213.307 74.2191 213.314 74.2545 213.333 74.2837C213.351 74.3129 213.381 74.3334 213.415 74.3406H213.409Z" fill="#263238"/>
<path d="M218.447 68.0883C218.494 68.0976 218.543 68.094 218.588 68.0779C218.633 68.0617 218.672 68.0336 218.702 67.9966C218.732 67.9596 218.752 67.915 218.759 67.8677C218.765 67.8205 218.759 67.7723 218.74 67.7284C218.575 67.3527 218.323 67.0217 218.005 66.7628C217.687 66.504 217.312 66.3247 216.91 66.24C216.842 66.2312 216.774 66.2492 216.719 66.2903C216.664 66.3313 216.628 66.392 216.617 66.4596C216.612 66.4928 216.614 66.5268 216.621 66.5595C216.629 66.5922 216.644 66.623 216.663 66.6502C216.683 66.6774 216.708 66.7004 216.737 66.7179C216.766 66.7355 216.798 66.7472 216.831 66.7524C217.147 66.8219 217.443 66.9662 217.692 67.1731C217.941 67.38 218.138 67.6436 218.264 67.9419C218.281 67.9788 218.307 68.0112 218.339 68.0366C218.37 68.062 218.408 68.0797 218.447 68.0883Z" fill="#263238"/>
<path d="M210.036 66.1546C210.084 66.1678 210.134 66.1662 210.181 66.1498C210.228 66.1335 210.269 66.1032 210.298 66.0631C210.491 65.804 210.743 65.5939 211.032 65.4498C211.321 65.3057 211.64 65.2316 211.963 65.2335C212.031 65.24 212.099 65.2192 212.152 65.1757C212.204 65.1322 212.238 65.0696 212.244 65.0017C212.25 64.9337 212.23 64.866 212.186 64.8134C212.143 64.7608 212.08 64.7276 212.012 64.7211C211.603 64.7089 211.197 64.7958 210.828 64.9742C210.46 65.1526 210.14 65.4173 209.895 65.7459C209.874 65.772 209.858 65.8022 209.848 65.8347C209.839 65.8672 209.836 65.9013 209.84 65.935C209.844 65.9687 209.854 66.0012 209.871 66.0305C209.888 66.0599 209.911 66.0855 209.938 66.1058C209.966 66.1302 210 66.1471 210.036 66.1546Z" fill="#263238"/>
<path d="M233.801 93.4277C234.912 95.3675 235.839 97.2463 236.803 99.18C237.766 101.114 238.633 103.06 239.456 105.048C240.28 107.037 241.079 109.056 241.774 111.148C242.497 113.235 243.108 115.359 243.604 117.511L243.976 119.176C244.139 119.958 244.209 120.756 244.184 121.555C244.132 123.038 243.803 124.499 243.214 125.861C242.178 128.157 240.705 130.229 238.877 131.961C237.246 133.536 235.469 134.951 233.57 136.189C232.649 136.799 231.697 137.36 230.739 137.897C229.782 138.434 228.83 138.928 227.763 139.397L225.737 135.853C226.475 135.243 227.287 134.633 228.043 133.974C228.799 133.316 229.538 132.645 230.27 131.974C231.683 130.662 232.994 129.245 234.192 127.734C235.257 126.438 236.083 124.964 236.632 123.379C236.821 122.788 236.895 122.167 236.851 121.549C236.834 121.3 236.787 121.054 236.711 120.817L236.296 119.45C235.064 115.66 233.597 111.95 231.904 108.342C231.069 106.512 230.178 104.682 229.288 102.852C228.397 101.022 227.458 99.1922 226.549 97.4537L233.801 93.4277Z" fill="#FF8B7B"/>
<path d="M232.679 89.2979C237.767 90.3959 241.305 103.67 241.305 103.67L232.21 111.923C229.318 108.706 227.043 104.984 225.5 100.943C223.09 94.2999 227.238 88.1145 232.679 89.2979Z" fill="#263238"/>
<path d="M226.84 135.225L220.99 135.286L224.65 141.185C224.65 141.185 228.817 140.154 229.189 138.061L226.84 135.225Z" fill="#FF8B7B"/>
<path d="M217.35 138.769L220.577 143.503L224.621 141.185L220.991 135.286L217.35 138.769Z" fill="#FF8B7B"/>
<path d="M226.56 74.353C225.91 75.5489 224.814 76.4391 223.51 76.8296C221.778 77.3359 220.893 75.7926 221.357 74.1517C221.778 72.6755 223.187 70.632 224.919 70.8455C226.651 71.059 227.335 72.8829 226.56 74.353Z" fill="#FF8B7B"/>
<path d="M174.712 175.282L168.208 175.753L168.252 176.362L174.756 175.89L174.712 175.282Z" fill="#407BFF"/>
<path d="M180.555 174.86L177.361 175.092L177.405 175.7L180.6 175.468L180.555 174.86Z" fill="#407BFF"/>
<path d="M208.619 103.255L100.918 111.02C98.6762 111.195 96.5941 112.247 95.1231 113.947C93.6522 115.648 92.9112 117.86 93.061 120.103L96.721 170.867C96.8943 173.112 97.9471 175.198 99.6505 176.67C101.354 178.143 103.57 178.883 105.816 178.73L111.916 178.291C112.359 178.259 112.797 178.404 113.133 178.695C113.469 178.985 113.677 179.397 113.709 179.84L114.393 189.246C114.404 189.429 114.469 189.603 114.58 189.748C114.692 189.893 114.843 190.001 115.017 190.059C115.19 190.116 115.376 190.121 115.552 190.072C115.728 190.023 115.885 189.922 116.003 189.783L126.214 177.98C126.644 177.485 127.251 177.181 127.904 177.132L213.499 170.965C215.742 170.791 217.826 169.74 219.298 168.04C220.77 166.339 221.512 164.126 221.362 161.882L217.702 111.118C217.529 108.875 216.478 106.791 214.777 105.319C213.077 103.847 210.864 103.105 208.619 103.255Z" fill="#407BFF"/>
<path d="M125.641 138.104L122.722 153.631L118.225 153.943L115.096 144.074L113.271 154.286L108.774 154.598L103.85 139.614L107.826 139.338L110.789 150.289L112.736 138.998L116.82 138.715L120.197 149.637L121.644 138.381L125.641 138.104ZM139.556 146.178C139.58 146.526 139.583 146.889 139.566 147.269L131.158 147.851C131.268 148.6 131.547 149.163 131.995 149.54C132.457 149.901 132.999 150.06 133.622 150.016C134.549 149.952 135.166 149.516 135.474 148.709L139.428 148.435C139.281 149.246 138.961 149.989 138.469 150.663C137.992 151.336 137.368 151.882 136.596 152.299C135.825 152.716 134.946 152.959 133.961 153.027C132.774 153.11 131.699 152.929 130.737 152.487C129.775 152.044 129 151.37 128.414 150.465C127.827 149.559 127.49 148.477 127.403 147.216C127.315 145.956 127.492 144.838 127.934 143.861C128.39 142.884 129.064 142.109 129.956 141.538C130.848 140.967 131.895 140.64 133.097 140.556C134.271 140.475 135.331 140.649 136.277 141.078C137.224 141.508 137.982 142.161 138.552 143.038C139.137 143.915 139.472 144.961 139.556 146.178ZM135.686 145.464C135.642 144.826 135.389 144.334 134.929 143.988C134.468 143.641 133.912 143.491 133.26 143.536C132.637 143.579 132.121 143.797 131.712 144.189C131.317 144.58 131.092 145.112 131.037 145.786L135.686 145.464ZM144.551 135.964L145.665 152.042L141.949 152.299L140.835 136.222L144.551 135.964ZM147.198 145.845C147.111 144.585 147.288 143.466 147.73 142.49C148.186 141.512 148.853 140.738 149.73 140.168C150.622 139.597 151.662 139.27 152.85 139.188C154.37 139.082 155.665 139.393 156.734 140.119C157.818 140.845 158.569 141.921 158.988 143.347L155.034 143.621C154.637 142.717 153.96 142.298 153.004 142.364C152.323 142.412 151.799 142.717 151.43 143.281C151.061 143.831 150.91 144.598 150.979 145.583C151.047 146.568 151.302 147.314 151.745 147.822C152.187 148.315 152.748 148.538 153.429 148.491C154.385 148.425 154.997 147.917 155.266 146.967L159.22 146.693C159 148.134 158.404 149.296 157.431 150.179C156.459 151.061 155.22 151.554 153.714 151.659C152.526 151.741 151.451 151.561 150.489 151.118C149.541 150.674 148.774 150 148.187 149.095C147.615 148.188 147.286 147.105 147.198 145.845ZM167.042 150.735C165.854 150.818 164.765 150.638 163.774 150.198C162.797 149.756 162.001 149.083 161.386 148.18C160.784 147.276 160.44 146.194 160.353 144.933C160.267 143.688 160.466 142.575 160.951 141.595C161.435 140.601 162.138 139.818 163.059 139.245C163.98 138.671 165.034 138.344 166.221 138.261C167.409 138.179 168.499 138.358 169.49 138.799C170.481 139.24 171.285 139.919 171.901 140.837C172.517 141.74 172.868 142.815 172.954 144.06C173.041 145.306 172.834 146.426 172.336 147.421C171.851 148.401 171.14 149.178 170.205 149.752C169.284 150.325 168.23 150.653 167.042 150.735ZM166.819 147.52C167.529 147.471 168.112 147.168 168.568 146.613C169.039 146.056 169.241 145.293 169.174 144.322C169.107 143.352 168.809 142.623 168.28 142.136C167.766 141.647 167.154 141.428 166.444 141.477C165.72 141.527 165.137 141.829 164.695 142.384C164.252 142.924 164.065 143.687 164.133 144.671C164.201 145.642 164.484 146.372 164.984 146.861C165.498 147.349 166.11 147.569 166.819 147.52ZM189.965 136.66C191.472 136.555 192.698 136.929 193.645 137.78C194.606 138.631 195.143 139.867 195.256 141.489L195.746 148.572L192.053 148.828L191.597 142.245C191.542 141.462 191.291 140.876 190.842 140.485C190.406 140.079 189.826 139.9 189.102 139.951C188.378 140.001 187.821 140.258 187.431 140.721C187.054 141.169 186.893 141.785 186.947 142.567L187.403 149.15L183.71 149.406L183.254 142.823C183.2 142.041 182.948 141.454 182.499 141.063C182.063 140.657 181.483 140.479 180.759 140.529C180.035 140.579 179.478 140.836 179.088 141.299C178.711 141.748 178.55 142.363 178.604 143.145L179.06 149.728L175.345 149.985L174.505 137.862L178.22 137.605L178.326 139.125C178.667 138.592 179.132 138.16 179.72 137.828C180.308 137.482 180.985 137.282 181.753 137.229C182.665 137.166 183.49 137.305 184.227 137.647C184.978 137.988 185.582 138.506 186.037 139.202C186.411 138.507 186.946 137.924 187.641 137.454C188.336 136.984 189.111 136.719 189.965 136.66ZM209.339 141.343C209.363 141.69 209.367 142.054 209.349 142.434L200.941 143.016C201.051 143.765 201.33 144.328 201.779 144.705C202.24 145.066 202.782 145.224 203.405 145.181C204.332 145.117 204.95 144.681 205.258 143.874L209.212 143.6C209.064 144.411 208.745 145.153 208.253 145.828C207.775 146.501 207.151 147.047 206.38 147.464C205.608 147.881 204.73 148.124 203.745 148.192C202.557 148.275 201.482 148.094 200.52 147.652C199.558 147.209 198.784 146.535 198.197 145.63C197.61 144.724 197.273 143.641 197.186 142.381C197.099 141.121 197.276 140.003 197.718 139.026C198.174 138.049 198.848 137.274 199.74 136.703C200.631 136.132 201.679 135.805 202.881 135.721C204.054 135.64 205.114 135.814 206.061 136.243C207.007 136.672 207.766 137.326 208.336 138.203C208.92 139.08 209.255 140.126 209.339 141.343ZM205.469 140.629C205.425 139.991 205.173 139.499 204.712 139.153C204.251 138.806 203.695 138.656 203.044 138.701C202.421 138.744 201.905 138.962 201.495 139.354C201.1 139.745 200.875 140.277 200.82 140.951L205.469 140.629Z" fill="white"/>
<path d="M99.4295 94.3059C99.4022 95.1989 99.4492 96.0925 99.5698 96.9777C94.0424 98.8236 88.1475 99.2906 82.3983 98.338C82.6743 97.2946 82.8419 96.2255 82.8985 95.1477C82.7062 96.233 82.3286 97.2771 81.7822 98.2343C80.6964 98.0269 80.0864 97.85 80.0864 97.85C80.0864 97.85 81.1966 91.8476 79.1958 87.48C77.195 83.1124 78.1954 80.6724 79.7082 79.9831C82.5142 71.3577 93.0611 72.718 96.6296 76.2194C101.156 80.6602 101.18 93.1713 101.985 96.0322C101.321 96.3189 100.668 96.5812 100.015 96.813C99.6882 96.0137 99.4906 95.1674 99.4295 94.3059Z" fill="#263238"/>
<path d="M103.791 107.732L104.34 109.47C104.541 110.08 104.743 110.69 104.95 111.27C105.359 112.49 105.786 113.71 106.243 114.881C106.701 116.052 107.14 117.285 107.616 118.48L108.323 120.31L108.5 120.762L108.543 120.865C108.468 120.799 108.381 120.748 108.287 120.713C108.153 120.664 108.098 120.713 108.183 120.713C108.33 120.712 108.476 120.69 108.616 120.646C109.093 120.494 109.552 120.29 109.983 120.036C111.023 119.429 112.018 118.749 112.959 117.998C113.948 117.23 114.918 116.406 115.869 115.558C116.821 114.71 117.778 113.826 118.7 112.96L120.572 114.546C119.791 115.668 118.968 116.693 118.132 117.736C117.297 118.779 116.357 119.755 115.393 120.725C114.401 121.737 113.321 122.66 112.166 123.482C111.506 123.945 110.796 124.334 110.05 124.641C109.576 124.831 109.08 124.958 108.574 125.019C107.886 125.105 107.188 125.01 106.548 124.745C105.851 124.448 105.257 123.951 104.84 123.317C104.749 123.177 104.663 123.037 104.596 122.909L104.432 122.579L104.212 122.134C103.925 121.524 103.602 120.914 103.352 120.341C102.797 119.121 102.242 117.901 101.735 116.681C101.229 115.461 100.735 114.204 100.265 112.947C100.046 112.337 99.8262 111.673 99.6188 111.032C99.4114 110.392 99.2101 109.763 99.0088 109.013L103.791 107.732Z" fill="#FFC3BD"/>
<path d="M102.346 102.315C104.45 102.852 105.92 111.502 105.92 111.502L100.125 115.442C100.125 115.442 94.5741 106.713 96.1906 104.401C97.8742 101.998 99.2772 101.534 102.346 102.315Z" fill="#407BFF"/>
<path d="M102.346 102.315C104.45 102.852 105.92 111.502 105.92 111.502L100.125 115.442C100.125 115.442 94.5741 106.713 96.1906 104.401C97.8742 101.998 99.2772 101.534 102.346 102.315Z" fill="#407BFF"/>
<path opacity="0.4" d="M102.346 102.315C104.45 102.852 105.92 111.502 105.92 111.502L100.125 115.442C100.125 115.442 94.5741 106.713 96.1906 104.401C97.8742 101.998 99.2772 101.534 102.346 102.315Z" fill="white"/>
<path opacity="0.3" d="M102.157 104.249L103.773 112.966L100.516 115.174L102.157 104.249Z" fill="black"/>
<path d="M118.602 113.167L120.535 108.507L122.92 113.167C122.92 113.167 121.371 115.485 119.327 114.918L118.602 113.167Z" fill="#FFC3BD"/>
<path d="M122.665 108.025L125.727 109.257L122.921 113.167L120.53 108.507L122.665 108.025Z" fill="#FFC3BD"/>
<path d="M90.9697 247.934H96.0754L96.417 236.119H91.3113L90.9697 247.934Z" fill="#FFC3BD"/>
<path d="M56.7354 232.715L61.4262 234.716L67.5689 224.492L62.872 222.491L56.7354 232.715Z" fill="#FFC3BD"/>
<path d="M62.3295 234.02L57.4495 231.019C57.3661 230.965 57.2658 230.944 57.1679 230.96C57.0699 230.976 56.9812 231.027 56.9188 231.104L53.9847 234.624C53.9117 234.716 53.8593 234.823 53.831 234.937C53.8026 235.051 53.799 235.17 53.8204 235.285C53.8418 235.401 53.8876 235.511 53.9549 235.607C54.0222 235.703 54.1093 235.784 54.2104 235.844C55.9306 236.863 56.809 237.265 58.9562 238.583C60.2799 239.4 62.1221 240.718 63.946 241.84C65.7699 242.963 66.996 241.23 66.3189 240.59C63.3604 237.766 63.4458 236.424 62.8907 234.752C62.7985 234.448 62.5991 234.188 62.3295 234.02Z" fill="#263238"/>
<path d="M96.245 247.343H90.5171C90.4185 247.342 90.3228 247.376 90.2477 247.44C90.1726 247.504 90.1232 247.593 90.1084 247.69L89.4557 252.229C89.4398 252.345 89.4493 252.464 89.4837 252.576C89.5181 252.689 89.5764 252.792 89.6547 252.88C89.733 252.967 89.8294 253.037 89.9373 253.083C90.0451 253.13 90.1618 253.153 90.2792 253.15C92.28 253.12 93.2438 252.998 95.7692 252.998C97.3186 252.998 100.527 253.162 102.668 253.162C104.809 253.162 104.919 251.046 104.029 250.85C100.033 249.99 98.4593 248.807 97.1112 247.678C96.8725 247.465 96.5648 247.346 96.245 247.343Z" fill="#263238"/>
<path opacity="0.2" d="M96.4103 236.125L96.2395 242.213H91.1338L91.3107 236.125H96.4103Z" fill="black"/>
<path opacity="0.2" d="M62.872 222.498L67.5629 224.492L64.397 229.763L59.7061 227.762L62.872 222.498Z" fill="black"/>
<path d="M102.346 102.315C102.346 102.315 104.786 103.169 99.9059 133.102H79.1659C79.5136 124.672 79.5258 119.475 75.5059 102.169C78.4059 101.569 81.3457 101.182 84.3021 101.01C87.4354 100.784 90.581 100.784 93.7144 101.01C97.7648 101.376 102.346 102.315 102.346 102.315Z" fill="#407BFF"/>
<path opacity="0.4" d="M102.346 102.315C102.346 102.315 104.786 103.169 99.9059 133.102H79.1659C79.5136 124.672 79.5258 119.475 75.5059 102.169C78.4059 101.569 81.3457 101.182 84.3021 101.01C87.4354 100.784 90.581 100.784 93.7144 101.01C97.7648 101.376 102.346 102.315 102.346 102.315Z" fill="white"/>
<path d="M84.3148 101.004C87.4483 100.784 90.5935 100.784 93.7271 101.004C94.2334 101.053 94.7519 101.108 95.2643 101.169C95.4775 101.489 95.6143 101.854 95.664 102.236C95.7137 102.618 95.6751 103.006 95.551 103.371C94.8861 105.012 92.501 105.201 90.7686 105.201C84.3575 105.201 83.2717 101.455 83.229 101.297L83.168 101.071L84.3148 101.004Z" fill="white"/>
<path d="M85.2468 90.4141C85.8568 93.4641 86.4363 98.9907 84.3135 101.01C84.3135 101.01 85.1431 104.06 90.7673 104.06C96.9527 104.06 93.7258 101.01 93.7258 101.01C90.3464 100.205 90.4379 97.6975 91.0235 95.349L85.2468 90.4141Z" fill="#FFC3BD"/>
<path d="M85.8637 88.2607C85.1378 90.658 86.1443 96.331 87.6388 98.527C84.6925 96.8373 83.6982 91.6889 83.6982 91.6889L85.8637 88.2607Z" fill="#263238"/>
<path opacity="0.2" d="M87.6021 92.4272L91.0242 95.343C90.8741 95.8897 90.776 96.4493 90.7314 97.0144C89.4443 96.8253 87.6814 95.4101 87.535 94.062C87.4592 93.5175 87.4819 92.9638 87.6021 92.4272Z" fill="black"/>
<path d="M82.4539 85.0096C83.6373 89.9323 84.0277 92.0429 86.9923 94.1596C91.4514 97.3377 97.2403 94.8123 97.5514 89.6334C97.832 84.973 95.8556 77.7079 90.6401 76.5855C89.491 76.3318 88.296 76.3759 87.1688 76.7138C86.0415 77.0517 85.0193 77.672 84.1992 78.516C83.379 79.36 82.7882 80.3995 82.4827 81.536C82.1773 82.6725 82.1674 83.8682 82.4539 85.0096Z" fill="#FFC3BD"/>
<path d="M99.9119 133.102C99.9119 133.102 103.932 172.398 103.572 187.953C103.224 204.13 97.295 241.023 97.295 241.023H90.402C90.402 241.023 91.4939 205.064 90.8839 189.173C90.219 171.849 84.7168 133.09 84.7168 133.09L99.9119 133.102Z" fill="#407BFF"/>
<path opacity="0.4" d="M99.9119 133.102C99.9119 133.102 103.932 172.398 103.572 187.953C103.224 204.13 97.295 241.023 97.295 241.023H90.402C90.402 241.023 91.4939 205.064 90.8839 189.173C90.219 171.849 84.7168 133.09 84.7168 133.09L99.9119 133.102Z" fill="black"/>
<path d="M89.8284 241.279H97.917L98.5148 238.699L89.4502 238.382L89.8284 241.279Z" fill="#407BFF"/>
<path opacity="0.2" d="M90.9752 142.88C96.0626 153.116 91.9939 171.788 90.1944 178.736C89.2733 168.305 87.7178 155.556 86.5039 146.18C87.2725 140.91 88.6267 138.159 90.9752 142.88Z" fill="black"/>
<path d="M94.4399 133.102C94.4399 133.102 89.7429 173.972 86.1988 187.069C81.9959 202.642 65.9956 229.159 65.9956 229.159L59.5967 226.438C59.5967 226.438 69.497 196.328 72.7178 188.124C79.5803 170.617 73.706 144.527 79.1899 133.102H94.4399Z" fill="#407BFF"/>
<path opacity="0.4" d="M94.4399 133.102C94.4399 133.102 89.7429 173.972 86.1988 187.069C81.9959 202.642 65.9956 229.159 65.9956 229.159L59.5967 226.438C59.5967 226.438 69.497 196.328 72.7178 188.124C79.5803 170.617 73.706 144.527 79.1899 133.102H94.4399Z" fill="black"/>
<path d="M58.7119 226.456L66.6541 229.836L68.5634 227.701L59.4012 223.302L58.7119 226.456Z" fill="#407BFF"/>
<path d="M90.2804 85.0767C90.3536 85.4793 90.622 85.7721 90.8904 85.7233C91.1588 85.6745 91.3113 85.3085 91.2381 84.9059C91.1649 84.5033 90.8965 84.2105 90.6281 84.2532C90.3597 84.2959 90.1767 84.668 90.2804 85.0767Z" fill="#263238"/>
<path d="M94.8294 84.2715C94.8965 84.6741 95.171 84.9669 95.4394 84.9181C95.7078 84.8693 95.8664 84.5033 95.7932 84.1007C95.72 83.6981 95.4516 83.4053 95.1832 83.448C94.9148 83.4907 94.7562 83.8628 94.8294 84.2715Z" fill="#263238"/>
<path d="M95.0684 83.4968L95.9895 83.0393C95.9895 83.0393 95.6235 83.8872 95.0684 83.4968Z" fill="#263238"/>
<path d="M93.7383 85.1804C94.262 86.0413 94.9025 86.8255 95.6415 87.5106C95.4604 87.6939 95.2418 87.8357 95.0006 87.9262C94.7594 88.0168 94.5015 88.054 94.2446 88.0352L93.7383 85.1804Z" fill="#ED847E"/>
<path d="M92.409 89.9444C92.6401 89.944 92.8707 89.9236 93.0983 89.8834C93.1157 89.8827 93.1328 89.8783 93.1483 89.8704C93.1639 89.8626 93.1776 89.8515 93.1885 89.8379C93.1994 89.8243 93.2073 89.8085 93.2116 89.7916C93.2159 89.7747 93.2165 89.7571 93.2135 89.7399C93.2104 89.7228 93.2037 89.7065 93.1938 89.6921C93.1838 89.6778 93.171 89.6657 93.156 89.6568C93.1411 89.6478 93.1243 89.6422 93.107 89.6403C93.0897 89.6383 93.0722 89.6401 93.0556 89.6455C92.5533 89.7456 92.0344 89.7254 91.5414 89.5865C91.0484 89.4476 90.5953 89.194 90.2191 88.8464C90.1963 88.824 90.1656 88.8115 90.1337 88.8115C90.1017 88.8115 90.0711 88.824 90.0483 88.8464C90.0364 88.8572 90.027 88.8704 90.0205 88.8851C90.0141 88.8998 90.0107 88.9157 90.0107 88.9318C90.0107 88.9478 90.0141 88.9637 90.0205 88.9784C90.027 88.9931 90.0364 89.0063 90.0483 89.0172C90.685 89.621 91.5316 89.9535 92.409 89.9444Z" fill="#263238"/>
<path d="M84.1789 82.1242C84.3123 83.4214 84.516 84.7103 84.7889 85.9855C84.7889 85.9855 87.8389 82.1242 88.3452 80.0563C88.2242 80.8704 87.988 81.6632 87.6437 82.4109C87.6437 82.4109 91.749 81.5142 92.1516 78.8058C92.1447 80.0183 92.0097 81.2267 91.749 82.4109C91.749 82.4109 95.6652 80.8737 95.3053 78.2751C94.9454 75.6765 88.9308 74.67 86.1553 75.5484C83.3798 76.4268 80.6653 79.2755 81.4827 83.1917C82.3001 87.1079 83.8678 88.578 83.8678 88.578C83.8678 88.578 82.7393 84.6313 84.1789 82.1242Z" fill="#263238"/>
<path d="M82.2396 88.7184C82.6162 89.622 83.3357 90.3393 84.2404 90.7131C85.4604 91.2011 86.1863 90.158 85.9728 88.9502C85.7837 87.8583 84.9236 86.2967 83.6609 86.3211C83.3846 86.3333 83.1157 86.4142 82.8785 86.5564C82.6413 86.6985 82.4432 86.8976 82.3022 87.1355C82.1611 87.3734 82.0816 87.6427 82.0706 87.919C82.0597 88.1954 82.1178 88.4701 82.2396 88.7184Z" fill="#FFC3BD"/>
<path d="M84.9173 80.2454C84.3073 82.6854 85.5761 88.2974 87.1743 90.4141C84.1243 88.8708 82.9043 83.7712 82.9043 83.7712L84.9173 80.2454Z" fill="#263238"/>
<path d="M88.6083 83.6857C88.6397 83.6762 88.6688 83.6606 88.6939 83.6396C88.7191 83.6186 88.7398 83.5928 88.7547 83.5637C88.8833 83.2885 89.0753 83.0478 89.315 82.8611C89.5546 82.6745 89.8351 82.5474 90.1333 82.4901C90.1964 82.481 90.2537 82.4481 90.2934 82.3983C90.333 82.3484 90.3522 82.2852 90.3469 82.2217C90.3439 82.1898 90.3344 82.1589 90.3192 82.1307C90.3039 82.1025 90.2832 82.0778 90.2581 82.0578C90.233 82.0379 90.2042 82.0232 90.1733 82.0147C90.1425 82.0062 90.1102 82.004 90.0784 82.0082C89.7 82.0739 89.3429 82.2295 89.0372 82.462C88.7314 82.6944 88.486 82.997 88.3216 83.3441C88.3009 83.3865 88.2929 83.434 88.2987 83.4809C88.3044 83.5277 88.3236 83.5719 88.354 83.6081C88.3843 83.6442 88.4245 83.6708 88.4697 83.6846C88.5148 83.6984 88.563 83.6988 88.6083 83.6857Z" fill="#263238"/>
<path d="M96.4955 81.7947C96.5262 81.796 96.5567 81.7907 96.5852 81.7791C96.6136 81.7676 96.6392 81.75 96.6602 81.7276C96.7049 81.682 96.7299 81.6207 96.7299 81.5568C96.7299 81.493 96.7049 81.4316 96.6602 81.386C96.4001 81.1045 96.0773 80.8882 95.7181 80.7547C95.3588 80.6211 94.9731 80.5741 94.5923 80.6174C94.5606 80.6233 94.5303 80.6354 94.5033 80.653C94.4763 80.6706 94.453 80.6934 94.4349 80.7201C94.4167 80.7467 94.404 80.7767 94.3976 80.8083C94.3911 80.8399 94.3909 80.8725 94.3971 80.9041C94.4103 80.9658 94.447 81.02 94.4993 81.0552C94.5516 81.0905 94.6156 81.1041 94.6777 81.0932C94.978 81.0597 95.282 81.0974 95.565 81.2034C95.848 81.3094 96.102 81.4806 96.3064 81.7032C96.3291 81.7316 96.3579 81.7545 96.3906 81.7704C96.4233 81.7862 96.4592 81.7945 96.4955 81.7947Z" fill="#263238"/>
<path d="M78.0376 109.409C77.1897 112.087 76.3784 114.899 75.6891 117.669C74.9953 120.403 74.4879 123.181 74.1702 125.983L74.1214 126.496C74.1214 126.66 74.1214 126.697 74.1214 126.843C74.1282 127.131 74.1506 127.418 74.1885 127.703C74.2662 128.372 74.3782 129.035 74.524 129.692C74.8107 131.052 75.134 132.455 75.5488 133.846C75.9636 135.237 76.3174 136.652 76.7322 138.055L77.9522 142.264L75.6891 143.197C74.2983 140.538 73.0905 137.829 71.962 135.036C71.4191 133.633 70.8884 132.217 70.4492 130.723C70.2296 129.979 70.0222 129.216 69.8392 128.387C69.7524 127.947 69.6913 127.503 69.6562 127.057C69.6563 126.831 69.6562 126.496 69.6562 126.294V125.684C69.708 124.13 69.8505 122.58 70.0832 121.042C70.2845 119.517 70.5834 118.029 70.9067 116.546C71.5415 113.578 72.3563 110.65 73.3467 107.781L78.0376 109.409Z" fill="#FFC3BD"/>
<path d="M75.5181 102.169C73.4441 102.779 70.9492 109.946 70.9492 109.946L79.0012 115.705C79.0012 115.705 81.9414 109.739 81.0691 107.055C80.1602 104.261 77.891 101.449 75.5181 102.169Z" fill="#407BFF"/>
<path opacity="0.4" d="M75.5181 102.169C73.4441 102.779 70.9492 109.946 70.9492 109.946L79.0012 115.705C79.0012 115.705 81.9414 109.739 81.0691 107.055C80.1602 104.261 77.891 101.449 75.5181 102.169Z" fill="white"/>
<path d="M64.3907 235.96C64.4899 235.925 64.5802 235.869 64.655 235.795C64.7299 235.721 64.7875 235.632 64.8238 235.533C64.8591 235.47 64.8776 235.398 64.8776 235.326C64.8776 235.253 64.8591 235.182 64.8238 235.118C64.4578 234.582 62.6095 234.624 62.3838 234.63C62.3604 234.631 62.3376 234.638 62.3182 234.651C62.2987 234.664 62.2834 234.682 62.274 234.704C62.2621 234.723 62.2559 234.745 62.2559 234.768C62.2559 234.79 62.2621 234.813 62.274 234.832C62.7559 235.314 63.6587 236.101 64.2931 235.979L64.3907 235.96ZM62.6766 234.85C63.4147 234.85 64.4029 234.954 64.5981 235.24C64.6148 235.268 64.6236 235.3 64.6236 235.332C64.6236 235.364 64.6148 235.396 64.5981 235.423C64.5711 235.497 64.5264 235.563 64.4679 235.615C64.4093 235.667 64.3388 235.704 64.2626 235.722C63.9271 235.808 63.3415 235.46 62.6766 234.85Z" fill="#407BFF"/>
<path d="M63.2204 234.722C63.7816 234.545 64.3794 234.234 64.5075 233.886C64.5393 233.796 64.5398 233.697 64.5088 233.606C64.4778 233.516 64.4172 233.438 64.3367 233.386C64.2656 233.327 64.182 233.284 64.0922 233.262C64.0024 233.24 63.9087 233.239 63.8182 233.258C63.0923 233.386 62.3115 234.63 62.281 234.685C62.2703 234.704 62.2646 234.725 62.2646 234.746C62.2646 234.768 62.2703 234.789 62.281 234.807C62.292 234.825 62.3072 234.84 62.3252 234.851C62.3433 234.861 62.3637 234.867 62.3847 234.868C62.6689 234.86 62.9504 234.811 63.2204 234.722ZM63.7816 233.502H63.8609C63.9183 233.49 63.9775 233.491 64.0345 233.505C64.0914 233.518 64.1447 233.544 64.1903 233.581C64.3123 233.679 64.3001 233.752 64.2818 233.807C64.1598 234.142 63.2326 234.545 62.6165 234.624C62.8968 234.155 63.2996 233.771 63.7816 233.514V233.502Z" fill="#407BFF"/>
<path d="M98.1614 248.233C98.5913 248.269 99.0208 248.159 99.3814 247.922C99.4652 247.846 99.5291 247.751 99.5674 247.645C99.6057 247.538 99.6172 247.424 99.601 247.312C99.5962 247.246 99.5746 247.182 99.5383 247.127C99.5021 247.071 99.4522 247.026 99.3936 246.995C98.7836 246.653 96.7401 247.69 96.5083 247.806C96.4859 247.815 96.4667 247.831 96.4533 247.851C96.4398 247.871 96.4326 247.895 96.4326 247.919C96.4326 247.943 96.4398 247.967 96.4533 247.987C96.4667 248.007 96.4859 248.023 96.5083 248.032C97.0511 248.155 97.6049 248.222 98.1614 248.233ZM99.0703 247.178C99.1479 247.173 99.2255 247.188 99.296 247.221C99.32 247.234 99.3401 247.253 99.3541 247.277C99.368 247.301 99.3753 247.327 99.3753 247.355C99.3867 247.425 99.3803 247.497 99.3569 247.564C99.3335 247.631 99.2937 247.691 99.2411 247.739C98.93 248.02 98.0882 248.069 96.9597 247.88C97.6184 247.528 98.3321 247.291 99.0703 247.178Z" fill="#407BFF"/>
<path d="M96.5811 248.056H96.6299C97.2399 247.782 98.4599 246.684 98.3501 246.104C98.3501 245.964 98.2281 245.799 97.8926 245.763C97.7725 245.749 97.6509 245.761 97.5354 245.796C97.42 245.832 97.3131 245.891 97.2216 245.97C96.6116 246.507 96.4652 247.879 96.4591 247.934C96.4583 247.956 96.4629 247.977 96.4725 247.996C96.4821 248.015 96.4964 248.032 96.514 248.044C96.5339 248.057 96.558 248.061 96.5811 248.056ZM97.8011 245.988H97.8743C98.0939 245.988 98.1122 246.104 98.1122 246.129C98.1732 246.476 97.3558 247.349 96.7336 247.721C96.7824 247.141 97.0105 246.591 97.3863 246.147C97.4981 246.045 97.6438 245.989 97.795 245.988H97.8011Z" fill="#407BFF"/>
<path d="M78.8796 131.888L78.355 133.718C78.2818 133.858 78.4526 134.005 78.6905 134.005H100.041C100.23 134.005 100.382 133.913 100.394 133.797L100.583 131.967C100.583 131.839 100.431 131.729 100.23 131.729H79.2212C79.1554 131.724 79.0895 131.736 79.0297 131.764C78.9698 131.792 78.9182 131.834 78.8796 131.888Z" fill="#263238"/>
<path d="M81.6971 134.23H81.1298C81.02 134.23 80.9346 134.175 80.9407 134.102L81.203 131.662C81.203 131.595 81.3128 131.534 81.4226 131.534H81.9838C82.0997 131.534 82.179 131.595 82.1729 131.662L81.9106 134.102C81.9106 134.2 81.813 134.23 81.6971 134.23Z" fill="#407BFF"/>
<path opacity="0.4" d="M81.6971 134.23H81.1298C81.02 134.23 80.9346 134.175 80.9407 134.102L81.203 131.662C81.203 131.595 81.3128 131.534 81.4226 131.534H81.9838C82.0997 131.534 82.179 131.595 82.1729 131.662L81.9106 134.102C81.9106 134.2 81.813 134.23 81.6971 134.23Z" fill="black"/>
<path d="M98.4293 134.23H97.8681C97.7583 134.23 97.6729 134.175 97.679 134.102L97.9474 131.662C97.9474 131.595 98.0511 131.534 98.1609 131.534H98.7221C98.838 131.534 98.9234 131.595 98.9112 131.662L98.6489 134.102C98.6428 134.2 98.5452 134.23 98.4293 134.23Z" fill="#407BFF"/>
<path opacity="0.4" d="M98.4293 134.23H97.8681C97.7583 134.23 97.6729 134.175 97.679 134.102L97.9474 131.662C97.9474 131.595 98.0511 131.534 98.1609 131.534H98.7221C98.838 131.534 98.9234 131.595 98.9112 131.662L98.6489 134.102C98.6428 134.2 98.5452 134.23 98.4293 134.23Z" fill="black"/>
<path d="M90.0669 134.23H89.5057C89.3898 134.23 89.3044 134.175 89.3166 134.102L89.5789 131.662C89.5789 131.595 89.6826 131.534 89.7985 131.534H90.3597C90.4695 131.534 90.5549 131.595 90.5488 131.662L90.2865 134.102C90.2804 134.2 90.1767 134.23 90.0669 134.23Z" fill="#407BFF"/>
<path opacity="0.4" d="M90.0669 134.23H89.5057C89.3898 134.23 89.3044 134.175 89.3166 134.102L89.5789 131.662C89.5789 131.595 89.6826 131.534 89.7985 131.534H90.3597C90.4695 131.534 90.5549 131.595 90.5488 131.662L90.2865 134.102C90.2804 134.2 90.1767 134.23 90.0669 134.23Z" fill="black"/>
<path d="M90.4873 84.2959L91.4084 83.8445C91.4084 83.8445 91.0424 84.6924 90.4873 84.2959Z" fill="#263238"/>
<path d="M77.7814 141.575L82.1551 144.93L77.086 146.046C77.086 146.046 74.9327 143.606 75.6769 141.593L77.7814 141.575Z" fill="#FFC3BD"/>
<path d="M83.2276 149.084L78.9332 149.785L76.5908 145.381L82.154 144.93L83.2276 149.084Z" fill="#FFC3BD"/>
</svg>
