<svg width="381" height="381" viewBox="0 0 381 381" fill="none" xmlns="http://www.w3.org/2000/svg">
<path d="M381 291.389H0V291.579H381V291.389Z" fill="#EBEBEB"/>
<path d="M342.824 303.649H317.586V303.84H342.824V303.649Z" fill="#EBEBEB"/>
<path d="M252.39 305.722H245.768V305.912H252.39V305.722Z" fill="#EBEBEB"/>
<path d="M316.824 296.578H302.202V296.768H316.824V296.578Z" fill="#EBEBEB"/>
<path d="M72.8853 297.858H39.9745V298.049H72.8853V297.858Z" fill="#EBEBEB"/>
<path d="M84.4982 297.858H79.6747V298.049H84.4982V297.858Z" fill="#EBEBEB"/>
<path d="M171.564 301.074H100.18V301.264H171.564V301.074Z" fill="#EBEBEB"/>
<path d="M180.594 257.404H33.4594C32.3067 257.402 31.202 256.942 30.3877 256.127C29.5733 255.311 29.116 254.205 29.116 253.053V46.2229C29.126 45.0769 29.5878 43.9811 30.401 43.1735C31.2143 42.366 32.3133 41.9119 33.4594 41.91H180.594C181.748 41.91 182.855 42.3684 183.671 43.1844C184.487 44.0003 184.945 45.107 184.945 46.261V253.053C184.945 254.207 184.487 255.313 183.671 256.129C182.855 256.945 181.748 257.404 180.594 257.404ZM33.4594 42.0624C32.3572 42.0644 31.301 42.5036 30.5224 43.2837C29.7438 44.0637 29.3065 45.1208 29.3065 46.2229V253.053C29.3065 254.155 29.7438 255.212 30.5224 255.992C31.301 256.772 32.3572 257.211 33.4594 257.213H180.594C181.697 257.211 182.754 256.772 183.534 255.992C184.313 255.212 184.752 254.155 184.754 253.053V46.2229C184.752 45.1201 184.313 44.063 183.534 43.2832C182.754 42.5034 181.697 42.0644 180.594 42.0624H33.4594Z" fill="#EBEBEB"/>
<path d="M345.422 257.404H198.28C197.127 257.402 196.021 256.943 195.206 256.127C194.39 255.311 193.931 254.206 193.929 253.053V46.2229C193.941 45.0762 194.404 43.9804 195.219 43.1731C196.033 42.3657 197.133 41.9119 198.28 41.91H345.422C346.567 41.9139 347.664 42.3689 348.476 43.1762C349.287 43.9835 349.748 45.0782 349.758 46.2229V253.053C349.758 254.204 349.302 255.308 348.489 256.124C347.676 256.939 346.573 257.4 345.422 257.404ZM198.28 42.0624C197.177 42.0644 196.12 42.5034 195.34 43.2832C194.56 44.063 194.121 45.1201 194.119 46.2229V253.053C194.121 254.155 194.56 255.212 195.34 255.992C196.12 256.772 197.177 257.211 198.28 257.213H345.422C346.525 257.211 347.582 256.772 348.362 255.992C349.142 255.212 349.581 254.155 349.583 253.053V46.2229C349.581 45.1201 349.142 44.063 348.362 43.2832C347.582 42.5034 346.525 42.0644 345.422 42.0624H198.28Z" fill="#EBEBEB"/>
<path d="M229.431 209.862H312.344V60.038H229.431V209.862Z" fill="#E6E6E6"/>
<path d="M225.613 209.862H310.561V60.038H225.613V209.862Z" fill="#F0F0F0"/>
<path d="M229.431 213.413H312.344V209.862H229.431V213.413Z" fill="#E6E6E6"/>
<path d="M224.234 213.413H309.182V209.862H224.234V213.413Z" fill="#F0F0F0"/>
<path d="M305.196 204.506V65.3948H230.962V204.506H305.196Z" fill="#FAFAFA"/>
<path d="M251.963 204.506L272.857 65.3948H287.701L266.799 204.506H251.963Z" fill="white"/>
<path d="M254.318 204.506L275.219 65.3948H290.055L269.154 204.506H254.318Z" fill="white"/>
<path d="M269.984 204.506L290.886 65.3948H296.669L275.775 204.506H269.984Z" fill="white"/>
<path d="M231.648 204.506V65.3948H230.97V204.506H231.648Z" fill="#E6E6E6"/>
<path opacity="0.6" d="M224.34 69.4334H307.254L307.741 67.4751H224.836L224.34 69.4334Z" fill="#EBEBEB"/>
<path opacity="0.6" d="M224.34 72.6338H307.254L307.741 70.6831H224.836L224.34 72.6338Z" fill="#EBEBEB"/>
<path opacity="0.6" d="M224.34 75.8418H307.254L307.741 73.8911H224.836L224.34 75.8418Z" fill="#EBEBEB"/>
<path opacity="0.6" d="M224.34 79.0498H307.254L307.741 77.0915H224.836L224.34 79.0498Z" fill="#EBEBEB"/>
<path opacity="0.6" d="M224.34 82.2579H307.254L307.741 80.2996H224.836L224.34 82.2579Z" fill="#EBEBEB"/>
<path opacity="0.6" d="M224.34 85.4583H307.254L307.741 83.5076H224.836L224.34 85.4583Z" fill="#EBEBEB"/>
<path d="M328.765 51.054H209.192V53.9419H328.765V51.054Z" fill="#F0F0F0"/>
<path opacity="0.8" d="M326.601 48.6232H320.314V233.667H326.601V48.6232Z" fill="#FAFAFA"/>
<path opacity="0.8" d="M321.945 48.6232H320.314V233.667H321.945V48.6232Z" fill="#F0F0F0"/>
<path opacity="0.8" d="M320.314 48.6232H314.028V233.667H320.314V48.6232Z" fill="#FAFAFA"/>
<path opacity="0.8" d="M315.659 48.6232H314.028V233.667H315.659V48.6232Z" fill="#F0F0F0"/>
<path opacity="0.8" d="M314.028 48.6232H307.741V233.667H314.028V48.6232Z" fill="#FAFAFA"/>
<path opacity="0.8" d="M229.431 48.6232H223.144V233.667H229.431V48.6232Z" fill="#FAFAFA"/>
<path opacity="0.8" d="M224.775 48.6232H223.144V233.667H224.775V48.6232Z" fill="#F0F0F0"/>
<path opacity="0.8" d="M223.152 48.6232H216.865V233.667H223.152V48.6232Z" fill="#FAFAFA"/>
<path opacity="0.8" d="M218.496 48.6232H216.865V233.667H218.496V48.6232Z" fill="#F0F0F0"/>
<path opacity="0.8" d="M216.865 48.6232H210.579V233.667H216.865V48.6232Z" fill="#FAFAFA"/>
<path d="M65.029 209.862H147.942L147.942 60.038H65.029L65.029 209.862Z" fill="#E6E6E6"/>
<path d="M61.2039 209.862H146.152L146.152 60.038H61.2039L61.2039 209.862Z" fill="#F0F0F0"/>
<path d="M65.029 213.413H147.942V209.862H65.029V213.413Z" fill="#E6E6E6"/>
<path d="M59.8246 213.413H144.772V209.862H59.8246V213.413Z" fill="#F0F0F0"/>
<path d="M140.795 204.506V65.3948H66.5606L66.5606 204.506H140.795Z" fill="#FAFAFA"/>
<path d="M87.5614 204.506L108.455 65.3948H123.299L102.398 204.506H87.5614Z" fill="white"/>
<path d="M89.916 204.506L110.81 65.3948H125.654L104.752 204.506H89.916Z" fill="white"/>
<path d="M105.583 204.506L126.484 65.3948H132.268L111.374 204.506H105.583Z" fill="white"/>
<path d="M67.2465 204.498L67.2465 65.3872H66.5683L66.5683 204.498H67.2465Z" fill="#E6E6E6"/>
<path opacity="0.6" d="M59.939 69.4334H142.852L143.34 67.4751H60.4343L59.939 69.4334Z" fill="#EBEBEB"/>
<path opacity="0.6" d="M59.939 72.6338H142.852L143.34 70.6831H60.4343L59.939 72.6338Z" fill="#EBEBEB"/>
<path opacity="0.6" d="M59.939 75.8418H142.852L143.34 73.8911H60.4343L59.939 75.8418Z" fill="#EBEBEB"/>
<path opacity="0.6" d="M59.939 79.0498H142.852L143.34 77.0915H60.4343L59.939 79.0498Z" fill="#EBEBEB"/>
<path opacity="0.6" d="M59.939 82.2579H142.852L143.34 80.2996H60.4343L59.939 82.2579Z" fill="#EBEBEB"/>
<path opacity="0.6" d="M59.939 85.4583H142.852L143.34 83.5076H60.4343L59.939 85.4583Z" fill="#EBEBEB"/>
<path d="M164.363 51.054H44.7904V53.9419H164.363V51.054Z" fill="#F0F0F0"/>
<path opacity="0.8" d="M162.199 48.6232H155.913V233.667H162.199V48.6232Z" fill="#FAFAFA"/>
<path opacity="0.8" d="M157.544 48.6232H155.913V233.667H157.544V48.6232Z" fill="#F0F0F0"/>
<path opacity="0.8" d="M155.913 48.6232H149.626V233.667H155.913V48.6232Z" fill="#FAFAFA"/>
<path opacity="0.8" d="M151.257 48.6232H149.626V233.667H151.257V48.6232Z" fill="#F0F0F0"/>
<path opacity="0.8" d="M149.626 48.6232H143.34V233.667H149.626V48.6232Z" fill="#FAFAFA"/>
<path opacity="0.8" d="M65.0291 48.6232H58.7426V233.667H65.0291V48.6232Z" fill="#FAFAFA"/>
<path opacity="0.8" d="M60.3732 48.6232H58.7426V233.667H60.3732V48.6232Z" fill="#F0F0F0"/>
<path opacity="0.8" d="M58.7426 48.6232H52.4561V233.667H58.7426V48.6232Z" fill="#FAFAFA"/>
<path opacity="0.8" d="M54.0867 48.6232H52.4561V233.667H54.0867V48.6232Z" fill="#F0F0F0"/>
<path opacity="0.8" d="M52.4561 48.6232H46.1696V233.667H52.4561V48.6232Z" fill="#FAFAFA"/>
<path d="M286.337 286.215H299.146V222.207H286.337V286.215Z" fill="#F0F0F0"/>
<path d="M185.913 291.389H294.467V286.215H185.913V291.389Z" fill="#F0F0F0"/>
<path d="M286.337 222.207H181.242V286.215H286.337V222.207Z" fill="#F5F5F5"/>
<path d="M276.758 228.989H190.812V250.279H276.758V228.989Z" fill="#F0F0F0"/>
<path d="M276.758 255.156H190.812V276.446H276.758V255.156Z" fill="#F0F0F0"/>
<path d="M223.601 231.922H243.97C244.457 231.922 244.924 231.729 245.268 231.384C245.612 231.04 245.806 230.573 245.806 230.086C245.804 229.599 245.61 229.133 245.266 228.79C244.922 228.446 244.456 228.251 243.97 228.249H223.601C223.355 228.247 223.111 228.295 222.884 228.388C222.656 228.482 222.45 228.62 222.277 228.795C222.103 228.97 221.967 229.177 221.875 229.405C221.783 229.634 221.738 229.878 221.742 230.124C221.752 230.608 221.953 231.069 222.301 231.406C222.65 231.743 223.117 231.928 223.601 231.922Z" fill="#F5F5F5"/>
<path d="M223.601 258.097H243.969C244.456 258.095 244.922 257.901 245.266 257.557C245.61 257.213 245.804 256.747 245.806 256.261C245.806 256.019 245.758 255.781 245.666 255.558C245.574 255.335 245.439 255.133 245.268 254.962C245.097 254.791 244.895 254.656 244.672 254.564C244.449 254.472 244.211 254.424 243.969 254.424H223.601C223.358 254.421 223.117 254.466 222.891 254.557C222.666 254.648 222.461 254.783 222.288 254.954C222.115 255.125 221.978 255.328 221.884 255.552C221.79 255.777 221.742 256.017 221.742 256.261C221.743 256.503 221.792 256.744 221.886 256.967C221.98 257.191 222.117 257.394 222.29 257.565C222.463 257.736 222.668 257.87 222.893 257.962C223.118 258.053 223.358 258.099 223.601 258.097Z" fill="#F5F5F5"/>
<path d="M177.988 222.214H286.329V219.715H177.988V222.214Z" fill="#F0F0F0"/>
<path d="M302.544 219.707H286.329V222.207H302.544V219.707Z" fill="#E6E6E6"/>
<path d="M82.555 287.144C81.0951 287.14 79.6962 286.559 78.6638 285.526C77.6315 284.494 77.0498 283.095 77.0458 281.635V227.716C77.0498 226.256 77.6315 224.857 78.6638 223.825C79.6962 222.793 81.0951 222.211 82.555 222.207C84.0142 222.211 85.4124 222.793 86.4435 223.825C87.4746 224.858 88.0547 226.257 88.0567 227.716V281.635C88.0547 283.094 87.4746 284.493 86.4435 285.526C85.4124 286.558 84.0142 287.14 82.555 287.144Z" fill="#F5F5F5"/>
<path d="M85.7022 284.988C84.7172 284.984 83.7737 284.591 83.0772 283.894C82.3807 283.198 81.9877 282.254 81.9836 281.269V228.097C81.9877 227.112 82.3807 226.169 83.0772 225.472C83.7737 224.776 84.7172 224.382 85.7022 224.378C86.6885 224.38 87.634 224.773 88.3321 225.469C89.0302 226.166 89.4244 227.111 89.4284 228.097V281.254C89.4284 282.243 89.036 283.192 88.3375 283.892C87.6389 284.592 86.6911 284.986 85.7022 284.988Z" fill="#EBEBEB"/>
<path d="M90.5485 287.144C89.0893 287.14 87.6911 286.558 86.66 285.526C85.6289 284.493 85.0489 283.094 85.0469 281.635V227.716C85.0489 226.257 85.6289 224.858 86.66 223.825C87.6911 222.793 89.0893 222.211 90.5485 222.207C92.0084 222.211 93.4074 222.793 94.4397 223.825C95.472 224.857 96.0537 226.256 96.0578 227.716V281.635C96.0537 283.095 95.472 284.494 94.4397 285.526C93.4074 286.559 92.0084 287.14 90.5485 287.144Z" fill="#F5F5F5"/>
<path d="M93.726 284.988C92.7404 284.986 91.7957 284.594 91.0988 283.897C90.4019 283.2 90.0095 282.255 90.0074 281.269V228.097C90.0095 227.111 90.4019 226.167 91.0988 225.47C91.7957 224.773 92.7404 224.38 93.726 224.378C94.7116 224.38 95.6563 224.773 96.3532 225.47C97.0501 226.167 97.4426 227.111 97.4446 228.097V281.254C97.4456 281.743 97.3502 282.228 97.1638 282.681C96.9775 283.133 96.7039 283.544 96.3586 283.891C96.0133 284.238 95.6031 284.513 95.1514 284.701C94.6997 284.89 94.2153 284.987 93.726 284.988Z" fill="#EBEBEB"/>
<path d="M104.051 227.716C104.051 224.673 101.586 222.207 98.5456 222.207C95.505 222.207 93.0402 224.673 93.0402 227.716V281.635C93.0402 284.678 95.505 287.144 98.5456 287.144C101.586 287.144 104.051 284.678 104.051 281.635V227.716Z" fill="#F5F5F5"/>
<path d="M101.704 284.988C100.719 284.986 99.7739 284.594 99.077 283.897C98.38 283.2 97.9876 282.255 97.9856 281.269V228.097C97.9876 227.111 98.38 226.167 99.077 225.47C99.7739 224.773 100.719 224.38 101.704 224.378C102.69 224.38 103.634 224.773 104.331 225.47C105.028 226.167 105.421 227.111 105.423 228.097V281.254C105.424 281.743 105.328 282.228 105.142 282.681C104.956 283.133 104.682 283.544 104.337 283.891C103.991 284.238 103.581 284.513 103.13 284.701C102.678 284.89 102.193 284.987 101.704 284.988Z" fill="#EBEBEB"/>
<path d="M106.551 287.144C105.091 287.14 103.692 286.559 102.659 285.526C101.627 284.494 101.045 283.095 101.041 281.635V227.716C101.045 226.256 101.627 224.857 102.659 223.825C103.692 222.793 105.091 222.211 106.551 222.207C108.01 222.211 109.409 222.793 110.442 223.825C111.474 224.857 112.056 226.256 112.06 227.716V281.635C112.056 283.095 111.474 284.494 110.442 285.526C109.409 286.559 108.01 287.14 106.551 287.144Z" fill="#F5F5F5"/>
<path d="M109.728 284.988C108.742 284.986 107.796 284.594 107.098 283.897C106.4 283.2 106.006 282.256 106.002 281.269V228.097C106.006 227.111 106.4 226.166 107.098 225.469C107.796 224.773 108.742 224.38 109.728 224.378C110.713 224.382 111.657 224.776 112.353 225.472C113.05 226.169 113.443 227.112 113.447 228.097V281.254C113.447 282.242 113.055 283.189 112.358 283.889C111.661 284.589 110.716 284.984 109.728 284.988Z" fill="#EBEBEB"/>
<path d="M114.551 287.144C113.092 287.14 111.693 286.559 110.66 285.526C109.628 284.494 109.046 283.095 109.042 281.635V227.716C109.046 226.256 109.628 224.857 110.66 223.825C111.693 222.793 113.092 222.211 114.551 222.207C116.011 222.211 117.41 222.793 118.443 223.825C119.475 224.857 120.057 226.256 120.061 227.716V281.635C120.057 283.095 119.475 284.494 118.443 285.526C117.41 286.559 116.011 287.14 114.551 287.144Z" fill="#F5F5F5"/>
<path d="M117.706 284.988C116.72 284.986 115.774 284.594 115.076 283.897C114.378 283.2 113.984 282.256 113.98 281.269V228.097C113.984 227.111 114.378 226.166 115.076 225.469C115.774 224.773 116.72 224.38 117.706 224.378C118.691 224.382 119.635 224.776 120.331 225.472C121.028 226.169 121.421 227.112 121.425 228.097V281.254C121.425 282.242 121.033 283.189 120.337 283.889C119.64 284.589 118.694 284.984 117.706 284.988Z" fill="#EBEBEB"/>
<path d="M122.552 287.144C121.093 287.14 119.694 286.559 118.661 285.526C117.629 284.494 117.047 283.095 117.043 281.635V227.716C117.047 226.256 117.629 224.857 118.661 223.825C119.694 222.793 121.093 222.211 122.552 222.207C124.012 222.211 125.41 222.793 126.441 223.825C127.472 224.858 128.052 226.257 128.054 227.716V281.635C128.052 283.094 127.472 284.493 126.441 285.526C125.41 286.558 124.012 287.14 122.552 287.144Z" fill="#F5F5F5"/>
<path d="M125.73 284.988C124.745 284.984 123.802 284.591 123.105 283.894C122.409 283.198 122.015 282.254 122.011 281.269V228.097C122.015 227.112 122.409 226.169 123.105 225.472C123.802 224.776 124.745 224.382 125.73 224.378C126.716 224.38 127.662 224.773 128.36 225.469C129.058 226.166 129.452 227.111 129.456 228.097V281.254C129.456 282.243 129.064 283.192 128.365 283.892C127.667 284.592 126.719 284.986 125.73 284.988Z" fill="#EBEBEB"/>
<path d="M130.553 287.144C129.094 287.14 127.695 286.559 126.662 285.526C125.63 284.494 125.048 283.095 125.044 281.635V227.716C125.048 226.256 125.63 224.857 126.662 223.825C127.695 222.793 129.094 222.211 130.553 222.207C132.013 222.211 133.411 222.793 134.442 223.825C135.473 224.858 136.053 226.257 136.055 227.716V281.635C136.053 283.094 135.473 284.493 134.442 285.526C133.411 286.558 132.013 287.14 130.553 287.144Z" fill="#F5F5F5"/>
<path d="M137.305 277.482H121.15C120.477 277.482 119.931 278.028 119.931 278.701C119.931 279.375 120.477 279.921 121.15 279.921H137.305C137.978 279.921 138.524 279.375 138.524 278.701C138.524 278.028 137.978 277.482 137.305 277.482Z" fill="#F5F5F5"/>
<path d="M137.305 233.462H121.158C120.998 233.462 120.839 233.43 120.691 233.369C120.544 233.307 120.409 233.218 120.296 233.104C120.183 232.991 120.093 232.857 120.032 232.709C119.97 232.561 119.939 232.402 119.939 232.242C119.939 232.082 119.97 231.924 120.032 231.776C120.093 231.628 120.183 231.493 120.296 231.38C120.409 231.267 120.544 231.177 120.691 231.116C120.839 231.055 120.998 231.023 121.158 231.023H137.312C137.473 231.023 137.631 231.055 137.779 231.116C137.927 231.177 138.061 231.267 138.175 231.38C138.288 231.493 138.378 231.628 138.439 231.776C138.5 231.924 138.532 232.082 138.532 232.242C138.532 232.403 138.5 232.562 138.438 232.711C138.376 232.859 138.286 232.994 138.172 233.107C138.058 233.22 137.923 233.31 137.774 233.371C137.625 233.432 137.466 233.463 137.305 233.462Z" fill="#F5F5F5"/>
<path d="M190.5 325.801C272.097 325.801 338.244 321.939 338.244 317.175C338.244 312.411 272.097 308.549 190.5 308.549C108.903 308.549 42.7559 312.411 42.7559 317.175C42.7559 321.939 108.903 325.801 190.5 325.801Z" fill="#F5F5F5"/>
<path d="M312.29 189.479H130.172C129.197 189.489 128.23 189.296 127.333 188.914C126.436 188.531 125.628 187.966 124.961 187.254C124.293 186.543 123.78 185.701 123.455 184.782C123.13 183.862 122.999 182.885 123.071 181.912L129.746 74.4093C129.899 72.3715 130.809 70.4648 132.297 69.0634C133.784 67.6621 135.742 66.8672 137.785 66.835H319.903C320.879 66.8261 321.846 67.0196 322.743 67.4033C323.64 67.7871 324.448 68.3527 325.115 69.0645C325.782 69.7763 326.295 70.6188 326.62 71.5388C326.945 72.4587 327.076 73.4362 327.005 74.4093L320.33 181.912C320.174 183.949 319.263 185.854 317.776 187.253C316.289 188.653 314.333 189.447 312.29 189.479Z" fill="#407BFF"/>
<path opacity="0.8" d="M312.29 189.479H130.172C129.197 189.489 128.23 189.296 127.333 188.914C126.436 188.531 125.628 187.966 124.961 187.254C124.293 186.543 123.78 185.701 123.455 184.782C123.13 183.862 122.999 182.885 123.071 181.912L129.746 74.4093C129.899 72.3715 130.809 70.4648 132.297 69.0634C133.784 67.6621 135.742 66.8672 137.785 66.835H319.903C320.879 66.8261 321.846 67.0196 322.743 67.4033C323.64 67.7871 324.448 68.3527 325.115 69.0645C325.782 69.7763 326.295 70.6188 326.62 71.5388C326.945 72.4587 327.076 73.4362 327.005 74.4093L320.33 181.912C320.174 183.949 319.263 185.854 317.776 187.253C316.289 188.653 314.333 189.447 312.29 189.479Z" fill="white"/>
<path opacity="0.4" d="M153.513 97.8103H131.826C131.55 97.8143 131.275 97.7606 131.021 97.6527C130.766 97.5448 130.537 97.385 130.348 97.1835C130.159 96.982 130.013 96.7433 129.921 96.4825C129.83 96.2218 129.793 95.9447 129.814 95.6691L130.432 85.7631C130.467 85.1809 130.723 84.6341 131.148 84.2346C131.573 83.8351 132.134 83.6132 132.718 83.6143H154.404L153.513 97.8103Z" fill="white"/>
<path d="M319.789 68.7324H160.995C159.461 68.746 157.987 69.3381 156.87 70.3905C155.753 71.4429 155.073 72.878 154.968 74.4093L153.444 99.0752H131.75C131.167 99.0742 130.605 99.2961 130.18 99.6956C129.755 100.095 129.499 100.642 129.464 101.224L128.892 110.52C128.87 110.797 128.906 111.075 128.997 111.336C129.088 111.598 129.233 111.838 129.423 112.04C129.612 112.242 129.842 112.403 130.097 112.511C130.352 112.62 130.627 112.673 130.904 112.669H152.591L148.293 181.912C148.237 182.643 148.333 183.378 148.577 184.069C148.821 184.76 149.206 185.393 149.708 185.927C150.209 186.462 150.817 186.885 151.492 187.171C152.167 187.458 152.894 187.6 153.627 187.589H312.42C313.955 187.576 315.428 186.983 316.545 185.931C317.663 184.879 318.342 183.444 318.447 181.912L325.123 74.4093C325.18 73.6782 325.084 72.9432 324.841 72.2513C324.598 71.5595 324.213 70.926 323.711 70.3916C323.208 69.8572 322.6 69.4335 321.925 69.1478C321.249 68.8621 320.522 68.7206 319.789 68.7324Z" fill="white"/>
<path opacity="0.4" d="M151.638 127.528H129.982C129.705 127.532 129.429 127.478 129.174 127.37C128.918 127.262 128.688 127.101 128.498 126.899C128.308 126.697 128.163 126.458 128.07 126.196C127.978 125.934 127.941 125.656 127.963 125.379L128.542 116.083C128.577 115.501 128.833 114.954 129.258 114.555C129.683 114.155 130.245 113.933 130.828 113.934H152.514L151.638 127.528Z" fill="white"/>
<path opacity="0.4" d="M150.746 142.387H129.06C128.783 142.391 128.507 142.337 128.252 142.229C127.996 142.121 127.766 141.96 127.576 141.758C127.386 141.556 127.241 141.316 127.148 141.055C127.056 140.793 127.019 140.515 127.041 140.238L127.62 130.934C127.657 130.354 127.914 129.809 128.338 129.411C128.763 129.013 129.324 128.792 129.906 128.793H151.592L150.746 142.387Z" fill="white"/>
<path opacity="0.4" d="M149.824 157.246H128.138C127.861 157.249 127.586 157.194 127.331 157.086C127.076 156.977 126.847 156.817 126.657 156.615C126.467 156.413 126.321 156.174 126.229 155.913C126.136 155.651 126.099 155.374 126.119 155.097L126.698 145.793C126.742 145.214 127 144.673 127.423 144.275C127.847 143.877 128.403 143.652 128.984 143.645H150.67L149.824 157.246Z" fill="white"/>
<path opacity="0.4" d="M148.902 172.098H127.254C126.971 172.107 126.69 172.057 126.428 171.95C126.166 171.842 125.93 171.681 125.736 171.475C125.541 171.27 125.393 171.026 125.3 170.759C125.207 170.492 125.172 170.208 125.197 169.926L125.776 160.63C125.811 160.047 126.067 159.501 126.492 159.101C126.917 158.702 127.478 158.48 128.062 158.481H149.756L148.902 172.098Z" fill="white"/>
<path opacity="0.2" d="M131.544 110.94C131.423 110.942 131.303 110.919 131.191 110.872C131.08 110.825 130.979 110.755 130.896 110.667C130.814 110.578 130.751 110.473 130.711 110.359C130.672 110.244 130.657 110.123 130.668 110.002L131.171 101.841C131.193 101.563 131.318 101.304 131.52 101.113C131.723 100.921 131.989 100.812 132.268 100.805H150.647C150.768 100.802 150.889 100.825 151 100.872C151.112 100.919 151.212 100.989 151.295 101.078C151.378 101.166 151.441 101.271 151.48 101.386C151.52 101.5 151.534 101.622 151.524 101.742L151.021 109.911C150.996 110.187 150.871 110.445 150.669 110.635C150.466 110.825 150.201 110.933 149.923 110.94H131.544Z" fill="#407BFF"/>
<path opacity="0.3" d="M192.786 81.534H166.55C166.081 81.5373 165.615 81.4434 165.183 81.2581C164.751 81.0728 164.363 80.8002 164.041 80.4574C163.72 80.1146 163.473 79.709 163.316 79.2661C163.159 78.8232 163.095 78.3527 163.129 77.884C163.203 76.9033 163.641 75.9857 164.358 75.3117C165.074 74.6377 166.016 74.256 167 74.2417H193.22C193.69 74.2373 194.155 74.3303 194.587 74.5147C195.019 74.6991 195.408 74.971 195.729 75.3132C196.051 75.6555 196.298 76.0606 196.455 76.503C196.612 76.9455 196.675 77.4157 196.642 77.884C196.566 78.8623 196.13 79.7777 195.417 80.4522C194.705 81.1268 193.767 81.5123 192.786 81.534Z" fill="#407BFF"/>
<path d="M317.754 77.8916C317.682 78.8737 317.244 79.7932 316.528 80.4688C315.811 81.1444 314.868 81.5271 313.883 81.5416C313.413 81.546 312.947 81.4529 312.515 81.268C312.082 81.0831 311.693 80.8105 311.371 80.4674C311.05 80.1244 310.803 79.7183 310.646 79.2749C310.49 78.8316 310.427 78.3605 310.462 77.8916C310.534 76.9102 310.972 75.9916 311.689 75.3173C312.405 74.6429 313.349 74.2618 314.333 74.2493C314.803 74.2437 315.268 74.3359 315.701 74.52C316.133 74.704 316.522 74.9759 316.844 75.3183C317.166 75.6608 317.413 76.0664 317.569 76.5094C317.726 76.9523 317.789 77.4231 317.754 77.8916Z" fill="#407BFF"/>
<path opacity="0.4" d="M243.482 143.896H166.116C165.184 143.906 164.26 143.722 163.403 143.356C162.545 142.991 161.774 142.451 161.136 141.771C160.498 141.091 160.009 140.286 159.699 139.407C159.389 138.528 159.264 137.594 159.334 136.665L161.658 99.06C161.801 97.1141 162.669 95.2924 164.089 93.955C165.51 92.6175 167.381 91.8615 169.332 91.8362H246.72C247.652 91.8251 248.575 92.0079 249.432 92.3729C250.289 92.738 251.061 93.2774 251.698 93.9568C252.335 94.6363 252.824 95.4408 253.133 96.3194C253.442 97.198 253.565 98.1313 253.494 99.06L251.163 136.657C251.018 138.605 250.15 140.429 248.728 141.768C247.307 143.108 245.435 143.867 243.482 143.896ZM169.309 92.1563C167.443 92.1817 165.654 92.9056 164.296 94.185C162.937 95.4645 162.108 97.2066 161.971 99.0676L159.639 136.665C159.571 137.554 159.689 138.447 159.985 139.287C160.282 140.128 160.75 140.898 161.36 141.548C161.969 142.198 162.708 142.714 163.528 143.063C164.348 143.412 165.232 143.587 166.124 143.576H243.505C245.371 143.551 247.159 142.827 248.518 141.547C249.876 140.268 250.706 138.526 250.843 136.665L253.182 99.06C253.249 98.1714 253.13 97.2787 252.833 96.4385C252.537 95.5983 252.069 94.8288 251.459 94.179C250.849 93.5292 250.111 93.0132 249.291 92.6637C248.472 92.3142 247.588 92.1388 246.697 92.1487L169.309 92.1563Z" fill="#407BFF"/>
<path d="M175.511 116.845L186.614 124.031C188.839 120.782 191.796 118.102 195.247 116.205L189.281 104.394C183.783 107.414 179.068 111.678 175.511 116.845Z" fill="#407BFF"/>
<path opacity="0.8" d="M175.511 116.845L186.614 124.031C188.839 120.782 191.796 118.102 195.247 116.205L189.281 104.394C183.783 107.414 179.068 111.678 175.511 116.845Z" fill="white"/>
<path d="M168.821 136.093H182.415C182.7 131.767 184.151 127.599 186.614 124.031L175.511 116.845C171.585 122.54 169.273 129.191 168.821 136.093Z" fill="#263238"/>
<path d="M207.538 99.6391C201.14 99.6527 194.85 101.283 189.25 104.379L195.217 116.205C198.718 114.275 202.649 113.256 206.647 113.241C209.595 113.204 212.518 113.781 215.23 114.935C217.943 116.09 220.385 117.797 222.402 119.947C224.418 122.098 225.965 124.645 226.943 127.426C227.921 130.207 228.309 133.161 228.082 136.101H241.676C242.987 115.961 227.678 99.6391 207.538 99.6391Z" fill="#407BFF"/>
<path d="M198.714 157.734H158.862C158.773 157.734 158.685 157.716 158.603 157.681C158.521 157.645 158.448 157.593 158.387 157.528C158.326 157.463 158.279 157.386 158.25 157.302C158.22 157.219 158.208 157.129 158.214 157.041L158.389 154.236C158.406 154.046 158.494 153.87 158.635 153.741C158.776 153.613 158.961 153.542 159.151 153.543H199.004L198.714 157.734Z" fill="#407BFF"/>
<path opacity="0.2" d="M198.714 157.734H249.006C249.197 157.735 249.381 157.664 249.522 157.536C249.663 157.407 249.751 157.231 249.768 157.041L249.944 154.236C249.95 154.148 249.938 154.058 249.908 153.974C249.878 153.891 249.832 153.814 249.771 153.749C249.71 153.684 249.637 153.632 249.555 153.596C249.473 153.561 249.385 153.543 249.296 153.543H199.004L198.714 157.734Z" fill="#407BFF"/>
<path d="M225.781 168.791H158.176C158.087 168.792 157.998 168.775 157.916 168.74C157.833 168.705 157.759 168.653 157.698 168.588C157.637 168.522 157.591 168.445 157.561 168.36C157.532 168.276 157.521 168.186 157.528 168.097L157.704 165.301C157.721 165.111 157.808 164.934 157.95 164.806C158.091 164.677 158.275 164.606 158.466 164.607H226.07L225.781 168.791Z" fill="#407BFF"/>
<path opacity="0.2" d="M225.781 168.791H248.321C248.511 168.791 248.695 168.721 248.837 168.592C248.978 168.464 249.065 168.287 249.083 168.097L249.258 165.301C249.265 165.212 249.254 165.122 249.225 165.037C249.195 164.953 249.149 164.876 249.088 164.81C249.027 164.745 248.953 164.693 248.87 164.658C248.788 164.623 248.7 164.606 248.61 164.607H226.04L225.781 168.791Z" fill="#407BFF"/>
<path d="M165.43 179.832H157.49C157.401 179.832 157.313 179.814 157.231 179.779C157.15 179.743 157.076 179.691 157.015 179.626C156.954 179.561 156.908 179.484 156.878 179.401C156.848 179.317 156.836 179.227 156.842 179.139L157.018 176.334C157.035 176.144 157.123 175.968 157.264 175.839C157.405 175.711 157.589 175.64 157.78 175.641H165.72L165.43 179.832Z" fill="#407BFF"/>
<path opacity="0.2" d="M165.43 179.832H247.65C247.841 179.833 248.025 179.762 248.166 179.634C248.307 179.505 248.395 179.329 248.412 179.139L248.587 176.334C248.594 176.245 248.581 176.155 248.551 176.071C248.521 175.986 248.473 175.909 248.412 175.844C248.35 175.779 248.276 175.727 248.193 175.692C248.111 175.657 248.022 175.64 247.932 175.641H165.689L165.43 179.832Z" fill="#407BFF"/>
<path d="M265.763 180.175C265.722 180.176 265.682 180.169 265.644 180.153C265.606 180.138 265.572 180.115 265.544 180.085C265.516 180.056 265.495 180.021 265.481 179.982C265.468 179.944 265.462 179.903 265.466 179.862L270.921 91.9963C270.927 91.9114 270.965 91.8318 271.027 91.7738C271.09 91.7158 271.172 91.6836 271.257 91.6838C271.297 91.6837 271.336 91.6919 271.373 91.7078C271.41 91.7238 271.443 91.7472 271.47 91.7766C271.497 91.8059 271.518 91.8406 271.531 91.8784C271.544 91.9162 271.549 91.9564 271.546 91.9963L266.09 179.832C266.091 179.876 266.084 179.92 266.068 179.961C266.052 180.002 266.028 180.039 265.998 180.071C265.967 180.103 265.931 180.129 265.89 180.146C265.85 180.164 265.807 180.174 265.763 180.175Z" fill="#407BFF"/>
<path d="M271.904 115.016C271.859 115.581 271.606 116.109 271.193 116.498C270.781 116.886 270.238 117.108 269.672 117.119C269.401 117.122 269.132 117.069 268.883 116.962C268.633 116.856 268.409 116.699 268.223 116.501C268.038 116.304 267.895 116.069 267.805 115.814C267.714 115.558 267.678 115.287 267.698 115.016C267.744 114.45 267.998 113.921 268.412 113.532C268.826 113.143 269.371 112.923 269.939 112.913C270.21 112.909 270.479 112.962 270.728 113.068C270.978 113.174 271.202 113.331 271.387 113.529C271.573 113.727 271.714 113.962 271.803 114.218C271.892 114.474 271.927 114.746 271.904 115.016Z" fill="white"/>
<path d="M269.657 117.432C269.345 117.432 269.037 117.369 268.751 117.246C268.465 117.123 268.207 116.943 267.993 116.717C267.779 116.491 267.613 116.223 267.506 115.931C267.399 115.638 267.353 115.327 267.371 115.016C267.418 114.364 267.708 113.754 268.184 113.306C268.659 112.857 269.285 112.603 269.939 112.593C270.251 112.593 270.56 112.656 270.846 112.779C271.133 112.903 271.391 113.083 271.605 113.31C271.82 113.537 271.985 113.806 272.092 114.099C272.198 114.393 272.243 114.705 272.225 115.016C272.177 115.667 271.887 116.277 271.411 116.724C270.935 117.171 270.309 117.424 269.657 117.432ZM269.916 113.226C269.433 113.232 268.969 113.42 268.618 113.751C268.267 114.083 268.053 114.534 268.018 115.016C268.001 115.246 268.032 115.476 268.109 115.693C268.186 115.91 268.307 116.109 268.465 116.276C268.622 116.444 268.813 116.577 269.025 116.667C269.237 116.757 269.465 116.802 269.695 116.799C270.177 116.793 270.639 116.607 270.99 116.276C271.341 115.946 271.556 115.497 271.592 115.016C271.61 114.786 271.58 114.555 271.504 114.337C271.427 114.119 271.306 113.92 271.149 113.751C270.991 113.583 270.8 113.449 270.588 113.359C270.375 113.268 270.146 113.223 269.916 113.226Z" fill="#407BFF"/>
<path d="M270.731 133.944C270.686 134.509 270.432 135.037 270.02 135.426C269.607 135.815 269.065 136.036 268.498 136.047C268.227 136.05 267.959 135.997 267.709 135.89C267.46 135.784 267.235 135.627 267.05 135.429C266.864 135.232 266.722 134.998 266.631 134.742C266.541 134.486 266.505 134.215 266.525 133.944C266.566 133.377 266.818 132.845 267.231 132.453C267.644 132.061 268.188 131.838 268.757 131.826C269.03 131.822 269.301 131.875 269.552 131.982C269.803 132.089 270.029 132.247 270.215 132.447C270.401 132.646 270.543 132.883 270.632 133.141C270.721 133.399 270.754 133.672 270.731 133.944Z" fill="white"/>
<path d="M268.483 136.398C268.172 136.398 267.863 136.335 267.577 136.212C267.291 136.09 267.033 135.909 266.819 135.683C266.605 135.457 266.439 135.19 266.332 134.897C266.225 134.605 266.179 134.293 266.197 133.982C266.245 133.331 266.535 132.72 267.01 132.272C267.485 131.823 268.111 131.569 268.765 131.559C269.077 131.559 269.386 131.622 269.673 131.745C269.959 131.869 270.218 132.05 270.432 132.277C270.646 132.504 270.812 132.772 270.918 133.065C271.024 133.359 271.07 133.671 271.051 133.982C271.003 134.634 270.713 135.243 270.237 135.69C269.762 136.138 269.136 136.39 268.483 136.398ZM268.742 132.192C268.259 132.198 267.796 132.386 267.445 132.717C267.093 133.049 266.879 133.5 266.845 133.982C266.827 134.212 266.857 134.443 266.933 134.661C267.01 134.878 267.131 135.077 267.288 135.245C267.446 135.413 267.637 135.546 267.85 135.635C268.062 135.725 268.291 135.769 268.521 135.766C269.003 135.759 269.465 135.573 269.816 135.243C270.168 134.913 270.382 134.463 270.419 133.982C270.442 133.749 270.416 133.514 270.342 133.291C270.269 133.069 270.149 132.865 269.99 132.692C269.832 132.519 269.639 132.382 269.424 132.289C269.209 132.197 268.976 132.15 268.742 132.154V132.192Z" fill="#407BFF"/>
<path d="M268.056 143.149L265.275 147.5H270.304L268.056 143.149Z" fill="white"/>
<path d="M270.281 147.828H265.252C265.199 147.828 265.147 147.814 265.102 147.787C265.056 147.76 265.019 147.722 264.993 147.676C264.965 147.627 264.95 147.572 264.95 147.516C264.95 147.459 264.965 147.404 264.993 147.356L267.782 143.005C267.811 142.959 267.851 142.921 267.898 142.895C267.945 142.869 267.999 142.856 268.053 142.856C268.107 142.856 268.16 142.869 268.207 142.895C268.254 142.921 268.294 142.959 268.323 143.005L270.609 147.356C270.632 147.407 270.642 147.462 270.637 147.518C270.633 147.574 270.615 147.628 270.585 147.674C270.555 147.721 270.513 147.76 270.464 147.787C270.415 147.814 270.36 147.828 270.304 147.828H270.281ZM265.839 147.203H269.748L267.995 143.789L265.839 147.203Z" fill="#407BFF"/>
<path d="M303.619 180.175C303.578 180.176 303.538 180.169 303.5 180.153C303.463 180.138 303.429 180.115 303.401 180.085C303.373 180.056 303.351 180.021 303.337 179.982C303.324 179.944 303.318 179.903 303.322 179.862L308.778 91.9963C308.783 91.9114 308.821 91.8318 308.884 91.7738C308.946 91.7158 309.028 91.6836 309.113 91.6838C309.154 91.6826 309.194 91.69 309.232 91.7055C309.269 91.721 309.303 91.7442 309.331 91.7737C309.359 91.8032 309.381 91.8382 309.394 91.8766C309.408 91.9149 309.413 91.9557 309.41 91.9963L303.954 179.832C303.954 179.922 303.919 180.008 303.856 180.072C303.794 180.136 303.709 180.173 303.619 180.175Z" fill="#407BFF"/>
<path d="M307.597 149.893C307.618 149.623 307.582 149.352 307.493 149.096C307.403 148.84 307.262 148.606 307.077 148.408C306.892 148.211 306.668 148.053 306.419 147.947C306.17 147.84 305.901 147.787 305.631 147.79C305.063 147.799 304.518 148.02 304.104 148.409C303.69 148.798 303.436 149.327 303.39 149.893C303.37 150.163 303.406 150.435 303.497 150.691C303.587 150.946 303.73 151.18 303.915 151.378C304.101 151.576 304.325 151.733 304.575 151.839C304.824 151.946 305.093 151.999 305.364 151.996C305.93 151.985 306.473 151.763 306.885 151.375C307.298 150.986 307.551 150.458 307.597 149.893Z" fill="white"/>
<path d="M305.349 152.309C305.037 152.309 304.729 152.246 304.443 152.123C304.157 152 303.899 151.82 303.685 151.594C303.471 151.368 303.305 151.1 303.198 150.808C303.091 150.515 303.045 150.204 303.063 149.893C303.11 149.242 303.401 148.632 303.876 148.185C304.352 147.738 304.978 147.485 305.631 147.477C305.942 147.477 306.25 147.54 306.536 147.663C306.823 147.786 307.081 147.966 307.295 148.192C307.509 148.418 307.674 148.686 307.781 148.978C307.888 149.271 307.934 149.582 307.917 149.893C307.869 150.544 307.579 151.154 307.103 151.601C306.628 152.048 306.001 152.301 305.349 152.309ZM305.608 148.102C305.125 148.11 304.663 148.299 304.312 148.63C303.961 148.961 303.746 149.412 303.71 149.893C303.693 150.123 303.724 150.354 303.801 150.571C303.878 150.788 303.999 150.987 304.156 151.155C304.314 151.324 304.505 151.457 304.716 151.548C304.928 151.639 305.156 151.685 305.387 151.684C305.869 151.676 306.331 151.487 306.682 151.156C307.034 150.825 307.248 150.374 307.284 149.893C307.301 149.663 307.27 149.432 307.193 149.215C307.116 148.998 306.996 148.799 306.838 148.631C306.681 148.462 306.49 148.329 306.278 148.238C306.066 148.147 305.838 148.101 305.608 148.102Z" fill="#407BFF"/>
<path d="M310.538 102.565C310.559 102.295 310.524 102.022 310.434 101.766C310.344 101.51 310.201 101.276 310.016 101.078C309.83 100.88 309.605 100.723 309.355 100.617C309.105 100.511 308.836 100.458 308.564 100.462C307.996 100.472 307.452 100.692 307.038 101.081C306.624 101.47 306.369 101.999 306.324 102.565C306.304 102.836 306.34 103.107 306.431 103.363C306.521 103.618 306.663 103.852 306.849 104.05C307.034 104.248 307.259 104.405 307.508 104.511C307.758 104.618 308.026 104.671 308.298 104.668C308.866 104.659 309.41 104.438 309.824 104.049C310.238 103.66 310.492 103.131 310.538 102.565Z" fill="white"/>
<path d="M308.282 104.981C307.969 104.988 307.658 104.93 307.368 104.809C307.079 104.689 306.818 104.509 306.603 104.281C306.387 104.053 306.222 103.783 306.117 103.487C306.013 103.192 305.972 102.878 305.996 102.565C306.044 101.913 306.334 101.303 306.809 100.854C307.285 100.406 307.911 100.152 308.564 100.142C308.876 100.141 309.185 100.205 309.472 100.328C309.759 100.452 310.017 100.632 310.231 100.859C310.445 101.086 310.611 101.355 310.717 101.648C310.824 101.942 310.869 102.254 310.85 102.565C310.801 103.216 310.51 103.824 310.035 104.271C309.56 104.718 308.935 104.971 308.282 104.981ZM308.549 100.774C308.066 100.781 307.603 100.969 307.251 101.3C306.9 101.632 306.686 102.083 306.652 102.565C306.634 102.795 306.664 103.026 306.74 103.243C306.817 103.461 306.938 103.66 307.095 103.828C307.253 103.995 307.444 104.129 307.657 104.218C307.869 104.308 308.098 104.352 308.328 104.348C308.81 104.342 309.272 104.155 309.623 103.825C309.974 103.495 310.189 103.046 310.225 102.565C310.243 102.335 310.213 102.104 310.137 101.886C310.061 101.668 309.94 101.469 309.782 101.3C309.624 101.132 309.433 100.998 309.221 100.907C309.009 100.817 308.78 100.772 308.549 100.774Z" fill="#407BFF"/>
<path d="M306.812 128.717L304.571 124.358H309.593L306.812 128.717Z" fill="white"/>
<path d="M306.789 129.029C306.735 129.029 306.682 129.015 306.637 128.986C306.591 128.958 306.554 128.918 306.53 128.869L304.282 124.518C304.256 124.47 304.242 124.417 304.242 124.362C304.242 124.308 304.256 124.254 304.282 124.206C304.311 124.158 304.353 124.118 304.402 124.09C304.451 124.062 304.507 124.047 304.564 124.046H309.593C309.648 124.045 309.702 124.06 309.749 124.088C309.796 124.117 309.834 124.157 309.86 124.206C309.886 124.254 309.899 124.308 309.899 124.362C309.899 124.417 309.886 124.47 309.86 124.518L307.086 128.869C307.053 128.918 307.009 128.959 306.957 128.987C306.906 129.015 306.848 129.029 306.789 129.029ZM305.097 124.678L306.85 128.085L309.029 124.678H305.097Z" fill="#407BFF"/>
<path d="M284.691 180.175C284.65 180.176 284.61 180.169 284.572 180.153C284.534 180.138 284.5 180.114 284.472 180.085C284.444 180.056 284.423 180.02 284.409 179.982C284.396 179.944 284.39 179.903 284.394 179.862L289.85 91.9962C289.855 91.9113 289.893 91.8318 289.955 91.7738C290.018 91.7158 290.1 91.6836 290.185 91.6838C290.225 91.6825 290.265 91.6898 290.303 91.7054C290.34 91.7209 290.373 91.7443 290.401 91.7739C290.428 91.8036 290.449 91.8387 290.462 91.8771C290.475 91.9154 290.479 91.9561 290.474 91.9962L285.026 179.832C285.026 179.922 284.991 180.008 284.928 180.072C284.866 180.136 284.78 180.173 284.691 180.175Z" fill="#407BFF"/>
<path d="M290.505 120.396C290.459 120.962 290.205 121.491 289.791 121.88C289.377 122.269 288.833 122.49 288.265 122.499C287.993 122.503 287.724 122.451 287.475 122.344C287.225 122.238 287.001 122.081 286.816 121.883C286.63 121.685 286.489 121.45 286.4 121.194C286.311 120.938 286.276 120.666 286.299 120.396C286.344 119.831 286.597 119.303 287.01 118.914C287.422 118.526 287.965 118.304 288.531 118.293C288.802 118.29 289.071 118.344 289.32 118.45C289.57 118.556 289.794 118.713 289.98 118.911C290.165 119.109 290.308 119.343 290.398 119.598C290.489 119.854 290.525 120.126 290.505 120.396Z" fill="white"/>
<path d="M288.249 122.834C287.937 122.835 287.628 122.772 287.342 122.648C287.055 122.525 286.797 122.344 286.582 122.117C286.368 121.89 286.203 121.622 286.096 121.328C285.99 121.035 285.945 120.723 285.963 120.411C286.011 119.76 286.301 119.151 286.777 118.703C287.252 118.256 287.878 118.004 288.531 117.996C288.843 117.995 289.151 118.058 289.437 118.181C289.723 118.304 289.981 118.484 290.195 118.71C290.409 118.937 290.575 119.204 290.682 119.497C290.789 119.789 290.835 120.1 290.817 120.411C290.77 121.063 290.48 121.673 290.004 122.122C289.529 122.571 288.903 122.825 288.249 122.834ZM288.508 118.621C288.026 118.629 287.564 118.817 287.213 119.148C286.862 119.479 286.647 119.93 286.611 120.411C286.594 120.641 286.625 120.872 286.702 121.089C286.779 121.306 286.9 121.505 287.057 121.674C287.215 121.842 287.405 121.976 287.617 122.067C287.829 122.158 288.057 122.204 288.287 122.202C288.77 122.194 289.232 122.006 289.583 121.674C289.934 121.343 290.149 120.893 290.185 120.411C290.203 120.181 290.173 119.95 290.096 119.732C290.02 119.514 289.899 119.315 289.741 119.146C289.584 118.978 289.393 118.844 289.18 118.754C288.968 118.663 288.739 118.618 288.508 118.621Z" fill="#407BFF"/>
<path d="M287.891 162.504C287.846 163.069 287.592 163.597 287.18 163.986C286.767 164.374 286.225 164.596 285.659 164.607C285.387 164.611 285.118 164.559 284.868 164.453C284.618 164.347 284.393 164.19 284.207 163.992C284.021 163.794 283.879 163.559 283.789 163.303C283.699 163.047 283.664 162.775 283.685 162.504C283.73 161.939 283.984 161.411 284.396 161.023C284.809 160.634 285.351 160.412 285.918 160.401C286.189 160.398 286.457 160.452 286.707 160.558C286.956 160.664 287.181 160.821 287.366 161.019C287.552 161.217 287.694 161.451 287.785 161.707C287.875 161.962 287.911 162.234 287.891 162.504Z" fill="white"/>
<path d="M285.636 164.92C285.324 164.92 285.016 164.857 284.73 164.734C284.444 164.611 284.186 164.431 283.972 164.205C283.758 163.979 283.592 163.711 283.485 163.419C283.378 163.126 283.332 162.815 283.35 162.504C283.397 161.852 283.687 161.242 284.163 160.793C284.638 160.345 285.264 160.091 285.918 160.081C286.23 160.08 286.539 160.144 286.825 160.267C287.112 160.39 287.37 160.571 287.585 160.798C287.799 161.025 287.964 161.294 288.071 161.587C288.177 161.881 288.222 162.193 288.204 162.504C288.156 163.155 287.866 163.765 287.39 164.212C286.915 164.659 286.289 164.912 285.636 164.92ZM285.895 160.713C285.412 160.72 284.949 160.907 284.597 161.239C284.246 161.571 284.032 162.022 283.997 162.504C283.981 162.734 284.011 162.964 284.088 163.181C284.165 163.398 284.286 163.596 284.444 163.764C284.601 163.932 284.792 164.065 285.004 164.155C285.216 164.245 285.444 164.29 285.674 164.287C286.156 164.281 286.618 164.094 286.969 163.764C287.32 163.434 287.535 162.985 287.571 162.504C287.589 162.274 287.559 162.043 287.483 161.825C287.406 161.607 287.286 161.408 287.128 161.239C286.97 161.071 286.779 160.937 286.567 160.846C286.354 160.756 286.126 160.711 285.895 160.713Z" fill="#407BFF"/>
<path d="M289.91 96.1035L287.122 100.462H292.151L289.91 96.1035Z" fill="white"/>
<path d="M292.128 100.774H287.106C287.051 100.775 286.998 100.76 286.95 100.732C286.903 100.704 286.865 100.663 286.84 100.614C286.814 100.566 286.8 100.513 286.8 100.458C286.8 100.404 286.814 100.35 286.84 100.302L289.621 95.951C289.651 95.9054 289.691 95.868 289.739 95.842C289.787 95.8161 289.841 95.8026 289.895 95.8026C289.95 95.8026 290.003 95.8161 290.051 95.842C290.099 95.868 290.14 95.9054 290.17 95.951L292.41 100.302C292.438 100.349 292.453 100.403 292.453 100.458C292.453 100.513 292.438 100.567 292.41 100.614C292.379 100.661 292.337 100.7 292.288 100.728C292.239 100.756 292.184 100.772 292.128 100.774ZM287.693 100.142H291.625L289.865 96.774L287.693 100.142Z" fill="#407BFF"/>
<path d="M84.9935 118.727L84.2315 122.438L83.4695 126.248C82.9665 128.778 82.5398 131.308 82.1512 133.792C81.9531 135.034 81.8007 136.261 81.6711 137.472C81.5416 138.684 81.4273 139.857 81.3663 140.993C81.3134 142.029 81.3134 143.066 81.3663 144.102C81.3663 144.993 81.5645 145.755 81.5264 145.839L81.0158 144.963C80.7872 144.734 80.3681 144.521 80.2995 144.62C80.231 144.719 80.4977 144.894 80.9853 145.024C81.6131 145.172 82.2535 145.262 82.898 145.291C83.7163 145.315 84.5354 145.294 85.3516 145.23C87.2007 145.078 89.0399 144.823 90.8609 144.468C91.8134 144.285 92.7811 144.094 93.7412 143.881L96.5911 143.264L96.9721 143.18C97.8644 142.989 98.7951 143.109 99.6099 143.52C100.425 143.93 101.074 144.607 101.452 145.438C101.829 146.269 101.911 147.204 101.684 148.088C101.456 148.971 100.934 149.751 100.203 150.297L98.778 151.348L97.376 152.309C96.4158 152.918 95.4481 153.513 94.4423 154.061C92.3778 155.2 90.2214 156.163 87.9957 156.942C86.7804 157.35 85.5411 157.683 84.2848 157.94C82.8587 158.233 81.4049 158.371 79.949 158.351C78.1245 158.33 76.3183 157.985 74.615 157.33C72.419 156.452 70.5167 154.97 69.1286 153.055C68.9821 152.846 68.8498 152.627 68.7324 152.4L68.6181 152.179C67.6677 150.256 67.0126 148.201 66.675 146.083C66.394 144.415 66.231 142.729 66.1873 141.039C66.1314 139.449 66.1314 137.899 66.1873 136.39C66.2432 134.882 66.3473 133.396 66.4997 131.933C66.7588 129.007 67.1931 126.157 67.6884 123.33C67.9475 121.92 68.2066 120.518 68.5266 119.123C68.679 118.422 68.8314 117.721 69.0067 117.02L69.5706 114.864C70.0975 112.855 71.3866 111.131 73.1642 110.058C74.9418 108.985 77.0678 108.647 79.0905 109.116C81.1132 109.586 82.8733 110.825 83.9969 112.571C85.1204 114.317 85.5189 116.433 85.1078 118.468L84.9935 118.727Z" fill="#407BFF"/>
<path opacity="0.2" d="M84.9935 118.727L84.2315 122.438L83.4695 126.248C82.9665 128.778 82.5398 131.308 82.1512 133.792C81.9531 135.034 81.8007 136.261 81.6711 137.472C81.5416 138.684 81.4273 139.857 81.3663 140.993C81.3134 142.029 81.3134 143.066 81.3663 144.102C81.3663 144.993 81.5645 145.755 81.5264 145.839L81.0158 144.963C80.7872 144.734 80.3681 144.521 80.2995 144.62C80.231 144.719 80.4977 144.894 80.9853 145.024C81.6131 145.172 82.2535 145.262 82.898 145.291C83.7163 145.315 84.5354 145.294 85.3516 145.23C87.2007 145.078 89.0399 144.823 90.8609 144.468C91.8134 144.285 92.7811 144.094 93.7412 143.881L96.5911 143.264L96.9721 143.18C97.8644 142.989 98.7951 143.109 99.6099 143.52C100.425 143.93 101.074 144.607 101.452 145.438C101.829 146.269 101.911 147.204 101.684 148.088C101.456 148.971 100.934 149.751 100.203 150.297L98.778 151.348L97.376 152.309C96.4158 152.918 95.4481 153.513 94.4423 154.061C92.3778 155.2 90.2214 156.163 87.9957 156.942C86.7804 157.35 85.5411 157.683 84.2848 157.94C82.8587 158.233 81.4049 158.371 79.949 158.351C78.1245 158.33 76.3183 157.985 74.615 157.33C72.419 156.452 70.5167 154.97 69.1286 153.055C68.9821 152.846 68.8498 152.627 68.7324 152.4L68.6181 152.179C67.6677 150.256 67.0126 148.201 66.675 146.083C66.394 144.415 66.231 142.729 66.1873 141.039C66.1314 139.449 66.1314 137.899 66.1873 136.39C66.2432 134.882 66.3473 133.396 66.4997 131.933C66.7588 129.007 67.1931 126.157 67.6884 123.33C67.9475 121.92 68.2066 120.518 68.5266 119.123C68.679 118.422 68.8314 117.721 69.0067 117.02L69.5706 114.864C70.0975 112.855 71.3866 111.131 73.1642 110.058C74.9418 108.985 77.0678 108.647 79.0905 109.116C81.1132 109.586 82.8733 110.825 83.9969 112.571C85.1204 114.317 85.5189 116.433 85.1078 118.468L84.9935 118.727Z" fill="black"/>
<path d="M65.7073 313.624C65.7073 313.624 58.4987 307.086 58.674 305.013L52.6847 301.965L49.1185 308.122L52.4256 309.974L53.34 309.677L53.942 310.721C56.929 312.245 63.4517 315.224 65.7301 315.14C65.8652 314.91 65.9345 314.646 65.9305 314.379C65.9265 314.112 65.8493 313.851 65.7073 313.624Z" fill="#263238"/>
<path d="M66.2254 236.692C70.584 205.45 69.1591 186.5 73.7387 171.115L102.085 168.829C102.085 168.829 89.5197 218.359 83.7971 238.978C78.0745 259.598 59.9999 306.355 59.9999 306.355L52.1132 302.316C52.1132 302.316 58.5521 260.848 66.2254 236.692Z" fill="#263238"/>
<path opacity="0.2" d="M89.3445 191.925C87.4167 196.383 83.6524 225.011 83.6676 239.306C83.6676 239.207 83.7286 239.093 83.7591 238.986C85.7784 231.739 88.6511 220.911 91.5162 209.931L89.3445 191.925Z" fill="black"/>
<path d="M111.252 314.645C111.252 314.645 99.4943 311.978 98.9533 310.073H91.4933L90.8761 317.182H95.0214L95.7834 316.527L96.713 317.182C100.066 317.182 109.758 317.182 111.846 315.963C111.862 314.881 111.252 314.645 111.252 314.645Z" fill="#263238"/>
<path d="M91.3409 237.569C85.1154 195.27 85.1154 169.08 85.1154 169.08L112.852 168.631C112.852 168.631 109.522 219.075 108.364 240.205C107.168 262.174 100.31 310.53 100.31 310.53H90.678C90.678 310.53 88.392 264.734 91.3409 237.569Z" fill="#263238"/>
<path d="M88.3311 89.6646C87.0128 97.9627 84.6201 102.413 82.9971 106.535C85.7936 109.141 91.7829 112.365 97.8256 112.281C103.868 112.197 102.771 108.105 101.148 105.994C96.8121 103.807 96.6445 101.597 97.7037 99.662L88.3311 89.6646Z" fill="#7F3E3B"/>
<path d="M77.9679 107.709C77.9679 107.709 81.8236 103.175 83.3476 102.413C84.8716 101.651 96.4007 103.175 99.121 103.723C101.841 104.272 105.156 108.295 105.156 108.295L77.9679 107.709Z" fill="#263238"/>
<path d="M107.442 88.9712C107.32 89.5198 107.511 90.0227 107.869 90.0989C108.227 90.1751 108.631 89.7941 108.737 89.2455C108.844 88.6968 108.669 88.1939 108.311 88.1177C107.953 88.0415 107.549 88.392 107.442 88.9712Z" fill="#263238"/>
<path d="M107.221 89.7255C107.501 91.5345 108.029 93.2961 108.791 94.9605C107.617 95.6539 106.063 94.8843 106.063 94.8843L107.221 89.7255Z" fill="#630F0F"/>
<path d="M109.316 85.8241C109.27 85.8501 109.217 85.8638 109.164 85.8638C109.111 85.8638 109.058 85.8501 109.012 85.8241C108.639 85.6467 108.23 85.561 107.818 85.5742C107.405 85.5875 107.002 85.6993 106.642 85.9003C106.607 85.9244 106.567 85.9412 106.525 85.9496C106.483 85.9581 106.44 85.958 106.398 85.9495C106.356 85.941 106.316 85.9241 106.281 85.9C106.245 85.8758 106.215 85.8448 106.192 85.8089C106.168 85.7729 106.151 85.7325 106.143 85.69C106.134 85.6475 106.134 85.6037 106.142 85.5612C106.151 85.5186 106.168 85.4782 106.192 85.4422C106.216 85.4063 106.247 85.3755 106.284 85.3517C106.733 85.0892 107.24 84.9396 107.76 84.9157C108.281 84.8919 108.799 84.9944 109.271 85.2145C109.31 85.2318 109.346 85.2569 109.376 85.2882C109.406 85.3194 109.43 85.3563 109.445 85.3967C109.461 85.4371 109.468 85.4802 109.467 85.5235C109.466 85.5667 109.456 85.6093 109.438 85.6488C109.422 85.7207 109.378 85.7833 109.316 85.8241Z" fill="#263238"/>
<path d="M89.2911 83.4086C88.2015 90.2056 87.2109 94.1299 89.8398 98.3056C93.7869 104.585 102.794 103.304 105.895 96.9493C108.699 91.2343 110.018 81.0768 104.028 76.9925C102.702 76.0877 101.168 75.534 99.5691 75.3833C97.9705 75.2326 96.3599 75.4897 94.8877 76.1306C93.4156 76.7715 92.13 77.7753 91.1513 79.0481C90.1725 80.3209 89.5325 81.8212 89.2911 83.4086Z" fill="#7F3E3B"/>
<path d="M101.643 89.916C107.145 91.1047 105.545 84.3077 104.226 83.6295C107.533 85.6107 109.728 83.3095 109.56 81.2368C112.09 80.8177 111.961 76.6648 110.223 76.5353C109.126 73.6626 103.998 71.247 103.045 73.0225C100.279 69.8068 92.8726 70.3555 93.947 72.6872C91.1353 72.1386 85.1459 72.39 87.15 76.6267C82.8752 77.1754 83.0809 84.4906 85.8698 85.2526C82.9514 86.868 85.7784 92.3849 87.0357 95.8444C88.293 99.3039 100.82 96.2254 101.643 89.916Z" fill="#263238"/>
<path d="M98.5114 89.2226C98.2749 90.6708 98.5962 92.1549 99.4106 93.3755C100.485 94.8995 102.146 93.947 102.794 92.1106C103.373 90.4647 103.51 87.691 101.978 86.8604C100.447 86.0298 98.7933 87.3633 98.5114 89.2226Z" fill="#7F3E3B"/>
<path d="M78.3564 106.947C87.729 105.796 101.026 105.895 109.85 107.434C112.038 107.82 114.036 108.922 115.531 110.565C117.026 112.209 117.933 114.303 118.11 116.517C119.207 129.982 116.228 153.513 113.652 177.203C92.8878 184.168 71.8109 177.104 71.8109 177.104C71.346 172.326 73.9216 156.667 75.5294 148.308C74.3483 139.682 71.3537 129.799 69.6696 118.331C69.478 117.011 69.5518 115.666 69.8867 114.375C70.2216 113.084 70.8108 111.873 71.6199 110.813C72.429 109.752 73.4416 108.864 74.5984 108.201C75.7551 107.537 77.0328 107.11 78.3564 106.947Z" fill="#407BFF"/>
<path opacity="0.2" d="M106.558 125.799C107.975 133.906 112.464 143.568 116.571 149.962C117.135 144.361 117.607 139.027 117.904 134.104L106.558 125.799Z" fill="black"/>
<path d="M175.207 107.015C172.175 105.089 168.503 104.446 164.998 105.228C161.492 106.01 158.441 108.152 156.515 111.183C154.589 114.215 153.946 117.887 154.728 121.393C155.509 124.898 157.652 127.949 160.683 129.875C159.327 131.704 155.349 137.076 154.137 139.149C152.613 141.656 151.851 143.911 152.903 144.536C153.955 145.161 155.555 143.386 157.041 140.879C158.275 138.814 161.11 132.763 162.062 130.691C165.192 132.327 168.838 132.676 172.221 131.662C175.605 130.648 178.458 128.353 180.173 125.265C181.888 122.177 182.329 118.542 181.401 115.134C180.473 111.726 178.25 108.815 175.207 107.023V107.015ZM178.46 124.717C177.262 126.728 175.494 128.34 173.38 129.347C171.267 130.354 168.901 130.712 166.584 130.375C164.267 130.039 162.101 129.022 160.362 127.455C158.622 125.888 157.386 123.84 156.809 121.571C156.233 119.301 156.343 116.912 157.125 114.704C157.906 112.497 159.325 110.571 161.201 109.17C163.077 107.768 165.326 106.955 167.665 106.832C170.003 106.709 172.325 107.282 174.338 108.478C175.676 109.273 176.844 110.323 177.776 111.57C178.708 112.816 179.384 114.234 179.767 115.742C180.15 117.251 180.232 118.82 180.008 120.36C179.783 121.9 179.258 123.38 178.46 124.717Z" fill="#407BFF"/>
<path opacity="0.2" d="M179.017 125.044C177.755 127.168 175.891 128.869 173.662 129.934C171.432 130.998 168.938 131.377 166.493 131.024C164.048 130.67 161.763 129.599 159.926 127.947C158.09 126.295 156.785 124.135 156.176 121.741C155.568 119.346 155.683 116.825 156.507 114.497C157.331 112.168 158.827 110.136 160.806 108.657C162.786 107.179 165.159 106.321 167.626 106.191C170.093 106.062 172.543 106.667 174.666 107.93C176.076 108.767 177.307 109.875 178.289 111.188C179.27 112.502 179.984 113.996 180.388 115.585C180.792 117.175 180.879 118.828 180.643 120.451C180.408 122.074 179.855 123.635 179.017 125.044Z" fill="#407BFF"/>
<path d="M159.586 136.901L157.932 135.438C157.625 135.165 157.258 134.97 156.86 134.869C156.462 134.769 156.046 134.765 155.646 134.859L151.836 135.727C151.092 135.898 150.399 136.244 149.815 136.738C149.232 137.231 148.775 137.856 148.483 138.562L148.118 139.446C150.685 142.06 155.387 142.997 155.387 142.997L156.705 143.408C156.972 143.502 157.254 143.541 157.536 143.523C157.818 143.506 158.093 143.433 158.347 143.308C158.6 143.183 158.826 143.009 159.011 142.796C159.196 142.583 159.337 142.335 159.426 142.067L160.287 139.484C160.428 139.031 160.437 138.548 160.312 138.09C160.188 137.633 159.936 137.22 159.586 136.901Z" fill="#7F3E3B"/>
<path d="M117.706 113.759L119.23 117.104L120.838 120.518C121.912 122.804 123.048 125.006 124.183 127.163C124.757 128.24 125.346 129.283 125.951 130.294C126.538 131.308 127.14 132.283 127.749 133.182C128.306 134.004 128.904 134.798 129.54 135.56C130.073 136.215 130.622 136.688 130.637 136.764L129.692 136.375C130.737 136.861 131.864 137.146 133.015 137.213C134.629 137.353 136.251 137.374 137.869 137.274C139.606 137.198 141.397 137.015 143.203 136.802C144.109 136.688 145.031 136.581 145.953 136.444L148.681 136.078L149.055 136.025C149.954 135.904 150.867 136.093 151.645 136.559C152.423 137.025 153.02 137.741 153.339 138.59C153.657 139.439 153.678 140.371 153.398 141.234C153.119 142.097 152.554 142.839 151.798 143.34L150.411 144.254L149.047 145.077C148.125 145.603 147.196 146.113 146.235 146.601C145.275 147.089 144.308 147.523 143.309 147.935C142.311 148.346 141.282 148.697 140.261 149.07C138.057 149.801 135.785 150.312 133.48 150.594C130.715 150.964 127.904 150.793 125.204 150.091C125.008 150.036 124.817 149.965 124.633 149.878L124.267 149.703C122.346 148.78 120.582 147.561 119.04 146.091C117.817 144.948 116.676 143.72 115.626 142.418C113.742 140.094 112.026 137.639 110.49 135.072C108.966 132.611 107.64 130.112 106.383 127.605C105.766 126.34 105.148 125.082 104.584 123.795C104.303 123.154 104.013 122.507 103.746 121.859L102.923 119.825C102.135 117.891 102.136 115.726 102.926 113.794C103.716 111.862 105.232 110.316 107.148 109.488C109.065 108.661 111.229 108.617 113.177 109.367C115.126 110.117 116.702 111.601 117.569 113.5L117.706 113.759Z" fill="#407BFF"/>
<path d="M276.492 288.676C275.318 279.464 280.454 272.034 285.422 264.841C291.267 256.383 297.309 247.642 293.736 235.641C292.761 232.355 291.125 229.303 288.927 226.672C286.797 232.14 283.165 236.894 278.45 240.388C271.821 245.326 263.972 246.88 258.508 244.358C255.422 242.941 251.65 239.596 251.079 231.762C250.515 223.746 255.171 218.046 263.522 216.522C271.874 214.998 282.016 218.046 288.668 225.217C290.348 220.256 290.829 214.968 290.07 209.786L290.832 209.68C291.636 215.122 291.094 220.679 289.255 225.864C291.655 228.655 293.432 231.926 294.467 235.458C298.148 247.802 291.998 256.703 286.047 265.306C280.934 272.705 276.141 279.692 277.246 288.608L276.492 288.676ZM267.858 216.896C266.451 216.893 265.045 217.015 263.66 217.261C255.727 218.702 251.307 224.119 251.833 231.686C252.245 237.592 254.66 241.729 258.828 243.642C264.063 246.05 271.592 244.526 278 239.756C282.702 236.275 286.3 231.513 288.364 226.04C285.76 223.185 282.595 220.899 279.066 219.325C275.538 217.752 271.722 216.925 267.858 216.896Z" fill="#263238"/>
<path d="M290.756 212.347C284.721 206.959 284.028 199.85 287.564 198.349C292.463 196.268 294.292 204.925 290.756 212.347Z" fill="#407BFF"/>
<path d="M286.177 264.414C281.864 257.556 281.605 249.006 286.87 248.412C291.663 247.848 292.715 255.971 286.177 264.414Z" fill="#407BFF"/>
<path d="M290.893 214.61C290.063 209.497 292.577 205.687 294.94 206.365C298.209 207.302 295.656 212.339 290.893 214.61Z" fill="#407BFF"/>
<path d="M279.029 239.321C276.385 233.622 278.077 228.341 281.064 228.356C285.194 228.387 283.83 235.115 279.029 239.321Z" fill="#407BFF"/>
<path d="M268.879 216.591C263.439 217.513 259.354 214.853 260.063 212.331C261.046 208.834 266.433 211.546 268.879 216.591Z" fill="#407BFF"/>
<path d="M268.879 216.591C265.542 214.808 265.069 212.156 266.776 211.447C269.176 210.464 270.319 213.657 268.879 216.591Z" fill="#407BFF"/>
<path d="M295.107 239.268C293.789 235.709 295.184 233.401 296.944 234.018C299.39 234.879 298.132 238.018 295.107 239.268Z" fill="#407BFF"/>
<path d="M252.306 236.776C248.534 237.188 246.636 235.252 247.665 233.728C249.098 231.549 251.841 233.538 252.306 236.776Z" fill="#407BFF"/>
<path d="M300.656 288.578L298.858 301.807L299.613 301.91L301.411 288.681L300.656 288.578Z" fill="#407BFF"/>
<path d="M298.364 305.169L297.495 311.564L298.25 311.667L299.119 305.272L298.364 305.169Z" fill="#407BFF"/>
<path d="M262.128 282.877L266.54 315.14C266.617 315.704 266.896 316.22 267.325 316.594C267.753 316.968 268.303 317.175 268.872 317.175H292.692C293.261 317.175 293.81 316.968 294.239 316.594C294.667 316.22 294.946 315.704 295.023 315.14L299.435 282.877C299.48 282.545 299.453 282.207 299.356 281.886C299.259 281.564 299.095 281.268 298.874 281.015C298.654 280.763 298.381 280.56 298.076 280.421C297.771 280.283 297.439 280.211 297.104 280.21H264.414C264.082 280.217 263.756 280.294 263.456 280.435C263.156 280.577 262.89 280.78 262.674 281.032C262.458 281.284 262.298 281.578 262.204 281.896C262.11 282.214 262.084 282.549 262.128 282.877Z" fill="#407BFF"/>
</svg>
