<svg width="381" height="381" viewBox="0 0 381 381" fill="none" xmlns="http://www.w3.org/2000/svg">
<path d="M381 291.389H0V291.579H381V291.389Z" fill="#E0E0E0"/>
<path d="M81.412 298.62H55.1992V298.811H81.412V298.62Z" fill="#E0E0E0"/>
<path d="M227.244 299.977H219.41V300.167H227.244V299.977Z" fill="#E0E0E0"/>
<path d="M104.135 301.333H89.3826V301.523H104.135V301.333Z" fill="#E0E0E0"/>
<path d="M319.88 300.883H300.312V301.074H319.88V300.883Z" fill="#E0E0E0"/>
<path d="M286.969 298.178H273.604V298.369H286.969V298.178Z" fill="#E0E0E0"/>
<path d="M208.399 297.873H137.015V298.064H208.399V297.873Z" fill="#E0E0E0"/>
<path d="M180.594 257.404H33.4594C32.3067 257.401 31.202 256.942 30.3877 256.126C29.5733 255.311 29.116 254.205 29.116 253.052V46.2228C29.126 45.0768 29.5878 43.981 30.401 43.1735C31.2143 42.3659 32.3133 41.9119 33.4594 41.9099H180.594C181.748 41.9099 182.855 42.3683 183.671 43.1843C184.487 44.0003 184.945 45.107 184.945 46.2609V253.052C184.945 254.206 184.487 255.313 183.671 256.129C182.855 256.945 181.748 257.404 180.594 257.404ZM33.4594 42.0623C32.3572 42.0643 31.301 42.5036 30.5224 43.2836C29.7438 44.0636 29.3065 45.1207 29.3065 46.2228V253.052C29.3065 254.155 29.7438 255.212 30.5224 255.992C31.301 256.772 32.3572 257.211 33.4594 257.213H180.594C181.697 257.211 182.754 256.772 183.534 255.992C184.313 255.212 184.752 254.155 184.754 253.052V46.2228C184.752 45.12 184.313 44.0629 183.534 43.2831C182.754 42.5033 181.697 42.0643 180.594 42.0623H33.4594Z" fill="#E0E0E0"/>
<path d="M345.422 257.404H198.28C197.127 257.401 196.021 256.942 195.206 256.127C194.39 255.311 193.931 254.206 193.929 253.052V46.2228C193.941 45.0761 194.404 43.9803 195.219 43.173C196.033 42.3657 197.133 41.9119 198.28 41.9099H345.422C346.567 41.9139 347.664 42.3688 348.476 43.1761C349.287 43.9835 349.748 45.0781 349.758 46.2228V253.052C349.758 254.204 349.302 255.308 348.489 256.124C347.676 256.939 346.573 257.399 345.422 257.404ZM198.28 42.0623C197.177 42.0643 196.12 42.5033 195.34 43.2831C194.56 44.0629 194.121 45.12 194.119 46.2228V253.052C194.121 254.155 194.56 255.212 195.34 255.992C196.12 256.772 197.177 257.211 198.28 257.213H345.422C346.525 257.211 347.582 256.772 348.362 255.992C349.142 255.212 349.581 254.155 349.583 253.052V46.2228C349.581 45.12 349.142 44.0629 348.362 43.2831C347.582 42.5033 346.525 42.0643 345.422 42.0623H198.28Z" fill="#E0E0E0"/>
<path d="M333.261 178.651H315.163V292.768H333.261V178.651Z" fill="#E0E0E0"/>
<path d="M329.816 292.768H333.253V282.991H326.212L329.816 292.768Z" fill="#F0F0F0"/>
<path d="M265.633 178.651H247.536V292.768H265.633V178.651Z" fill="#E0E0E0"/>
<path d="M333.253 178.651H262.631V286.771H333.253V178.651Z" fill="#F0F0F0"/>
<path d="M299.093 181.851V274.549H330.586V181.851H299.093Z" fill="#E0E0E0"/>
<path d="M265.298 181.851V274.549H296.791V181.851H265.298Z" fill="#E0E0E0"/>
<path d="M284.157 184.587H277.924C276.587 184.59 275.263 184.322 274.033 183.798C272.803 183.274 271.693 182.505 270.769 181.539H291.343C290.416 182.51 289.301 183.281 288.065 183.805C286.829 184.329 285.5 184.595 284.157 184.587Z" fill="#F0F0F0"/>
<path d="M318.28 184.587H312.047C310.709 184.591 309.386 184.323 308.155 183.799C306.925 183.275 305.815 182.506 304.891 181.539H325.465C324.538 182.509 323.423 183.28 322.187 183.804C320.951 184.328 319.622 184.595 318.28 184.587Z" fill="#F0F0F0"/>
<path d="M266.067 292.768H262.631V282.991H269.672L266.067 292.768Z" fill="#F0F0F0"/>
<path d="M298.178 78.9583H262.349V118.3H298.178V78.9583Z" fill="#E0E0E0"/>
<path d="M302.065 78.9583H265.054V118.3H302.065V78.9583Z" fill="#F0F0F0"/>
<path d="M298.956 115.191V82.052H268.148V115.191H298.956Z" fill="#FAFAFA"/>
<path d="M291.488 107.16V90.0835H275.615V107.16H291.488Z" fill="#F0F0F0"/>
<path d="M216.035 56.3804H54.8335V164.508H216.035V56.3804Z" fill="#E0E0E0"/>
<path d="M220.188 56.3804H56.7766V164.508H220.188V56.3804Z" fill="#EBEBEB"/>
<path d="M216.035 164.508H54.8335V172.212H216.035V164.508Z" fill="#E0E0E0"/>
<path d="M227.091 164.508H63.6804V172.212H227.091V164.508Z" fill="#EBEBEB"/>
<path d="M214.381 158.702V62.1868L62.5755 62.1868V158.702H214.381Z" fill="#F5F5F5"/>
<path d="M98.6257 158.702L132.695 62.1868H148.781L114.712 158.702H98.6257Z" fill="#FAFAFA"/>
<path d="M65.2652 125.958C65.1554 125.956 65.0508 125.911 64.9738 125.833C64.8968 125.755 64.8537 125.649 64.8538 125.539V65.9586C64.8538 65.9046 64.8644 65.8511 64.8851 65.8011C64.9058 65.7512 64.9361 65.7059 64.9743 65.6676C65.0125 65.6294 65.0579 65.5991 65.1078 65.5784C65.1577 65.5578 65.2112 65.5471 65.2652 65.5471C65.3751 65.5471 65.4805 65.5902 65.5589 65.6672C65.6373 65.7441 65.6823 65.8488 65.6843 65.9586V125.539C65.6843 125.651 65.6402 125.757 65.5616 125.836C65.483 125.914 65.3764 125.958 65.2652 125.958Z" fill="#EBEBEB"/>
<path d="M118.163 158.702L152.232 62.1868H158.504L124.435 158.702H118.163Z" fill="#FAFAFA"/>
<path d="M214.381 158.702V62.1868H213.642V158.702H214.381Z" fill="#E0E0E0"/>
<path d="M221.559 69.6085H60.3581L59.8247 64.4421H221.026L221.559 69.6085Z" fill="#E0E0E0"/>
<path d="M221.559 73.3957H60.3581L59.8247 68.2217H221.026L221.559 73.3957Z" fill="#E0E0E0"/>
<path d="M221.559 77.9372H60.3581L59.8247 72.7632H221.026L221.559 77.9372Z" fill="#E0E0E0"/>
<path d="M221.559 82.9894H60.3581L59.8247 77.823H221.026L221.559 82.9894Z" fill="#E0E0E0"/>
<path d="M221.559 89.0473H60.3581L59.8247 83.8733H221.026L221.559 89.0473Z" fill="#E0E0E0"/>
<path d="M221.559 95.8519H60.3581L59.8247 90.6855H221.026L221.559 95.8519Z" fill="#E0E0E0"/>
<path d="M299.611 126.065H277.033V150.861H299.611V126.065Z" fill="#E0E0E0"/>
<path d="M302.057 126.065H278.732V150.861H302.057V126.065Z" fill="#F0F0F0"/>
<path d="M300.106 148.902V128.016H280.69V148.902H300.106Z" fill="#FAFAFA"/>
<path d="M285.392 138.844V138.082C285.394 136.756 285.922 135.484 286.861 134.547C287.8 133.61 289.072 133.083 290.398 133.083C291.724 133.083 292.995 133.61 293.933 134.547C294.87 135.485 295.397 136.756 295.397 138.082V138.844C295.397 140.17 294.87 141.441 293.933 142.379C292.995 143.316 291.724 143.843 290.398 143.843C289.072 143.843 287.8 143.316 286.861 142.379C285.922 141.442 285.394 140.17 285.392 138.844Z" fill="#F0F0F0"/>
<path d="M335.394 102.413H308.816V131.597H335.394V102.413Z" fill="#E0E0E0"/>
<path d="M338.275 102.413H310.82V131.597H338.275V102.413Z" fill="#F0F0F0"/>
<path d="M335.973 129.296V104.714H313.121V129.296H335.973Z" fill="#FAFAFA"/>
<path d="M324.551 110.795L318.303 121.615H330.8L324.551 110.795Z" fill="#F0F0F0"/>
<path d="M221.887 220.988H187.719V292.768H221.887V220.988Z" fill="#E0E0E0"/>
<path d="M218.45 292.768H221.887V282.991H214.846L218.45 292.768Z" fill="#F0F0F0"/>
<path d="M99.1361 220.988H64.968V292.768H99.1361V220.988Z" fill="#E0E0E0"/>
<path d="M221.887 220.988H96.1416V286.771H221.887V220.988Z" fill="#F0F0F0"/>
<path d="M219.22 223.898H98.8086V241.943H219.22V223.898Z" fill="#E0E0E0"/>
<path d="M165.24 229.507H152.781C150.103 229.506 147.452 228.96 144.992 227.902C142.531 226.843 140.313 225.294 138.471 223.35H179.55C177.709 225.295 175.49 226.845 173.03 227.904C170.569 228.962 167.918 229.508 165.24 229.507Z" fill="#F0F0F0"/>
<path d="M99.5782 292.768H96.1416V282.991H103.182L99.5782 292.768Z" fill="#F0F0F0"/>
<path d="M219.22 244.861H98.8086V262.905H219.22V244.861Z" fill="#E0E0E0"/>
<path d="M165.24 250.462H152.781C150.103 250.461 147.454 249.916 144.994 248.858C142.533 247.801 140.314 246.254 138.471 244.312H179.55C177.708 246.256 175.488 247.803 173.028 248.86C170.568 249.917 167.918 250.462 165.24 250.462Z" fill="#F0F0F0"/>
<path d="M219.22 265.816H98.8086V283.86H219.22V265.816Z" fill="#E0E0E0"/>
<path d="M165.24 271.424H152.781C150.103 271.422 147.453 270.875 144.993 269.817C142.533 268.758 140.314 267.211 138.471 265.267H179.55C177.708 267.212 175.489 268.76 173.029 269.819C170.568 270.877 167.918 271.424 165.24 271.424Z" fill="#F0F0F0"/>
<path d="M153.924 220.203H174.193V186.438H153.924V220.203Z" fill="#FAFAFA"/>
<path d="M171.038 220.729H172.418V186.964H171.038V220.729Z" fill="#F0F0F0"/>
<path d="M172.517 220.988H176.06C176.33 220.988 176.548 220.769 176.548 220.5V187.2C176.548 186.931 176.33 186.713 176.06 186.713H172.517C172.248 186.713 172.029 186.931 172.029 187.2V220.5C172.029 220.769 172.248 220.988 172.517 220.988Z" fill="#E0E0E0"/>
<path d="M172.029 202.547H176.548V194.538H172.029V202.547Z" fill="#F0F0F0"/>
<path d="M172.029 209.954H176.548V205.016H172.029V209.954Z" fill="#F0F0F0"/>
<path d="M152.903 220.988H171.168C171.437 220.988 171.656 220.769 171.656 220.5V187.2C171.656 186.931 171.437 186.713 171.168 186.713H152.903C152.634 186.713 152.415 186.931 152.415 187.2V220.5C152.415 220.769 152.634 220.988 152.903 220.988Z" fill="#E0E0E0"/>
<path d="M144.048 220.119H166.406V182.88H144.048V220.119Z" fill="#FAFAFA"/>
<path d="M162.931 220.706H164.447V183.467H162.931V220.706Z" fill="#F0F0F0"/>
<path d="M164.561 220.988H168.463C168.762 220.988 169.004 220.745 169.004 220.447V183.718C169.004 183.419 168.762 183.177 168.463 183.177H164.561C164.263 183.177 164.02 183.419 164.02 183.718V220.447C164.02 220.745 164.263 220.988 164.561 220.988Z" fill="#E6E6E6"/>
<path d="M164.02 196.504H169.004V195.217H164.02V196.504Z" fill="#F0F0F0"/>
<path d="M164.02 200.238H169.004V198.951H164.02V200.238Z" fill="#F0F0F0"/>
<path d="M164.02 203.972H169.004V202.684H164.02V203.972Z" fill="#F0F0F0"/>
<path d="M142.921 220.988H163.06C163.359 220.988 163.601 220.745 163.601 220.447V183.718C163.601 183.419 163.359 183.177 163.06 183.177H142.921C142.622 183.177 142.38 183.419 142.38 183.718V220.447C142.38 220.745 142.622 220.988 142.921 220.988Z" fill="#E6E6E6"/>
<path d="M110.764 213.741C113.929 213.741 116.495 211.176 116.495 208.011C116.495 204.846 113.929 202.281 110.764 202.281C107.6 202.281 105.034 204.846 105.034 208.011C105.034 211.176 107.6 213.741 110.764 213.741Z" fill="#E6E6E6"/>
<path d="M106.718 210.746C106.718 211.633 106.455 212.499 105.963 213.236C105.47 213.973 104.77 214.548 103.951 214.886C103.131 215.225 102.23 215.314 101.361 215.14C100.491 214.967 99.693 214.539 99.0667 213.912C98.4404 213.284 98.0143 212.485 97.8422 211.616C97.6702 210.746 97.76 209.845 98.1003 209.026C98.4406 208.208 99.0161 207.508 99.7539 207.017C100.492 206.526 101.359 206.264 102.245 206.266C102.833 206.266 103.416 206.382 103.959 206.607C104.502 206.832 104.995 207.162 105.411 207.578C105.826 207.995 106.156 208.489 106.38 209.032C106.604 209.576 106.719 210.158 106.718 210.746Z" fill="#E6E6E6"/>
<path d="M120.571 216.477C123.736 216.477 126.302 213.911 126.302 210.746C126.302 207.582 123.736 205.016 120.571 205.016C117.407 205.016 114.841 207.582 114.841 210.746C114.841 213.911 117.407 216.477 120.571 216.477Z" fill="#E6E6E6"/>
<path d="M132.148 214.367C135.074 213.162 136.469 209.812 135.264 206.886C134.058 203.96 130.709 202.565 127.783 203.771C124.856 204.976 123.462 208.325 124.667 211.252C125.873 214.178 129.222 215.573 132.148 214.367Z" fill="#E6E6E6"/>
<path d="M89.0093 209.809C89.0093 209.809 89.7713 220.988 119.946 220.988C150.122 220.988 150.876 209.809 150.876 209.809H89.0093Z" fill="#EBEBEB"/>
<path d="M190.5 325.801C272.097 325.801 338.244 321.939 338.244 317.175C338.244 312.411 272.097 308.549 190.5 308.549C108.903 308.549 42.7559 312.411 42.7559 317.175C42.7559 321.939 108.903 325.801 190.5 325.801Z" fill="#F5F5F5"/>
<path opacity="0.4" d="M202.605 101.012L187.987 210.57L306.298 226.356L320.916 116.799L202.605 101.012Z" fill="#FAFAFA"/>
<path d="M193.998 89.3979L176.624 219.609L314.881 238.018L332.232 107.846L193.998 89.3979ZM308.366 210.785L287.647 183.688L264.147 201.656L228.791 155.448L191.544 183.924L202.601 101.041L320.909 116.822L308.366 210.785Z" fill="#407BFF"/>
<path opacity="0.6" d="M193.998 89.3979L176.624 219.609L314.881 238.018L332.232 107.846L193.998 89.3979ZM308.366 210.785L287.647 183.688L264.147 201.656L228.791 155.448L191.544 183.924L202.601 101.041L320.909 116.822L308.366 210.785Z" fill="#FAFAFA"/>
<path d="M290.883 151.554C295.218 142.778 291.619 132.148 282.842 127.813C274.066 123.477 263.437 127.077 259.101 135.853C254.766 144.63 258.366 155.259 267.142 159.594C275.918 163.93 286.547 160.33 290.883 151.554Z" fill="#407BFF"/>
<path opacity="0.6" d="M290.883 151.554C295.218 142.778 291.619 132.148 282.842 127.813C274.066 123.477 263.437 127.077 259.101 135.853C254.766 144.63 258.366 155.259 267.142 159.594C275.918 163.93 286.547 160.33 290.883 151.554Z" fill="#FAFAFA"/>
<path d="M312.953 235.252L179.222 217.406C179.203 217.413 179.181 217.413 179.161 217.406C179.156 217.396 179.153 217.384 179.153 217.372C179.153 217.36 179.156 217.348 179.161 217.338L195.925 91.9811C195.919 91.9639 195.919 91.945 195.925 91.9278C195.948 91.9202 195.972 91.9202 195.994 91.9278L329.695 109.728C329.706 109.729 329.718 109.732 329.728 109.738C329.739 109.744 329.748 109.751 329.755 109.761C329.762 109.77 329.767 109.781 329.77 109.792C329.773 109.804 329.773 109.816 329.771 109.827L313.007 235.184C313.006 235.199 313 235.214 312.991 235.226C312.981 235.239 312.968 235.248 312.953 235.252ZM179.329 217.246L312.877 235.062L329.588 109.88L196.04 92.0649L179.329 217.246Z" fill="#FAFAFA"/>
<path opacity="0.4" d="M187.147 120.259H61.7295V236.395H187.147V120.259Z" fill="#FAFAFA"/>
<path d="M193.845 111.808L54.3992 112.41L54.9326 243.84H194.379L193.845 111.808ZM177.546 232.783C173.934 225.552 168.539 217.132 162.809 216.614C162.809 216.614 158.161 215.806 151.569 215.174L150.884 215.113C150.757 215.105 150.63 215.105 150.503 215.113C147.173 214.793 143.431 214.564 139.545 214.503C138.844 214.503 138.143 214.503 137.434 214.503H136.588C131.879 209.878 133.03 198.204 134.783 188.679C135.251 188.589 135.703 188.43 136.124 188.206C138.905 186.745 141.068 184.333 142.22 181.409C142.588 180.438 142.724 179.394 142.616 178.361C148.064 172.784 154.046 167.213 157.353 159.746C162.138 149.017 157.3 145.588 153.802 144.506C156.276 144.422 158.743 144.799 161.079 145.618C158.473 142.654 155.684 142.166 153.314 142.57C155.92 140.14 155.6 135.979 155.6 135.979C154.826 137.993 153.681 139.843 152.225 141.435C154.351 134.089 140.619 128.603 122.011 133.48C108.227 137.092 101.201 135.362 101.201 135.362C101.444 136.334 101.883 137.246 102.489 138.044C103.095 138.842 103.858 139.508 104.729 140.002C94.5032 146.708 95.3871 162.992 97.9856 174.346C97.6724 176.216 97.4537 178.1 97.3303 179.992C96.5683 192.687 106.291 200.635 117.424 199.042C117.424 199.271 117.508 199.499 117.546 199.736C117.584 199.972 117.645 200.391 117.683 200.711C117.775 201.473 117.843 202.159 117.874 202.883C118.118 208.476 116.304 213.68 108.463 216.073C106.939 216.301 105.415 216.56 103.891 216.835L103.388 216.926L101.689 217.239L100.805 217.414L99.4486 217.681L98.618 217.848L97.216 218.138L96.5987 218.267L95.0062 218.618L94.6404 218.694C94.0613 218.824 93.4974 218.953 92.9411 219.067L92.644 219.144L91.6457 219.365C86.3117 220.599 82.5017 221.651 82.5017 221.651C75.9485 223.739 71.8337 229.233 69.5477 233.309H65.0215L64.549 122.819L183.909 122.309L184.381 232.799L177.546 232.783Z" fill="#407BFF"/>
<path opacity="0.6" d="M193.845 111.808L54.3992 112.41L54.9326 243.84H194.379L193.845 111.808ZM177.546 232.783C173.934 225.552 168.539 217.132 162.809 216.614C162.809 216.614 158.161 215.806 151.569 215.174L150.884 215.113C150.757 215.105 150.63 215.105 150.503 215.113C147.173 214.793 143.431 214.564 139.545 214.503C138.844 214.503 138.143 214.503 137.434 214.503H136.588C131.879 209.878 133.03 198.204 134.783 188.679C135.251 188.589 135.703 188.43 136.124 188.206C138.905 186.745 141.068 184.333 142.22 181.409C142.588 180.438 142.724 179.394 142.616 178.361C148.064 172.784 154.046 167.213 157.353 159.746C162.138 149.017 157.3 145.588 153.802 144.506C156.276 144.422 158.743 144.799 161.079 145.618C158.473 142.654 155.684 142.166 153.314 142.57C155.92 140.14 155.6 135.979 155.6 135.979C154.826 137.993 153.681 139.843 152.225 141.435C154.351 134.089 140.619 128.603 122.011 133.48C108.227 137.092 101.201 135.362 101.201 135.362C101.444 136.334 101.883 137.246 102.489 138.044C103.095 138.842 103.858 139.508 104.729 140.002C94.5032 146.708 95.3871 162.992 97.9856 174.346C97.6724 176.216 97.4537 178.1 97.3303 179.992C96.5683 192.687 106.291 200.635 117.424 199.042C117.424 199.271 117.508 199.499 117.546 199.736C117.584 199.972 117.645 200.391 117.683 200.711C117.775 201.473 117.843 202.159 117.874 202.883C118.118 208.476 116.304 213.68 108.463 216.073C106.939 216.301 105.415 216.56 103.891 216.835L103.388 216.926L101.689 217.239L100.805 217.414L99.4486 217.681L98.618 217.848L97.216 218.138L96.5987 218.267L95.0062 218.618L94.6404 218.694C94.0613 218.824 93.4974 218.953 92.9411 219.067L92.644 219.144L91.6457 219.365C86.3117 220.599 82.5017 221.651 82.5017 221.651C75.9485 223.739 71.8337 229.233 69.5477 233.309H65.0215L64.549 122.819L183.909 122.309L184.381 232.799L177.546 232.783Z" fill="#FAFAFA"/>
<path d="M57.2872 242.004C57.27 242.01 57.251 242.01 57.2338 242.004C57.2269 241.984 57.2269 241.962 57.2338 241.943L56.609 114.689C56.6079 114.677 56.6093 114.665 56.613 114.654C56.6168 114.643 56.6228 114.633 56.6307 114.624C56.6386 114.616 56.6482 114.609 56.6589 114.604C56.6696 114.6 56.6811 114.597 56.6928 114.597L191.567 114.018C191.578 114.013 191.589 114.011 191.601 114.011C191.613 114.011 191.625 114.013 191.635 114.018C191.642 114.04 191.642 114.064 191.635 114.087L192.268 241.341C192.268 241.365 192.258 241.388 192.241 241.405C192.224 241.422 192.201 241.432 192.176 241.432L57.3024 242.011L57.2872 242.004ZM56.7538 114.75L57.3786 241.805L192.115 241.226L191.483 114.17L56.7538 114.75Z" fill="#FAFAFA"/>
<path d="M160.782 237.218C161.201 237.218 161.628 237.218 162.062 237.256C171.115 237.904 178.438 245.57 179.017 255.003C179.145 257.086 178.947 259.177 178.43 261.198C176.432 269.312 175.469 277.646 175.565 286.001V310.385C175.581 311.213 175.27 312.014 174.7 312.613C174.129 313.212 173.344 313.562 172.517 313.586H112.014V237.218H160.782Z" fill="#407BFF"/>
<path opacity="0.2" d="M160.782 237.218C161.201 237.218 161.628 237.218 162.062 237.256C171.115 237.904 178.438 245.57 179.017 255.003C179.145 257.086 178.947 259.177 178.43 261.198C176.432 269.312 175.469 277.646 175.565 286.001V310.385C175.581 311.213 175.27 312.014 174.7 312.613C174.129 313.212 173.344 313.562 172.517 313.586H112.014V237.218H160.782Z" fill="black"/>
<path d="M93.7261 256.253C93.7261 245.303 102.603 236.502 113.279 237.264C122.332 237.912 129.654 245.577 130.234 255.011C130.362 257.094 130.164 259.184 129.647 261.206C127.649 269.32 126.686 277.654 126.782 286.009V310.393C126.798 311.221 126.487 312.021 125.916 312.621C125.345 313.22 124.561 313.57 123.734 313.594H100.279C99.4513 313.572 98.6657 313.223 98.0945 312.623C97.5233 312.023 97.2129 311.221 97.2313 310.393V284.577C97.292 276.749 96.334 268.947 94.3814 261.366C93.9429 259.697 93.7226 257.979 93.7261 256.253Z" fill="#407BFF"/>
<path opacity="0.1" d="M93.7261 256.253C93.7261 245.303 102.603 236.502 113.279 237.264C122.332 237.912 129.654 245.577 130.234 255.011C130.362 257.094 130.164 259.184 129.647 261.206C127.649 269.32 126.686 277.654 126.782 286.009V310.393C126.798 311.221 126.487 312.021 125.916 312.621C125.345 313.22 124.561 313.57 123.734 313.594H100.279C99.4513 313.572 98.6657 313.223 98.0945 312.623C97.5233 312.023 97.2129 311.221 97.2313 310.393V284.577C97.292 276.749 96.334 268.947 94.3814 261.366C93.9429 259.697 93.7226 257.979 93.7261 256.253Z" fill="#FAFAFA"/>
<path d="M137.183 313.555H214.267V267.211H137.183V313.555Z" fill="#407BFF"/>
<path opacity="0.2" d="M137.183 313.555H214.267V267.211H137.183V313.555Z" fill="black"/>
<path d="M269.306 277.68H155.951V225.803C155.951 222.061 157.438 218.471 160.084 215.825C162.731 213.178 166.32 211.691 170.063 211.691H255.186C258.929 211.691 262.519 213.178 265.165 215.825C267.812 218.471 269.299 222.061 269.299 225.803V277.68H269.306Z" fill="#407BFF"/>
<path opacity="0.3" d="M269.306 277.68H155.951V225.803C155.951 222.061 157.438 218.471 160.084 215.825C162.731 213.178 166.32 211.691 170.063 211.691H255.186C258.929 211.691 262.519 213.178 265.165 215.825C267.812 218.471 269.299 222.061 269.299 225.803V277.68H269.306Z" fill="black"/>
<path d="M251.887 277.68H152.263V225.102C152.263 221.539 153.678 218.122 156.198 215.603C158.717 213.084 162.134 211.668 165.697 211.668H238.453C242.016 211.668 245.433 213.084 247.952 215.603C250.471 218.122 251.887 221.539 251.887 225.102V277.68Z" fill="#407BFF"/>
<path opacity="0.1" d="M251.887 277.68H152.263V225.102C152.263 221.539 153.678 218.122 156.198 215.603C158.717 213.084 162.134 211.668 165.697 211.668H238.453C242.016 211.668 245.433 213.084 247.952 215.603C250.471 218.122 251.887 221.539 251.887 225.102V277.68Z" fill="#FAFAFA"/>
<path d="M209.855 281.849H138.174C137.07 281.849 136.012 281.41 135.232 280.63C134.451 279.85 134.013 278.792 134.013 277.688V266.54C134.013 265.437 134.451 264.378 135.232 263.598C136.012 262.818 137.07 262.38 138.174 262.38H209.855C210.184 262.38 210.5 262.51 210.733 262.743C210.966 262.976 211.097 263.292 211.097 263.622V280.576C211.101 280.742 211.072 280.907 211.011 281.061C210.951 281.215 210.86 281.356 210.744 281.474C210.628 281.593 210.49 281.687 210.337 281.751C210.185 281.816 210.021 281.849 209.855 281.849Z" fill="#407BFF"/>
<path opacity="0.3" d="M209.855 281.849H138.174C137.07 281.849 136.012 281.41 135.232 280.63C134.451 279.85 134.013 278.792 134.013 277.688V266.54C134.013 265.437 134.451 264.378 135.232 263.598C136.012 262.818 137.07 262.38 138.174 262.38H209.855C210.184 262.38 210.5 262.51 210.733 262.743C210.966 262.976 211.097 263.292 211.097 263.622V280.576C211.101 280.742 211.072 280.907 211.011 281.061C210.951 281.215 210.86 281.356 210.744 281.474C210.628 281.593 210.49 281.687 210.337 281.751C210.185 281.816 210.021 281.849 209.855 281.849Z" fill="black"/>
<path d="M274.518 315.864H113.348C112.741 315.864 112.16 315.623 111.731 315.195C111.303 314.766 111.062 314.185 111.062 313.578V313.533H276.789V313.578C276.789 314.182 276.55 314.761 276.125 315.189C275.699 315.618 275.122 315.86 274.518 315.864Z" fill="#407BFF"/>
<path opacity="0.4" d="M274.518 315.864H113.348C112.741 315.864 112.16 315.623 111.731 315.195C111.303 314.766 111.062 314.185 111.062 313.578V313.533H276.789V313.578C276.789 314.182 276.55 314.761 276.125 315.189C275.699 315.618 275.122 315.86 274.518 315.864Z" fill="black"/>
<path d="M235.458 159.258C239.062 156.431 233.759 151.813 224.6 151.859C218.504 151.859 215.776 150.434 215.776 150.434C215.775 150.861 215.86 151.283 216.026 151.676C216.192 152.069 216.436 152.424 216.743 152.72C209.459 155.197 209.962 168.814 210.724 171.229L221.216 179.832C223.502 173.195 231.922 172.143 236.456 166.436C240.99 160.729 235.458 159.258 235.458 159.258Z" fill="#263238"/>
<path d="M233.85 159.517C233.85 159.517 237.66 157.376 239.497 160.98C237.825 159.889 235.842 159.375 233.85 159.517Z" fill="#263238"/>
<path d="M238.247 156.423C238.247 156.423 237.668 159.791 234.559 159.128C236.05 158.651 237.344 157.702 238.247 156.423Z" fill="#263238"/>
<path d="M167.32 157.528L162.23 156.721C162.145 156.71 162.063 156.68 161.992 156.634C161.92 156.587 161.86 156.525 161.815 156.451C161.771 156.378 161.745 156.295 161.737 156.21C161.73 156.124 161.742 156.039 161.773 155.959L165.453 144.049C165.506 143.874 165.62 143.724 165.773 143.626C165.927 143.529 166.111 143.489 166.291 143.515L171.382 144.33C171.467 144.34 171.55 144.368 171.622 144.415C171.695 144.461 171.756 144.524 171.8 144.597C171.844 144.671 171.871 144.755 171.878 144.84C171.884 144.926 171.871 145.013 171.839 145.092L168.158 156.972C168.11 157.151 167.998 157.306 167.844 157.408C167.69 157.511 167.503 157.553 167.32 157.528Z" fill="#407BFF"/>
<path opacity="0.3" d="M167.32 157.528L162.23 156.721C162.145 156.71 162.063 156.68 161.992 156.634C161.92 156.587 161.86 156.525 161.815 156.451C161.771 156.378 161.745 156.295 161.737 156.21C161.73 156.124 161.742 156.039 161.773 155.959L165.453 144.049C165.506 143.874 165.62 143.724 165.773 143.626C165.927 143.529 166.111 143.489 166.291 143.515L171.382 144.33C171.467 144.34 171.55 144.368 171.622 144.415C171.695 144.461 171.756 144.524 171.8 144.597C171.844 144.671 171.871 144.755 171.878 144.84C171.884 144.926 171.871 145.013 171.839 145.092L168.158 156.972C168.11 157.151 167.998 157.306 167.844 157.408C167.69 157.511 167.503 157.553 167.32 157.528Z" fill="black"/>
<path d="M166.695 157.429L161.597 156.621C161.513 156.61 161.432 156.579 161.362 156.532C161.291 156.485 161.231 156.423 161.188 156.349C161.145 156.276 161.119 156.194 161.112 156.109C161.105 156.024 161.117 155.939 161.148 155.859L164.828 143.949C164.881 143.775 164.995 143.625 165.148 143.527C165.302 143.429 165.486 143.39 165.666 143.416L170.757 144.231C170.842 144.24 170.925 144.269 170.997 144.316C171.07 144.362 171.131 144.424 171.175 144.498C171.22 144.572 171.246 144.655 171.253 144.741C171.26 144.827 171.246 144.913 171.214 144.993L167.533 156.911C167.478 157.083 167.363 157.229 167.209 157.324C167.056 157.419 166.874 157.456 166.695 157.429Z" fill="#263238"/>
<path d="M179.664 256.055L172.997 255.971L172.761 245.981L179.428 246.065L179.664 256.055Z" fill="#E4897B"/>
<path d="M172.669 255.194L180.167 255.285C180.229 255.284 180.291 255.296 180.349 255.318C180.406 255.341 180.459 255.375 180.504 255.418C180.548 255.461 180.584 255.513 180.609 255.57C180.633 255.627 180.646 255.688 180.647 255.75L180.815 261.694C180.811 262.012 180.682 262.317 180.455 262.541C180.228 262.765 179.922 262.89 179.604 262.89C176.997 262.814 175.794 262.646 172.464 262.608C170.437 262.608 163.495 262.761 160.698 262.722C157.902 262.684 158.069 259.918 159.258 259.674C164.592 258.608 169.576 257.068 171.511 255.605C171.843 255.347 172.249 255.203 172.669 255.194Z" fill="#263238"/>
<path d="M179.428 246.065L172.761 245.989L172.944 253.975L179.619 254.051L179.428 246.065Z" fill="#CE6F64"/>
<path d="M170.33 256.337C169.864 256.382 169.398 256.248 169.027 255.963C168.924 255.85 168.854 255.71 168.825 255.56C168.795 255.41 168.807 255.254 168.859 255.11C168.881 255.011 168.927 254.919 168.993 254.843C169.06 254.767 169.145 254.71 169.24 254.676C170.071 254.371 171.907 255.682 172.113 255.834C172.138 255.852 172.158 255.876 172.17 255.904C172.182 255.933 172.186 255.964 172.182 255.994C172.174 256.023 172.159 256.05 172.137 256.072C172.116 256.093 172.089 256.108 172.06 256.116C171.492 256.25 170.913 256.324 170.33 256.337ZM169.568 254.942C169.505 254.93 169.44 254.93 169.377 254.942C169.33 254.959 169.288 254.989 169.256 255.028C169.224 255.067 169.202 255.114 169.195 255.163C169.159 255.255 169.149 255.354 169.166 255.45C169.182 255.547 169.223 255.637 169.286 255.712C169.583 256.024 170.459 256.07 171.656 255.849C171.025 255.394 170.302 255.084 169.537 254.942H169.568Z" fill="#FAFAFA"/>
<path d="M172.022 256.123C171.994 256.133 171.965 256.133 171.938 256.123C171.298 255.727 170.345 254.325 170.513 253.594C170.542 253.461 170.615 253.342 170.72 253.257C170.825 253.171 170.956 253.123 171.092 253.121C171.211 253.104 171.332 253.115 171.446 253.153C171.56 253.191 171.663 253.256 171.747 253.342C172.403 254.005 172.189 255.933 172.182 256.009C172.178 256.036 172.168 256.061 172.152 256.082C172.136 256.104 172.115 256.121 172.09 256.131C172.067 256.135 172.043 256.132 172.022 256.123ZM171.191 253.395H171.13C170.894 253.395 170.841 253.533 170.818 253.624C170.703 254.127 171.359 255.148 171.892 255.651C171.892 255.018 171.892 253.921 171.526 253.533C171.482 253.488 171.43 253.454 171.373 253.43C171.315 253.406 171.253 253.395 171.191 253.395Z" fill="#FAFAFA"/>
<path d="M201.709 230.063C198.661 229.667 197.244 230.665 195.392 225.034C191.445 213.055 173.172 183.269 163.83 204.978C155.585 224.028 168.875 246.835 171.526 251.071C171.674 251.303 171.868 251.501 172.096 251.653C172.324 251.805 172.582 251.908 172.852 251.955L179.329 253.312C180.057 253.453 180.804 253.453 181.531 253.312C184.267 252.816 190.714 251.109 195.415 245.913C198.966 241.988 201.907 234.97 202.22 230.673C202.232 230.601 202.228 230.528 202.21 230.457C202.192 230.387 202.159 230.321 202.114 230.265C202.068 230.208 202.012 230.161 201.947 230.128C201.883 230.094 201.812 230.075 201.74 230.071L201.709 230.063Z" fill="#407BFF"/>
<path opacity="0.7" d="M201.709 230.063C198.661 229.667 197.244 230.665 195.392 225.034C191.445 213.055 173.172 183.269 163.83 204.978C155.585 224.028 168.875 246.835 171.526 251.071C171.674 251.303 171.868 251.501 172.096 251.653C172.324 251.805 172.582 251.908 172.852 251.955L179.329 253.312C180.057 253.453 180.804 253.453 181.531 253.312C184.267 252.816 190.714 251.109 195.415 245.913C198.966 241.988 201.907 234.97 202.22 230.673C202.232 230.601 202.228 230.528 202.21 230.457C202.192 230.387 202.159 230.321 202.114 230.265C202.068 230.208 202.012 230.161 201.947 230.128C201.883 230.094 201.812 230.075 201.74 230.071L201.709 230.063Z" fill="#FAFAFA"/>
<path d="M196.901 190.79C195.666 190.652 194.615 190.5 193.449 190.302C192.283 190.104 191.209 189.89 190.089 189.654C187.863 189.189 185.661 188.58 183.467 187.894C178.954 186.558 174.674 184.532 170.779 181.889C170.284 181.516 169.789 181.173 169.316 180.769C169.073 180.556 168.852 180.396 168.554 180.152C168.288 179.911 168.033 179.657 167.792 179.39C166.935 178.449 166.169 177.429 165.506 176.342C164.293 174.37 163.231 172.31 162.329 170.178C160.565 166.064 159.108 161.826 157.97 157.498L161.155 156.37C163.022 160.241 164.965 164.158 167.038 167.8C168.039 169.604 169.146 171.347 170.353 173.02C170.89 173.758 171.489 174.449 172.143 175.085C172.275 175.216 172.415 175.338 172.563 175.451C172.7 175.565 172.928 175.725 173.111 175.854C173.477 176.144 173.873 176.395 174.292 176.67C177.778 178.739 181.525 180.333 185.433 181.409C187.422 181.996 189.464 182.461 191.529 182.933C192.55 183.154 193.578 183.353 194.615 183.535C195.651 183.718 196.71 183.886 197.663 184.008L196.901 190.79Z" fill="#E4897B"/>
<path d="M206.456 186.37C204.643 182.56 191.392 182.56 191.392 182.56L191.75 195.697C191.75 195.697 198.608 196.307 201.854 194.173C205.214 191.895 208.163 189.959 206.456 186.37Z" fill="#263238"/>
<path d="M161.254 157.909L166.489 153.109L159.578 150.983C159.578 150.983 156.713 156.53 158.427 158.732L161.254 157.909Z" fill="#E4897B"/>
<path d="M167.709 147.531L162.032 147.394L159.578 150.983L166.489 153.109L167.709 147.531Z" fill="#E4897B"/>
<path d="M199.995 256.055L193.327 255.971L193.091 245.981L199.766 246.065L199.995 256.055Z" fill="#E4897B"/>
<path d="M193.007 255.194L200.498 255.285C200.56 255.284 200.621 255.296 200.679 255.318C200.737 255.341 200.789 255.375 200.834 255.418C200.879 255.461 200.914 255.513 200.939 255.57C200.963 255.627 200.977 255.688 200.978 255.75L201.145 261.694C201.135 262.007 201.004 262.304 200.78 262.523C200.555 262.742 200.255 262.865 199.941 262.867C197.335 262.791 196.093 262.623 192.794 262.585C190.767 262.585 184.694 262.738 181.897 262.7C179.101 262.661 179.268 259.895 180.465 259.652C185.799 258.585 189.913 257.046 191.841 255.582C192.179 255.332 192.587 255.196 193.007 255.194Z" fill="#263238"/>
<path d="M199.766 246.065L193.091 245.989L193.281 253.975L199.949 254.051L199.766 246.065Z" fill="#CE6F64"/>
<path d="M198.882 184.008C198.882 184.008 194.996 187.124 189.738 226.809C196.124 227.571 210.175 229.095 216.332 229.339C219.113 218.412 221.079 211.729 232.753 190.477C229.298 188.977 225.731 187.748 222.085 186.804C218.198 185.734 214.238 184.952 210.236 184.465C204.978 183.939 198.882 184.008 198.882 184.008Z" fill="#263238"/>
<path d="M210.708 184.442C209.992 184.152 208.125 184 206.22 185.905C204.315 187.81 206.411 190.477 206.411 190.477L210.708 188.191V184.442Z" fill="#407BFF"/>
<path d="M213.756 188.725L214.793 193.167C214.793 193.167 226.146 191.262 223.655 187.025L221.506 186.355L213.756 188.725Z" fill="#407BFF"/>
<path d="M210.998 192.024C210.762 192.656 210.236 193.144 209.87 193.121C209.504 193.098 209.36 192.565 209.596 191.933C209.832 191.3 210.358 190.812 210.724 190.835C211.089 190.858 211.234 191.376 210.998 192.024Z" fill="#407BFF"/>
<path opacity="0.7" d="M210.998 192.024C210.762 192.656 210.236 193.144 209.87 193.121C209.504 193.098 209.36 192.565 209.596 191.933C209.832 191.3 210.358 190.812 210.724 190.835C211.089 190.858 211.234 191.376 210.998 192.024Z" fill="#FAFAFA"/>
<path d="M225.552 172.974C223.647 176.723 220.218 183.703 222.108 186.827C222.108 186.827 219.89 190.569 212.811 189.167C205.016 187.643 210.259 184.488 210.259 184.488C214.831 184.29 215.661 181.051 215.814 177.881L225.552 172.974Z" fill="#E4897B"/>
<path d="M221.216 174.963L215.799 177.858C215.77 178.607 215.678 179.351 215.524 180.084C217.223 180.16 219.989 178.781 220.683 177.081C220.981 176.411 221.161 175.694 221.216 174.963Z" fill="#CE6F64"/>
<path d="M230.124 167.922C226.314 173.706 224.79 176.228 220.142 177.828C213.154 180.259 207.287 175.024 209.413 168.387C211.318 162.413 217.254 153.955 224.188 154.381C231.122 154.808 233.98 162.131 230.124 167.922Z" fill="#E4897B"/>
<path d="M215.943 156.53C222.413 155.768 223.38 161.902 226.84 160.652C226.84 160.652 224.386 162.451 226.032 172.159L229.416 171.069L234.696 161.125L232.601 157.604C232.601 157.604 225.255 149.116 215.943 156.53Z" fill="#263238"/>
<path d="M227.899 173.736C227.116 174.821 225.969 175.588 224.668 175.9C222.977 176.274 222.382 174.772 223.068 173.248C223.693 171.884 225.316 170.04 226.916 170.345C228.516 170.65 228.852 172.403 227.899 173.736Z" fill="#E4897B"/>
<path d="M230.353 169.461C228.166 168.783 226.291 168.128 222.344 172.159C224.781 170.677 227.516 169.756 230.353 169.461Z" fill="#263238"/>
<path d="M230.597 169.53C228.92 168.554 227.503 167.663 223.479 170.238C225.77 169.477 228.201 169.234 230.597 169.53Z" fill="#263238"/>
<path d="M220.584 165.247C220.302 165.727 219.822 166.009 219.525 165.849C219.228 165.689 219.212 165.179 219.525 164.691C219.837 164.203 220.287 163.929 220.584 164.089C220.881 164.249 220.866 164.76 220.584 165.247Z" fill="#263238"/>
<path d="M215.372 162.611C215.082 163.098 214.61 163.373 214.312 163.213C214.015 163.053 213.992 162.542 214.274 162.054C214.556 161.567 215.036 161.292 215.334 161.452C215.631 161.612 215.646 162.123 215.372 162.611Z" fill="#263238"/>
<path d="M215.456 161.544L214.541 160.645C214.541 160.645 214.579 161.849 215.456 161.544Z" fill="#263238"/>
<path d="M216.263 164.142C215.211 165.046 214.048 165.814 212.804 166.428C213.071 167.335 214.259 167.587 214.259 167.587L216.263 164.142Z" fill="#DE5753"/>
<path d="M216.835 170.795C216.122 170.792 215.42 170.622 214.785 170.299C214.747 170.281 214.717 170.249 214.703 170.209C214.688 170.169 214.691 170.124 214.709 170.086C214.727 170.048 214.76 170.018 214.8 170.004C214.84 169.989 214.884 169.992 214.922 170.01C215.522 170.309 216.183 170.464 216.854 170.464C217.524 170.464 218.185 170.309 218.785 170.01C218.822 169.99 218.865 169.986 218.904 169.997C218.944 170.009 218.978 170.035 218.999 170.071C219.01 170.088 219.017 170.108 219.02 170.128C219.024 170.148 219.023 170.169 219.018 170.189C219.013 170.209 219.004 170.228 218.991 170.244C218.979 170.26 218.963 170.274 218.945 170.284C218.293 170.621 217.569 170.797 216.835 170.795Z" fill="#263238"/>
<path d="M223.266 164.333C223.19 164.332 223.116 164.304 223.059 164.253C223.002 164.203 222.964 164.134 222.954 164.059C222.868 163.155 222.463 162.312 221.811 161.681C221.755 161.626 221.721 161.553 221.716 161.475C221.71 161.397 221.734 161.319 221.782 161.257C221.83 161.195 221.898 161.153 221.975 161.138C222.052 161.124 222.132 161.138 222.199 161.178C222.988 161.906 223.479 162.899 223.578 163.967C223.586 164.008 223.585 164.051 223.575 164.092C223.566 164.132 223.548 164.171 223.523 164.204C223.498 164.238 223.466 164.266 223.43 164.287C223.394 164.308 223.353 164.321 223.312 164.325L223.266 164.333Z" fill="#263238"/>
<path d="M217.932 158.328C217.866 158.33 217.801 158.309 217.749 158.267C217.405 158.069 217.018 157.955 216.621 157.934C216.224 157.913 215.827 157.985 215.463 158.145C215.425 158.161 215.384 158.169 215.342 158.168C215.301 158.167 215.26 158.158 215.222 158.141C215.184 158.124 215.15 158.099 215.122 158.069C215.094 158.038 215.073 158.002 215.059 157.963C215.045 157.924 215.038 157.883 215.039 157.842C215.04 157.801 215.05 157.76 215.067 157.723C215.084 157.685 215.108 157.651 215.138 157.623C215.168 157.595 215.204 157.573 215.242 157.559C215.707 157.356 216.213 157.268 216.718 157.303C217.224 157.337 217.713 157.493 218.146 157.757C218.197 157.798 218.235 157.853 218.254 157.916C218.273 157.98 218.272 158.047 218.251 158.11C218.23 158.172 218.191 158.227 218.138 158.266C218.085 158.305 218.021 158.327 217.955 158.328H217.932Z" fill="#263238"/>
<path d="M190.66 256.337C190.197 256.382 189.733 256.248 189.365 255.964C189.261 255.851 189.19 255.711 189.159 255.561C189.128 255.411 189.139 255.255 189.19 255.11C189.213 255.011 189.261 254.919 189.329 254.843C189.397 254.768 189.482 254.71 189.578 254.676C190.401 254.379 192.245 255.682 192.451 255.834C192.476 255.851 192.495 255.876 192.506 255.905C192.517 255.933 192.519 255.964 192.512 255.994C192.505 256.023 192.489 256.05 192.468 256.072C192.446 256.093 192.419 256.109 192.39 256.116C191.823 256.251 191.243 256.325 190.66 256.337ZM189.898 254.942C189.838 254.93 189.776 254.93 189.715 254.942C189.667 254.957 189.623 254.986 189.591 255.025C189.558 255.065 189.538 255.113 189.532 255.163C189.495 255.254 189.483 255.353 189.497 255.45C189.512 255.546 189.553 255.637 189.616 255.712C189.921 256.024 190.797 256.07 191.994 255.849C191.36 255.395 190.634 255.086 189.868 254.942H189.898Z" fill="#FAFAFA"/>
<path d="M192.359 256.123C192.332 256.134 192.302 256.134 192.275 256.123C191.628 255.727 190.683 254.325 190.843 253.594C190.875 253.461 190.95 253.343 191.056 253.257C191.162 253.172 191.293 253.124 191.43 253.121C191.549 253.104 191.67 253.115 191.784 253.153C191.898 253.191 192.001 253.256 192.085 253.342C192.74 254.005 192.527 255.933 192.512 256.009C192.51 256.035 192.501 256.06 192.487 256.082C192.472 256.103 192.452 256.12 192.428 256.131C192.405 256.135 192.381 256.132 192.359 256.123ZM191.529 253.395H191.46C191.232 253.395 191.178 253.533 191.155 253.624C191.041 254.127 191.696 255.148 192.222 255.651C192.26 255.018 192.222 253.921 191.856 253.533C191.814 253.489 191.763 253.454 191.707 253.43C191.65 253.407 191.59 253.395 191.529 253.395Z" fill="#FAFAFA"/>
<path d="M220.668 164.181L219.753 163.289C219.753 163.289 219.792 164.485 220.668 164.181Z" fill="#263238"/>
<path d="M217.17 227.838L217.414 230.315C217.414 230.52 217.216 230.68 216.903 230.658L189.319 228.372C189.075 228.372 188.9 228.211 188.907 228.059L189.121 225.621C189.121 225.453 189.365 225.324 189.631 225.346L216.774 227.632C216.852 227.628 216.931 227.644 217 227.68C217.07 227.717 217.129 227.771 217.17 227.838Z" fill="#263238"/>
<path d="M212.933 230.604L213.695 230.665C213.833 230.665 213.962 230.612 213.97 230.52L214.214 227.343C214.214 227.251 214.107 227.167 213.962 227.152L213.2 227.099C213.055 227.099 212.933 227.152 212.926 227.244L212.682 230.414C212.674 230.505 212.789 230.596 212.933 230.604Z" fill="#407BFF"/>
<path opacity="0.9" d="M212.933 230.604L213.695 230.665C213.833 230.665 213.962 230.612 213.97 230.52L214.214 227.343C214.214 227.251 214.107 227.167 213.962 227.152L213.2 227.099C213.055 227.099 212.933 227.152 212.926 227.244L212.682 230.414C212.674 230.505 212.789 230.596 212.933 230.604Z" fill="#FAFAFA"/>
<path d="M191.262 228.806L192.024 228.867C192.169 228.867 192.291 228.806 192.298 228.714L192.542 225.544C192.542 225.453 192.436 225.369 192.291 225.354L191.529 225.293C191.384 225.293 191.254 225.346 191.247 225.438L191.033 228.6C191.033 228.707 191.14 228.791 191.262 228.806Z" fill="#407BFF"/>
<path opacity="0.9" d="M191.262 228.806L192.024 228.867C192.169 228.867 192.291 228.806 192.298 228.714L192.542 225.544C192.542 225.453 192.436 225.369 192.291 225.354L191.529 225.293C191.384 225.293 191.254 225.346 191.247 225.438L191.033 228.6C191.033 228.707 191.14 228.791 191.262 228.806Z" fill="#FAFAFA"/>
<path d="M202.113 229.705L202.837 229.766C202.982 229.766 203.104 229.713 203.111 229.621L203.355 226.444C203.355 226.352 203.248 226.268 203.104 226.253L202.342 226.192C202.197 226.192 202.075 226.245 202.067 226.345L201.823 229.514C201.854 229.606 201.968 229.69 202.113 229.705Z" fill="#407BFF"/>
<path opacity="0.9" d="M202.113 229.705L202.837 229.766C202.982 229.766 203.104 229.713 203.111 229.621L203.355 226.444C203.355 226.352 203.248 226.268 203.104 226.253L202.342 226.192C202.197 226.192 202.075 226.245 202.067 226.345L201.823 229.514C201.854 229.606 201.968 229.69 202.113 229.705Z" fill="#FAFAFA"/>
<path d="M215.753 230.063C212.613 229.667 211.47 230.665 207.965 225.034C200.52 213.055 173.53 183.269 170.498 204.955C167.831 224.005 187.787 246.812 191.681 251.049C192.1 251.507 192.656 251.817 193.266 251.933L200.124 253.289C200.851 253.43 201.599 253.43 202.326 253.289C204.917 252.794 210.861 251.087 214.038 245.89C216.439 241.966 217.33 234.948 216.4 230.65C216.368 230.492 216.286 230.349 216.167 230.241C216.048 230.133 215.897 230.065 215.737 230.048L215.753 230.063Z" fill="#407BFF"/>
<path opacity="0.9" d="M215.753 230.063C212.613 229.667 211.47 230.665 207.965 225.034C200.52 213.055 173.53 183.269 170.498 204.955C167.831 224.005 187.787 246.812 191.681 251.049C192.1 251.507 192.656 251.817 193.266 251.933L200.124 253.289C200.851 253.43 201.599 253.43 202.326 253.289C204.917 252.794 210.861 251.087 214.038 245.89C216.439 241.966 217.33 234.948 216.4 230.65C216.368 230.492 216.286 230.349 216.167 230.241C216.048 230.133 215.897 230.065 215.737 230.048L215.753 230.063Z" fill="#FAFAFA"/>
<path d="M233.607 199.514C234.056 201.503 234.369 203.363 234.658 205.29C234.948 207.218 235.169 209.1 235.352 211.043C235.534 212.987 235.664 214.907 235.763 216.842C235.862 218.778 235.847 220.736 235.763 222.687C235.725 223.67 235.702 224.645 235.626 225.628L235.519 227.099V227.282V227.556C235.519 227.731 235.473 227.914 235.435 228.089C235.375 228.451 235.289 228.807 235.176 229.156C234.754 230.505 234.027 231.739 233.05 232.76C232.196 233.654 231.209 234.409 230.124 235.001C228.238 236.031 226.202 236.756 224.089 237.15C223.098 237.354 222.095 237.499 221.087 237.584C220.074 237.686 219.057 237.729 218.039 237.714L217.704 234.124C221.041 233.218 224.607 231.93 226.97 230.124C227.495 229.729 227.961 229.262 228.356 228.737C228.642 228.353 228.832 227.906 228.913 227.434C228.92 227.333 228.92 227.231 228.913 227.129C228.916 227.076 228.916 227.023 228.913 226.969V226.718V225.377C228.913 224.478 228.913 223.578 228.913 222.679C228.913 220.873 228.768 219.06 228.623 217.254C228.478 215.448 228.326 213.627 228.097 211.813C227.869 210 227.617 208.194 227.335 206.388C227.053 204.582 226.741 202.753 226.421 201.054L233.607 199.514Z" fill="#E4897B"/>
<path d="M232.722 190.5C236.83 191.955 237.889 203.515 237.889 203.515L225.651 209.139C225.651 209.139 222.344 199.294 224.249 195.842C226.238 192.237 229.461 189.327 232.722 190.5Z" fill="#263238"/>
<path d="M218.458 234.155L211.6 231.999L213.36 237.744C213.36 237.744 217.81 239.268 219.776 237.02L218.458 234.155Z" fill="#E4897B"/>
<path d="M206.685 234.467L207.363 239.969L213.383 237.706L211.63 231.999L206.685 234.467Z" fill="#E4897B"/>
<path d="M191.026 218.694C191.026 218.694 200.025 237.874 201.435 249.174C201.435 249.174 202.105 226.314 191.026 218.694Z" fill="#407BFF"/>
<path opacity="0.7" d="M191.026 218.694C191.026 218.694 200.025 237.874 201.435 249.174C201.435 249.174 202.105 226.314 191.026 218.694Z" fill="#FAFAFA"/>
<path d="M293.317 289.232H292.555V298.369H293.317V289.232Z" fill="#407BFF"/>
<path opacity="0.2" d="M293.317 289.232H292.555V298.369H293.317V289.232Z" fill="black"/>
<path d="M293.317 301.882H292.555V305.128H293.317V301.882Z" fill="#407BFF"/>
<path opacity="0.2" d="M293.317 301.882H292.555V305.128H293.317V301.882Z" fill="black"/>
<path d="M275.844 237.218C276.271 237.218 276.698 237.218 277.132 237.256C286.184 237.904 293.507 245.57 294.079 255.003C294.215 257.086 294.017 259.178 293.492 261.198C291.498 269.313 290.535 277.646 290.627 286.001V310.385C290.645 311.214 290.335 312.015 289.764 312.615C289.192 313.215 288.407 313.564 287.579 313.586H213.36V237.218H275.844Z" fill="#407BFF"/>
<path opacity="0.2" d="M275.844 237.218C276.271 237.218 276.698 237.218 277.132 237.256C286.184 237.904 293.507 245.57 294.079 255.003C294.215 257.086 294.017 259.178 293.492 261.198C291.498 269.313 290.535 277.646 290.627 286.001V310.385C290.645 311.214 290.335 312.015 289.764 312.615C289.192 313.215 288.407 313.564 287.579 313.586H213.36V237.218H275.844Z" fill="black"/>
<path d="M195.118 256.253C195.118 245.303 204.003 236.502 214.678 237.264C223.731 237.912 231.054 245.577 231.625 255.011C231.761 257.094 231.563 259.186 231.038 261.206C229.044 269.32 228.082 277.654 228.173 286.009V310.393C228.192 311.221 227.881 312.023 227.31 312.623C226.739 313.223 225.953 313.572 225.125 313.594H201.679C200.851 313.57 200.067 313.22 199.496 312.621C198.925 312.021 198.614 311.221 198.631 310.393V284.577C198.691 276.749 197.733 268.947 195.781 261.366C195.336 259.698 195.113 257.979 195.118 256.253Z" fill="#407BFF"/>
<path opacity="0.1" d="M195.118 256.253C195.118 245.303 204.003 236.502 214.678 237.264C223.731 237.912 231.054 245.577 231.625 255.011C231.761 257.094 231.563 259.186 231.038 261.206C229.044 269.32 228.082 277.654 228.173 286.009V310.393C228.192 311.221 227.881 312.023 227.31 312.623C226.739 313.223 225.953 313.572 225.125 313.594H201.679C200.851 313.57 200.067 313.22 199.496 312.621C198.925 312.021 198.614 311.221 198.631 310.393V284.577C198.691 276.749 197.733 268.947 195.781 261.366C195.336 259.698 195.113 257.979 195.118 256.253Z" fill="#FAFAFA"/>
</svg>
