<svg width="381" height="381" viewBox="0 0 381 381" fill="none" xmlns="http://www.w3.org/2000/svg">
<path d="M381 291.389H0V291.579H381V291.389Z" fill="#EBEBEB"/>
<path d="M180.594 257.404H33.4594C32.3067 257.402 31.202 256.942 30.3877 256.127C29.5733 255.311 29.116 254.205 29.116 253.053V46.2229C29.126 45.0769 29.5878 43.9811 30.401 43.1735C31.2143 42.366 32.3133 41.9119 33.4594 41.91H180.594C181.748 41.91 182.855 42.3684 183.671 43.1844C184.487 44.0003 184.945 45.107 184.945 46.261V253.053C184.945 254.207 184.487 255.313 183.671 256.129C182.855 256.945 181.748 257.404 180.594 257.404ZM33.4594 42.0624C32.3572 42.0644 31.301 42.5036 30.5224 43.2837C29.7438 44.0637 29.3065 45.1208 29.3065 46.2229V253.053C29.3065 254.155 29.7438 255.212 30.5224 255.992C31.301 256.772 32.3572 257.211 33.4594 257.213H180.594C181.697 257.211 182.754 256.772 183.534 255.992C184.313 255.212 184.752 254.155 184.754 253.053V46.2229C184.752 45.1201 184.313 44.063 183.534 43.2832C182.754 42.5034 181.697 42.0644 180.594 42.0624H33.4594Z" fill="#EBEBEB"/>
<path d="M345.422 257.404H198.28C197.127 257.402 196.021 256.943 195.206 256.127C194.39 255.311 193.931 254.206 193.929 253.053V46.2229C193.941 45.0762 194.404 43.9804 195.219 43.1731C196.033 42.3657 197.133 41.9119 198.28 41.91H345.422C346.567 41.9139 347.664 42.3689 348.476 43.1762C349.287 43.9835 349.748 45.0782 349.758 46.2229V253.053C349.758 254.204 349.302 255.308 348.489 256.124C347.676 256.939 346.573 257.4 345.422 257.404ZM198.28 42.0624C197.177 42.0644 196.12 42.5034 195.34 43.2832C194.56 44.063 194.121 45.1201 194.119 46.2229V253.053C194.121 254.155 194.56 255.212 195.34 255.992C196.12 256.772 197.177 257.211 198.28 257.213H345.422C346.525 257.211 347.582 256.772 348.362 255.992C349.142 255.212 349.581 254.155 349.583 253.053V46.2229C349.581 45.1201 349.142 44.063 348.362 43.2832C347.582 42.5034 346.525 42.0644 345.422 42.0624H198.28Z" fill="#EBEBEB"/>
<path d="M152.735 298.643H132.923V298.834H152.735V298.643Z" fill="#EBEBEB"/>
<path d="M81.1987 296.578H39.9745V296.768H81.1987V296.578Z" fill="#EBEBEB"/>
<path d="M132.161 305.722H112.105V305.912H132.161V305.722Z" fill="#EBEBEB"/>
<path d="M226.36 304.442H196.771V304.632H226.36V304.442Z" fill="#EBEBEB"/>
<path d="M241.287 304.442H233.141V304.632H241.287V304.442Z" fill="#EBEBEB"/>
<path d="M342.831 301.226H301.257V301.417H342.831V301.226Z" fill="#EBEBEB"/>
<path d="M269.154 243.009H315.925C324.856 243.009 332.148 237.462 332.331 230.535L334.076 187.101C334.213 181.905 328.826 177.637 322.128 177.637H292.806C286.71 177.637 281.62 181.173 280.934 185.859L269.154 243.009Z" fill="#E6E6E6"/>
<path d="M247.574 236.052H294.665V243.009H244.335C243.843 243.007 243.371 242.811 243.023 242.463C242.675 242.114 242.478 241.643 242.476 241.15C242.476 239.798 243.013 238.501 243.969 237.545C244.925 236.589 246.222 236.052 247.574 236.052Z" fill="#E6E6E6"/>
<path d="M289.964 291.389H287.83L282.816 272.621L281.749 268.643L275.082 243.84H249.646L236.921 291.412H234.795L247.749 242.865C247.829 242.661 247.973 242.489 248.157 242.373C248.342 242.256 248.56 242.202 248.778 242.217H275.935C276.152 242.202 276.368 242.257 276.552 242.373C276.736 242.49 276.877 242.662 276.957 242.865L282.793 264.673L283.853 268.666L289.964 291.389Z" fill="#E6E6E6"/>
<path d="M330.83 291.389H328.696L315.971 243.84H290.52L283.875 268.666L282.816 272.644L277.795 291.412H275.661L281.757 268.666L282.824 264.673L288.653 242.865C288.732 242.662 288.874 242.49 289.058 242.373C289.241 242.257 289.457 242.202 289.674 242.217H316.832C317.049 242.202 317.265 242.257 317.449 242.373C317.632 242.49 317.774 242.662 317.853 242.865L330.83 291.389Z" fill="#E6E6E6"/>
<path d="M79.5832 216.469H55.6488V286.923H79.5832V216.469Z" fill="#F0F0F0"/>
<path d="M165.621 286.923H60.2438V291.389H165.621V286.923Z" fill="#F0F0F0"/>
<path d="M79.5833 286.923H170.216V216.469H79.5833L79.5833 286.923Z" fill="#F5F5F5"/>
<path d="M88.9939 248.252H160.805V225.148H88.9939V248.252Z" fill="#F0F0F0"/>
<path d="M88.9939 278.252H160.805V255.148H88.9939V278.252Z" fill="#F0F0F0"/>
<path d="M135.506 235.115H114.292C113.623 235.115 113.081 235.658 113.081 236.327V237.073C113.081 237.743 113.623 238.285 114.292 238.285H135.506C136.176 238.285 136.718 237.743 136.718 237.073V236.327C136.718 235.658 136.176 235.115 135.506 235.115Z" fill="#F5F5F5"/>
<path d="M135.506 265.115H114.292C113.623 265.115 113.081 265.657 113.081 266.327V267.073C113.081 267.742 113.623 268.285 114.292 268.285H135.506C136.176 268.285 136.718 267.742 136.718 267.073V266.327C136.718 265.657 136.176 265.115 135.506 265.115Z" fill="#F5F5F5"/>
<path d="M160.02 202.098H142.494C142.646 201.671 142.799 201.214 142.951 200.726C142.958 200.701 142.958 200.675 142.951 200.65C143.043 200.355 143.134 200.05 143.226 199.735C143.561 200.135 143.975 200.462 144.441 200.695C144.908 200.928 145.417 201.063 145.938 201.092H146.235C146.732 201.047 147.198 200.837 147.562 200.496C147.925 200.155 148.163 199.702 148.24 199.21C148.244 199.151 148.231 199.092 148.201 199.042C148.171 198.991 148.126 198.951 148.072 198.928C147.379 198.536 146.602 198.316 145.807 198.285C145.012 198.255 144.221 198.415 143.5 198.752C143.683 198.029 143.858 197.267 144.018 196.466C144.03 196.432 144.03 196.394 144.018 196.36C144.064 196.139 144.109 195.91 144.148 195.682C145.138 196.672 146.014 197.152 146.822 197.152C147.805 197.152 148.643 196.39 149.39 194.942C149.413 194.882 149.413 194.816 149.39 194.756C149.368 194.696 149.325 194.646 149.268 194.615C147.34 193.365 145.23 194.219 144.3 194.721C144.384 194.135 144.46 193.533 144.513 192.923C144.559 192.413 144.59 191.902 144.612 191.399C144.892 191.748 145.238 192.037 145.63 192.25C146.023 192.464 146.454 192.596 146.898 192.641H147.074C148.148 192.542 148.971 191.475 149.283 189.807C149.291 189.736 149.272 189.665 149.23 189.608C149.187 189.549 149.126 189.506 149.055 189.487C148.3 189.268 147.505 189.228 146.731 189.368C145.958 189.508 145.228 189.825 144.597 190.294C144.597 189.807 144.597 189.319 144.536 188.831C144.712 188.863 144.891 188.881 145.07 188.885C145.638 188.854 146.191 188.686 146.68 188.396C147.17 188.105 147.582 187.7 147.881 187.216C147.9 187.183 147.91 187.147 147.91 187.109C147.91 187.072 147.9 187.035 147.881 187.002C147.864 186.966 147.84 186.934 147.81 186.908C147.78 186.882 147.744 186.862 147.706 186.85C147.289 186.642 146.832 186.524 146.366 186.504C145.9 186.484 145.435 186.563 145.001 186.736C144.598 186.972 144.301 187.354 144.17 187.802C143.611 186.771 142.827 185.878 141.876 185.191C140.925 184.504 139.831 184.04 138.676 183.832C138.646 183.824 138.613 183.824 138.583 183.832C138.552 183.84 138.524 183.856 138.501 183.878C138.477 183.9 138.459 183.927 138.45 183.958C138.44 183.989 138.44 184.022 138.448 184.053C138.699 185.677 139.164 187.658 140.581 188.625C141.135 188.99 141.786 189.178 142.448 189.166C142.997 189.156 143.541 189.066 144.064 188.9C144.144 190.054 144.144 191.213 144.064 192.367C142.563 190.769 140.66 189.606 138.554 188.999C138.527 188.989 138.497 188.986 138.468 188.99C138.439 188.994 138.412 189.004 138.387 189.021C138.363 189.037 138.343 189.058 138.328 189.084C138.314 189.109 138.305 189.137 138.303 189.166C138.237 189.773 138.314 190.387 138.53 190.958C138.746 191.528 139.094 192.04 139.545 192.451C140.373 193.098 141.406 193.428 142.456 193.38C142.968 193.376 143.478 193.322 143.98 193.22C143.881 194.173 143.744 195.11 143.576 196.002C142.707 195.362 140.223 193.716 138.036 194.401C138.007 194.411 137.981 194.429 137.959 194.451C137.938 194.474 137.923 194.501 137.914 194.531C137.889 194.592 137.889 194.66 137.914 194.721C138.875 196.245 139.774 197.122 140.741 197.419C140.989 197.494 141.245 197.532 141.503 197.533C142.156 197.51 142.79 197.313 143.34 196.962C143.081 198.15 142.791 199.248 142.494 200.238C141.824 199.651 141.024 199.232 140.16 199.016C139.296 198.8 138.393 198.793 137.526 198.996C137.499 199.002 137.474 199.013 137.453 199.03C137.431 199.046 137.414 199.067 137.402 199.091C137.389 199.115 137.382 199.142 137.381 199.169C137.38 199.196 137.386 199.223 137.396 199.248C137.575 199.762 137.862 200.233 138.238 200.627C138.614 201.022 139.07 201.331 139.576 201.534C139.939 201.68 140.327 201.755 140.719 201.755C141.216 201.753 141.704 201.621 142.136 201.374L141.854 202.197H127.125C126.759 200.482 126.363 198.516 126.126 196.352C126.708 196.549 127.318 196.65 127.932 196.649C129.342 196.624 130.712 196.175 131.864 195.362C133.807 194.036 135.171 191.955 135.247 190.172C135.252 190.131 135.247 190.088 135.232 190.049C135.217 190.01 135.193 189.975 135.161 189.947C135.13 189.92 135.092 189.9 135.051 189.89C135.011 189.88 134.968 189.88 134.927 189.89C130.439 190.348 127.262 193.228 125.928 194.676C125.715 192.61 125.606 190.535 125.601 188.458C126.424 189.021 127.392 189.336 128.389 189.365C128.842 189.363 129.291 189.294 129.723 189.159C132.116 188.397 134.295 185.798 136.337 183.063C136.373 183.018 136.399 182.967 136.415 182.912C136.43 182.857 136.435 182.8 136.429 182.743C136.423 182.695 136.403 182.65 136.372 182.613C136.341 182.577 136.299 182.55 136.253 182.537C132.268 181.31 127.246 185.524 125.623 187.033C125.667 185.179 125.814 183.33 126.065 181.493C126.954 181.671 127.857 181.763 128.763 181.767C130.819 181.835 132.838 181.206 134.493 179.984C135.404 179.253 136.145 178.333 136.665 177.287C137.185 176.241 137.471 175.094 137.503 173.926C137.503 173.713 137.351 173.591 137.114 173.652C132.192 174.879 128.062 178.3 126.317 179.916C126.37 179.588 126.431 179.253 126.5 178.918C126.524 178.843 126.524 178.763 126.5 178.689C126.5 177.264 126.042 176.228 125.113 175.702C124.016 175.085 122.332 175.169 120.122 175.969C119.985 176.017 119.869 176.112 119.794 176.235C119.767 176.29 119.752 176.35 119.752 176.411C119.752 176.471 119.767 176.532 119.794 176.586C120.244 177.461 120.92 178.199 121.753 178.723C122.585 179.247 123.543 179.538 124.526 179.565C124.884 179.559 125.241 179.521 125.593 179.451C125.42 180.381 125.275 181.31 125.159 182.24C124.008 181.287 121.349 179.779 117.081 180.861C116.955 180.892 116.842 180.964 116.761 181.066C116.681 181.153 116.637 181.268 116.639 181.386C116.853 184.434 118.163 186.355 120.084 186.522H120.358C121.371 186.522 122.911 186.058 124.93 184.183C124.756 186.271 124.703 188.368 124.77 190.462C123.185 189.563 119.436 188.016 115.626 190.37C115.529 190.419 115.45 190.498 115.403 190.596C115.356 190.694 115.344 190.805 115.367 190.911C116.403 193.594 117.775 194.897 119.558 194.897H119.604C121.089 194.897 122.812 193.967 124.854 192.131C124.976 194.142 125.181 196.063 125.44 197.846C123.916 196.665 121.806 196.855 118.826 198.402C118.693 198.47 118.588 198.584 118.529 198.722C118.504 198.776 118.496 198.836 118.506 198.894C118.515 198.952 118.542 199.007 118.582 199.05C119.773 200.132 121.31 200.755 122.918 200.81C123.924 200.813 124.912 200.55 125.783 200.048C125.921 200.81 126.065 201.526 126.202 202.22H100.813C101.3 200.909 101.834 199.377 102.337 197.648C102.36 197.597 102.375 197.543 102.382 197.488C102.575 196.868 102.766 196.228 102.954 195.567C104.706 197.411 106.718 198.425 108.669 198.425C108.878 198.423 109.086 198.411 109.294 198.387C110.361 198.297 111.366 197.843 112.139 197.101C112.911 196.359 113.405 195.373 113.538 194.31C113.545 194.187 113.516 194.065 113.454 193.959C113.391 193.853 113.298 193.769 113.188 193.716C108.73 191.491 105.278 192.496 103.556 193.342C103.944 191.818 104.318 190.218 104.646 188.549C104.68 188.481 104.696 188.405 104.691 188.328C104.783 187.856 104.866 187.383 104.95 186.903C107.038 188.976 108.89 189.997 110.581 189.997C112.646 189.997 114.391 188.473 115.984 185.341C116.029 185.216 116.028 185.078 115.982 184.953C115.936 184.828 115.848 184.722 115.733 184.655C111.664 182.019 107.229 183.817 105.27 184.876C105.453 183.634 105.606 182.369 105.72 181.066C105.72 181.066 105.72 181.021 105.72 181.005C105.811 179.939 105.872 178.864 105.91 177.775C107.96 179.862 109.637 180.388 110.795 180.388H111.168C113.454 180.16 115.161 177.927 115.816 174.407C115.826 174.336 115.822 174.263 115.804 174.194C115.785 174.125 115.753 174.06 115.71 174.003C115.619 173.875 115.487 173.784 115.336 173.744C113.746 173.285 112.07 173.199 110.441 173.492C108.812 173.785 107.272 174.45 105.941 175.435C105.941 174.414 105.895 173.385 105.827 172.387C106.199 172.458 106.576 172.496 106.954 172.502C110.719 172.502 112.768 169.149 112.86 168.989C112.896 168.921 112.915 168.845 112.915 168.768C112.915 168.691 112.896 168.615 112.86 168.547C112.781 168.393 112.648 168.273 112.486 168.211C110.063 167.32 108.143 167.244 106.794 167.983C105.941 168.475 105.314 169.282 105.049 170.231C103.873 168.057 102.224 166.175 100.223 164.724C98.2226 163.274 95.9214 162.291 93.4898 161.849C93.423 161.834 93.3537 161.835 93.2875 161.853C93.2212 161.87 93.16 161.902 93.1088 161.948C93.0598 161.994 93.0235 162.052 93.0035 162.116C92.9834 162.18 92.9803 162.248 92.9945 162.314C93.5203 165.727 94.5185 169.934 97.4979 171.892C98.6603 172.66 100.029 173.056 101.422 173.027C102.576 173.006 103.721 172.819 104.821 172.471C104.972 174.902 104.959 177.341 104.783 179.771C103.068 178.003 98.7552 174.048 93.185 172.684C93.1266 172.664 93.0643 172.658 93.003 172.666C92.9417 172.674 92.8832 172.696 92.8321 172.731C92.781 172.766 92.7387 172.812 92.7087 172.866C92.6787 172.92 92.6618 172.981 92.6592 173.043C92.4992 175.976 93.4212 178.377 95.2577 179.939C96.9914 181.298 99.1526 181.995 101.354 181.905C102.442 181.894 103.526 181.779 104.592 181.562C104.394 183.573 104.097 185.539 103.746 187.421C101.925 186.065 96.6826 182.621 92.0877 184.061C92.0259 184.078 91.9696 184.111 91.9242 184.157C91.8789 184.202 91.8459 184.258 91.8287 184.32C91.8136 184.389 91.8126 184.46 91.8257 184.53C91.8388 184.599 91.8657 184.665 91.9049 184.724C93.9318 187.978 95.8215 189.784 97.8637 190.401C98.389 190.565 98.9364 190.647 99.4868 190.645C100.857 190.596 102.188 190.18 103.342 189.441C102.809 191.933 102.192 194.264 101.559 196.345C100.155 195.104 98.473 194.218 96.6554 193.76C94.8378 193.303 92.9371 193.288 91.1124 193.716C91.0573 193.728 91.0056 193.753 90.9607 193.787C90.9158 193.821 90.8788 193.865 90.8521 193.914C90.8254 193.964 90.8096 194.019 90.8059 194.076C90.8022 194.132 90.8105 194.189 90.8304 194.241C91.2069 195.322 91.8094 196.31 92.5978 197.139C93.3862 197.968 94.3423 198.619 95.4024 199.05C96.1658 199.356 96.9801 199.516 97.8027 199.522C98.8535 199.515 99.8838 199.231 100.79 198.699C100.363 199.987 99.9516 201.122 99.5706 202.12H83.058C82.5704 200.665 82.0674 199.012 81.6179 197.206C82.1374 197.374 82.6796 197.461 83.2257 197.465C84.7176 197.423 86.1376 196.814 87.1965 195.762C88.2554 194.71 88.8737 193.295 88.9254 191.803C88.9228 191.766 88.9124 191.729 88.8948 191.696C88.8773 191.663 88.853 191.635 88.8235 191.612C88.794 191.589 88.7601 191.572 88.7238 191.563C88.6876 191.554 88.6498 191.553 88.613 191.559C87.1739 191.74 85.7844 192.202 84.524 192.92C83.2636 193.638 82.157 194.597 81.2673 195.743C80.8787 194.028 80.5053 192.199 80.3072 190.309C81.0681 190.783 81.9412 191.046 82.8371 191.071C83.2278 191.071 83.6162 191.01 83.9877 190.889C85.9994 190.249 87.6377 187.955 89.1083 185.555C89.1339 185.514 89.151 185.469 89.1589 185.422C89.1667 185.375 89.1651 185.327 89.154 185.28C89.1436 185.237 89.1219 185.197 89.0911 185.165C89.0603 185.133 89.0216 185.11 88.9788 185.097C85.3669 184.031 81.435 187.711 80.1701 189.022C80.0131 187.414 79.9444 185.798 79.9643 184.183C80.7499 184.339 81.5484 184.421 82.3494 184.427C84.0925 184.501 85.8043 183.947 87.1728 182.865C87.8963 182.2 88.4522 181.374 88.7952 180.454C89.1382 179.533 89.2586 178.545 89.1464 177.569C89.1446 177.526 89.1326 177.485 89.1114 177.448C89.0902 177.411 89.0605 177.379 89.0247 177.356C88.9888 177.333 88.948 177.319 88.9055 177.315C88.8631 177.311 88.8202 177.317 88.7807 177.333C84.6049 178.407 81.3664 181.394 80.01 182.811C80.01 182.514 80.01 182.225 80.0634 181.935C80.0711 181.865 80.0521 181.794 80.01 181.737C79.9954 181.209 79.8481 180.692 79.5818 180.236C79.3155 179.779 78.9387 179.396 78.486 179.123C77.4573 178.582 76.0019 178.658 74.1503 179.36C74.0942 179.379 74.0429 179.41 73.9996 179.451C73.9563 179.492 73.922 179.541 73.8988 179.596C73.8727 179.641 73.859 179.692 73.859 179.744C73.859 179.797 73.8727 179.848 73.8988 179.893C73.975 180.015 75.5295 182.499 78.3565 182.499C78.6662 182.495 78.9749 182.461 79.2785 182.4C79.2252 183.215 79.1947 184.023 79.1947 184.838C78.1669 184.096 76.9814 183.602 75.7308 183.394C74.4802 183.187 73.1986 183.272 71.9862 183.642C71.8839 183.672 71.7951 183.737 71.7347 183.825C71.7033 183.864 71.6804 183.909 71.6673 183.958C71.6542 184.006 71.6512 184.057 71.6585 184.107C72.1691 186.774 73.5026 188.45 75.2247 188.595H75.438C76.322 188.595 77.6174 188.183 79.2023 186.545C79.2733 188.383 79.4514 190.215 79.7357 192.032C78.2574 191.27 74.8361 189.898 71.7271 191.955C71.6465 192 71.5846 192.073 71.5525 192.159C71.5204 192.246 71.5202 192.341 71.5518 192.428C72.7558 194.767 74.0893 195.91 75.6438 195.91H75.6895C76.9773 195.91 78.387 195.095 79.9796 193.495C80.2996 195.255 80.6806 196.931 81.0997 198.486C79.6748 197.457 77.8231 197.617 75.3847 198.973C75.3299 199.001 75.2813 199.04 75.242 199.087C75.2027 199.134 75.1734 199.189 75.1561 199.248C75.143 199.299 75.1438 199.353 75.1586 199.404C75.1733 199.455 75.2014 199.501 75.2399 199.537C76.366 200.462 77.7617 200.997 79.2176 201.061C80.073 201.06 80.9115 200.823 81.6407 200.375C81.816 200.962 81.9989 201.534 82.1741 202.075H66.1721V205.123H72.5272L77.0001 216.454H149.162L153.634 205.123H160.02V202.098Z" fill="#E6E6E6"/>
<path d="M261.937 51.6179H55.6488V148.758H58.1101L59.535 151.135H75.0036L76.4285 148.758H261.937V51.6179Z" fill="#E0E0E0"/>
<path d="M262.799 51.6179H56.5023V148.758H58.9636L60.3961 151.135H75.8571L77.2897 148.758H262.799V51.6179Z" fill="#E6E6E6"/>
<path d="M258.547 144.513V55.8698L60.7543 55.8698V144.513H258.547Z" fill="#FAFAFA"/>
<path d="M205.161 144.513L161.056 55.8698H142.532L186.629 144.513H205.161Z" fill="white"/>
<path d="M177.767 144.513L133.662 55.8698H125.448L169.553 144.513H177.767Z" fill="white"/>
<path d="M63.5203 150.16C64.1305 150.16 64.6252 149.665 64.6252 149.055C64.6252 148.445 64.1305 147.95 63.5203 147.95C62.9101 147.95 62.4154 148.445 62.4154 149.055C62.4154 149.665 62.9101 150.16 63.5203 150.16Z" fill="#FAFAFA"/>
<path d="M67.0256 150.16C67.6358 150.16 68.1305 149.665 68.1305 149.055C68.1305 148.445 67.6358 147.95 67.0256 147.95C66.4153 147.95 65.9207 148.445 65.9207 149.055C65.9207 149.665 66.4153 150.16 67.0256 150.16Z" fill="#F0F0F0"/>
<path d="M190.5 325.801C272.097 325.801 338.244 321.939 338.244 317.175C338.244 312.411 272.097 308.549 190.5 308.549C108.903 308.549 42.7559 312.411 42.7559 317.175C42.7559 321.939 108.903 325.801 190.5 325.801Z" fill="#F5F5F5"/>
<path d="M322.417 112.875H321.656V117.074H322.417V112.875Z" fill="#5438FE"/>
<path d="M322.417 96.7512H321.656V109.278H322.417V96.7512Z" fill="#5438FE"/>
<path d="M310.606 69.5554H194.363C191.938 69.5554 189.612 70.5187 187.898 72.2336C186.183 73.9484 185.219 76.2742 185.219 78.6994V116.99L172.578 129.631L185.219 142.281V219.41C185.219 221.835 186.183 224.161 187.898 225.876C189.612 227.591 191.938 228.554 194.363 228.554H310.606C313.032 228.554 315.357 227.591 317.072 225.876C318.787 224.161 319.75 221.835 319.75 219.41V78.6994C319.75 76.2742 318.787 73.9484 317.072 72.2336C315.357 70.5187 313.032 69.5554 310.606 69.5554Z" fill="#5438FE"/>
<path opacity="0.1" d="M237.447 228.554H207.264L237.782 69.5554H267.965L237.447 228.554Z" fill="white"/>
<path opacity="0.1" d="M260.573 228.554H249.745L280.256 69.5554H291.084L260.573 228.554Z" fill="white"/>
<path d="M261.054 106.215C261.054 103.064 259.802 100.043 257.574 97.815C255.346 95.5872 252.325 94.3356 249.174 94.3356C246.023 94.3356 243.002 95.5872 240.774 97.815C238.546 100.043 237.294 103.064 237.294 106.215V125.623L261.054 116.99V106.215Z" fill="#263238"/>
<path d="M239.398 135.026L238.293 157.422L238.171 160.264C238.1 161.376 237.921 162.478 237.637 163.556C237.119 165.511 236.433 167.418 235.588 169.255C233.981 172.784 232.061 176.16 229.85 179.344L227.099 177.82C228.509 174.429 229.895 170.962 230.962 167.518C231.502 165.858 231.928 164.162 232.235 162.443C232.364 161.688 232.428 160.923 232.425 160.157L232.38 157.368C232.344 153.573 232.385 149.786 232.501 146.007C232.601 142.197 232.768 138.463 233.035 134.676L239.398 135.026Z" fill="#FFB573"/>
<path d="M235.062 127.429C232.486 128.085 230.688 138.661 230.688 138.661L237.774 143.485C237.774 143.485 244.564 132.817 242.59 129.982C240.533 127.033 238.811 126.492 235.062 127.429Z" fill="#263238"/>
<path opacity="0.2" d="M235.29 129.791L233.317 140.452L237.294 143.157L235.29 129.791Z" fill="black"/>
<path d="M227.076 177.79L225.293 183.162L231.267 181.013C231.267 181.013 231.892 177.058 229.834 175.489L229.255 175.717C228.749 175.855 228.284 176.116 227.904 176.478C227.523 176.84 227.239 177.291 227.076 177.79Z" fill="#FFB573"/>
<path d="M226.184 187.719L231.404 186.698L231.29 181.013L225.316 183.162L226.184 187.719Z" fill="#FFB573"/>
<path d="M235.062 127.429C235.062 127.429 232.082 128.473 238.041 165.08H263.378C262.951 154.77 262.943 148.407 267.866 127.246C264.319 126.512 260.723 126.038 257.106 125.829C253.276 125.554 249.431 125.554 245.6 125.829C240.662 126.279 235.062 127.429 235.062 127.429Z" fill="#263238"/>
<path opacity="0.7" d="M242.514 153.962H248.793L244.442 141.58H238.171L242.514 153.962Z" fill="black"/>
<path d="M242.087 153.962H248.366L244.015 141.58H237.736L242.087 153.962Z" fill="#5438FE"/>
<path d="M255.971 112.875C255.247 116.578 254.516 123.36 257.106 125.829C257.106 125.829 256.101 129.586 249.22 129.586C241.653 129.586 245.6 125.829 245.6 125.829C249.73 124.846 249.624 121.783 248.907 118.902L255.971 112.875Z" fill="#FFB573"/>
<path opacity="0.2" d="M253.091 115.336L248.907 118.872C249.089 119.54 249.208 120.224 249.265 120.914C250.843 120.686 253.007 118.956 253.174 117.302C253.266 116.647 253.237 115.981 253.091 115.336Z" fill="black"/>
<path d="M257.045 103.632C257.807 109.774 258.249 112.357 255.758 116.045C252.009 121.592 244.328 121.173 241.722 115.374C239.436 110.155 238.567 100.98 244.069 97.4598C245.278 96.6779 246.667 96.2184 248.104 96.1249C249.541 96.0314 250.978 96.307 252.279 96.9255C253.58 97.5441 254.7 98.485 255.534 99.6589C256.369 100.833 256.889 102.2 257.045 103.632Z" fill="#FFB573"/>
<path d="M242.019 98.9533C241.981 99.0829 251.163 108.859 257.64 108.059C258.996 106.025 258.364 99.6315 255.91 98.2751C253.456 96.9188 249.814 95.0138 247.353 95.4405C244.892 95.8672 242.019 98.9533 242.019 98.9533Z" fill="#263238"/>
<path d="M238.041 165.08C238.041 165.08 230.688 186.416 234.315 228.554H255.529C257.053 205.694 256.596 165.08 256.596 165.08H238.041Z" fill="white"/>
<path d="M263.378 165.08H245.052C245.052 165.08 249.692 207.698 252.672 228.554H271.645C273.901 175.489 263.378 165.08 263.378 165.08Z" fill="white"/>
<path d="M248.625 228.554C248.625 228.554 246.804 201.061 249.006 193.609C251.163 204.704 257.388 228.554 257.388 228.554H248.625Z" fill="#F5F5F5"/>
<path d="M247.65 107.061C247.741 107.556 247.551 108.006 247.231 108.067C246.911 108.128 246.568 107.77 246.469 107.305C246.37 106.84 246.568 106.36 246.888 106.299C247.208 106.238 247.566 106.566 247.65 107.061Z" fill="#263238"/>
<path d="M242.065 108.097C242.156 108.593 241.965 109.042 241.645 109.096C241.325 109.149 240.982 108.806 240.883 108.334C240.784 107.861 240.983 107.389 241.303 107.328C241.623 107.267 241.973 107.602 242.065 108.097Z" fill="#263238"/>
<path d="M241.463 107.305L240.205 107.183C240.205 107.183 240.99 107.998 241.463 107.305Z" fill="#263238"/>
<path d="M243.954 108.669C243.721 109.878 243.323 111.049 242.773 112.151C243.06 112.284 243.372 112.352 243.688 112.352C244.003 112.352 244.315 112.284 244.602 112.151L243.954 108.669Z" fill="#ED893E"/>
<path d="M247.65 113.591C247.414 113.674 247.172 113.737 246.926 113.782C246.889 113.789 246.85 113.78 246.819 113.759C246.788 113.738 246.766 113.705 246.759 113.668C246.752 113.629 246.76 113.59 246.781 113.557C246.802 113.525 246.835 113.501 246.873 113.492C247.493 113.394 248.08 113.15 248.588 112.78C249.095 112.411 249.508 111.926 249.791 111.366C249.799 111.349 249.81 111.333 249.823 111.32C249.837 111.306 249.853 111.296 249.871 111.289C249.888 111.282 249.907 111.278 249.926 111.278C249.946 111.279 249.964 111.283 249.982 111.29C249.999 111.298 250.015 111.308 250.028 111.322C250.042 111.336 250.052 111.352 250.059 111.37C250.066 111.387 250.07 111.406 250.07 111.425C250.07 111.444 250.066 111.463 250.058 111.481C249.818 111.976 249.482 112.418 249.068 112.78C248.655 113.143 248.172 113.419 247.65 113.591Z" fill="#263238"/>
<path d="M259.728 108.92C259.518 110.098 258.849 111.145 257.868 111.831C256.558 112.73 255.392 111.686 255.331 110.185C255.27 108.836 255.88 106.733 257.396 106.436C257.729 106.377 258.071 106.402 258.392 106.509C258.713 106.615 259.003 106.801 259.234 107.047C259.466 107.294 259.632 107.594 259.718 107.921C259.804 108.248 259.808 108.592 259.728 108.92Z" fill="#FFB573"/>
<path d="M249.692 105.507C249.633 105.525 249.569 105.526 249.509 105.508C249.45 105.491 249.396 105.456 249.357 105.407C248.526 104.318 246.774 104.371 246.751 104.371C246.673 104.371 246.597 104.341 246.541 104.287C246.484 104.233 246.45 104.16 246.446 104.082C246.444 104.004 246.472 103.929 246.525 103.872C246.578 103.815 246.65 103.781 246.728 103.777C246.812 103.777 248.816 103.716 249.829 105.049C249.853 105.08 249.87 105.115 249.88 105.153C249.89 105.19 249.892 105.23 249.886 105.268C249.88 105.306 249.867 105.343 249.847 105.376C249.827 105.409 249.8 105.438 249.768 105.461L249.692 105.507Z" fill="#263238"/>
<path d="M239.908 105.819C239.86 105.838 239.807 105.844 239.755 105.834C239.704 105.825 239.657 105.801 239.618 105.766C239.59 105.739 239.568 105.707 239.553 105.672C239.537 105.637 239.529 105.598 239.529 105.56C239.529 105.521 239.537 105.483 239.553 105.448C239.568 105.412 239.59 105.38 239.618 105.354C239.912 104.987 240.29 104.696 240.719 104.505C241.149 104.314 241.618 104.229 242.087 104.257C242.126 104.262 242.162 104.274 242.196 104.293C242.229 104.312 242.258 104.337 242.282 104.368C242.305 104.398 242.322 104.433 242.332 104.47C242.342 104.508 242.344 104.546 242.339 104.584C242.329 104.662 242.29 104.733 242.228 104.781C242.167 104.83 242.089 104.852 242.011 104.844C241.639 104.823 241.268 104.893 240.929 105.048C240.59 105.204 240.295 105.439 240.068 105.735C240.026 105.78 239.969 105.81 239.908 105.819Z" fill="#263238"/>
<path d="M270.784 134.508C271.508 138.074 272.042 141.587 272.468 145.176C272.915 148.772 273.169 152.389 273.23 156.012V156.355C273.23 156.355 273.23 156.599 273.23 156.736C273.229 156.904 273.213 157.073 273.185 157.239C273.047 158.104 272.62 158.896 271.973 159.487C271.45 159.952 270.814 160.272 270.129 160.416C269.706 160.509 269.274 160.552 268.841 160.546C268.22 160.528 267.603 160.449 266.997 160.31C266.464 160.195 265.969 160.05 265.473 159.906C263.699 159.305 261.97 158.58 260.299 157.734C257.074 156.11 253.956 154.279 250.965 152.255L252.489 149.482C254.097 150.137 255.72 150.823 257.343 151.455C258.966 152.088 260.574 152.735 262.197 153.292C263.745 153.851 265.325 154.317 266.929 154.686C267.31 154.77 267.691 154.838 268.003 154.877C268.256 154.906 268.512 154.906 268.765 154.877C268.849 154.877 268.856 154.877 268.765 154.877C268.514 154.934 268.282 155.058 268.094 155.235C267.779 155.52 267.562 155.899 267.477 156.317V156.492C267.477 156.492 267.477 156.644 267.477 156.545V156.225C267.188 152.834 266.715 149.367 266.22 145.969C265.725 142.57 265.107 139.073 264.521 135.697L270.784 134.508Z" fill="#FFB573"/>
<path d="M267.866 127.254C270.411 128.016 273.459 136.764 273.459 136.764L263.606 143.812C263.606 143.812 260.017 136.512 261.084 133.228C262.197 129.807 264.97 126.362 267.866 127.254Z" fill="#263238"/>
<path d="M247.056 106.269L245.798 106.147C245.798 106.147 246.583 106.962 247.056 106.269Z" fill="#263238"/>
<path d="M253.136 149.748L247.04 146.86L248.656 152.994C248.656 152.994 252.245 154.785 253.99 152.865L253.136 149.748Z" fill="#FFB573"/>
<path d="M241.935 148.011L243.558 153.071L248.663 152.994L247.048 146.86L241.935 148.011Z" fill="#FFB573"/>
<path d="M264.193 165.453C255.331 166.596 246.383 166.918 237.462 166.413C237.311 166.403 237.17 166.335 237.069 166.222C236.968 166.11 236.915 165.962 236.921 165.811C236.921 165.255 236.982 164.699 237.005 164.142C237.008 164.068 237.026 163.994 237.057 163.926C237.089 163.859 237.133 163.798 237.189 163.747C237.244 163.697 237.309 163.658 237.379 163.633C237.45 163.608 237.525 163.597 237.599 163.601C246.352 164.098 255.132 163.785 263.827 162.664C263.975 162.647 264.125 162.688 264.243 162.779C264.361 162.87 264.439 163.004 264.46 163.152C264.528 163.708 264.604 164.264 264.681 164.821C264.69 164.894 264.685 164.969 264.666 165.041C264.647 165.112 264.613 165.179 264.568 165.238C264.523 165.297 264.466 165.346 264.402 165.383C264.338 165.42 264.267 165.444 264.193 165.453Z" fill="#5438FE"/>
<path opacity="0.4" d="M264.193 165.453C255.331 166.596 246.383 166.918 237.462 166.413C237.311 166.403 237.17 166.335 237.069 166.222C236.968 166.11 236.915 165.962 236.921 165.811C236.921 165.255 236.982 164.699 237.005 164.142C237.008 164.068 237.026 163.994 237.057 163.926C237.089 163.859 237.133 163.798 237.189 163.747C237.244 163.697 237.309 163.658 237.379 163.633C237.45 163.608 237.525 163.597 237.599 163.601C246.352 164.098 255.132 163.785 263.827 162.664C263.975 162.647 264.125 162.688 264.243 162.779C264.361 162.87 264.439 163.004 264.46 163.152C264.528 163.708 264.604 164.264 264.681 164.821C264.69 164.894 264.685 164.969 264.666 165.041C264.647 165.112 264.613 165.179 264.568 165.238C264.523 165.297 264.466 165.346 264.402 165.383C264.338 165.42 264.267 165.444 264.193 165.453Z" fill="black"/>
<path d="M255.27 82.136C255.27 82.6785 255.109 83.2089 254.808 83.66C254.506 84.1111 254.078 84.4627 253.577 84.6704C253.075 84.878 252.524 84.9323 251.992 84.8265C251.459 84.7206 250.971 84.4593 250.587 84.0757C250.203 83.6921 249.942 83.2033 249.836 82.6711C249.73 82.139 249.785 81.5874 249.992 81.0862C250.2 80.5849 250.552 80.1565 251.003 79.8551C251.454 79.5536 251.984 79.3928 252.527 79.3928C253.254 79.3928 253.952 79.6818 254.467 80.1962C254.981 80.7107 255.27 81.4084 255.27 82.136Z" fill="white"/>
<path d="M241.691 84.8792C243.206 84.8792 244.434 83.651 244.434 82.136C244.434 80.6209 243.206 79.3928 241.691 79.3928C240.176 79.3928 238.948 80.6209 238.948 82.136C238.948 83.651 240.176 84.8792 241.691 84.8792Z" fill="white"/>
<path d="M266.029 82.136C266.029 82.6785 265.868 83.2089 265.567 83.66C265.266 84.1111 264.837 84.4627 264.336 84.6704C263.835 84.878 263.283 84.9323 262.751 84.8265C262.219 84.7206 261.73 84.4593 261.346 84.0757C260.963 83.6921 260.702 83.2033 260.596 82.6711C260.49 82.139 260.544 81.5874 260.752 81.0862C260.959 80.5849 261.311 80.1565 261.762 79.8551C262.213 79.5536 262.744 79.3928 263.286 79.3928C263.646 79.3928 264.003 79.4637 264.336 79.6016C264.669 79.7394 264.971 79.9415 265.226 80.1962C265.481 80.451 265.683 80.7534 265.821 81.0862C265.958 81.419 266.029 81.7757 266.029 82.136Z" fill="white"/>
<path d="M153.055 308.983L158.572 307.703L156.416 294.803L150.899 296.083L153.055 308.983Z" fill="#CE7A63"/>
<path d="M158.717 306.995L152.522 308.435C152.417 308.455 152.323 308.516 152.262 308.604C152.201 308.693 152.176 308.801 152.194 308.907L152.994 313.868C153.022 313.996 153.075 314.117 153.15 314.225C153.225 314.333 153.321 314.424 153.431 314.495C153.541 314.566 153.665 314.614 153.794 314.637C153.923 314.66 154.055 314.658 154.183 314.63C156.332 314.096 157.33 313.731 160.058 313.106C161.735 312.717 168.905 311.231 171.214 310.698C173.523 310.164 172.951 307.894 171.923 307.909C167.312 308.008 161.575 307.993 159.731 307.147C159.419 306.986 159.062 306.932 158.717 306.995Z" fill="#263238"/>
<path opacity="0.2" d="M150.899 296.09L156.416 294.803L157.528 301.455L152.004 302.735L150.899 296.09Z" fill="black"/>
<path d="M142.616 167.998C142.616 167.998 149.885 213.985 152.019 230.025C154.358 247.589 159.296 298.963 159.296 298.963L149.299 301.752C149.299 301.752 139.827 251.963 135.926 234.887C131.689 216.355 122.431 168.029 122.431 168.029L142.616 167.998Z" fill="#5438FE"/>
<path opacity="0.5" d="M142.616 167.998C142.616 167.998 149.885 213.985 152.019 230.025C154.358 247.589 159.296 298.963 159.296 298.963L149.299 301.752C149.299 301.752 139.827 251.963 135.926 234.887C131.689 216.355 122.431 168.029 122.431 168.029L142.616 167.998Z" fill="black"/>
<path opacity="0.3" d="M130.759 184.153C134.569 193.899 134.356 213.17 132.718 219.967C130.432 208.818 127.78 195.483 125.745 185.113C126.492 182.446 128.435 178.224 130.759 184.153Z" fill="black"/>
<path d="M149.047 301.92L159.753 298.971L159.578 294.62L147.516 298.78L149.047 301.92Z" fill="#5438FE"/>
<path d="M160.889 307.505C160.387 307.606 159.876 307.655 159.365 307.65C159.338 307.65 159.312 307.642 159.291 307.627C159.269 307.612 159.252 307.591 159.243 307.566C159.231 307.545 159.225 307.521 159.225 307.497C159.225 307.474 159.231 307.45 159.243 307.429C159.395 307.261 160.713 305.836 161.453 305.943C161.536 305.957 161.614 305.991 161.681 306.043C161.748 306.095 161.8 306.163 161.834 306.24C161.905 306.354 161.943 306.486 161.943 306.621C161.943 306.756 161.905 306.888 161.834 307.002C161.59 307.279 161.254 307.457 160.889 307.505ZM159.685 307.376C160.713 307.376 161.437 307.147 161.635 306.835C161.678 306.762 161.701 306.679 161.701 306.595C161.701 306.51 161.678 306.427 161.635 306.354C161.622 306.315 161.598 306.279 161.565 306.253C161.533 306.226 161.494 306.208 161.453 306.202C161.049 306.149 160.233 306.827 159.685 307.376Z" fill="#5438FE"/>
<path d="M159.403 307.642H159.342C159.32 307.639 159.3 307.629 159.284 307.614C159.268 307.599 159.256 307.58 159.25 307.558C159.25 307.49 158.748 305.935 159.182 305.272C159.237 305.187 159.312 305.115 159.399 305.063C159.486 305.01 159.583 304.977 159.685 304.968C159.796 304.944 159.912 304.959 160.013 305.01C160.114 305.061 160.195 305.146 160.241 305.25C160.5 305.821 159.936 307.155 159.479 307.612L159.403 307.642ZM159.654 305.242C159.603 305.253 159.554 305.274 159.511 305.304C159.468 305.334 159.431 305.373 159.403 305.417C159.209 306.011 159.209 306.652 159.403 307.246C159.825 306.711 160.029 306.036 159.974 305.356C159.974 305.288 159.875 305.211 159.685 305.227L159.654 305.242Z" fill="#5438FE"/>
<path d="M142.921 124.282C143.805 125.509 144.536 126.629 145.283 127.833C146.03 129.037 146.731 130.211 147.394 131.43C148.757 133.871 149.993 136.381 151.097 138.951C151.646 140.239 152.187 141.542 152.659 142.875C152.911 143.538 153.124 144.216 153.345 144.894C153.452 145.252 153.574 145.527 153.673 145.946C153.772 146.365 153.871 146.769 153.939 147.241C154.028 147.793 154.076 148.351 154.084 148.91C154.084 149.34 154.043 149.768 153.962 150.19C153.812 150.948 153.477 151.658 152.987 152.255C152.636 152.669 152.206 153.009 151.722 153.253C151.305 153.469 150.854 153.608 150.388 153.665C149.818 153.732 149.241 153.685 148.689 153.528C148.101 153.368 147.545 153.111 147.043 152.766C146.35 152.286 145.718 151.723 145.161 151.089C144.646 150.516 144.175 149.905 143.751 149.261L146.571 146.091C147.623 146.549 148.708 146.926 149.817 147.218C150 147.218 150.175 147.218 150.038 147.127C149.82 147.031 149.579 147.002 149.344 147.043C149.043 147.077 148.749 147.162 148.476 147.295C148.114 147.479 147.795 147.737 147.539 148.052C147.284 148.367 147.096 148.732 146.99 149.123C146.936 149.322 146.929 149.39 146.898 149.398C146.868 149.405 146.799 149.261 146.708 149.093L146.395 148.46C146.281 148.247 146.152 147.904 146.03 147.63C145.778 147.051 145.55 146.472 145.268 145.9C144.75 144.75 144.209 143.614 143.629 142.464C142.471 140.178 141.229 137.945 139.934 135.727C139.278 134.623 138.615 133.518 137.937 132.428C137.259 131.338 136.558 130.218 135.918 129.25L142.921 124.282Z" fill="#CE7A63"/>
<path d="M140.795 119.139C135.186 117.836 131.78 121.425 133.457 128.443C134.497 132.458 135.769 136.409 137.267 140.277C137.594 141.145 137.899 141.922 138.151 142.563L150.876 135.445C149.504 129.875 144.544 120.015 140.795 119.139Z" fill="#5438FE"/>
<path opacity="0.3" d="M141.031 125.791C137.648 122.743 141.107 135.026 142.555 140.117L146.296 138.029C145.9 134.501 143.629 128.115 141.031 125.791Z" fill="black"/>
<path d="M111.237 311.407H116.883L117.721 298.323H112.075L111.237 311.407Z" fill="#CE7A63"/>
<path d="M117.188 310.751H110.841C110.788 310.749 110.735 310.758 110.685 310.776C110.635 310.794 110.589 310.823 110.55 310.859C110.511 310.895 110.48 310.938 110.458 310.986C110.436 311.035 110.423 311.087 110.421 311.14L110.071 316.161C110.069 316.292 110.093 316.421 110.141 316.542C110.19 316.663 110.262 316.773 110.353 316.866C110.445 316.959 110.554 317.033 110.674 317.083C110.794 317.134 110.924 317.16 111.054 317.16C113.264 317.122 114.315 316.992 117.112 316.992C118.826 316.992 126.126 317.175 128.496 317.175C130.866 317.175 130.82 314.828 129.814 314.615C125.319 313.662 119.741 312.329 118.156 311.102C117.884 310.876 117.541 310.752 117.188 310.751Z" fill="#263238"/>
<path opacity="0.2" d="M112.075 298.323H117.721L117.287 305.067H111.641L112.075 298.323Z" fill="black"/>
<path d="M131.59 167.998C131.59 167.998 131.78 210.884 130.736 227.053C129.593 244.77 119.726 303.444 119.726 303.444H109.378C109.378 303.444 114.521 246.195 114.033 228.661C113.508 209.611 112.403 167.998 112.403 167.998H131.59Z" fill="#5438FE"/>
<path opacity="0.5" d="M131.59 167.998C131.59 167.998 131.78 210.884 130.736 227.053C129.593 244.77 119.726 303.444 119.726 303.444H109.378C109.378 303.444 114.521 246.195 114.033 228.661C113.508 209.611 112.403 167.998 112.403 167.998H131.59Z" fill="black"/>
<path d="M108.958 303.444H120.145L120.792 299.512L108.448 300.129L108.958 303.444Z" fill="#5438FE"/>
<path d="M119.184 311.734C118.671 311.722 118.16 311.656 117.66 311.536C117.636 311.528 117.615 311.514 117.597 311.495C117.58 311.477 117.568 311.454 117.561 311.429C117.558 311.404 117.562 311.378 117.572 311.355C117.583 311.332 117.601 311.313 117.622 311.3C117.798 311.17 119.405 310.081 120.099 310.347C120.176 310.379 120.244 310.43 120.296 310.495C120.348 310.561 120.383 310.638 120.396 310.721C120.431 310.845 120.434 310.975 120.404 311.1C120.375 311.226 120.315 311.341 120.228 311.437C119.929 311.661 119.557 311.767 119.184 311.734ZM118.041 311.346C119.047 311.544 119.794 311.513 120.061 311.247C120.117 311.185 120.156 311.109 120.173 311.027C120.19 310.946 120.186 310.861 120.16 310.782C120.154 310.74 120.138 310.701 120.112 310.667C120.087 310.634 120.054 310.608 120.015 310.591C119.634 310.446 118.697 310.896 118.041 311.346Z" fill="#5438FE"/>
<path d="M117.706 311.536H117.645C117.626 311.525 117.61 311.509 117.599 311.491C117.587 311.472 117.579 311.451 117.577 311.429C117.577 311.361 117.455 309.738 118.034 309.189C118.105 309.116 118.193 309.061 118.289 309.029C118.386 308.998 118.489 308.99 118.59 309.006C118.702 309.01 118.809 309.052 118.894 309.123C118.98 309.195 119.039 309.293 119.062 309.402C119.192 310.02 118.339 311.201 117.775 311.536H117.706ZM118.468 309.25C118.416 309.249 118.364 309.258 118.315 309.278C118.267 309.298 118.223 309.327 118.186 309.364C117.871 309.905 117.735 310.532 117.798 311.155C118.33 310.728 118.681 310.116 118.781 309.441C118.781 309.364 118.72 309.273 118.529 309.25H118.468Z" fill="#5438FE"/>
<path d="M142.616 167.998H112.403C112.212 165.301 112.906 156.522 112.525 145.344C112.308 137.064 111.372 128.819 109.728 120.701C109.599 120.091 109.461 119.489 109.324 118.88C109.324 118.88 110.848 118.567 113.05 118.247C114.879 117.98 117.165 117.706 119.405 117.599C123.682 117.355 127.969 117.355 132.245 117.599C134.219 117.782 136.147 118.11 137.678 118.407C139.644 118.803 140.802 119.169 140.802 119.169C140.802 119.169 148.102 136.23 142.616 167.998Z" fill="#5438FE"/>
<path d="M143.027 145.077C142.502 144.163 141.803 143.361 140.97 142.715C140.408 142.392 139.87 142.028 139.362 141.625C139.31 141.586 139.248 141.561 139.183 141.553C139.119 141.545 139.053 141.555 138.993 141.58C138.933 141.606 138.88 141.646 138.841 141.698C138.801 141.75 138.776 141.812 138.768 141.877C138.707 142.319 138.89 143.043 139.972 144.094C140.056 145.489 142.105 147.028 142.105 147.028L143.027 145.077Z" fill="#CE7A63"/>
<path opacity="0.3" d="M138.417 148.445H132.138L136.482 136.063H142.761L138.417 148.445Z" fill="black"/>
<path d="M138.844 148.445H132.565L136.909 136.063H143.187L138.844 148.445Z" fill="#263238"/>
<path opacity="0.3" d="M112.525 145.344C112.307 137.064 111.372 128.819 109.728 120.701C111.747 120.526 115.199 120.701 115.748 123.985C116.327 127.49 115.481 135.735 112.525 145.344Z" fill="black"/>
<path d="M115.23 126.042L112.014 137.046L110.421 142.54L109.659 145.283L109.278 146.647L109.096 147.333V147.417C109.096 147.462 109.096 147.417 109.096 147.417C109.099 147.368 109.099 147.32 109.096 147.272C109.11 147.13 109.11 146.987 109.096 146.845C109.041 146.483 108.908 146.137 108.707 145.832C108.585 145.649 108.427 145.493 108.242 145.374C108.044 145.268 108.174 145.374 108.387 145.473C109.042 145.703 109.723 145.852 110.414 145.915C112.185 146.103 113.967 146.179 115.748 146.144C119.443 146.098 123.299 145.885 127.071 145.626L127.909 149.786C124.105 150.999 120.212 151.914 116.266 152.522C114.192 152.853 112.095 153.021 109.995 153.025C108.75 153.026 107.51 152.88 106.299 152.591C105.41 152.382 104.568 152.01 103.815 151.493C103.23 151.086 102.73 150.569 102.344 149.969C101.865 149.264 101.565 148.454 101.468 147.607C101.43 147.224 101.43 146.839 101.468 146.456C101.468 146.289 101.468 146.121 101.536 145.954L101.59 145.649L101.727 144.887L101.994 143.431C102.177 142.464 102.375 141.496 102.588 140.536C103 138.615 103.426 136.726 103.906 134.798C104.844 130.988 105.888 127.254 107.091 123.49L115.23 126.042Z" fill="#CE7A63"/>
<path d="M109.317 118.872C105.552 119.748 101.331 129.662 99.8449 135.232C99.5934 136.185 99.3953 137 99.2429 137.625C99.0448 138.448 98.9381 138.943 98.9381 138.943L111.564 142.54C111.824 141.915 112.144 141.138 112.479 140.254C114.05 136.391 115.393 132.44 116.502 128.42C118.293 121.417 114.94 117.577 109.317 118.872Z" fill="#5438FE"/>
<path d="M131.628 117.554C127.902 116.67 127.269 114.361 127.536 111.823C127.6 111.188 127.705 110.556 127.848 109.934L123.2 106.048L119.786 103.198C120.708 107.335 121.722 114.871 118.902 117.63C122.641 120.741 126.786 123.328 131.224 125.319C135.636 122.08 131.628 117.554 131.628 117.554Z" fill="#CE7A63"/>
<path opacity="0.2" d="M127.848 109.934C127.705 110.557 127.6 111.188 127.536 111.824C125.799 111.473 123.17 109.919 122.964 107.953C122.975 107.309 123.064 106.669 123.231 106.048L127.848 109.934Z" fill="black"/>
<path d="M136.558 90.076C138.181 92.6516 135.118 100.066 131.224 99.5324C127.33 98.999 133.495 85.184 136.558 90.076Z" fill="#263238"/>
<path d="M120.129 94.8537C119.444 100.439 118.75 103.662 120.983 107.046C121.704 108.167 122.717 109.071 123.914 109.658C125.111 110.245 126.446 110.494 127.774 110.378C129.102 110.262 130.373 109.785 131.45 108.999C132.527 108.213 133.368 107.148 133.883 105.918C135.979 101.216 136.756 92.8802 131.818 89.535C130.758 88.7857 129.519 88.3273 128.226 88.2054C126.933 88.0836 125.63 88.3025 124.448 88.8404C123.266 89.3784 122.245 90.2166 121.487 91.2716C120.73 92.3266 120.261 93.5616 120.129 94.8537Z" fill="#CE7A63"/>
<path d="M119.482 99.1362C122.339 98.7781 124.404 94.0156 123.817 91.7905C125.921 93.3145 142.616 95.25 140.071 84.361C135.308 84.361 115.435 83.4695 118.735 87.7596C116.449 87.7596 114.285 89.8322 115.839 94.6176C117.409 99.5401 119.482 99.1362 119.482 99.1362Z" fill="#263238"/>
<path d="M117.036 99.8677C117.52 101.167 118.441 102.258 119.642 102.954C121.166 103.8 122.08 102.405 121.76 100.668C121.478 99.0904 120.335 96.7511 118.712 96.6368C117.089 96.5225 116.426 98.2218 117.036 99.8677Z" fill="#CE7A63"/>
<path d="M128.13 98.176C128.047 98.6256 128.214 99.0371 128.504 99.0981C128.793 99.159 129.098 98.8466 129.182 98.397C129.266 97.9475 129.098 97.536 128.809 97.475C128.519 97.414 128.214 97.7265 128.13 98.176Z" fill="#263238"/>
<path d="M133.16 99.2505C133.076 99.7001 133.243 100.119 133.533 100.18C133.822 100.241 134.127 99.9287 134.211 99.4791C134.295 99.0295 134.127 98.6181 133.838 98.5571C133.548 98.4961 133.243 98.8086 133.16 99.2505Z" fill="#263238"/>
<path d="M131.514 99.1362C131.792 100.622 132.266 102.065 132.923 103.426C132.576 103.58 132.199 103.654 131.82 103.645C131.441 103.636 131.068 103.543 130.729 103.373L131.514 99.1362Z" fill="#BA4D3C"/>
<path d="M128.687 104.196C128.188 104.028 127.729 103.762 127.336 103.412C126.943 103.062 126.625 102.637 126.401 102.161C126.39 102.144 126.384 102.125 126.381 102.105C126.379 102.085 126.381 102.065 126.388 102.046C126.394 102.027 126.404 102.01 126.418 101.995C126.432 101.981 126.449 101.97 126.467 101.962C126.486 101.955 126.506 101.952 126.526 101.953C126.546 101.954 126.565 101.96 126.583 101.969C126.601 101.979 126.616 101.992 126.628 102.008C126.64 102.024 126.648 102.043 126.652 102.062C126.904 102.576 127.271 103.024 127.724 103.373C128.177 103.722 128.705 103.962 129.266 104.074C129.284 104.077 129.301 104.083 129.316 104.093C129.331 104.102 129.344 104.115 129.355 104.13C129.365 104.145 129.371 104.162 129.374 104.18C129.378 104.198 129.377 104.216 129.372 104.234C129.363 104.268 129.342 104.297 129.312 104.315C129.282 104.334 129.247 104.34 129.212 104.333C129.034 104.298 128.859 104.252 128.687 104.196Z" fill="#263238"/>
<path d="M126.881 96.2025C126.837 96.1873 126.798 96.161 126.767 96.1261C126.737 96.0913 126.716 96.0491 126.707 96.0037C126.698 95.9584 126.7 95.9114 126.715 95.8674C126.729 95.8235 126.755 95.784 126.789 95.7529C127.097 95.4629 127.471 95.2529 127.879 95.1413C128.287 95.0297 128.716 95.0199 129.129 95.1128C129.197 95.134 129.254 95.1808 129.288 95.2434C129.322 95.306 129.33 95.3794 129.311 95.4481C129.289 95.5151 129.242 95.5711 129.179 95.605C129.117 95.6388 129.045 95.6481 128.976 95.631C128.652 95.5626 128.316 95.5741 127.998 95.6643C127.679 95.7546 127.387 95.921 127.147 96.1492C127.112 96.1812 127.068 96.203 127.021 96.2124C126.974 96.2218 126.926 96.2183 126.881 96.2025Z" fill="#263238"/>
<path d="M135.636 97.9704C135.595 97.9583 135.558 97.9358 135.529 97.9051C135.499 97.8743 135.479 97.8364 135.468 97.7951C135.39 97.4616 135.235 97.1507 135.017 96.8865C134.799 96.6222 134.524 96.4116 134.211 96.2711C134.177 96.2601 134.146 96.2423 134.12 96.2188C134.093 96.1952 134.072 96.1665 134.057 96.1344C134.042 96.1022 134.033 96.0673 134.032 96.0319C134.031 95.9964 134.038 95.9611 134.051 95.9282C134.074 95.8618 134.122 95.8069 134.184 95.7755C134.247 95.7442 134.32 95.7388 134.386 95.7606C134.78 95.9282 135.129 96.1858 135.406 96.5126C135.683 96.8394 135.879 97.2265 135.979 97.6427C135.998 97.7104 135.989 97.7828 135.955 97.8441C135.921 97.9055 135.864 97.9509 135.796 97.9704C135.744 97.9896 135.688 97.9896 135.636 97.9704Z" fill="#263238"/>
<path d="M126.065 145.832L132.1 142.707L131.064 149.756C131.064 149.756 126.103 151.12 125.639 148.506L126.065 145.832Z" fill="#CE7A63"/>
<path d="M130.18 143.698C130.855 142.876 131.684 142.193 132.618 141.686C133.294 141.381 133.939 141.014 134.546 140.589C134.604 140.559 134.668 140.544 134.733 140.545C134.798 140.547 134.861 140.566 134.916 140.6C134.972 140.634 135.017 140.682 135.049 140.738C135.08 140.795 135.096 140.859 135.095 140.924C134.979 141.404 134.765 141.854 134.468 142.247C134.17 142.64 133.795 142.968 133.365 143.21C133.045 144.574 130.759 145.771 130.759 145.771L130.18 143.698Z" fill="#CE7A63"/>
<path d="M137.038 143.683L136.192 148.079C136.156 148.268 136.064 148.442 135.928 148.577C135.792 148.713 135.619 148.805 135.43 148.841L131.011 149.756L132.085 142.768L136.055 142.563C136.199 142.553 136.343 142.576 136.477 142.631C136.61 142.686 136.729 142.771 136.824 142.879C136.919 142.988 136.988 143.117 137.025 143.256C137.062 143.395 137.067 143.541 137.038 143.683Z" fill="#CE7A63"/>
<path d="M125.6 148.506L126.065 145.832L132.1 142.707" fill="#CE7A63"/>
<path d="M145.702 146.411L140.894 143.5L140.543 149.756C140.543 149.756 145.611 151.699 146.121 149.085L145.702 146.411Z" fill="#CE7A63"/>
<path d="M138.684 143.568L138.303 148.499C138.292 148.634 138.327 148.768 138.402 148.882C138.476 148.995 138.586 149.08 138.714 149.123L140.536 149.756L140.886 143.5L139.499 143.027C139.41 142.997 139.315 142.987 139.221 142.999C139.127 143.011 139.037 143.045 138.958 143.097C138.88 143.149 138.814 143.219 138.766 143.301C138.719 143.383 138.691 143.474 138.684 143.568Z" fill="#CE7A63"/>
<path d="M131.59 66.454C131.59 66.9966 131.429 67.5269 131.127 67.9781C130.826 68.4292 130.398 68.7808 129.896 68.9884C129.395 69.196 128.844 69.2504 128.311 69.1445C127.779 69.0387 127.291 68.7774 126.907 68.3938C126.523 68.0101 126.262 67.5213 126.156 66.9892C126.05 66.4571 126.105 65.9055 126.312 65.4042C126.52 64.903 126.871 64.4746 127.323 64.1731C127.774 63.8717 128.304 63.7108 128.847 63.7108C129.574 63.7108 130.272 63.9998 130.786 64.5143C131.301 65.0287 131.59 65.7265 131.59 66.454Z" fill="#5438FE"/>
<path d="M120.792 68.0694C120.792 68.612 120.631 69.1424 120.33 69.5935C120.029 70.0446 119.6 70.3962 119.099 70.6038C118.598 70.8114 118.046 70.8658 117.514 70.7599C116.982 70.6541 116.493 70.3928 116.109 70.0092C115.726 69.6255 115.464 69.1367 115.359 68.6046C115.253 68.0725 115.307 67.5209 115.515 67.0197C115.722 66.5184 116.074 66.09 116.525 65.7885C116.976 65.4871 117.507 65.3262 118.049 65.3262C118.777 65.3262 119.474 65.6152 119.989 66.1297C120.503 66.6441 120.792 67.3419 120.792 68.0694Z" fill="#5438FE"/>
<path d="M139.652 72.4357C141.167 72.4357 142.395 71.2076 142.395 69.6925C142.395 68.1775 141.167 66.9493 139.652 66.9493C138.137 66.9493 136.909 68.1775 136.909 69.6925C136.909 71.2076 138.137 72.4357 139.652 72.4357Z" fill="#5438FE"/>
</svg>
