<svg width="381" height="381" viewBox="0 0 381 381" fill="none" xmlns="http://www.w3.org/2000/svg">
<path d="M381 291.389H0V291.579H381V291.389Z" fill="#EBEBEB"/>
<path d="M331.981 303.649H317.586V303.84H331.981V303.649Z" fill="#EBEBEB"/>
<path d="M245.76 302.323H223.304V302.514H245.76V302.323Z" fill="#EBEBEB"/>
<path d="M316.824 296.578H280.927V296.768H316.824V296.578Z" fill="#EBEBEB"/>
<path d="M48.3336 297.858H39.9745V298.049H48.3336V297.858Z" fill="#EBEBEB"/>
<path d="M84.4982 297.858H55.1155V298.049H84.4982V297.858Z" fill="#EBEBEB"/>
<path d="M171.564 301.074H130.302V301.264H171.564V301.074Z" fill="#EBEBEB"/>
<path d="M180.594 257.404H33.467C32.313 257.404 31.2063 256.945 30.3904 256.129C29.5744 255.313 29.116 254.207 29.116 253.053V46.2229C29.126 45.0755 29.5889 43.9786 30.4037 43.1709C31.2186 42.3631 32.3196 41.9099 33.467 41.91H180.594C181.748 41.91 182.855 42.3684 183.671 43.1844C184.487 44.0003 184.945 45.107 184.945 46.261V253.053C184.945 254.207 184.487 255.313 183.671 256.129C182.855 256.945 181.748 257.404 180.594 257.404ZM33.467 42.0624C32.3642 42.0644 31.3071 42.5034 30.5273 43.2832C29.7475 44.063 29.3085 45.1201 29.3065 46.2229V253.053C29.3085 254.155 29.7475 255.212 30.5273 255.992C31.3071 256.772 32.3642 257.211 33.467 257.213H180.594C181.697 257.211 182.754 256.772 183.534 255.992C184.313 255.212 184.752 254.155 184.754 253.053V46.2229C184.752 45.1201 184.313 44.063 183.534 43.2832C182.754 42.5034 181.697 42.0644 180.594 42.0624H33.467Z" fill="#EBEBEB"/>
<path d="M345.422 257.404H198.28C197.127 257.402 196.021 256.943 195.206 256.127C194.39 255.311 193.931 254.206 193.929 253.053V46.2229C193.941 45.0762 194.404 43.9804 195.219 43.1731C196.033 42.3657 197.133 41.9119 198.28 41.91H345.422C346.567 41.9139 347.664 42.3689 348.476 43.1762C349.287 43.9835 349.748 45.0782 349.758 46.2229V253.053C349.758 254.204 349.302 255.308 348.489 256.124C347.676 256.939 346.573 257.4 345.422 257.404ZM198.28 42.0624C197.177 42.0644 196.12 42.5034 195.34 43.2832C194.56 44.063 194.121 45.1201 194.119 46.2229V253.053C194.121 254.155 194.56 255.212 195.34 255.992C196.12 256.772 197.177 257.211 198.28 257.213H345.422C346.525 257.211 347.582 256.772 348.362 255.992C349.142 255.212 349.581 254.155 349.583 253.053V46.2229C349.581 45.1201 349.142 44.063 348.362 43.2832C347.582 42.5034 346.525 42.0644 345.422 42.0624H198.28Z" fill="#EBEBEB"/>
<path d="M331.981 303.649H317.586V303.84H331.981V303.649Z" fill="#EBEBEB"/>
<path d="M245.76 302.323H223.304V302.514H245.76V302.323Z" fill="#EBEBEB"/>
<path d="M316.824 296.578H280.927V296.768H316.824V296.578Z" fill="#EBEBEB"/>
<path d="M48.3336 297.858H39.9745V298.049H48.3336V297.858Z" fill="#EBEBEB"/>
<path d="M84.4982 297.858H55.1155V298.049H84.4982V297.858Z" fill="#EBEBEB"/>
<path d="M171.564 301.074H130.302V301.264H171.564V301.074Z" fill="#EBEBEB"/>
<path d="M150.068 65.2424H104.821V168.143H150.068V65.2424Z" fill="#E6E6E6"/>
<path d="M152.834 65.2424H107.587V168.143H152.834V65.2424Z" fill="#F5F5F5"/>
<path d="M147.874 163.51V69.8754H112.547V163.51H147.874Z" fill="white"/>
<path d="M147.866 163.51V69.8754H145.778V163.51H147.866Z" fill="#E6E6E6"/>
<path d="M150.777 135.705H109.637V141.922H150.777V135.705Z" fill="#F5F5F5"/>
<path d="M150.777 78.044H109.637V84.2619H150.777V78.044Z" fill="#F5F5F5"/>
<path d="M211.074 65.2424H165.826V168.143H211.074V65.2424Z" fill="#E6E6E6"/>
<path d="M213.832 65.2424H168.585V168.143H213.832V65.2424Z" fill="#F5F5F5"/>
<path d="M208.872 163.51V69.8754H173.546V163.51H208.872Z" fill="white"/>
<path d="M208.872 163.51V69.8754H206.784V163.51H208.872Z" fill="#E6E6E6"/>
<path d="M211.783 135.705H170.642V141.922H211.783V135.705Z" fill="#F5F5F5"/>
<path d="M211.783 78.044H170.642V84.2619H211.783V78.044Z" fill="#F5F5F5"/>
<path d="M89.0625 65.2424H43.8149V168.143H89.0625V65.2424Z" fill="#E6E6E6"/>
<path d="M91.8286 65.2424H46.5811V168.143H91.8286V65.2424Z" fill="#F5F5F5"/>
<path d="M86.868 163.51V69.8754H51.5417L51.5417 163.51H86.868Z" fill="white"/>
<path d="M86.8604 163.502V69.8677H84.7725V163.502H86.8604Z" fill="#E6E6E6"/>
<path d="M89.7712 135.705H48.6309V141.922H89.7712V135.705Z" fill="#F5F5F5"/>
<path d="M89.7712 78.044H48.6309V84.2619H89.7712V78.044Z" fill="#F5F5F5"/>
<path d="M250.866 188.603H243.467V291.389H250.866V188.603Z" fill="#E6E6E6"/>
<path d="M252.847 188.603H248.488V291.389H252.847V188.603Z" fill="#F0F0F0"/>
<path d="M149.131 196.306H254.196V188.595H149.131V196.306Z" fill="#F0F0F0"/>
<path d="M49.6139 188.603H42.2148V291.389H49.6139V188.603Z" fill="#E6E6E6"/>
<path d="M51.0006 188.603H46.642V291.389H51.0006V188.603Z" fill="#F0F0F0"/>
<path d="M40.8965 196.306H145.961V188.595H40.8965V196.306Z" fill="#E6E6E6"/>
<path d="M148.499 188.603H141.099V291.389H148.499V188.603Z" fill="#E6E6E6"/>
<path d="M150.48 188.603H146.121V291.389H150.48V188.603Z" fill="#F0F0F0"/>
<path d="M129.67 154.412H184.534L188.839 186.804H133.982L129.67 154.412Z" fill="#E6E6E6"/>
<path d="M133.982 186.804L134.203 188.595H189.067L188.846 186.804H133.982Z" fill="#E6E6E6"/>
<path d="M131.361 154.412H186.218L190.531 186.804H135.667L131.361 154.412Z" fill="#F0F0F0"/>
<path d="M136.992 185.326L133.083 155.89H184.892L188.808 185.326H136.992Z" fill="white"/>
<path d="M149.962 186.804L150.183 188.595H210.602L210.373 186.804H149.962Z" fill="#F0F0F0"/>
<path d="M249.098 160.782H221.94C217.317 160.74 212.839 162.395 209.354 165.432C205.869 168.469 203.618 172.679 203.027 177.264L199.057 207.264L184.305 207.211H184.259C180.97 207.133 177.776 208.32 175.336 210.527C172.896 212.735 171.396 215.794 171.145 219.075L170.276 229.362C168.846 229.564 167.521 230.231 166.507 231.259C165.492 232.288 164.843 233.621 164.661 235.054H237.515C242.134 235.096 246.608 233.443 250.09 230.408C253.573 227.374 255.822 223.168 256.413 218.587L262.128 175.534C262.346 173.689 262.172 171.819 261.617 170.046C261.063 168.273 260.141 166.637 258.911 165.245C257.681 163.853 256.171 162.736 254.481 161.967C252.79 161.197 250.955 160.794 249.098 160.782ZM185.09 229.255H174.193L175.016 219.791C175.195 217.366 176.3 215.102 178.101 213.469C179.902 211.835 182.262 210.956 184.694 211.013H184.732L198.57 211.059L197.602 218.351C197.21 221.388 195.718 224.176 193.407 226.186C191.097 228.196 188.129 229.288 185.067 229.255H185.09Z" fill="#E0E0E0"/>
<path d="M181.486 235.024H177.706L168.852 291.389H172.631L181.486 235.024Z" fill="#F0F0F0"/>
<path d="M195.674 235.024H191.894L183.032 291.389H186.812L195.674 235.024Z" fill="#F0F0F0"/>
<path d="M228.958 235.024H232.738L241.6 291.389H237.82L228.958 235.024Z" fill="#F0F0F0"/>
<path d="M214.777 235.024H218.557L227.411 291.389H223.632L214.777 235.024Z" fill="#F0F0F0"/>
<path d="M334.983 67.0483H261.305V220.98H334.983V67.0483Z" fill="#E6E6E6"/>
<path d="M340.103 67.0483H262.669V220.98H340.103V67.0483Z" fill="#F0F0F0"/>
<path d="M333.611 214.495V73.5406H269.146V214.495H333.611Z" fill="#FAFAFA"/>
<path d="M292.006 214.495L299.992 73.533H310.766L302.781 214.495H292.006Z" fill="white"/>
<path d="M304.815 214.495L312.801 73.533H323.576L315.59 214.495H304.815Z" fill="white"/>
<path d="M190.5 325.801C272.097 325.801 338.244 321.939 338.244 317.175C338.244 312.411 272.097 308.549 190.5 308.549C108.903 308.549 42.7559 312.411 42.7559 317.175C42.7559 321.939 108.903 325.801 190.5 325.801Z" fill="#F5F5F5"/>
<path d="M183.497 92.6592L171.679 265.245H315.788L328.841 74.577H202.822L183.497 92.6592Z" fill="#407BFF"/>
<path opacity="0.8" d="M183.497 92.6592L171.679 265.245H315.788L328.841 74.577H202.822L183.497 92.6592Z" fill="white"/>
<path d="M303.995 132.844C313.703 123.462 314.471 108.507 305.709 99.4404C296.947 90.3738 281.975 90.6291 272.266 100.011C262.558 109.393 261.791 124.348 270.552 133.415C279.314 142.481 294.287 142.226 303.995 132.844Z" fill="#407BFF"/>
<path d="M303.159 131.978C312.355 123.091 313.083 108.924 304.783 100.335C296.483 91.7468 282.3 91.9892 273.103 100.877C263.906 109.764 263.179 123.931 271.478 132.52C279.778 141.108 293.962 140.866 303.159 131.978Z" fill="white"/>
<path d="M282.252 124.206L277.848 123.916C277.848 123.916 275.798 134.463 274.488 135.346C272.697 136.589 269.154 139.591 266.799 140.68C266.556 141.394 266.506 142.159 266.654 142.898C270.312 142.898 277.078 139.256 278.244 137.671C280.919 134.112 282.252 124.206 282.252 124.206Z" fill="#FFC3BD"/>
<path d="M284.356 117.592C285.689 120.076 281.536 129.022 281.536 129.022L275.882 127.254C276.045 124.504 276.681 121.802 277.764 119.268C279.166 116.35 282.892 114.864 284.356 117.592Z" fill="#263238"/>
<path opacity="0.2" d="M280.035 122.164C280.797 123.962 279.799 128.306 279.014 131.056C277.101 127.78 276.835 124.732 280.035 122.164Z" fill="black"/>
<path d="M280.012 118.034C279.143 121.211 277.437 129.555 278.831 142.654H293.713C294.056 140.162 293.621 127.993 297.119 116.251C295.346 115.9 293.551 115.671 291.747 115.565C289.448 115.431 287.143 115.431 284.843 115.565C283.862 115.656 282.89 115.835 281.94 116.098C281.478 116.226 281.058 116.471 280.72 116.811C280.382 117.15 280.138 117.572 280.012 118.034Z" fill="#263238"/>
<path opacity="0.2" d="M293.324 119.146C292.875 121.082 293.05 125.707 294.399 131.056C294.798 126.45 295.596 121.886 296.784 117.417C295.725 117.287 293.751 117.348 293.324 119.146Z" fill="black"/>
<path d="M291.442 109.103C290.802 111.328 290.33 114.079 291.747 115.565C291.747 115.565 290.642 117.851 286.52 117.851C282.748 117.851 284.843 115.565 284.843 115.565C287.373 114.971 287.533 111.907 287.259 110.185L291.442 109.103Z" fill="#FFC3BD"/>
<path d="M286.512 117.813C286.896 118.458 287.102 119.195 287.106 119.946C287.106 119.946 292.44 118.125 292.44 115.451C292.44 115.451 291.747 115.016 291.313 114.689C291.328 114.666 290.97 116.746 286.512 117.813Z" fill="white"/>
<path d="M286.367 117.813C285.887 118.393 285.53 119.064 285.316 119.786C284.687 119.306 284.228 118.638 284.005 117.879C283.782 117.12 283.806 116.309 284.074 115.565C284.517 115.388 284.973 115.245 285.438 115.138C285.438 115.138 284.79 117.241 286.367 117.813Z" fill="white"/>
<path opacity="0.2" d="M287.274 110.185C287.493 111.409 287.37 112.67 286.916 113.828C287.309 113.771 287.691 113.658 288.051 113.492C289.514 112.829 290.299 111.793 291.16 110.261C291.244 109.865 291.351 109.499 291.457 109.103L287.274 110.185Z" fill="black"/>
<path d="M283.654 108.128C283.767 108.465 283.95 108.775 284.19 109.038C284.43 109.3 284.723 109.509 285.049 109.652C285.941 110.033 286.573 109.217 286.52 108.28C286.466 107.343 285.902 106.215 284.919 106.23C284.698 106.241 284.482 106.304 284.289 106.413C284.096 106.522 283.931 106.675 283.808 106.86C283.685 107.045 283.607 107.255 283.58 107.476C283.554 107.696 283.579 107.919 283.654 108.128Z" fill="#FFC3BD"/>
<path opacity="0.2" d="M283.654 108.128C283.767 108.465 283.95 108.775 284.19 109.038C284.43 109.3 284.723 109.509 285.049 109.652C285.941 110.033 286.573 109.217 286.52 108.28C286.466 107.343 285.902 106.215 284.919 106.23C284.698 106.241 284.482 106.304 284.289 106.413C284.096 106.522 283.931 106.675 283.808 106.86C283.685 107.045 283.607 107.255 283.58 107.476C283.554 107.696 283.579 107.919 283.654 108.128Z" fill="black"/>
<path d="M287.64 101.902C287.35 100.142 284.752 103.236 285.308 104.866C285.864 106.497 287.96 103.883 287.64 101.902Z" fill="#263238"/>
<path d="M293.202 106.368C292.25 109.317 291.838 111.077 289.971 112.342C289.407 112.774 288.73 113.034 288.021 113.093C287.312 113.151 286.602 113.004 285.974 112.67C285.346 112.336 284.828 111.829 284.48 111.209C284.132 110.589 283.97 109.882 284.013 109.172C284.089 106.383 285.636 102.032 288.79 101.346C291.945 100.66 294.132 103.419 293.202 106.368Z" fill="#FFC3BD"/>
<path d="M292.334 104.623C289.118 104.165 284.5 103.571 286.177 100.942C287.769 98.4352 294.124 98.8924 292.197 100.005C294.688 100.15 297.858 101.346 295.466 102.169C297.393 103.541 296.631 107.213 292.951 108.494C291.892 106.954 291.084 106.276 292.334 104.623Z" fill="#263238"/>
<path d="M293.66 109.88C293.116 110.437 292.386 110.774 291.61 110.825C290.604 110.879 290.413 109.918 290.954 109.088C291.495 108.257 292.547 107.412 293.431 107.754C294.315 108.097 294.338 109.179 293.66 109.88Z" fill="#FFC3BD"/>
<path d="M288.577 106.429C288.516 106.672 288.341 106.84 288.181 106.817C288.021 106.794 287.952 106.573 288.021 106.329C288.089 106.086 288.257 105.91 288.409 105.941C288.562 105.971 288.646 106.185 288.577 106.429Z" fill="#263238"/>
<path d="M285.902 105.956C285.841 106.2 285.666 106.375 285.514 106.345C285.361 106.314 285.285 106.101 285.346 105.857C285.407 105.613 285.582 105.446 285.742 105.468C285.902 105.491 285.971 105.712 285.902 105.956Z" fill="#263238"/>
<path d="M286.725 106.23C286.247 106.923 285.683 107.552 285.049 108.105C285.184 108.252 285.352 108.365 285.538 108.437C285.724 108.508 285.925 108.535 286.123 108.516L286.725 106.23Z" fill="#ED847E"/>
<path d="M286.642 109.309C286.632 109.307 286.624 109.304 286.616 109.298C286.608 109.293 286.602 109.286 286.597 109.278C286.592 109.271 286.589 109.262 286.587 109.253C286.586 109.244 286.586 109.234 286.588 109.225C286.595 109.206 286.607 109.19 286.624 109.179C286.64 109.168 286.66 109.163 286.68 109.164C286.984 109.218 287.297 109.202 287.595 109.119C287.893 109.036 288.169 108.888 288.402 108.684C288.408 108.677 288.416 108.672 288.424 108.668C288.433 108.665 288.442 108.663 288.451 108.663C288.461 108.663 288.47 108.665 288.478 108.668C288.487 108.672 288.494 108.677 288.501 108.684C288.515 108.698 288.523 108.718 288.523 108.737C288.523 108.757 288.515 108.777 288.501 108.791C288.251 109.013 287.953 109.175 287.631 109.265C287.309 109.355 286.97 109.37 286.642 109.309Z" fill="#263238"/>
<path d="M289.613 105.682C289.593 105.679 289.573 105.67 289.557 105.657C289.541 105.643 289.529 105.625 289.522 105.606C289.459 105.444 289.356 105.301 289.223 105.191C289.089 105.08 288.93 105.005 288.76 104.973C288.742 104.973 288.724 104.968 288.707 104.959C288.691 104.951 288.677 104.939 288.666 104.924C288.655 104.91 288.648 104.893 288.644 104.875C288.64 104.857 288.641 104.838 288.646 104.821C288.653 104.782 288.674 104.748 288.705 104.724C288.736 104.7 288.774 104.689 288.813 104.691C289.029 104.723 289.233 104.81 289.405 104.943C289.577 105.077 289.712 105.252 289.796 105.453C289.809 105.49 289.807 105.53 289.792 105.565C289.776 105.6 289.748 105.628 289.712 105.644C289.7 105.657 289.684 105.667 289.667 105.673C289.65 105.68 289.632 105.683 289.613 105.682Z" fill="#263238"/>
<path d="M284.988 104.775C284.971 104.781 284.952 104.781 284.935 104.775C284.921 104.762 284.911 104.747 284.903 104.73C284.896 104.713 284.892 104.694 284.892 104.676C284.892 104.657 284.896 104.639 284.903 104.622C284.911 104.605 284.921 104.59 284.935 104.577C285.087 104.397 285.278 104.254 285.493 104.158C285.708 104.062 285.941 104.015 286.177 104.021C286.195 104.023 286.212 104.03 286.228 104.039C286.244 104.049 286.257 104.062 286.268 104.077C286.278 104.091 286.286 104.108 286.29 104.126C286.294 104.144 286.294 104.163 286.291 104.181C286.284 104.22 286.261 104.256 286.229 104.28C286.196 104.304 286.156 104.315 286.116 104.31C285.93 104.308 285.746 104.347 285.577 104.425C285.409 104.503 285.259 104.617 285.14 104.76C285.119 104.777 285.094 104.788 285.067 104.791C285.039 104.793 285.012 104.788 284.988 104.775Z" fill="#263238"/>
<path d="M298.43 120.327L294.399 122.469C294.399 122.469 298.293 132.07 297.63 133.51C296.723 135.476 295.222 139.797 293.743 141.938C293.918 142.651 294.29 143.301 294.818 143.812C298.049 141.862 302.019 135.27 302.194 133.365C302.59 129.014 298.43 120.327 298.43 120.327Z" fill="#FFC3BD"/>
<path d="M297.119 116.251C299.938 116.746 302.011 126.789 302.011 126.789L295.062 128.778C294.074 126.468 293.257 124.09 292.616 121.661C291.694 117.942 294.132 115.71 297.119 116.251Z" fill="#263238"/>
<path d="M295.206 141.58L292.334 141.374L293.568 144.559C293.568 144.559 296.098 144.658 296.692 142.723L295.206 141.58Z" fill="#FFC3BD"/>
<path d="M289.85 142.837L291.122 145.656L293.568 144.559L292.334 141.374L289.85 142.837Z" fill="#FFC3BD"/>
<path d="M296.326 244.905C306.034 235.523 306.801 220.568 298.04 211.501C289.278 202.434 274.305 202.69 264.597 212.071C254.889 221.453 254.121 236.408 262.883 245.475C271.645 254.542 286.618 254.286 296.326 244.905Z" fill="#407BFF"/>
<path d="M295.489 244.031C304.686 235.144 305.413 220.977 297.114 212.388C288.814 203.8 274.63 204.042 265.434 212.929C256.237 221.817 255.509 235.984 263.809 244.572C272.109 253.161 286.292 252.919 295.489 244.031Z" fill="white"/>
<path d="M272.674 236.479L268.536 235.13C268.536 235.13 264.033 245.036 262.562 245.631C260.551 246.393 256.466 248.534 253.944 249.044C253.535 249.693 253.299 250.435 253.258 251.201C256.748 252.1 264.086 250.119 265.587 248.831C268.986 245.905 272.674 236.479 272.674 236.479Z" fill="#FFB573"/>
<path d="M276.278 230.436C276.949 233.21 270.822 241.066 270.822 241.066L265.862 237.927C266.679 235.259 267.939 232.748 269.588 230.497C271.63 227.96 275.539 227.396 276.278 230.436Z" fill="#407BFF"/>
<path opacity="0.3" d="M276.278 230.436C276.949 233.21 270.822 241.066 270.822 241.066L265.862 237.927C266.679 235.259 267.939 232.748 269.588 230.497C271.63 227.96 275.539 227.396 276.278 230.436Z" fill="black"/>
<path opacity="0.2" d="M272.407 233.888C272.872 235.809 272.453 238.879 271.226 241.508C270.137 239.855 268.864 235.915 272.407 233.888Z" fill="black"/>
<path d="M272.339 230.124C271.47 233.302 269.771 241.645 271.158 254.744H286.047C286.39 252.253 285.948 240.083 289.446 228.341C287.673 227.99 285.878 227.761 284.074 227.655C281.774 227.522 279.469 227.522 277.17 227.655C276.188 227.747 275.217 227.925 274.267 228.189C273.806 228.317 273.386 228.563 273.048 228.902C272.71 229.242 272.466 229.662 272.339 230.124Z" fill="#407BFF"/>
<path opacity="0.3" d="M272.339 230.124C271.47 233.302 269.771 241.645 271.158 254.744H286.047C286.39 252.253 285.948 240.083 289.446 228.341C287.673 227.99 285.878 227.761 284.074 227.655C281.774 227.522 279.469 227.522 277.17 227.655C276.188 227.747 275.217 227.925 274.267 228.189C273.806 228.317 273.386 228.563 273.048 228.902C272.71 229.242 272.466 229.662 272.339 230.124Z" fill="black"/>
<path opacity="0.2" d="M285.704 233.698C285.255 235.633 284.858 240.228 286.725 243.109C287.128 238.501 287.928 233.938 289.118 229.469C288.036 229.362 286.131 231.884 285.704 233.698Z" fill="black"/>
<g opacity="0.95">
<path opacity="0.95" d="M278.656 233.599L277.84 233.957L277.216 233.393C276.422 232.735 275.845 231.853 275.561 230.862C275.277 229.871 275.298 228.817 275.623 227.838C276.127 227.738 276.635 227.664 277.147 227.617C279.446 227.484 281.751 227.484 284.051 227.617C284.584 227.617 285.118 227.686 285.636 227.739L285.118 228.402C283.369 230.586 281.164 232.36 278.656 233.599Z" fill="white"/>
</g>
<path d="M283.776 221.155C283.129 223.38 282.656 226.131 284.074 227.617C282.471 229.6 280.459 231.215 278.176 232.349C277.477 231.805 276.994 231.032 276.81 230.167C276.626 229.301 276.753 228.398 277.17 227.617C279.707 227.023 279.86 223.959 279.585 222.237L283.776 221.155Z" fill="#FFB573"/>
<path opacity="0.2" d="M279.585 222.237C279.805 223.461 279.681 224.722 279.227 225.88C279.622 225.823 280.007 225.71 280.37 225.544C281.826 224.881 282.611 223.845 283.472 222.314C283.563 221.917 283.662 221.552 283.776 221.155L279.585 222.237Z" fill="black"/>
<path d="M275.981 220.218C276.094 220.557 276.277 220.867 276.519 221.13C276.761 221.393 277.055 221.601 277.383 221.742C278.275 222.123 278.907 221.308 278.846 220.37C278.785 219.433 278.229 218.305 277.254 218.321C277.031 218.33 276.815 218.392 276.621 218.501C276.427 218.61 276.261 218.762 276.137 218.947C276.013 219.132 275.935 219.343 275.907 219.564C275.88 219.785 275.906 220.009 275.981 220.218Z" fill="#FFB573"/>
<path opacity="0.2" d="M275.981 220.218C276.094 220.557 276.277 220.867 276.519 221.13C276.761 221.393 277.055 221.601 277.383 221.742C278.275 222.123 278.907 221.308 278.846 220.37C278.785 219.433 278.229 218.305 277.254 218.321C277.031 218.33 276.815 218.392 276.621 218.501C276.427 218.61 276.261 218.762 276.137 218.947C276.013 219.132 275.935 219.343 275.907 219.564C275.88 219.785 275.906 220.009 275.981 220.218Z" fill="black"/>
<path d="M279.509 214.968C279.22 212.979 277.01 215.257 276.758 216.713C276.507 218.168 277.726 219.639 278.557 218.237C279.387 216.835 279.654 216.042 279.509 214.968Z" fill="#263238"/>
<path d="M285.529 218.42C284.577 221.369 284.165 223.121 282.298 224.394C281.733 224.826 281.056 225.086 280.348 225.145C279.639 225.203 278.929 225.056 278.301 224.722C277.673 224.388 277.154 223.881 276.807 223.261C276.459 222.641 276.297 221.934 276.339 221.224C276.416 218.435 277.962 214.084 281.117 213.398C284.272 212.712 286.512 215.471 285.529 218.42Z" fill="#FFB573"/>
<path d="M284.089 221.506C282.946 220.744 282.74 220.454 283.327 219.768C284.317 218.656 282.847 218.496 283.624 217.117C284.706 215.196 281.254 216.545 281.193 215.151C281.14 214.015 278.145 216.058 277.833 214.747C277.383 212.781 280.264 213.147 280.766 212.187C281.269 211.226 284.226 211.082 284.698 212.484C285.171 213.886 286.657 212.766 287.624 214.473C288.592 216.179 286.588 216.309 287.556 217.97C288.318 219.304 286.847 220.256 285.803 221.315C285.178 222.001 284.797 221.986 284.089 221.506Z" fill="#263238"/>
<path d="M286.177 221.529C285.683 222.133 284.983 222.533 284.211 222.649C283.205 222.786 282.931 221.887 283.403 220.98C283.875 220.073 284.851 219.182 285.765 219.456C286.68 219.73 286.794 220.774 286.177 221.529Z" fill="#FFB573"/>
<path d="M280.904 218.481C280.843 218.725 280.667 218.892 280.515 218.869C280.363 218.846 280.286 218.625 280.347 218.382C280.408 218.138 280.584 217.963 280.744 217.993C280.904 218.023 280.972 218.237 280.904 218.481Z" fill="#263238"/>
<path d="M278.237 218.008C278.168 218.252 277.993 218.427 277.84 218.397C277.688 218.366 277.612 218.153 277.673 217.909C277.734 217.665 277.917 217.498 278.069 217.521C278.221 217.543 278.298 217.764 278.237 218.008Z" fill="#263238"/>
<path d="M279.052 218.283C278.577 218.975 278.016 219.605 277.383 220.157C277.519 220.304 277.686 220.417 277.872 220.489C278.059 220.56 278.259 220.587 278.458 220.569L279.052 218.283Z" fill="#ED893E"/>
<path d="M278.968 221.361C278.959 221.359 278.951 221.356 278.943 221.351C278.936 221.345 278.93 221.338 278.925 221.33C278.921 221.322 278.918 221.313 278.918 221.304C278.917 221.295 278.919 221.286 278.922 221.277C278.926 221.258 278.937 221.242 278.952 221.23C278.968 221.219 278.987 221.214 279.006 221.216C279.311 221.27 279.624 221.255 279.922 221.171C280.22 221.088 280.495 220.94 280.728 220.736C280.735 220.73 280.743 220.725 280.751 220.721C280.76 220.717 280.769 220.716 280.778 220.716C280.787 220.716 280.796 220.717 280.805 220.721C280.813 220.725 280.821 220.73 280.827 220.736C280.834 220.743 280.839 220.75 280.843 220.759C280.846 220.767 280.848 220.777 280.848 220.786C280.848 220.795 280.846 220.804 280.843 220.813C280.839 220.821 280.834 220.829 280.827 220.835C280.578 221.059 280.281 221.223 279.959 221.314C279.637 221.405 279.298 221.421 278.968 221.361Z" fill="#263238"/>
<path d="M281.94 217.734C281.919 217.731 281.9 217.722 281.884 217.709C281.867 217.695 281.855 217.678 281.849 217.658C281.786 217.496 281.683 217.354 281.549 217.243C281.416 217.132 281.257 217.057 281.087 217.025C281.069 217.023 281.052 217.018 281.036 217.009C281.02 217 281.007 216.988 280.996 216.974C280.985 216.96 280.978 216.943 280.974 216.926C280.969 216.909 280.969 216.89 280.972 216.873C280.98 216.835 281.001 216.8 281.032 216.776C281.062 216.752 281.101 216.741 281.14 216.743C281.355 216.775 281.559 216.862 281.731 216.995C281.904 217.129 282.038 217.304 282.123 217.505C282.136 217.542 282.134 217.582 282.119 217.617C282.103 217.652 282.075 217.681 282.039 217.696C282.026 217.709 282.011 217.719 281.994 217.725C281.976 217.732 281.958 217.735 281.94 217.734Z" fill="#263238"/>
<path d="M277.284 216.827C277.267 216.832 277.248 216.832 277.231 216.827C277.217 216.814 277.207 216.799 277.2 216.782C277.192 216.765 277.189 216.747 277.189 216.728C277.189 216.71 277.192 216.691 277.2 216.674C277.207 216.657 277.217 216.642 277.231 216.629C277.38 216.447 277.569 216.303 277.783 216.206C277.997 216.11 278.231 216.064 278.465 216.073C278.483 216.076 278.501 216.082 278.516 216.091C278.532 216.101 278.546 216.114 278.556 216.129C278.567 216.144 278.574 216.16 278.578 216.178C278.582 216.196 278.583 216.215 278.58 216.233C278.572 216.271 278.551 216.305 278.52 216.329C278.489 216.353 278.451 216.365 278.412 216.362C278.226 216.359 278.042 216.398 277.873 216.475C277.704 216.553 277.555 216.668 277.437 216.812C277.415 216.828 277.389 216.837 277.362 216.84C277.336 216.843 277.309 216.838 277.284 216.827Z" fill="#263238"/>
<path d="M291.084 232.722L286.847 234.338C286.847 234.338 289.43 244.45 288.592 245.806C287.449 247.658 285.415 251.788 283.685 253.738C283.761 254.473 284.044 255.17 284.5 255.75C287.922 254.226 292.684 248.13 293.103 246.248C294.041 241.943 291.084 232.722 291.084 232.722Z" fill="#FFB573"/>
<path d="M290.322 228.47C293.027 229.332 293.766 239.641 293.766 239.641L286.68 240.739C286.007 238.301 285.513 235.818 285.201 233.309C284.759 229.469 287.411 227.548 290.322 228.47Z" fill="#407BFF"/>
<path opacity="0.3" d="M290.322 228.47C293.027 229.332 293.766 239.641 293.766 239.641L286.68 240.739C286.007 238.301 285.513 235.818 285.201 233.309C284.759 229.469 287.411 227.548 290.322 228.47Z" fill="black"/>
<path d="M285.148 253.571L282.352 252.992L283.159 256.337C283.159 256.337 285.628 256.764 286.466 254.904L285.148 253.571Z" fill="#FFB573"/>
<path d="M279.73 254.142L280.614 257.122L283.159 256.337L282.351 252.992L279.73 254.142Z" fill="#FFB573"/>
<path d="M229.698 188.878C239.407 179.497 240.174 164.541 231.412 155.475C222.65 146.408 207.678 146.663 197.969 156.045C188.261 165.427 187.494 180.382 196.256 189.449C205.017 198.515 219.99 198.26 229.698 188.878Z" fill="#407BFF"/>
<path d="M228.862 188.013C238.058 179.125 238.786 164.958 230.486 156.37C222.187 147.781 208.003 148.023 198.806 156.911C189.609 165.798 188.882 179.965 197.182 188.554C205.481 197.142 219.665 196.9 228.862 188.013Z" fill="white"/>
<path d="M223.197 177.737C223.312 179.55 223.403 181.379 223.472 183.2L223.693 188.641L223.731 189.304L223.784 189.883C223.845 190.279 223.891 190.691 223.975 191.117C224.135 191.955 224.34 192.809 224.584 193.662C225.042 195.377 225.598 197.107 226.108 198.813L224.531 199.575C223.577 197.961 222.734 196.283 222.009 194.554C221.658 193.678 221.331 192.786 221.049 191.849C220.898 191.373 220.774 190.89 220.675 190.401L220.546 189.639L220.469 188.938C220.066 185.25 219.799 181.615 219.654 177.95L223.197 177.737Z" fill="#FF8B7B"/>
<path d="M222.359 173.736C223.746 174.094 224.34 179.931 224.34 179.931L218.694 183.642C218.694 183.642 216.934 176.731 218.13 175.176C219.327 173.622 220.325 173.218 222.359 173.736Z" fill="#407BFF"/>
<path opacity="0.2" d="M222.138 175.047L222.824 180.922L220.53 182.415L222.138 175.047Z" fill="black"/>
<path d="M226.154 198.417L227.678 201.656L224.676 201.74C224.676 201.74 223.799 199.454 224.729 198.288L226.154 198.417Z" fill="#FFB573"/>
<path d="M206.883 158.709C204.498 159.052 199.507 170.452 207.645 175.771C215.783 181.089 221.788 175.047 221.788 175.047C221.788 175.047 216.835 169.164 217.551 165.324C218.267 161.483 221.361 156.644 215.021 155.029C210.556 153.924 204.551 154.991 206.883 158.709Z" fill="#263238"/>
<path d="M227.815 203.256L225.27 203.043L224.706 201.74L227.716 201.656L227.815 203.256Z" fill="#FFB573"/>
<path d="M222.359 173.736C222.359 173.736 223.952 174.315 219.311 194.493H205.329C205.953 188.808 206.197 185.303 204.277 173.637C206.253 173.24 208.254 172.986 210.266 172.875C212.377 172.726 214.495 172.726 216.606 172.875C219.311 173.111 222.359 173.736 222.359 173.736Z" fill="#407BFF"/>
<path opacity="0.2" d="M205.115 178.262C206.357 178.575 207.401 179.954 207.119 182.499C206.952 183.671 206.473 184.776 205.732 185.699C205.649 183.741 205.428 181.47 205.031 178.567L205.115 178.262Z" fill="black"/>
<path d="M215.562 177.333C215.562 177.333 213.147 179.222 213.01 181.226C211.204 179.832 208.895 176.037 208.796 173.606C208.796 173.404 208.876 173.211 209.019 173.068C209.162 172.925 209.356 172.844 209.558 172.844C209.729 172.832 209.899 172.809 210.068 172.776C210.139 172.761 210.212 172.761 210.282 172.779C210.352 172.796 210.417 172.829 210.472 172.875L215.562 177.333Z" fill="#FAFAFA"/>
<path d="M215.562 177.333C216.205 177.733 216.741 178.282 217.127 178.933C217.513 179.584 217.737 180.318 217.78 181.074C219.807 179.664 219.113 175.451 218.176 173.386C218.103 173.225 217.99 173.086 217.847 172.983C217.704 172.88 217.536 172.817 217.361 172.799C217.086 172.799 216.873 172.73 216.728 172.7C216.676 172.691 216.622 172.702 216.578 172.732C216.534 172.762 216.503 172.808 216.492 172.86L215.562 177.333Z" fill="#FAFAFA"/>
<path d="M211.379 165.72C211.638 167.762 211.783 171.503 210.266 172.86C211.688 174.715 213.495 176.241 215.562 177.333C218.549 175.047 216.606 172.86 216.606 172.86C214.366 172.319 214.541 170.635 215.044 169.05L211.379 165.72Z" fill="#FF8B7B"/>
<path opacity="0.2" d="M212.872 167.076L215.044 169.042C214.92 169.409 214.829 169.787 214.77 170.17C213.909 170.04 212.598 169.301 212.484 168.356C212.511 167.905 212.644 167.467 212.872 167.076Z" fill="black"/>
<path d="M208.186 162.443C208.902 165.727 209.138 167.129 211.104 168.463C211.763 168.93 212.533 169.214 213.337 169.286C214.141 169.359 214.95 169.217 215.682 168.876C216.413 168.535 217.041 168.006 217.502 167.343C217.963 166.68 218.24 165.907 218.305 165.103C218.572 161.956 217.353 157.117 213.848 156.522C213.053 156.398 212.239 156.468 211.477 156.726C210.715 156.984 210.027 157.423 209.471 158.004C208.915 158.586 208.507 159.293 208.284 160.066C208.06 160.839 208.026 161.655 208.186 162.443Z" fill="#FF8B7B"/>
<path d="M209.123 165.4C211.234 163.388 211.31 160.896 210.777 160.119C212.59 159.967 217.284 158.824 216.53 157.071C215.776 155.319 208.468 154.374 207.462 158.854C205.039 160.881 206.586 164.943 209.123 165.4Z" fill="#263238"/>
<path d="M213.703 162.146C213.749 162.42 213.924 162.603 214.107 162.565C214.29 162.527 214.396 162.276 214.351 162.009C214.305 161.742 214.13 161.544 213.954 161.59C213.779 161.635 213.665 161.879 213.703 162.146Z" fill="#263238"/>
<path d="M216.812 161.468C216.85 161.742 217.033 161.925 217.208 161.887C217.383 161.849 217.505 161.597 217.46 161.323C217.414 161.049 217.239 160.866 217.063 160.904C216.961 160.952 216.879 161.036 216.833 161.139C216.787 161.243 216.779 161.359 216.812 161.468Z" fill="#263238"/>
<path d="M216.979 160.942L217.612 160.607C217.612 160.607 217.353 161.186 216.979 160.942Z" fill="#263238"/>
<path d="M215.928 162.169C216.267 162.734 216.685 163.247 217.17 163.693C217.048 163.822 216.9 163.924 216.736 163.992C216.572 164.06 216.395 164.093 216.218 164.089L215.928 162.169Z" fill="#FF5652"/>
<path d="M214.884 165.461C215.022 165.453 215.16 165.435 215.296 165.407C215.317 165.402 215.336 165.389 215.348 165.371C215.361 165.352 215.367 165.33 215.364 165.308C215.364 165.298 215.36 165.287 215.355 165.278C215.35 165.269 215.343 165.261 215.334 165.255C215.325 165.249 215.315 165.245 215.304 165.244C215.293 165.243 215.283 165.244 215.273 165.247C214.943 165.333 214.596 165.337 214.264 165.259C213.932 165.18 213.625 165.022 213.368 164.798C213.352 164.783 213.332 164.775 213.31 164.775C213.289 164.775 213.269 164.783 213.253 164.798C213.245 164.805 213.239 164.814 213.234 164.824C213.23 164.833 213.228 164.844 213.228 164.855C213.228 164.866 213.23 164.876 213.234 164.886C213.239 164.896 213.245 164.905 213.253 164.912C213.471 165.113 213.729 165.266 214.01 165.36C214.291 165.455 214.589 165.489 214.884 165.461Z" fill="#263238"/>
<path d="M207.744 165.72C207.911 165.99 208.133 166.223 208.396 166.403C208.658 166.582 208.955 166.705 209.268 166.764C210.121 166.924 210.525 166.131 210.274 165.362C210.022 164.592 209.329 163.754 208.483 163.944C208.299 163.985 208.127 164.069 207.982 164.19C207.837 164.311 207.724 164.465 207.651 164.64C207.579 164.814 207.549 165.003 207.565 165.191C207.582 165.379 207.643 165.56 207.744 165.72Z" fill="#FF8B7B"/>
<path d="M212.247 161.544C212.282 161.54 212.315 161.526 212.34 161.502C212.366 161.479 212.385 161.448 212.392 161.414C212.592 160.899 212.986 160.483 213.49 160.256C213.51 160.248 213.529 160.236 213.545 160.22C213.561 160.204 213.573 160.185 213.582 160.165C213.59 160.144 213.594 160.122 213.594 160.1C213.594 160.078 213.59 160.056 213.581 160.035C213.573 160.017 213.561 160 213.546 159.986C213.531 159.971 213.513 159.961 213.494 159.953C213.475 159.946 213.455 159.943 213.434 159.944C213.414 159.945 213.394 159.95 213.375 159.959C213.076 160.093 212.806 160.285 212.583 160.524C212.359 160.764 212.185 161.046 212.072 161.354C212.067 161.374 212.065 161.396 212.069 161.417C212.072 161.438 212.079 161.458 212.091 161.476C212.102 161.494 212.117 161.509 212.135 161.521C212.153 161.533 212.173 161.541 212.194 161.544C212.202 161.548 212.212 161.55 212.221 161.55C212.23 161.55 212.239 161.548 212.247 161.544Z" fill="#263238"/>
<path d="M217.566 159.304C217.595 159.304 217.623 159.297 217.648 159.284C217.673 159.27 217.695 159.251 217.711 159.228C217.74 159.197 217.756 159.156 217.756 159.113C217.756 159.071 217.74 159.03 217.711 158.999C217.5 158.853 217.257 158.76 217.002 158.727C216.748 158.694 216.489 158.722 216.248 158.808C216.208 158.825 216.176 158.857 216.157 158.896C216.139 158.935 216.136 158.98 216.149 159.022C216.156 159.042 216.168 159.061 216.183 159.077C216.198 159.092 216.216 159.105 216.236 159.113C216.256 159.122 216.277 159.126 216.299 159.126C216.321 159.126 216.342 159.122 216.362 159.113C216.552 159.043 216.757 159.022 216.958 159.049C217.158 159.077 217.349 159.154 217.513 159.273L217.566 159.304Z" fill="#263238"/>
<path d="M213.878 161.62L214.511 161.285C214.511 161.285 214.244 161.872 213.878 161.62Z" fill="#263238"/>
<path d="M205.176 193.678L204.734 194.927C204.673 195.026 204.788 195.125 204.948 195.125H219.319C219.448 195.125 219.555 195.064 219.57 194.981L219.776 193.731C219.776 193.647 219.692 193.571 219.547 193.571H205.412C205.367 193.567 205.322 193.575 205.28 193.594C205.239 193.612 205.203 193.641 205.176 193.678Z" fill="#407BFF"/>
<path opacity="0.2" d="M205.176 193.678L204.734 194.927C204.673 195.026 204.788 195.125 204.948 195.125H219.319C219.448 195.125 219.555 195.064 219.57 194.981L219.776 193.731C219.776 193.647 219.692 193.571 219.547 193.571H205.412C205.367 193.567 205.322 193.575 205.28 193.594C205.239 193.612 205.203 193.641 205.176 193.678Z" fill="white"/>
<path d="M207.013 195.255H206.632C206.555 195.255 206.502 195.217 206.51 195.171L206.799 193.548C206.799 193.502 206.875 193.464 206.952 193.464H207.333C207.409 193.464 207.462 193.502 207.455 193.548L207.165 195.171C207.157 195.217 207.089 195.255 207.013 195.255Z" fill="#407BFF"/>
<path opacity="0.4" d="M207.013 195.255H206.632C206.555 195.255 206.502 195.217 206.51 195.171L206.799 193.548C206.799 193.502 206.875 193.464 206.952 193.464H207.333C207.409 193.464 207.462 193.502 207.455 193.548L207.165 195.171C207.157 195.217 207.089 195.255 207.013 195.255Z" fill="black"/>
<path d="M218.244 195.255H217.863C217.787 195.255 217.734 195.217 217.741 195.171L218.031 193.548C218.031 193.502 218.107 193.464 218.183 193.464H218.564C218.641 193.464 218.694 193.502 218.686 193.548L218.397 195.171C218.389 195.217 218.321 195.255 218.244 195.255Z" fill="#407BFF"/>
<path opacity="0.4" d="M218.244 195.255H217.863C217.787 195.255 217.734 195.217 217.741 195.171L218.031 193.548C218.031 193.502 218.107 193.464 218.183 193.464H218.564C218.641 193.464 218.694 193.502 218.686 193.548L218.397 195.171C218.389 195.217 218.321 195.255 218.244 195.255Z" fill="black"/>
<path d="M212.651 195.255H212.27C212.194 195.255 212.141 195.217 212.148 195.171L212.438 193.548C212.438 193.502 212.514 193.464 212.59 193.464H212.971C213.048 193.464 213.101 193.502 213.093 193.548L212.804 195.171C212.796 195.217 212.728 195.255 212.651 195.255Z" fill="#407BFF"/>
<path opacity="0.4" d="M212.651 195.255H212.27C212.194 195.255 212.141 195.217 212.148 195.171L212.438 193.548C212.438 193.502 212.514 193.464 212.59 193.464H212.971C213.048 193.464 213.101 193.502 213.093 193.548L212.804 195.171C212.796 195.217 212.728 195.255 212.651 195.255Z" fill="black"/>
<path d="M213.528 197.282L217.025 195.758L215.829 199.118C215.829 199.118 213.642 199.614 212.781 198.532L213.528 197.282Z" fill="#FFB573"/>
<path d="M205.831 178.308C205.435 180.594 204.986 182.949 204.528 185.265C204.307 186.423 204.056 187.551 203.812 188.732L203.454 190.462L203.294 191.224C203.275 191.278 203.275 191.337 203.294 191.392C203.418 191.713 203.617 192 203.873 192.23C204.227 192.575 204.615 192.884 205.031 193.152C205.965 193.747 206.94 194.274 207.95 194.729C208.978 195.209 210.045 195.651 211.127 196.055C212.209 196.459 213.314 196.817 214.404 197.213L214.008 198.913C211.617 198.521 209.263 197.924 206.974 197.129C205.787 196.722 204.637 196.212 203.538 195.605C202.941 195.273 202.378 194.885 201.854 194.447C201.186 193.921 200.662 193.234 200.33 192.451C200.144 191.965 200.071 191.444 200.116 190.927C200.155 190.599 200.17 190.531 200.193 190.371L200.261 189.929L200.528 188.184C200.718 187.018 200.886 185.852 201.092 184.686C201.48 182.362 201.854 180.038 202.334 177.721L205.831 178.308Z" fill="#FF8B7B"/>
<path d="M204.277 173.645C202.852 174.071 200.84 178.887 200.84 178.887L205.412 183.924C205.412 183.924 208.277 178.742 207.82 176.936C207.363 175.13 205.908 173.157 204.277 173.645Z" fill="#407BFF"/>
<path d="M219.784 196.466L218.633 199.233L215.829 199.126L217.025 195.765L219.784 196.466Z" fill="#FFB573"/>
<path opacity="0.3" d="M196.078 114.186H250.698C251.206 114.178 251.694 113.981 252.064 113.632C252.435 113.284 252.662 112.811 252.702 112.304C252.722 112.063 252.692 111.82 252.613 111.592C252.533 111.363 252.407 111.154 252.242 110.977C252.077 110.801 251.876 110.661 251.654 110.566C251.431 110.472 251.191 110.425 250.949 110.429H196.337C195.829 110.437 195.342 110.633 194.97 110.979C194.598 111.325 194.369 111.797 194.325 112.304C194.305 112.545 194.336 112.788 194.415 113.017C194.494 113.245 194.62 113.455 194.785 113.632C194.95 113.81 195.15 113.95 195.373 114.046C195.596 114.141 195.836 114.189 196.078 114.186Z" fill="#407BFF"/>
<path opacity="0.3" d="M211.165 122.446H250.111C250.62 122.436 251.107 122.239 251.479 121.891C251.85 121.544 252.08 121.071 252.123 120.564C252.143 120.323 252.113 120.08 252.033 119.852C251.954 119.623 251.828 119.414 251.663 119.237C251.498 119.061 251.297 118.921 251.075 118.826C250.852 118.732 250.612 118.685 250.37 118.689H211.424C210.916 118.697 210.429 118.893 210.058 119.239C209.686 119.585 209.456 120.057 209.413 120.564C209.393 120.805 209.423 121.048 209.502 121.277C209.581 121.506 209.708 121.715 209.873 121.893C210.038 122.07 210.238 122.211 210.461 122.306C210.683 122.401 210.923 122.449 211.165 122.446Z" fill="#407BFF"/>
<path d="M220.264 105.918H251.247C251.754 105.912 252.241 105.716 252.612 105.369C252.983 105.023 253.211 104.55 253.251 104.043C253.271 103.803 253.241 103.561 253.162 103.332C253.083 103.104 252.958 102.895 252.793 102.717C252.629 102.54 252.43 102.399 252.208 102.304C251.987 102.208 251.747 102.159 251.506 102.161H220.523C220.014 102.169 219.527 102.367 219.157 102.715C218.786 103.063 218.559 103.537 218.519 104.043C218.499 104.284 218.529 104.526 218.608 104.754C218.686 104.982 218.812 105.19 218.976 105.367C219.141 105.544 219.34 105.684 219.562 105.779C219.784 105.873 220.023 105.921 220.264 105.918Z" fill="white"/>
<path opacity="0.3" d="M220.332 234.871H242.43C242.672 234.867 242.912 234.914 243.135 235.008C243.357 235.103 243.558 235.243 243.723 235.419C243.888 235.596 244.014 235.805 244.093 236.034C244.173 236.262 244.203 236.505 244.183 236.746C244.143 237.254 243.914 237.729 243.542 238.077C243.17 238.425 242.681 238.622 242.171 238.628H220.073C219.831 238.631 219.591 238.583 219.368 238.488C219.146 238.393 218.945 238.252 218.78 238.075C218.615 237.897 218.489 237.688 218.41 237.459C218.331 237.23 218.3 236.987 218.321 236.746C218.362 236.239 218.592 235.766 218.964 235.419C219.336 235.073 219.824 234.877 220.332 234.871Z" fill="#407BFF"/>
<path opacity="0.3" d="M190.409 234.871H212.507C212.748 234.867 212.988 234.914 213.211 235.008C213.434 235.103 213.634 235.243 213.799 235.419C213.964 235.596 214.09 235.805 214.17 236.034C214.249 236.262 214.279 236.505 214.259 236.746C214.216 237.253 213.986 237.726 213.615 238.073C213.243 238.421 212.756 238.619 212.248 238.628H190.15C189.907 238.631 189.667 238.583 189.445 238.488C189.222 238.393 189.022 238.252 188.857 238.075C188.692 237.897 188.566 237.688 188.486 237.459C188.407 237.23 188.377 236.987 188.397 236.746C188.437 236.238 188.666 235.764 189.038 235.417C189.411 235.07 189.9 234.875 190.409 234.871Z" fill="#407BFF"/>
<path opacity="0.3" d="M204.033 226.611H242.979C243.221 226.607 243.461 226.654 243.683 226.748C243.906 226.843 244.106 226.983 244.271 227.159C244.437 227.336 244.563 227.545 244.642 227.774C244.721 228.002 244.752 228.245 244.732 228.486C244.692 228.993 244.464 229.466 244.094 229.815C243.723 230.163 243.236 230.36 242.728 230.368H203.774C203.532 230.371 203.292 230.323 203.07 230.228C202.848 230.133 202.648 229.992 202.484 229.814C202.319 229.637 202.194 229.427 202.115 229.198C202.037 228.969 202.008 228.727 202.029 228.486C202.069 227.98 202.297 227.507 202.668 227.16C203.038 226.813 203.525 226.617 204.033 226.611Z" fill="#407BFF"/>
<path d="M198.882 218.344H243.535C243.777 218.34 244.017 218.388 244.239 218.483C244.461 218.579 244.661 218.72 244.826 218.897C244.99 219.074 245.115 219.284 245.194 219.513C245.272 219.742 245.302 219.985 245.28 220.226C245.24 220.732 245.013 221.205 244.642 221.552C244.271 221.898 243.784 222.094 243.276 222.1H198.646C198.404 222.104 198.164 222.058 197.941 221.963C197.719 221.869 197.518 221.729 197.353 221.552C197.188 221.375 197.062 221.166 196.983 220.938C196.903 220.709 196.873 220.467 196.893 220.226C196.933 219.721 197.158 219.25 197.525 218.902C197.893 218.554 198.376 218.355 198.882 218.344Z" fill="white"/>
<path opacity="0.3" d="M291.694 178.841H251.003C250.494 178.849 250.007 179.047 249.637 179.395C249.266 179.743 249.039 180.217 248.999 180.724C248.979 180.964 249.009 181.206 249.088 181.434C249.166 181.662 249.292 181.871 249.456 182.047C249.621 182.224 249.82 182.364 250.042 182.459C250.263 182.554 250.503 182.601 250.744 182.598H291.435C291.942 182.592 292.429 182.396 292.8 182.05C293.171 181.703 293.399 181.23 293.439 180.724C293.46 180.483 293.43 180.24 293.352 180.011C293.274 179.782 293.148 179.572 292.984 179.395C292.82 179.218 292.62 179.077 292.398 178.981C292.175 178.886 291.935 178.838 291.694 178.841Z" fill="#407BFF"/>
<path opacity="0.3" d="M270.769 170.581H251.567C251.058 170.589 250.571 170.787 250.2 171.135C249.83 171.483 249.602 171.957 249.563 172.464C249.542 172.704 249.573 172.947 249.652 173.175C249.731 173.404 249.858 173.613 250.023 173.79C250.188 173.966 250.388 174.107 250.611 174.201C250.833 174.295 251.073 174.342 251.315 174.338H270.51C271.018 174.33 271.505 174.134 271.877 173.788C272.248 173.442 272.478 172.97 272.522 172.464C272.542 172.222 272.511 171.979 272.432 171.75C272.353 171.522 272.227 171.312 272.062 171.135C271.897 170.957 271.697 170.817 271.474 170.721C271.251 170.626 271.011 170.578 270.769 170.581Z" fill="#407BFF"/>
<path d="M282.009 162.306H252.138C251.63 162.314 251.143 162.51 250.771 162.856C250.4 163.202 250.17 163.674 250.126 164.181C250.106 164.422 250.137 164.665 250.216 164.894C250.295 165.122 250.421 165.332 250.586 165.509C250.751 165.687 250.952 165.827 251.174 165.923C251.397 166.018 251.637 166.066 251.879 166.063H281.757C282.266 166.056 282.754 165.86 283.125 165.511C283.496 165.163 283.723 164.688 283.761 164.181C283.781 163.94 283.751 163.697 283.672 163.469C283.592 163.24 283.466 163.031 283.301 162.854C283.136 162.678 282.936 162.538 282.713 162.443C282.49 162.349 282.25 162.302 282.009 162.306Z" fill="white"/>
<path opacity="0.3" d="M306.172 170.581H278.892C278.383 170.591 277.896 170.788 277.525 171.136C277.153 171.484 276.924 171.957 276.88 172.464C276.86 172.704 276.89 172.947 276.97 173.175C277.049 173.404 277.175 173.613 277.34 173.79C277.506 173.966 277.706 174.107 277.929 174.201C278.151 174.295 278.391 174.342 278.633 174.338H305.912C306.42 174.33 306.908 174.134 307.279 173.788C307.651 173.442 307.881 172.97 307.924 172.464C307.944 172.222 307.914 171.979 307.835 171.75C307.756 171.522 307.629 171.312 307.464 171.135C307.299 170.957 307.099 170.817 306.876 170.721C306.654 170.626 306.414 170.578 306.172 170.581Z" fill="#407BFF"/>
<path opacity="0.3" d="M183.497 92.6592H203.904L202.822 74.577L183.497 92.6592Z" fill="#407BFF"/>
<path d="M183.497 92.6592L205.344 90.0456L202.822 74.577L183.497 92.6592Z" fill="#407BFF"/>
<path d="M101.178 146.228C100.531 147.752 99.8144 149.443 99.182 151.074C98.5495 152.705 97.9018 154.374 97.3151 156.027C96.1218 159.261 95.1418 162.571 94.3814 165.933C94.2747 166.345 94.2213 166.748 94.1451 167.152L94.0385 167.762L93.9546 168.242C93.8792 168.92 93.8639 169.603 93.9089 170.284C94.0402 171.949 94.2667 173.606 94.5871 175.245C95.2424 178.666 96.1111 182.209 96.9722 185.684L93.1012 187.322C91.1781 184.034 89.556 180.578 88.2549 176.997C87.559 175.115 87.0212 173.178 86.6471 171.206C86.4239 170.072 86.3243 168.917 86.3499 167.762V167.267C86.3499 167.107 86.3499 167.008 86.3499 166.87L86.4261 166.108C86.4794 165.613 86.5099 165.103 86.5937 164.584C87.1585 160.742 88.0482 156.954 89.2531 153.261C89.8475 151.44 90.4571 149.642 91.1657 147.881C91.8744 146.121 92.5602 144.391 93.4517 142.585L101.178 146.228Z" fill="#7F3E3B"/>
<path d="M96.8426 184.739L99.8144 187.635L93.3298 190.683C93.3298 190.683 91.7601 187.94 92.8421 185.456L96.8426 184.739Z" fill="#7F3E3B"/>
<path d="M102.207 191.955L96.736 194.196L93.3298 190.652L99.8145 187.635L102.207 191.955Z" fill="#7F3E3B"/>
<path d="M243.685 175.285C252.246 154.616 242.431 130.92 221.762 122.359C201.093 113.797 177.397 123.613 168.836 144.281C160.275 164.95 170.09 188.646 190.759 197.208C211.428 205.769 235.124 195.954 243.685 175.285Z" fill="#407BFF"/>
<path d="M206.258 198.158C227.452 198.158 244.633 180.977 244.633 159.784C244.633 138.59 227.452 121.409 206.258 121.409C185.065 121.409 167.884 138.59 167.884 159.784C167.884 180.977 185.065 198.158 206.258 198.158Z" fill="white"/>
<path d="M222.915 168.615C223.342 171.755 223.677 174.91 224.051 178.057L225.087 187.452L225.224 188.58L225.384 189.593L225.605 190.645L225.872 191.719C226.268 193.159 226.718 194.622 227.221 196.086C228.196 199.019 229.339 201.961 230.459 204.887L227.838 206.304C226.04 203.596 224.416 200.776 222.976 197.861C222.268 196.383 221.59 194.882 221.01 193.289L220.584 192.085L220.203 190.828C220.088 190.393 219.989 189.944 219.883 189.502L219.646 188.283C219.06 185.097 218.58 181.958 218.122 178.803C217.665 175.649 217.261 172.494 216.926 169.324L222.915 168.615Z" fill="#FF8B7B"/>
<path d="M221.018 161.978C223.449 162.596 225.148 172.601 225.148 172.601L215.859 178.918C215.859 178.918 212.049 167.061 213.901 164.394C215.852 161.613 217.475 161.079 221.018 161.978Z" fill="#407BFF"/>
<path opacity="0.2" d="M220.805 164.211L222.672 174.292L218.907 176.845L220.805 164.211Z" fill="black"/>
<path d="M230.429 204.292L233.477 209.84L228.326 209.977C228.326 209.977 226.558 206.03 228.021 204.064L230.429 204.292Z" fill="#FFB573"/>
<path d="M192.717 136.208C188.679 136.794 181.447 156.34 196.04 165.461C210.632 174.582 220.218 164.219 220.218 164.219C220.218 164.219 211.036 154.122 211.836 147.538C212.636 140.955 217.353 132.657 206.289 129.891C198.448 127.932 188.29 129.822 192.717 136.208Z" fill="#263238"/>
<path d="M233.85 212.59L229.453 212.225L228.341 209.977L233.492 209.84L233.85 212.59Z" fill="#FFB573"/>
<path d="M221.018 161.978C221.018 161.978 223.83 162.969 218.206 197.564H194.257C194.661 187.818 194.668 181.813 190.012 161.811C193.363 161.115 196.761 160.667 200.177 160.47C203.797 160.206 207.431 160.206 211.051 160.47C215.722 160.896 221.018 161.978 221.018 161.978Z" fill="#407BFF"/>
<path opacity="0.2" d="M192.024 169.728C194.196 170.269 196.2 172.631 195.956 176.99C195.824 178.971 195.131 180.873 193.96 182.476C193.579 179.123 192.931 175.237 191.917 170.284L192.024 169.728Z" fill="black"/>
<path d="M209.794 168.135C209.794 168.135 205.87 171.366 205.87 174.803C202.608 172.418 198.211 165.91 197.747 161.75C197.732 161.582 197.752 161.413 197.804 161.253C197.856 161.093 197.941 160.945 198.052 160.818C198.163 160.691 198.298 160.589 198.45 160.516C198.602 160.443 198.767 160.401 198.935 160.393C199.227 160.377 199.518 160.339 199.804 160.279C199.926 160.253 200.053 160.255 200.175 160.286C200.296 160.316 200.409 160.374 200.505 160.454L209.794 168.135Z" fill="#FAFAFA"/>
<path d="M209.794 168.135C210.937 168.816 211.913 169.746 212.648 170.855C213.383 171.964 213.858 173.225 214.038 174.544C217.338 172.128 215.654 164.904 213.817 161.369C213.673 161.094 213.464 160.858 213.207 160.683C212.951 160.507 212.655 160.397 212.347 160.363C211.859 160.302 211.493 160.241 211.249 160.188C211.205 160.179 211.16 160.179 211.116 160.189C211.072 160.199 211.03 160.218 210.994 160.244C210.957 160.27 210.927 160.304 210.904 160.343C210.881 160.382 210.866 160.425 210.861 160.47L209.794 168.135Z" fill="#FAFAFA"/>
<path d="M201.26 148.224C201.945 151.722 202.631 158.13 200.177 160.47C202.835 163.645 206.106 166.253 209.794 168.135C214.648 164.264 211.051 160.47 211.051 160.47C207.15 159.54 207.241 156.66 207.935 153.924L201.26 148.224Z" fill="#FF8B7B"/>
<path opacity="0.2" d="M203.98 150.548L207.927 153.924C207.761 154.556 207.648 155.201 207.592 155.852C206.106 155.639 203.782 154.366 203.439 152.743C203.435 151.978 203.621 151.224 203.98 150.548Z" fill="black"/>
<path d="M195.392 142.608C197.008 148.232 197.571 150.64 201.107 152.933C206.441 156.37 212.971 153.154 213.063 147.157C213.147 141.762 210.487 133.441 204.407 132.443C203.065 132.21 201.687 132.324 200.402 132.774C199.117 133.224 197.969 133.994 197.066 135.013C196.162 136.031 195.534 137.264 195.242 138.593C194.949 139.922 195.001 141.305 195.392 142.608Z" fill="#FF8B7B"/>
<path d="M197.358 147.676C200.749 144.216 200.581 139.949 199.575 138.615C202.669 138.356 210.586 136.398 209.085 133.403C207.584 130.409 194.95 128.778 193.746 136.451C189.822 139.918 192.946 146.891 197.358 147.676Z" fill="#263238"/>
<path d="M204.818 142.098C204.925 142.563 205.252 142.86 205.58 142.814C205.908 142.768 206.045 142.319 205.946 141.854C205.847 141.389 205.511 141.092 205.184 141.138C204.856 141.183 204.719 141.633 204.818 142.098Z" fill="#263238"/>
<path d="M210.068 140.97C210.175 141.435 210.502 141.732 210.83 141.686C211.158 141.641 211.295 141.191 211.188 140.726C211.082 140.261 210.754 139.964 210.426 140.002C210.099 140.04 209.969 140.467 210.068 140.97Z" fill="#263238"/>
<path d="M210.312 140.025L211.356 139.454C211.356 139.454 210.967 140.452 210.312 140.025Z" fill="#263238"/>
<path d="M208.636 142.128C209.276 143.092 210.045 143.964 210.922 144.719C210.723 144.941 210.478 145.116 210.204 145.234C209.93 145.351 209.634 145.407 209.337 145.397L208.636 142.128Z" fill="#FF5652"/>
<path d="M207.264 147.782C207.5 147.767 207.734 147.733 207.965 147.683C208.001 147.674 208.032 147.652 208.052 147.621C208.072 147.59 208.079 147.552 208.072 147.516C208.063 147.48 208.04 147.449 208.009 147.429C207.978 147.409 207.94 147.402 207.904 147.409C207.329 147.549 206.73 147.552 206.153 147.42C205.576 147.288 205.038 147.023 204.582 146.647C204.555 146.622 204.52 146.608 204.483 146.608C204.446 146.608 204.411 146.622 204.384 146.647C204.37 146.66 204.36 146.675 204.352 146.692C204.345 146.709 204.341 146.728 204.341 146.746C204.341 146.765 204.345 146.783 204.352 146.8C204.36 146.817 204.37 146.832 204.384 146.845C204.777 147.185 205.235 147.443 205.729 147.604C206.224 147.765 206.746 147.826 207.264 147.782Z" fill="#263238"/>
<path d="M195.019 148.217C195.333 148.68 195.736 149.077 196.204 149.384C196.672 149.691 197.196 149.903 197.747 150.007C199.225 150.282 199.827 148.933 199.271 147.607C198.798 146.418 197.465 144.849 196.04 145.169C195.732 145.251 195.45 145.408 195.218 145.626C194.986 145.844 194.812 146.117 194.711 146.418C194.61 146.72 194.585 147.043 194.639 147.356C194.692 147.67 194.823 147.966 195.019 148.217Z" fill="#FF8B7B"/>
<path d="M202.25 141.077C202.308 141.07 202.362 141.044 202.404 141.005C202.447 140.965 202.475 140.913 202.486 140.856C202.624 140.421 202.85 140.019 203.15 139.675C203.45 139.331 203.818 139.054 204.231 138.859C204.265 138.845 204.296 138.823 204.322 138.796C204.347 138.769 204.367 138.737 204.38 138.702C204.393 138.667 204.398 138.63 204.396 138.593C204.394 138.556 204.385 138.519 204.368 138.486C204.353 138.452 204.331 138.422 204.304 138.398C204.276 138.373 204.244 138.354 204.209 138.342C204.174 138.33 204.138 138.325 204.101 138.327C204.064 138.33 204.028 138.34 203.995 138.356C203.5 138.586 203.061 138.919 202.706 139.333C202.351 139.747 202.089 140.233 201.938 140.757C201.931 140.792 201.932 140.829 201.939 140.864C201.947 140.899 201.961 140.933 201.982 140.963C202.002 140.992 202.028 141.018 202.059 141.037C202.089 141.057 202.123 141.07 202.159 141.077C202.189 141.084 202.22 141.084 202.25 141.077Z" fill="#263238"/>
<path d="M211.074 137.213C211.137 137.221 211.2 137.206 211.253 137.172C211.306 137.138 211.346 137.086 211.366 137.026C211.386 136.966 211.384 136.901 211.361 136.843C211.339 136.784 211.297 136.734 211.242 136.703C210.878 136.449 210.457 136.286 210.017 136.229C209.577 136.172 209.129 136.222 208.712 136.375C208.645 136.405 208.592 136.46 208.565 136.529C208.538 136.597 208.539 136.673 208.567 136.741C208.581 136.775 208.602 136.806 208.628 136.831C208.654 136.857 208.685 136.877 208.719 136.891C208.754 136.904 208.79 136.911 208.827 136.91C208.863 136.909 208.899 136.901 208.933 136.886C209.265 136.77 209.621 136.735 209.969 136.784C210.318 136.833 210.65 136.964 210.937 137.168C210.977 137.197 211.025 137.213 211.074 137.213Z" fill="#263238"/>
<path d="M205.054 141.191L206.098 140.62C206.098 140.62 205.74 141.618 205.054 141.191Z" fill="#263238"/>
<path d="M193.899 196.162L193.281 198.303C193.205 198.471 193.396 198.638 193.678 198.638H218.321C218.534 198.638 218.717 198.532 218.732 198.402L218.945 196.253C218.945 196.108 218.77 195.979 218.534 195.979H194.31C194.231 195.969 194.151 195.981 194.079 196.013C194.006 196.045 193.944 196.097 193.899 196.162Z" fill="#407BFF"/>
<path opacity="0.2" d="M193.899 196.162L193.281 198.303C193.205 198.471 193.396 198.638 193.678 198.638H218.321C218.534 198.638 218.717 198.532 218.732 198.402L218.945 196.253C218.945 196.108 218.77 195.979 218.534 195.979H194.31C194.231 195.969 194.151 195.981 194.079 196.013C194.006 196.045 193.944 196.097 193.899 196.162Z" fill="white"/>
<path d="M197.236 198.882H196.596C196.466 198.882 196.367 198.813 196.375 198.73L196.68 195.948C196.68 195.865 196.802 195.796 196.931 195.796H197.579C197.709 195.796 197.808 195.865 197.8 195.948L197.495 198.73C197.48 198.806 197.358 198.882 197.236 198.882Z" fill="#407BFF"/>
<path opacity="0.4" d="M197.236 198.882H196.596C196.466 198.882 196.367 198.813 196.375 198.73L196.68 195.948C196.68 195.865 196.802 195.796 196.931 195.796H197.579C197.709 195.796 197.808 195.865 197.8 195.948L197.495 198.73C197.48 198.806 197.358 198.882 197.236 198.882Z" fill="black"/>
<path d="M216.499 198.882H215.844C215.715 198.882 215.616 198.813 215.631 198.73L215.936 195.948C215.936 195.865 216.058 195.796 216.187 195.796H216.835C216.964 195.796 217.063 195.865 217.056 195.948L216.751 198.73C216.731 198.779 216.696 198.82 216.651 198.848C216.605 198.876 216.552 198.887 216.499 198.882Z" fill="#407BFF"/>
<path opacity="0.4" d="M216.499 198.882H215.844C215.715 198.882 215.616 198.813 215.631 198.73L215.936 195.948C215.936 195.865 216.058 195.796 216.187 195.796H216.835C216.964 195.796 217.063 195.865 217.056 195.948L216.751 198.73C216.731 198.779 216.696 198.82 216.651 198.848C216.605 198.876 216.552 198.887 216.499 198.882Z" fill="black"/>
<path d="M206.906 198.882H206.258C206.129 198.882 206.03 198.813 206.037 198.73L206.342 195.948C206.342 195.865 206.464 195.796 206.594 195.796H207.264C207.394 195.796 207.493 195.865 207.485 195.948L207.18 198.73C207.15 198.806 207.035 198.882 206.906 198.882Z" fill="#407BFF"/>
<path opacity="0.4" d="M206.906 198.882H206.258C206.129 198.882 206.03 198.813 206.037 198.73L206.342 195.948C206.342 195.865 206.464 195.796 206.594 195.796H207.264C207.394 195.796 207.493 195.865 207.485 195.948L207.18 198.73C207.15 198.806 207.035 198.882 206.906 198.882Z" fill="black"/>
<path d="M208.643 202.349L214.457 199.743L212.804 205.511C212.804 205.511 209.108 206.35 207.508 204.498L208.643 202.349Z" fill="#FFB573"/>
<path d="M193.213 169.591C193.015 171.618 192.763 173.645 192.542 175.687L191.78 181.783C191.536 183.802 191.216 185.821 190.942 187.879L190.508 190.927L190.37 191.887C190.379 192.036 190.421 192.182 190.492 192.314C190.824 192.897 191.261 193.413 191.78 193.838C192.458 194.398 193.176 194.907 193.929 195.362C195.573 196.362 197.281 197.253 199.042 198.029C200.84 198.844 202.692 199.553 204.574 200.261C206.456 200.97 208.384 201.618 210.251 202.235L209.58 205.146C205.454 204.48 201.389 203.476 197.427 202.143C195.376 201.473 193.383 200.637 191.468 199.644C190.442 199.11 189.463 198.491 188.542 197.792C187.437 196.987 186.504 195.969 185.798 194.798C185.383 194.031 185.124 193.189 185.036 192.321C185.036 192.085 184.998 191.849 185.036 191.613C185.075 191.376 185.036 191.079 185.075 191.003L185.143 190.241L185.402 187.193C185.593 185.166 185.737 183.132 185.958 181.097L186.576 175.001C186.82 172.974 187.025 170.947 187.292 168.905L193.213 169.591Z" fill="#FF8B7B"/>
<path d="M190.012 161.811C187.612 162.573 184.732 170.802 184.732 170.802L193.114 179.443C193.114 179.443 197.419 170.559 196.406 167.457C195.377 164.226 192.786 160.973 190.012 161.811Z" fill="#407BFF"/>
<path d="M219.273 200.939L217.627 205.694L212.804 205.511L214.457 199.743L219.273 200.939Z" fill="#FFB573"/>
<path opacity="0.2" d="M169.56 169.667C167.605 162.41 167.846 154.736 170.252 147.616C172.659 140.496 177.122 134.249 183.078 129.666C189.035 125.082 196.216 122.368 203.715 121.866C211.214 121.364 218.694 123.097 225.208 126.846C231.722 130.595 236.978 136.191 240.312 142.927C243.645 149.663 244.906 157.236 243.936 164.689C242.966 172.142 239.807 179.139 234.86 184.797C229.912 190.455 223.398 194.518 216.141 196.474C211.323 197.773 206.295 198.109 201.346 197.465C196.398 196.821 191.624 195.208 187.299 192.718C182.973 190.229 179.18 186.912 176.137 182.957C173.093 179.002 170.858 174.486 169.56 169.667Z" fill="#407BFF"/>
<path opacity="0.2" d="M233.797 133.594L202.501 197.602C205.186 197.876 207.892 197.853 210.571 197.533L238.712 140.002C237.309 137.696 235.661 135.547 233.797 133.594ZM242.941 149.885L242.735 149.123L220.264 195.087C228.93 191.646 236.029 185.14 240.211 176.805C244.392 168.47 245.364 158.89 242.941 149.885ZM196.36 123.086C189.727 124.874 183.702 128.426 178.927 133.365C174.152 138.304 170.804 144.445 169.241 151.135C167.678 157.825 167.957 164.813 170.048 171.357C172.14 177.901 175.966 183.755 181.12 188.298L213.36 122.438C207.718 121.36 201.904 121.582 196.36 123.086Z" fill="white"/>
<path d="M163.495 155.654L162.733 155.578C162.855 154.275 163.045 152.964 163.289 151.684L164.051 151.829C163.83 153.086 163.624 154.374 163.495 155.654ZM164.973 147.919L164.211 147.706C165.215 144.312 166.622 141.05 168.402 137.991L169.065 138.372C167.324 141.379 165.951 144.585 164.973 147.919Z" fill="#407BFF"/>
<path d="M245.867 149.101C243.756 141.267 239.37 134.234 233.262 128.893C227.155 123.552 219.601 120.141 211.556 119.093C203.51 118.044 195.335 119.405 188.063 123.002C180.79 126.6 174.748 132.273 170.7 139.304C166.651 146.336 164.779 154.409 165.319 162.505C165.859 170.6 168.787 178.354 173.733 184.785C178.679 191.217 185.421 196.037 193.107 198.637C200.792 201.237 209.076 201.5 216.911 199.393C222.115 197.993 226.992 195.581 231.264 192.296C235.536 189.01 239.119 184.916 241.808 180.245C244.497 175.575 246.239 170.421 246.936 165.077C247.632 159.733 247.269 154.304 245.867 149.101ZM169.56 169.675C167.605 162.418 167.846 154.744 170.252 147.624C172.659 140.504 177.122 134.257 183.078 129.673C189.035 125.09 196.216 122.376 203.715 121.874C211.214 121.372 218.694 123.105 225.208 126.854C231.722 130.602 236.978 136.199 240.312 142.935C243.645 149.671 244.906 157.244 243.936 164.697C242.966 172.149 239.807 179.147 234.86 184.805C229.912 190.462 223.398 194.526 216.141 196.482C211.322 197.78 206.294 198.117 201.345 197.472C196.396 196.827 191.622 195.213 187.296 192.723C182.971 190.233 179.178 186.915 176.135 182.959C173.092 179.003 170.858 174.486 169.56 169.667V169.675Z" fill="#407BFF"/>
<path d="M170.17 175.953C170.17 177.698 169.72 177.927 169.24 177.98L167.861 178.346L165.095 179.108L159.563 180.571L148.476 183.413C141.074 185.273 133.662 187.084 126.241 188.846L103.975 194.18L92.8573 196.878C89.154 197.8 85.4355 198.653 81.7702 199.72C81.3985 199.829 81.0089 199.864 80.6237 199.823C80.2385 199.781 79.8653 199.664 79.5253 199.478C79.1853 199.293 78.8852 199.042 78.6422 198.74C78.3991 198.438 78.2179 198.092 78.1088 197.72C77.9998 197.348 77.965 196.959 78.0065 196.573C78.048 196.188 78.1649 195.815 78.3507 195.475C78.5364 195.135 78.7873 194.835 79.089 194.592C79.3907 194.349 79.7373 194.168 80.1091 194.059H80.231C83.9419 193.144 87.5843 192.009 91.2419 190.95L102.215 187.696L124.137 181.097C131.448 178.887 138.765 176.726 146.091 174.612L157.102 171.45L162.618 169.926L165.377 169.164L166.756 168.783C167.198 168.593 167.686 168.57 168.585 170.071C169.642 171.85 170.19 173.884 170.17 175.953Z" fill="#407BFF"/>
<path d="M122.225 119.101C122.225 119.55 122.461 119.916 122.758 119.916C123.055 119.916 123.292 119.55 123.292 119.101C123.292 118.651 123.055 118.278 122.758 118.278C122.461 118.278 122.225 118.643 122.225 119.101Z" fill="#263238"/>
<path d="M122.423 119.916C122.958 121.296 123.681 122.596 124.572 123.779C124.264 124 123.911 124.15 123.538 124.22C123.166 124.29 122.782 124.277 122.415 124.183L122.423 119.916Z" fill="#630F0F"/>
<path d="M120.625 116.586C120.569 116.584 120.516 116.566 120.472 116.532C120.427 116.499 120.395 116.453 120.378 116.4C120.361 116.347 120.361 116.291 120.378 116.238C120.395 116.185 120.428 116.139 120.472 116.106C120.809 115.854 121.201 115.685 121.615 115.613C122.03 115.542 122.455 115.57 122.857 115.694C122.923 115.72 122.975 115.77 123.004 115.835C123.032 115.899 123.035 115.972 123.01 116.037C122.984 116.103 122.934 116.156 122.87 116.184C122.805 116.213 122.732 116.215 122.667 116.19C122.347 116.095 122.009 116.076 121.681 116.136C121.353 116.195 121.043 116.331 120.777 116.533C120.734 116.568 120.68 116.587 120.625 116.586Z" fill="#263238"/>
<path d="M107.686 122.019C108.09 126.431 108.143 134.455 105.026 137.084C105.026 137.084 105.735 141.587 113.309 142.288C121.638 143.05 117.699 138.257 117.699 138.257C113.256 136.68 113.706 133.099 114.811 129.807L107.686 122.019Z" fill="#7F3E3B"/>
<path d="M95.5015 302.75C94.8462 303.025 93.345 302.362 92.865 302.08C92.8431 302.069 92.8253 302.051 92.8143 302.029C92.8033 302.007 92.7997 301.982 92.804 301.958C92.8059 301.932 92.8157 301.907 92.832 301.886C92.8483 301.866 92.8705 301.851 92.8954 301.843C92.9716 301.843 94.7547 301.249 95.4786 301.668C95.5582 301.711 95.6274 301.771 95.6814 301.843C95.7354 301.915 95.7728 301.999 95.791 302.087C95.8291 302.193 95.8327 302.309 95.8012 302.417C95.7697 302.525 95.7048 302.62 95.6158 302.689C95.5803 302.714 95.5419 302.735 95.5015 302.75ZM93.2841 301.988C94.0461 302.369 95.1357 302.689 95.4557 302.461C95.4557 302.461 95.5853 302.369 95.532 302.125C95.5208 302.074 95.4987 302.026 95.4671 301.984C95.4356 301.941 95.3953 301.907 95.3491 301.882C94.6636 301.72 93.9457 301.762 93.2841 302.003V301.988Z" fill="#407BFF"/>
<path d="M93.3527 301.973C93.2272 302.026 93.0971 302.066 92.9641 302.095C92.9412 302.103 92.9164 302.104 92.8931 302.097C92.8698 302.09 92.8493 302.076 92.8345 302.057C92.8232 302.036 92.8173 302.012 92.8173 301.988C92.8173 301.964 92.8232 301.941 92.8345 301.92C92.8345 301.859 93.4518 300.35 94.229 300.03C94.3212 299.988 94.4212 299.967 94.5224 299.967C94.6235 299.967 94.7235 299.988 94.8157 300.03C94.9116 300.056 94.995 300.116 95.0508 300.199C95.1067 300.281 95.1314 300.381 95.1205 300.479C95.0443 300.99 94.0614 301.676 93.3527 301.973ZM93.1698 301.76C93.8556 301.501 94.7929 300.83 94.8386 300.457C94.8386 300.418 94.8386 300.342 94.6862 300.266C94.6267 300.238 94.5616 300.223 94.4957 300.223C94.4298 300.223 94.3647 300.238 94.3052 300.266C93.8099 300.479 93.3679 301.325 93.1698 301.752V301.76Z" fill="#407BFF"/>
<path d="M130.119 311.742C129.544 311.739 128.971 311.688 128.405 311.589C128.378 311.584 128.354 311.571 128.335 311.552C128.316 311.533 128.303 311.509 128.298 311.483C128.292 311.455 128.296 311.427 128.308 311.402C128.321 311.377 128.341 311.357 128.367 311.346C128.45 311.292 130.401 310.18 131.338 310.431C131.514 310.476 131.665 310.588 131.757 310.744C131.817 310.828 131.849 310.929 131.849 311.033C131.849 311.137 131.817 311.238 131.757 311.323C131.537 311.658 130.843 311.742 130.119 311.742ZM128.831 311.391C129.875 311.536 131.293 311.528 131.552 311.17C131.552 311.125 131.62 311.041 131.552 310.873C131.524 310.826 131.486 310.786 131.442 310.754C131.397 310.723 131.346 310.701 131.293 310.69C130.691 310.53 129.54 311.041 128.831 311.391Z" fill="#407BFF"/>
<path d="M128.427 311.589C128.403 311.596 128.376 311.596 128.351 311.589C128.332 311.576 128.317 311.557 128.308 311.536C128.298 311.514 128.295 311.491 128.298 311.468C128.298 311.407 128.458 309.898 129.167 309.311C129.272 309.224 129.393 309.158 129.524 309.119C129.655 309.08 129.793 309.067 129.929 309.082C130.287 309.121 130.393 309.303 130.416 309.456C130.523 310.088 129.182 311.3 128.511 311.605L128.427 311.589ZM129.799 309.303C129.629 309.308 129.465 309.37 129.334 309.479C128.911 309.962 128.645 310.563 128.572 311.201C129.266 310.789 130.172 309.837 130.096 309.456C130.096 309.456 130.096 309.334 129.837 309.311L129.799 309.303Z" fill="#407BFF"/>
<path d="M122.278 311.46H127.871L128.428 298.498H122.834L122.278 311.46Z" fill="#7F3E3B"/>
<path d="M86.6166 300.761L92.1182 301.798L98.3133 289.766L92.8116 288.737L86.6166 300.761Z" fill="#7F3E3B"/>
<path d="M92.7201 301.226L86.7003 299.413C86.5943 299.381 86.4808 299.387 86.3784 299.428C86.2759 299.47 86.1906 299.545 86.1365 299.641L83.6371 304.091C83.5774 304.2 83.5432 304.321 83.5369 304.445C83.5307 304.569 83.5525 304.693 83.6009 304.807C83.6493 304.922 83.7229 305.024 83.8163 305.106C83.9096 305.187 84.0203 305.247 84.14 305.28C86.2508 305.874 87.3099 306.042 89.9541 306.857C91.5848 307.345 95.8672 309.143 98.1227 309.806C100.378 310.469 101.331 308.343 100.47 307.863C96.614 305.722 94.4575 303.406 93.4898 301.821C93.3166 301.533 93.042 301.321 92.7201 301.226Z" fill="#263238"/>
<path d="M127.833 310.812H121.737C121.627 310.812 121.519 310.849 121.433 310.919C121.347 310.988 121.288 311.085 121.265 311.193L120.16 316.169C120.132 316.289 120.132 316.413 120.159 316.533C120.187 316.652 120.241 316.764 120.318 316.86C120.395 316.955 120.493 317.032 120.604 317.084C120.716 317.136 120.837 317.162 120.96 317.16C123.17 317.16 126.355 317 129.129 317C132.367 317 135.164 317.175 138.966 317.175C141.252 317.175 141.9 314.851 140.94 314.637C136.558 313.685 132.984 313.578 129.197 311.247C128.792 310.977 128.319 310.826 127.833 310.812Z" fill="#263238"/>
<path d="M94.488 138.509C89.6264 140.795 87.63 156.461 87.63 156.461L98.7933 160.843C100.525 156.602 101.927 152.232 102.984 147.775C104.584 140.703 99.4791 136.131 94.488 138.509Z" fill="#407BFF"/>
<path opacity="0.3" d="M94.488 138.509C89.6264 140.795 87.63 156.461 87.63 156.461L98.7933 160.843C100.525 156.602 101.927 152.232 102.984 147.775C104.584 140.703 99.4791 136.131 94.488 138.509Z" fill="black"/>
<path opacity="0.2" d="M101.75 143.104C102.13 142.919 102.529 142.773 102.939 142.669C103.384 144.34 103.4 146.096 102.984 147.775C101.927 152.232 100.526 156.602 98.7934 160.843L95.1129 159.403C95.7911 155.311 97.8714 144.963 101.75 143.104Z" fill="black"/>
<path d="M126.888 138.387C126.888 138.387 132.847 145.115 127.216 186.774H97.2769C97.0712 182.202 99.9591 159.753 95.5243 138.097C98.8362 137.46 102.186 137.038 105.552 136.832C109.791 136.588 114.039 136.588 118.278 136.832C121.184 137.125 124.063 137.645 126.888 138.387Z" fill="#407BFF"/>
<path opacity="0.3" d="M126.888 138.387C126.888 138.387 132.847 145.115 127.216 186.774H97.2769C97.0712 182.202 99.9591 159.753 95.5243 138.097C98.8362 137.46 102.186 137.038 105.552 136.832C109.791 136.588 114.039 136.588 118.278 136.832C121.184 137.125 124.063 137.645 126.888 138.387Z" fill="black"/>
<path opacity="0.2" d="M120.861 147.317C122.217 143.248 125.479 141.945 128.801 144.361C129.471 148.308 129.944 154.671 129.403 164.76L123.558 164.706C123.558 164.706 118.872 153.375 120.861 147.317Z" fill="black"/>
<path d="M130.348 144.536C130.637 146.281 130.957 148.186 131.315 150C131.674 151.813 132.077 153.657 132.504 155.456C133.293 158.993 134.366 162.461 135.712 165.826C136.055 166.588 136.406 167.396 136.794 168.112L137.29 169.012C137.414 169.214 137.56 169.403 137.724 169.576C138.859 170.652 140.142 171.56 141.534 172.273C144.824 173.984 148.216 175.49 151.691 176.784L150.861 180.899C146.762 180.615 142.719 179.79 138.836 178.445C137.794 178.082 136.775 177.652 135.788 177.157C134.707 176.606 133.686 175.945 132.74 175.184C132.184 174.726 131.674 174.216 131.216 173.66L130.851 173.18L130.614 172.822C130.454 172.585 130.294 172.349 130.15 172.113C129.555 171.16 129.029 170.208 128.542 169.248C126.758 165.517 125.344 161.619 124.32 157.612C123.81 155.654 123.337 153.703 122.956 151.729C122.575 149.756 122.194 147.828 121.966 145.725L130.348 144.536Z" fill="#7F3E3B"/>
<path d="M119.405 142.494C117.828 147.607 124.229 162.847 124.229 162.847L137.709 159.456C136.883 154.639 135.495 149.936 133.571 145.443C129.197 135.933 121.303 136.329 119.405 142.494Z" fill="#407BFF"/>
<path opacity="0.3" d="M119.405 142.494C117.828 147.607 124.229 162.847 124.229 162.847L137.709 159.456C136.883 154.639 135.495 149.936 133.571 145.443C129.197 135.933 121.303 136.329 119.405 142.494Z" fill="black"/>
<path d="M151.775 176.784L157.559 179.382L151.95 184.008C151.95 184.008 149.482 183.2 149.078 179.146L148.217 175.778L150.754 176.426C151.105 176.514 151.446 176.634 151.775 176.784Z" fill="#7F3E3B"/>
<path d="M160.63 182.187L154.998 185.547L151.95 183.977L157.551 179.352L160.63 182.187Z" fill="#7F3E3B"/>
<path d="M120.823 136.337C118.407 134.295 112.54 132.824 105.971 132.458C102.215 132.253 98.3513 132.87 96.7435 133.586C95.1357 134.302 97.0407 139.476 99.1438 139.591C98.0313 141.343 99.6467 144.727 102.062 145.39C101.681 148.316 109.057 148.59 113.492 146.228C117.074 144.346 123.718 138.783 120.823 136.337Z" fill="#263238"/>
<path opacity="0.2" d="M128.428 298.498L128.146 305.181H122.545L122.827 298.498H128.428Z" fill="black"/>
<path opacity="0.2" d="M92.804 288.737L98.3133 289.773L95.1205 295.968L89.6112 294.932L92.804 288.737Z" fill="black"/>
<path d="M107.168 118.11C107.503 123.657 107.412 126.919 110.216 129.769C114.422 134.051 121.272 131.521 122.598 125.959C123.795 120.975 123.04 112.746 117.615 110.528C116.418 110.033 115.115 109.853 113.829 110.005C112.544 110.158 111.318 110.637 110.271 111.397C109.223 112.158 108.387 113.174 107.844 114.349C107.301 115.524 107.068 116.819 107.168 118.11Z" fill="#7F3E3B"/>
<path d="M117.546 121.204C119.642 119.085 123.086 114.468 121.882 111.001C120.106 105.872 114.811 107.61 115.656 108.631C112.608 106.619 106.451 106.52 107.739 109.217C102.199 109.98 101.75 112.227 103.289 113.073C99.342 116.838 99.5325 120.731 102.527 120.442C100.241 122.728 104.447 127.254 109.149 129.411C110.749 125.22 119.314 124.458 117.546 121.204Z" fill="#263238"/>
<path d="M115.115 123.208C115.081 123.218 115.043 123.218 115.009 123.208C114.988 123.193 114.971 123.175 114.957 123.154C114.944 123.132 114.934 123.109 114.93 123.084C114.926 123.059 114.927 123.034 114.932 123.009C114.938 122.985 114.948 122.962 114.963 122.941C116.167 121.173 117.34 119.756 118.377 118.506C120.358 116.114 121.79 114.384 121.912 112.037C121.941 111.075 121.668 110.129 121.133 109.33C120.597 108.53 119.826 107.918 118.925 107.579C117.508 106.939 115.984 106.901 115.382 107.495C115.062 107.808 115.032 108.257 115.291 108.882C115.302 108.904 115.308 108.929 115.309 108.954C115.31 108.979 115.306 109.003 115.296 109.027C115.287 109.05 115.273 109.07 115.255 109.088C115.237 109.105 115.215 109.118 115.192 109.126C115.169 109.136 115.144 109.142 115.119 109.142C115.094 109.143 115.069 109.138 115.045 109.129C115.022 109.12 115.001 109.106 114.982 109.088C114.964 109.071 114.95 109.05 114.94 109.027C114.772 108.747 114.698 108.42 114.73 108.095C114.761 107.77 114.896 107.464 115.115 107.221C115.832 106.52 117.5 106.52 119.085 107.221C120.055 107.589 120.886 108.251 121.461 109.115C122.037 109.978 122.327 111 122.293 112.037C122.164 114.513 120.701 116.281 118.674 118.727C117.638 119.977 116.472 121.387 115.275 123.147C115.255 123.169 115.23 123.186 115.203 123.196C115.175 123.207 115.145 123.211 115.115 123.208Z" fill="#263238"/>
<path d="M115.39 120.579C115.491 121.955 116.043 123.259 116.959 124.29C118.179 125.631 119.459 124.793 119.672 123.162C119.863 121.684 119.466 119.207 117.973 118.468C116.479 117.729 115.291 118.918 115.39 120.579Z" fill="#7F3E3B"/>
<path d="M116.586 186.774C116.586 186.774 118.476 224.508 114.795 240.495C108.966 265.808 97.818 295.168 97.818 295.168L87.4396 293.21C87.4396 293.21 96.1797 263.812 98.1076 242.735C99.8068 223.807 97.2922 202.067 97.2922 186.774H116.586Z" fill="#263238"/>
<path opacity="0.2" d="M113.789 197.952C114.551 196.482 116.037 200.863 117.074 206.487C117.074 214.244 116.937 223.068 116.258 230.543C111.077 220.98 112.182 201 113.789 197.952Z" fill="black"/>
<path d="M100.363 291.983C100.409 291.983 98.74 295.58 98.74 295.58L86.7308 293.24L88.0415 289.621L100.363 291.983Z" fill="#2C6BDB"/>
<path d="M127.254 186.774C127.254 186.774 135.636 222.504 136.246 239.58C136.909 258.729 130.226 303.886 130.226 303.886H120.747C120.747 303.886 119.581 258.379 119.154 240.937C118.697 221.925 107.541 186.774 107.541 186.774H127.254Z" fill="#263238"/>
<path d="M132.055 300.106C132.1 300.106 131.521 304.046 131.521 304.046H119.985L119.672 300.533L132.055 300.106Z" fill="#2C6BDB"/>
</svg>
