<svg width="382" height="382" viewBox="0 0 382 382" fill="none" xmlns="http://www.w3.org/2000/svg">
<path d="M382 292.154H0V292.345H382V292.154Z" fill="#EBEBEB"/>
<path d="M343.724 304.446H318.42V304.637H343.724V304.446Z" fill="#EBEBEB"/>
<path d="M253.052 306.524H246.413V306.715H253.052V306.524Z" fill="#EBEBEB"/>
<path d="M317.656 297.356H302.995V297.547H317.656V297.356Z" fill="#EBEBEB"/>
<path d="M73.0765 298.64H40.0793V298.831H73.0765V298.64Z" fill="#EBEBEB"/>
<path d="M84.7199 298.64H79.8838V298.831H84.7199V298.64Z" fill="#EBEBEB"/>
<path d="M172.015 301.864H100.443V302.055H172.015V301.864Z" fill="#EBEBEB"/>
<path d="M181.068 258.079H33.5472C32.3915 258.077 31.2839 257.617 30.4674 256.799C29.6509 255.981 29.1924 254.872 29.1924 253.717V46.3443C29.2024 45.1952 29.6654 44.0966 30.4808 43.2869C31.2962 42.4772 32.3981 42.022 33.5472 42.02H181.068C182.225 42.02 183.335 42.4796 184.153 43.2977C184.971 44.1159 185.43 45.2255 185.43 46.3825V253.717C185.43 254.874 184.971 255.983 184.153 256.802C183.335 257.62 182.225 258.079 181.068 258.079ZM33.5472 42.1728C32.4422 42.1748 31.3831 42.6152 30.6025 43.3973C29.8218 44.1794 29.3834 45.2392 29.3834 46.3443V253.717C29.3834 254.822 29.8218 255.882 30.6025 256.664C31.3831 257.446 32.4422 257.886 33.5472 257.888H181.068C182.174 257.886 183.234 257.446 184.015 256.664C184.797 255.882 185.237 254.823 185.239 253.717V46.3443C185.237 45.2385 184.797 44.1787 184.015 43.3968C183.234 42.615 182.174 42.1748 181.068 42.1728H33.5472Z" fill="#EBEBEB"/>
<path d="M346.329 258.079H198.8C197.644 258.077 196.536 257.617 195.718 256.799C194.9 255.982 194.44 254.873 194.438 253.717V46.3443C194.45 45.1945 194.915 44.0959 195.731 43.2864C196.548 42.477 197.651 42.022 198.8 42.02H346.329C347.477 42.024 348.577 42.4801 349.39 43.2896C350.204 44.099 350.666 45.1965 350.676 46.3443V253.717C350.676 254.871 350.218 255.978 349.404 256.796C348.589 257.614 347.483 258.075 346.329 258.079ZM198.8 42.1728C197.695 42.1748 196.635 42.615 195.853 43.3968C195.071 44.1787 194.631 45.2385 194.629 46.3443V253.717C194.631 254.823 195.071 255.882 195.853 256.664C196.635 257.446 197.695 257.886 198.8 257.888H346.329C347.435 257.886 348.494 257.446 349.276 256.664C350.058 255.882 350.498 254.823 350.5 253.717V46.3443C350.498 45.2385 350.058 44.1787 349.276 43.3968C348.494 42.615 347.435 42.1748 346.329 42.1728H198.8Z" fill="#EBEBEB"/>
<path d="M103.132 152.533H43.1736L48.4834 86.4848H97.8149L103.132 152.533Z" fill="#EBEBEB"/>
<path d="M74.7803 152.533H71.5181V292.154H74.7803V152.533Z" fill="#F5F5F5"/>
<path d="M86.4467 292.154H59.8518C59.8518 291.402 60.1504 290.681 60.682 290.149C61.2136 289.618 61.9345 289.319 62.6863 289.319H83.6199C84.3703 289.321 85.0893 289.621 85.6192 290.152C86.1491 290.683 86.4467 291.403 86.4467 292.154Z" fill="#F0F0F0"/>
<path d="M71.5181 157.659L74.7803 154.55V152.533H71.5181V157.659Z" fill="#E0E0E0"/>
<path d="M316.021 59.5156H126.748V150.172H316.021V59.5156Z" fill="#E0E0E0"/>
<path d="M322.973 59.5156H129.781V150.172H322.973V59.5156Z" fill="#F5F5F5"/>
<path d="M139.781 75.3992V134.288H312.98V75.3992H139.781Z" fill="white"/>
<path d="M302.544 292.146H333.761C338.407 292.146 342.173 288.38 342.173 283.734V214.837C342.173 210.191 338.407 206.425 333.761 206.425H302.544C297.898 206.425 294.132 210.191 294.132 214.837V283.734C294.132 288.38 297.898 292.146 302.544 292.146Z" fill="#F5F5F5"/>
<path d="M288.158 292.146H319.375C324.021 292.146 327.787 288.38 327.787 283.734V214.837C327.787 210.191 324.021 206.425 319.375 206.425H288.158C283.512 206.425 279.746 210.191 279.746 214.837V283.734C279.746 288.38 283.512 292.146 288.158 292.146Z" fill="#E6E6E6"/>
<path d="M316.159 206.425H331.263C331.718 206.425 332.088 206.056 332.088 205.6V204.882C332.088 204.426 331.718 204.057 331.263 204.057H316.159C315.703 204.057 315.333 204.426 315.333 204.882V205.6C315.333 206.056 315.703 206.425 316.159 206.425Z" fill="#F5F5F5"/>
<path d="M311.139 206.425H326.243C326.699 206.425 327.068 206.056 327.068 205.6V204.882C327.068 204.426 326.699 204.057 326.243 204.057H311.139C310.683 204.057 310.314 204.426 310.314 204.882V205.6C310.314 206.056 310.683 206.425 311.139 206.425Z" fill="#E6E6E6"/>
<path d="M142.455 292.154H316.701C319.005 292.154 320.872 290.286 320.872 287.982V256.36C320.872 254.056 319.005 252.189 316.701 252.189L142.455 252.189C140.152 252.189 138.284 254.056 138.284 256.36V287.982C138.284 290.286 140.152 292.154 142.455 292.154Z" fill="#F0F0F0"/>
<path d="M125.839 178.341H274.276C278.944 178.341 283.054 182.558 283.444 187.753L287.394 239.896C287.791 245.091 284.338 249.308 279.647 249.308H131.194C126.518 249.308 122.416 245.091 122.026 239.896L118.099 187.768C117.694 182.596 121.17 178.341 125.839 178.341Z" fill="#EBEBEB"/>
<path d="M137.321 178.341H285.774C290.45 178.341 294.553 182.558 294.942 187.753L298.877 239.896C299.266 245.091 295.821 249.308 291.122 249.308H142.669C137.994 249.308 133.891 245.091 133.501 239.896L129.567 187.768C129.177 182.596 132.646 178.341 137.321 178.341Z" fill="#FAFAFA"/>
<path d="M220.292 239.896L216.357 187.776C215.983 182.833 212.086 178.807 207.67 178.807V177.836C212.583 177.836 216.915 182.26 217.327 187.7L221.254 239.827L220.292 239.896Z" fill="#F0F0F0"/>
<path d="M130.102 292.146H161.319C165.964 292.146 169.73 288.38 169.73 283.734V214.837C169.73 210.191 165.964 206.425 161.319 206.425H130.102C125.456 206.425 121.69 210.191 121.69 214.837V283.734C121.69 288.38 125.456 292.146 130.102 292.146Z" fill="#F5F5F5"/>
<path d="M165.207 255.825L320.62 255.825C323.371 255.825 325.602 253.595 325.602 250.844V238.674C325.602 235.923 323.371 233.692 320.62 233.692L165.207 233.692C162.456 233.692 160.226 235.923 160.226 238.674V250.844C160.226 253.595 162.456 255.825 165.207 255.825Z" fill="#F5F5F5"/>
<path d="M238.185 256.307V255.344C240.522 255.344 242.425 253.197 242.425 250.569V238.949C242.425 236.313 240.522 234.174 238.185 234.174V233.203C241.057 233.203 243.395 235.778 243.395 238.949V250.592C243.395 253.732 241.057 256.307 238.185 256.307Z" fill="#EBEBEB"/>
<path d="M115.723 292.146H146.94C151.586 292.146 155.352 288.38 155.352 283.734V214.837C155.352 210.191 151.586 206.425 146.94 206.425H115.723C111.078 206.425 107.311 210.191 107.311 214.837V283.734C107.311 288.38 111.078 292.146 115.723 292.146Z" fill="#E6E6E6"/>
<path d="M267.071 175.025C287.921 176.897 291.191 203.148 292.665 213.064C294.14 222.981 275.468 212.69 263.824 213.828C252.181 214.967 248.392 219.505 235.404 217.427C222.416 215.349 216.991 213.882 208.06 215.356C199.129 216.831 183.421 217.366 181.801 214.554C180.273 211.964 176.056 184.712 167.797 179.25C166.468 178.371 166.972 177.126 168.875 176.56C184.567 171.9 248.3 173.344 267.071 175.025Z" fill="#E6E6E6"/>
<path d="M191 326.656C272.811 326.656 339.132 322.784 339.132 318.007C339.132 313.231 272.811 309.359 191 309.359C109.189 309.359 42.8682 313.231 42.8682 318.007C42.8682 322.784 109.189 326.656 191 326.656Z" fill="#F5F5F5"/>
<path d="M219.788 241.103H225.777L250.477 318.007H248.476L219.788 241.103Z" fill="#5438FE"/>
<path d="M195.569 241.103H201.566L210.918 318.007H208.916L195.569 241.103Z" fill="#5438FE"/>
<path d="M160.669 241.103H154.672L129.979 318.007H131.981L160.669 241.103Z" fill="#5438FE"/>
<path d="M184.88 241.103H178.891L169.539 318.007H171.541L184.88 241.103Z" fill="#5438FE"/>
<path d="M214.631 258.148C185.705 258.484 144.595 257.522 126.419 221.927C114.103 197.807 100.932 146.581 137.016 131.935C173.099 117.289 228.512 133.822 227.985 162.182C227.458 190.542 257.185 197.486 266.949 216.793C279.013 240.775 252.746 257.705 214.631 258.148Z" fill="#5438FE"/>
<path opacity="0.7" d="M214.631 258.148C185.705 258.484 144.595 257.522 126.419 221.927C114.103 197.807 100.932 146.581 137.016 131.935C173.099 117.289 228.512 133.822 227.985 162.182C227.458 190.542 257.185 197.486 266.949 216.793C279.013 240.775 252.746 257.705 214.631 258.148Z" fill="white"/>
<path opacity="0.3" d="M244.984 231.141C244.679 235.534 223.791 237.658 198.335 235.885C172.878 234.113 156.788 232.768 152.128 222.744C142.731 202.521 141.516 143.288 166.98 145.076C192.444 146.864 245.29 226.748 244.984 231.141Z" fill="#5438FE"/>
<path d="M206.632 143.349L206.83 144.717L207.067 146.176L207.579 149.125C207.953 151.089 208.343 153.06 208.778 155.016C209.638 158.888 210.699 162.713 211.957 166.476C212.285 167.392 212.583 168.34 212.957 169.234C213.332 170.128 213.63 171.067 214.035 171.938C214.44 172.809 214.799 173.787 215.081 174.406C215.227 174.734 215.341 175.017 215.402 175.17C215.463 175.323 215.502 175.338 214.86 175.009C214.228 174.712 213.533 174.576 212.835 174.612C212.362 174.64 211.897 174.749 211.46 174.933C211.282 175.015 211.108 175.107 210.941 175.208C210.81 175.295 210.685 175.389 210.566 175.491C210.328 175.664 210.143 175.899 210.031 176.171C210.031 176.27 210.031 176.278 210.115 176.224C210.558 175.677 210.907 175.06 211.147 174.398C211.873 172.763 212.499 170.746 213.171 168.882L219.551 169.195C219.971 171.534 220.115 173.913 219.979 176.285C219.901 177.73 219.613 179.156 219.123 180.518C218.938 181.018 218.705 181.499 218.428 181.954C218.005 182.659 217.462 183.285 216.823 183.803C216.598 183.984 216.36 184.15 216.113 184.3C215.835 184.475 215.54 184.623 215.234 184.743C214.553 185.031 213.826 185.194 213.087 185.224C211.858 185.27 210.639 184.985 209.558 184.399C208.475 183.81 207.505 183.034 206.693 182.107C206.166 181.523 205.681 180.903 205.241 180.251C204.557 179.228 203.936 178.164 203.385 177.065C202.3 175.041 201.321 172.963 200.451 170.838C198.726 166.671 197.309 162.384 196.211 158.01C195.653 155.841 195.187 153.656 194.774 151.455C194.568 150.355 194.385 149.255 194.217 148.14C194.14 147.582 194.064 147.017 193.995 146.451C193.926 145.886 193.865 145.351 193.796 144.663L206.632 143.349Z" fill="#FF8B7B"/>
<path d="M190.091 141.233C186.202 148.476 195.958 167.667 195.958 167.667L213.53 158.11C213.53 158.11 212.209 153.029 207.869 143.311C203.109 132.73 194.82 132.455 190.091 141.233Z" fill="#263238"/>
<path d="M212.881 170.96L213.225 162.358L223.019 165.651C223.019 165.651 221.759 173.428 217.526 173.428L212.881 170.96Z" fill="#FF8B7B"/>
<path d="M219.757 156.238L222.996 157.972C223.619 158.308 224.103 158.854 224.362 159.513C224.62 160.172 224.637 160.901 224.41 161.571L223.019 165.651L213.225 162.358L215.685 157.522C215.866 157.168 216.115 156.853 216.418 156.597C216.722 156.34 217.073 156.146 217.452 156.027C217.831 155.907 218.23 155.864 218.626 155.901C219.022 155.937 219.406 156.052 219.757 156.238Z" fill="#FF8B7B"/>
<path d="M199.312 134.953C189.529 132.842 179.476 132.272 169.516 133.265C166.381 133.582 163.446 134.95 161.185 137.145C158.925 139.34 157.472 142.234 157.063 145.359C153.083 175.453 155.604 191.458 155.413 199.694L200.772 203.713C200.405 195.095 201.092 172.603 205.356 143.708C205.641 141.755 205.177 139.767 204.056 138.142C202.935 136.518 201.24 135.378 199.312 134.953Z" fill="#263238"/>
<path d="M236.527 237.191L245.038 237.398L248.652 217.786L240.133 217.572L236.527 237.191Z" fill="#FF8B7B"/>
<path d="M246.245 235.908L237.398 233.112C237.243 233.057 237.074 233.063 236.924 233.129C236.774 233.194 236.654 233.313 236.588 233.463L233.417 240.408C233.342 240.585 233.305 240.776 233.307 240.969C233.31 241.161 233.352 241.351 233.432 241.526C233.512 241.701 233.627 241.858 233.77 241.987C233.914 242.115 234.082 242.212 234.265 242.272C237.474 243.219 238.559 243.296 242.57 244.564C247.261 246.046 249.148 247.177 254.649 248.919C257.972 249.966 259.623 246.795 258.301 246.023C254.129 243.594 249.446 239.758 248.056 237.176C247.635 236.538 246.988 236.085 246.245 235.908Z" fill="#263238"/>
<path opacity="0.2" d="M248.644 217.793L246.787 227.901L238.269 227.687L240.125 217.58L248.644 217.793Z" fill="black"/>
<path d="M252.502 166.789C242.089 161.586 215.662 189.571 182.153 202.063C181.427 214.844 195.744 221.422 211.07 219.558C226.251 217.709 231.859 209.664 236.527 198.586C233.899 209.962 236.397 221.782 236.397 221.782L249.607 225.51C249.607 225.51 262.052 171.541 252.502 166.789Z" fill="#5438FE"/>
<path opacity="0.2" d="M252.502 166.789C242.089 161.586 215.662 189.571 182.153 202.063C181.427 214.844 195.744 221.422 211.07 219.558C226.251 217.709 231.859 209.664 236.527 198.586C233.899 209.962 236.397 221.782 236.397 221.782L249.607 225.51C249.607 225.51 262.052 171.541 252.502 166.789Z" fill="black"/>
<path d="M251.134 227.152L234.074 225.579L233.708 219.963L252.754 221.422L251.134 227.152Z" fill="#263238"/>
<path d="M245.244 235.885C245.212 235.866 245.186 235.839 245.167 235.807C245.148 235.775 245.138 235.739 245.137 235.702C245.138 235.66 245.151 235.619 245.176 235.585C245.2 235.55 245.235 235.525 245.274 235.511C245.679 235.365 249.316 234.128 250.256 234.846C250.345 234.912 250.415 235.001 250.459 235.103C250.504 235.204 250.52 235.316 250.508 235.427C250.504 235.61 250.455 235.789 250.366 235.948C250.276 236.108 250.15 236.244 249.996 236.343C248.957 237.031 246.589 236.343 245.274 235.893L245.244 235.885ZM249.943 235.121C249.339 234.808 247.406 235.251 245.977 235.694C247.796 236.267 249.194 236.382 249.797 236C249.898 235.932 249.981 235.841 250.039 235.735C250.098 235.628 250.13 235.51 250.134 235.388C250.141 235.345 250.135 235.3 250.118 235.259C250.1 235.218 250.071 235.184 250.034 235.159L249.943 235.121Z" fill="#5438FE"/>
<path d="M245.244 235.885L245.198 235.847C245.173 235.823 245.154 235.793 245.145 235.759C245.135 235.725 245.135 235.69 245.145 235.656C245.145 235.564 245.71 233.326 246.91 232.6C247.079 232.492 247.269 232.42 247.467 232.388C247.666 232.357 247.869 232.366 248.063 232.416C248.606 232.546 248.72 232.852 248.728 233.081C248.728 234.051 246.474 235.595 245.397 235.9C245.346 235.915 245.291 235.91 245.244 235.885ZM248.163 232.867C248.099 232.837 248.032 232.814 247.964 232.798C247.821 232.764 247.672 232.759 247.526 232.782C247.381 232.806 247.241 232.858 247.116 232.936C246.352 233.417 245.84 234.731 245.641 235.381C246.764 234.899 248.338 233.662 248.323 233.089C248.3 233.02 248.3 232.951 248.124 232.867H248.163Z" fill="#5438FE"/>
<path d="M192.673 135.289C187.669 133.051 188.563 130.056 190.205 126.778L179.677 117.19C180.052 121.4 179.975 128.444 177.072 132.126C176.611 132.689 176.382 133.407 176.434 134.133C176.485 134.859 176.812 135.538 177.347 136.03C180.651 139.103 184.795 141.124 189.25 141.837C194.392 142.738 195.538 140.576 195.202 138.399C195.073 137.711 194.774 137.066 194.332 136.523C193.891 135.98 193.32 135.556 192.673 135.289Z" fill="#FF8B7B"/>
<path opacity="0.2" d="M183.971 121.102C182.848 120.712 182.596 122.24 182.596 124.394C182.596 126.549 186.256 130.338 189.006 130.01C189.25 128.879 189.66 127.79 190.221 126.778L183.971 121.102Z" fill="black"/>
<path d="M202.368 114.103C205.264 111.307 208.969 103.583 208.198 99.7707C205.215 98.3712 201.85 98.0134 198.64 98.7546C195.969 99.5664 193.471 100.861 191.267 102.575L195.958 106.578L195.867 109.283L198.479 112.178L197.715 114.791C197.649 115.022 197.651 115.267 197.722 115.496C197.793 115.725 197.93 115.929 198.115 116.081C198.3 116.234 198.526 116.329 198.764 116.355C199.003 116.381 199.244 116.337 199.457 116.227L202.368 114.103Z" fill="#263238"/>
<path d="M181.748 104.126C179.571 112.277 177.875 116.945 180.556 122.362C184.59 130.506 195.722 130.063 200.306 122.706C204.431 116.082 207.296 103.866 200.504 98.1358C199 96.8678 197.199 96.002 195.27 95.6195C193.34 95.237 191.345 95.3502 189.471 95.9486C187.597 96.5471 185.906 97.6111 184.555 99.0412C183.204 100.471 182.239 102.221 181.748 104.126Z" fill="#FF8B7B"/>
<path d="M178.012 109.03C177.592 103.996 177.248 100.206 177.248 95.7597C179.448 95.202 182.841 93.6893 186.416 95.3701C188.893 96.6622 191.112 98.3971 192.964 100.489L187.616 103.545L187.218 106.227L184.162 108.603L184.437 111.307C184.461 111.546 184.415 111.786 184.304 111.999C184.193 112.212 184.022 112.387 183.813 112.504C183.603 112.621 183.364 112.674 183.125 112.657C182.886 112.64 182.657 112.553 182.466 112.407L178.012 109.03Z" fill="#263238"/>
<path d="M208.205 102.2C212.079 100.176 217.373 90.3888 208.297 90.8014C202.437 91.0688 195.255 91.8481 189.151 88.4177C189.151 88.4177 190.924 91.4737 195.477 91.871C205.371 92.7725 205.684 91.1681 208.641 91.871C213.844 93.0017 208.205 102.2 208.205 102.2Z" fill="#263238"/>
<path d="M208.985 93.3684C202.452 89.7242 195.278 92.5586 189.724 90.45C184.17 88.3413 178.203 91.6418 177.195 95.798L192.941 100.527C198.907 104.813 200.275 105.707 203.545 104.737C208.297 103.3 215.509 97.028 208.985 93.3684Z" fill="#263238"/>
<path d="M178.532 94.8888C175.735 95.4083 174.246 97.8608 176.66 101.001C175.781 97.6163 178.471 96.4626 178.471 96.4626L178.532 94.8888Z" fill="#263238"/>
<path d="M175.33 110.719C175.511 111.753 175.894 112.74 176.458 113.625C177.022 114.51 177.755 115.275 178.615 115.876C180.908 117.465 183.016 115.616 183.154 112.957C183.268 110.566 182.206 106.845 179.502 106.326C176.797 105.806 174.91 108.159 175.33 110.719Z" fill="#FF8B7B"/>
<path d="M192.65 109.764C192.436 110.413 192.605 111.055 193.032 111.193C193.46 111.33 193.98 110.917 194.201 110.268C194.423 109.619 194.247 108.977 193.819 108.839C193.391 108.702 192.872 109.114 192.65 109.764Z" fill="#263238"/>
<path d="M200.558 112.705C200.344 113.355 200.512 113.996 200.94 114.134C201.367 114.271 201.887 113.859 202.109 113.21C202.33 112.56 202.154 111.918 201.727 111.781C201.299 111.643 200.779 112.056 200.558 112.705Z" fill="#263238"/>
<path d="M198.105 112.308C198.105 112.308 198.334 116.541 199.366 118.886C197.838 119.581 196.05 118.458 196.05 118.458L198.105 112.308Z" fill="#FF5652"/>
<path d="M192.711 119.26C192.013 118.941 191.388 118.481 190.876 117.909C190.363 117.337 189.974 116.666 189.732 115.937C189.725 115.911 189.723 115.885 189.726 115.858C189.729 115.832 189.738 115.807 189.751 115.784C189.764 115.761 189.782 115.74 189.803 115.724C189.824 115.708 189.848 115.696 189.873 115.689C189.899 115.682 189.925 115.68 189.952 115.683C189.978 115.686 190.004 115.695 190.027 115.708C190.05 115.721 190.07 115.739 190.086 115.76C190.102 115.781 190.114 115.804 190.121 115.83C190.405 116.633 190.873 117.358 191.489 117.946C192.105 118.534 192.851 118.969 193.666 119.215C193.692 119.221 193.716 119.234 193.737 119.25C193.758 119.267 193.775 119.288 193.787 119.312C193.8 119.336 193.807 119.362 193.808 119.388C193.81 119.415 193.806 119.442 193.796 119.467C193.788 119.492 193.776 119.515 193.759 119.536C193.742 119.556 193.721 119.572 193.697 119.585C193.674 119.597 193.648 119.604 193.622 119.606C193.596 119.608 193.569 119.605 193.544 119.597C193.258 119.506 192.98 119.393 192.711 119.26Z" fill="#263238"/>
<path d="M191.627 105.845C191.563 105.812 191.508 105.765 191.466 105.707C191.407 105.619 191.385 105.511 191.405 105.406C191.425 105.302 191.486 105.21 191.573 105.149C192.093 104.772 192.696 104.524 193.331 104.426C193.966 104.327 194.615 104.382 195.225 104.584C195.275 104.604 195.321 104.634 195.36 104.671C195.398 104.709 195.429 104.754 195.45 104.804C195.472 104.854 195.483 104.907 195.484 104.961C195.484 105.015 195.474 105.069 195.454 105.119C195.434 105.169 195.404 105.215 195.367 105.253C195.329 105.292 195.284 105.323 195.234 105.344C195.185 105.365 195.131 105.377 195.077 105.377C195.023 105.378 194.97 105.368 194.919 105.348C194.435 105.195 193.921 105.158 193.419 105.24C192.917 105.322 192.442 105.522 192.031 105.822C191.973 105.862 191.904 105.886 191.832 105.89C191.761 105.894 191.69 105.878 191.627 105.845Z" fill="#263238"/>
<path d="M204.752 110.673C204.688 110.652 204.63 110.615 204.585 110.566C204.539 110.516 204.507 110.456 204.492 110.39C204.385 109.897 204.16 109.436 203.836 109.048C203.513 108.66 203.101 108.355 202.636 108.16C202.538 108.122 202.458 108.047 202.414 107.952C202.37 107.856 202.364 107.747 202.399 107.648C202.434 107.549 202.506 107.467 202.6 107.42C202.694 107.373 202.803 107.364 202.903 107.396C203.494 107.637 204.019 108.017 204.433 108.503C204.846 108.99 205.137 109.569 205.279 110.192C205.302 110.296 205.284 110.405 205.229 110.496C205.173 110.588 205.085 110.654 204.981 110.681C204.906 110.701 204.826 110.699 204.752 110.673Z" fill="#263238"/>
<path d="M265.406 305.867L272.389 300.993L263.672 283.054L256.689 287.929L265.406 305.867Z" fill="#FF8B7B"/>
<path d="M272.206 298.678L263.725 302.437C263.573 302.499 263.45 302.616 263.38 302.764C263.311 302.913 263.3 303.083 263.351 303.239L265.567 310.543C265.628 310.726 265.726 310.894 265.856 311.036C265.986 311.179 266.143 311.293 266.319 311.371C266.495 311.449 266.686 311.49 266.878 311.491C267.071 311.492 267.262 311.453 267.438 311.376C270.494 309.97 271.327 309.305 275.178 307.609C279.678 305.615 281.84 305.218 287.119 302.88C290.305 301.467 289.411 297.998 287.944 298.296C283.207 299.228 277.156 299.45 274.406 298.434C273.668 298.237 272.883 298.325 272.206 298.678Z" fill="#263238"/>
<path opacity="0.2" d="M263.672 283.062L268.164 292.306L261.181 297.181L256.689 287.936L263.672 283.062Z" fill="black"/>
<path d="M226.029 235.931C168.584 234.135 154.213 234.624 155.428 199.694L184.621 202.284C184.621 202.284 235.503 205.424 241.814 222.362C251.302 247.842 268.622 287.104 268.622 287.104L257.162 294.682C257.162 294.682 233.631 265.918 226.029 235.931Z" fill="#5438FE"/>
<path d="M271.22 289.128L256.551 297.975L252.922 293.666L269.134 283.551L271.22 289.128Z" fill="#263238"/>
<path d="M271.419 299.35C271.381 299.359 271.342 299.356 271.306 299.344C271.27 299.332 271.237 299.311 271.212 299.282C271.19 299.248 271.177 299.208 271.177 299.167C271.177 299.126 271.19 299.086 271.212 299.053C271.426 298.671 273.329 295.347 274.513 295.232C274.623 295.225 274.733 295.246 274.834 295.293C274.934 295.339 275.02 295.411 275.086 295.5C275.203 295.64 275.285 295.806 275.323 295.984C275.362 296.163 275.356 296.348 275.307 296.524C274.979 297.731 272.763 298.816 271.487 299.312L271.419 299.35ZM274.436 295.676C273.779 295.836 272.618 297.448 271.846 298.732C273.588 297.968 274.711 297.12 274.902 296.44C274.933 296.322 274.935 296.199 274.908 296.081C274.881 295.963 274.827 295.853 274.75 295.76C274.725 295.722 274.691 295.692 274.65 295.673C274.61 295.654 274.565 295.647 274.52 295.653L274.436 295.676Z" fill="#5438FE"/>
<path d="M271.419 299.35H271.358C271.322 299.351 271.287 299.341 271.258 299.322C271.228 299.303 271.204 299.276 271.189 299.244C271.144 299.159 270.074 297.12 270.487 295.783C270.545 295.588 270.643 295.407 270.775 295.252C270.906 295.097 271.068 294.971 271.251 294.881C271.747 294.621 272.015 294.766 272.19 294.935C272.847 295.653 272.19 298.311 271.556 299.259C271.541 299.283 271.521 299.304 271.497 299.32C271.474 299.335 271.447 299.346 271.419 299.35ZM271.61 295.156C271.542 295.175 271.478 295.203 271.419 295.24C271.286 295.307 271.168 295.4 271.074 295.515C270.979 295.629 270.909 295.762 270.869 295.905C270.601 296.783 271.098 298.09 271.38 298.709C271.908 297.609 272.267 295.653 271.869 295.21C271.846 295.179 271.785 295.118 271.61 295.156Z" fill="#5438FE"/>
<path d="M222.324 159.936L213.156 159.791C212.83 159.782 212.506 159.841 212.204 159.963C211.901 160.085 211.627 160.268 211.399 160.501L199.992 175.781C199.872 175.933 199.814 176.124 199.83 176.317C199.845 176.51 199.933 176.69 200.076 176.82C200.367 177.118 200.733 177.042 201.291 177.049L210.314 177.187C210.641 177.196 210.966 177.139 211.269 177.018C211.573 176.897 211.848 176.716 212.079 176.484L223.363 161.38C223.753 160.868 223.806 159.936 222.324 159.936Z" fill="#5438FE"/>
<path d="M174.467 143.449L174.612 145.267L174.788 147.185C174.918 148.468 175.055 149.752 175.208 151.005C175.521 153.572 175.865 156.139 176.316 158.645C177.103 163.605 178.33 168.486 179.983 173.229C180.38 174.368 180.862 175.483 181.328 176.522C181.542 177.065 181.641 177.179 181.611 177.286C181.58 177.393 181.786 177.576 182.436 177.615C183.301 177.64 184.165 177.526 184.995 177.279C186.071 176.97 187.125 176.589 188.15 176.14C189.243 175.659 190.343 175.101 191.451 174.505C192.559 173.909 193.666 173.268 194.759 172.58C195.851 171.892 196.982 171.182 197.991 170.517L202.437 175.101C201.475 176.308 200.558 177.355 199.534 178.417C198.51 179.479 197.479 180.472 196.356 181.435C195.224 182.433 194.032 183.362 192.788 184.216C191.47 185.142 190.074 185.953 188.616 186.638C186.925 187.441 185.122 187.984 183.268 188.25C182.14 188.394 180.997 188.394 179.869 188.25C178.586 188.072 177.341 187.682 176.186 187.096C175.026 186.512 173.972 185.738 173.069 184.804C172.267 183.956 171.574 183.012 171.006 181.992C170.242 180.61 169.539 179.265 168.92 177.874C166.568 172.494 164.808 166.873 163.672 161.112C163.106 158.293 162.625 155.474 162.281 152.647C162.098 151.226 161.945 149.813 161.831 148.384C161.769 147.666 161.708 146.955 161.67 146.23C161.632 145.504 161.594 144.824 161.571 143.983L174.467 143.449Z" fill="#FF8B7B"/>
<path d="M160.386 139.399C155.741 146.184 163.389 166.308 163.389 166.308L181.863 158.668C181.863 158.668 181.099 153.472 177.813 143.388C174.238 132.332 166.017 131.179 160.386 139.399Z" fill="#263238"/>
<path d="M196.417 171.724L202.735 165.872L207.319 175.109C207.319 175.109 200.955 179.693 197.96 176.729L196.417 171.724Z" fill="#FF8B7B"/>
<path d="M211.681 166.147L212.751 169.654C212.958 170.33 212.919 171.058 212.639 171.707C212.359 172.357 211.857 172.885 211.223 173.199L207.357 175.109L202.773 165.872L207.93 164.176C208.306 164.059 208.701 164.017 209.093 164.053C209.485 164.088 209.866 164.201 210.214 164.384C210.563 164.567 210.872 164.817 211.123 165.12C211.375 165.422 211.565 165.771 211.681 166.147Z" fill="#FF8B7B"/>
</svg>
