<svg width="381" height="381" viewBox="0 0 381 381" fill="none" xmlns="http://www.w3.org/2000/svg">
<path d="M381 291.389H0V291.579H381V291.389Z" fill="#EBEBEB"/>
<path d="M342.824 303.649H317.586V303.84H342.824V303.649Z" fill="#EBEBEB"/>
<path d="M252.39 305.722H245.768V305.912H252.39V305.722Z" fill="#EBEBEB"/>
<path d="M316.824 296.578H302.202V296.768H316.824V296.578Z" fill="#EBEBEB"/>
<path d="M72.8853 297.858H39.9745V298.049H72.8853V297.858Z" fill="#EBEBEB"/>
<path d="M84.4982 297.858H79.6747V298.049H84.4982V297.858Z" fill="#EBEBEB"/>
<path d="M171.564 301.074H100.18V301.264H171.564V301.074Z" fill="#EBEBEB"/>
<path d="M180.594 257.404H33.4594C32.3067 257.401 31.202 256.942 30.3877 256.126C29.5733 255.311 29.116 254.205 29.116 253.052V46.2228C29.126 45.0768 29.5878 43.981 30.401 43.1735C31.2143 42.3659 32.3133 41.9119 33.4594 41.9099H180.594C181.748 41.9099 182.855 42.3683 183.671 43.1843C184.487 44.0003 184.945 45.107 184.945 46.2609V253.052C184.945 254.206 184.487 255.313 183.671 256.129C182.855 256.945 181.748 257.404 180.594 257.404ZM33.4594 42.0623C32.3572 42.0643 31.301 42.5036 30.5224 43.2836C29.7438 44.0636 29.3065 45.1207 29.3065 46.2228V253.052C29.3065 254.155 29.7438 255.212 30.5224 255.992C31.301 256.772 32.3572 257.211 33.4594 257.213H180.594C181.697 257.211 182.754 256.772 183.534 255.992C184.313 255.212 184.752 254.155 184.754 253.052V46.2228C184.752 45.12 184.313 44.0629 183.534 43.2831C182.754 42.5033 181.697 42.0643 180.594 42.0623H33.4594Z" fill="#EBEBEB"/>
<path d="M345.422 257.404H198.28C197.127 257.401 196.021 256.942 195.206 256.127C194.39 255.311 193.931 254.206 193.929 253.052V46.2228C193.941 45.0761 194.404 43.9803 195.219 43.173C196.033 42.3657 197.133 41.9119 198.28 41.9099H345.422C346.567 41.9139 347.664 42.3688 348.476 43.1761C349.287 43.9835 349.748 45.0781 349.758 46.2228V253.052C349.758 254.204 349.302 255.308 348.489 256.124C347.676 256.939 346.573 257.399 345.422 257.404ZM198.28 42.0623C197.177 42.0643 196.12 42.5033 195.34 43.2831C194.56 44.0629 194.121 45.12 194.119 46.2228V253.052C194.121 254.155 194.56 255.212 195.34 255.992C196.12 256.772 197.177 257.211 198.28 257.213H345.422C346.525 257.211 347.582 256.772 348.362 255.992C349.142 255.212 349.581 254.155 349.583 253.052V46.2228C349.581 45.12 349.142 44.0629 348.362 43.2831C347.582 42.5033 346.525 42.0643 345.422 42.0623H198.28Z" fill="#EBEBEB"/>
<path d="M211.775 176.075L337.368 176.075V63.604L211.775 63.604V176.075Z" fill="#E6E6E6"/>
<path d="M206.479 176.075L334.891 176.075V63.604L206.479 63.604V176.075Z" fill="#F0F0F0"/>
<path d="M211.775 179.885L337.368 179.885V176.075L211.775 176.075V179.885Z" fill="#E6E6E6"/>
<path d="M197.67 179.885L326.083 179.885V176.075L197.67 176.075V179.885Z" fill="#F0F0F0"/>
<path d="M327.492 168.669V71.0107H213.886V168.669H327.492Z" fill="#FAFAFA"/>
<path d="M304.663 168.676L261.206 71.0107H216.736L260.192 168.676H304.663Z" fill="white"/>
<path d="M324.063 152.354C324.203 152.354 324.337 152.299 324.435 152.2C324.534 152.102 324.589 151.968 324.589 151.828V75.8341C324.589 75.6947 324.534 75.5609 324.435 75.4623C324.337 75.3637 324.203 75.3083 324.063 75.3083C323.924 75.3083 323.79 75.3637 323.692 75.4623C323.593 75.5609 323.538 75.6947 323.538 75.8341V151.828C323.538 151.968 323.593 152.102 323.692 152.2C323.79 152.299 323.924 152.354 324.063 152.354Z" fill="#F0F0F0"/>
<path d="M243.474 168.676L200.017 71.0107H184.633L228.089 168.676H243.474Z" fill="white"/>
<path d="M214.823 168.669V71.0107H213.886V168.669H214.823Z" fill="#E6E6E6"/>
<g opacity="0.5">
<path opacity="0.5" d="M204.727 81.1835H330.327L331.005 73.8911H205.412L204.727 81.1835Z" fill="#E6E6E6"/>
<path opacity="0.5" d="M204.727 93.223H330.327L331.005 85.9307H205.412L204.727 93.223Z" fill="#E6E6E6"/>
<path opacity="0.5" d="M204.727 105.263H330.327L331.005 97.9702H205.412L204.727 105.263Z" fill="#E6E6E6"/>
<path opacity="0.5" d="M204.727 117.302H330.327L331.005 110.01H205.412L204.727 117.302Z" fill="#E6E6E6"/>
<path opacity="0.5" d="M204.727 129.349H330.327L331.005 122.057H205.412L204.727 129.349Z" fill="#E6E6E6"/>
<path opacity="0.5" d="M204.727 141.389H330.327L331.005 134.097H205.412L204.727 141.389Z" fill="#E6E6E6"/>
</g>
<path d="M59.3293 291.389H159.41L159.41 63.6116H59.3293L59.3293 291.389Z" fill="#F0F0F0"/>
<path d="M59.3293 291.389H157.437L157.437 63.6116H59.3293L59.3293 291.389Z" fill="#F5F5F5"/>
<path d="M152.271 291.389V68.7781H64.4957L64.4957 291.389H152.271Z" fill="#EBEBEB"/>
<path d="M88.3235 170.688C83.3476 169.316 78.3718 173.736 73.3959 172.364C72.8477 172.134 72.3765 171.752 72.0377 171.264C71.6989 170.775 71.5065 170.2 71.4833 169.606C71.4833 168.554 72.3443 168.25 73.3959 168.531C78.3718 169.903 83.3476 165.483 88.3235 166.855C88.8731 167.082 89.3461 167.462 89.6865 167.949C90.0268 168.437 90.2202 169.012 90.2437 169.606C90.2437 170.688 89.375 170.985 88.3235 170.688Z" fill="white"/>
<path d="M65.8445 291.389L65.8445 68.7781H64.5034L64.5034 291.389H65.8445Z" fill="#E0E0E0"/>
<path d="M316.603 286.367H334.556V208.521H316.603V286.367Z" fill="#F0F0F0"/>
<path d="M242.59 291.297H331.112V286.367H242.59V291.297Z" fill="#F0F0F0"/>
<path d="M316.611 208.514H239.146V286.36H316.611V208.514Z" fill="#F5F5F5"/>
<path d="M309.547 218.1H246.202V243.627H309.547V218.1Z" fill="#F0F0F0"/>
<path d="M309.547 251.247H246.202V276.774H309.547V251.247Z" fill="#F0F0F0"/>
<path d="M270.769 220.248H284.988C285.956 220.248 286.741 219.465 286.741 218.5C286.741 217.534 285.956 216.751 284.988 216.751H270.769C269.801 216.751 269.017 217.534 269.017 218.5C269.017 219.465 269.801 220.248 270.769 220.248Z" fill="#F5F5F5"/>
<path d="M270.761 253.403H284.988C285.452 253.401 285.897 253.216 286.225 252.888C286.553 252.559 286.739 252.115 286.741 251.651C286.729 251.193 286.539 250.758 286.212 250.438C285.885 250.118 285.446 249.938 284.988 249.936H270.761C270.298 249.938 269.854 250.124 269.527 250.452C269.2 250.781 269.016 251.225 269.016 251.689C269.026 252.145 269.214 252.58 269.54 252.901C269.866 253.221 270.304 253.401 270.761 253.403Z" fill="#F5F5F5"/>
<path d="M299.916 206.982C299.563 206.982 299.225 206.843 298.975 206.594C298.725 206.346 298.584 206.009 298.582 205.656V165.209C298.584 164.856 298.725 164.518 298.975 164.269C299.224 164.019 299.562 163.878 299.916 163.876C300.267 163.88 300.603 164.022 300.851 164.271C301.099 164.521 301.239 164.857 301.241 165.209V205.656C301.239 206.007 301.099 206.343 300.851 206.592C300.603 206.84 300.267 206.98 299.916 206.982Z" fill="#EBEBEB"/>
<path d="M312.367 205.412H287.457V208.552H312.367V205.412Z" fill="#F0F0F0"/>
<path d="M306.812 188.1C306.636 188.1 306.467 188.03 306.343 187.906C306.219 187.781 306.149 187.613 306.149 187.437V167.213C306.149 167.037 306.218 166.867 306.342 166.742C306.466 166.616 306.635 166.545 306.812 166.543C306.988 166.545 307.157 166.616 307.281 166.742C307.405 166.867 307.475 167.037 307.475 167.213V187.452C307.471 187.625 307.399 187.79 307.275 187.911C307.151 188.032 306.985 188.1 306.812 188.1Z" fill="#E0E0E0"/>
<path d="M280.546 174.208C280.546 174.208 281.041 159.334 299.916 159.334C318.79 159.334 319.278 174.208 319.278 174.208H280.546Z" fill="#E6E6E6"/>
<path d="M190.5 325.801C272.097 325.801 338.244 321.939 338.244 317.175C338.244 312.411 272.097 308.549 190.5 308.549C108.903 308.549 42.7559 312.411 42.7559 317.175C42.7559 321.939 108.903 325.801 190.5 325.801Z" fill="#F5F5F5"/>
<path d="M178.049 109.774C178.087 108.158 179.573 106.048 185.562 105.667C191.551 105.286 193.777 105.56 196.23 110.239C198.897 115.275 201.945 120.907 199.956 126.065C197.968 131.224 191.696 134.264 187.208 136.992C182.72 139.72 176.037 148.887 176.037 148.887C176.037 148.887 163.578 114.3 178.049 109.774Z" fill="#263238"/>
<path d="M180.784 178.788C180.784 178.788 189.86 225.377 193.083 244.32C196.428 264.018 199.248 306.4 199.248 306.4H204.292C204.292 306.4 210.716 269.824 204.292 242.659C204.726 220.972 200.482 175.87 200.482 175.87L180.784 178.788Z" fill="#FF8B7B"/>
<path d="M187.399 177.805C187.399 177.805 207.302 226.527 214.236 244.442C223.959 257.472 248.397 285.11 249.738 285.666L251.506 281.681C251.506 281.681 236.571 252.474 224.531 238.041C221.331 216.591 206.083 175.039 206.083 175.039L187.399 177.805Z" fill="#FF8B7B"/>
<path d="M178.026 148.483C176.594 150.16 175.123 151.76 173.652 153.391C172.182 155.021 170.665 156.591 169.149 158.176C167.632 159.761 166.101 161.338 164.516 162.87C162.931 164.402 161.338 165.918 159.669 167.442L159.921 167.175C159.563 167.587 159.148 167.944 158.686 168.234C158.309 168.462 157.911 168.653 157.498 168.806C156.834 169.045 156.143 169.201 155.44 169.271C154.282 169.385 153.116 169.385 151.958 169.271C149.872 169.071 147.803 168.714 145.771 168.204C143.789 167.716 141.854 167.145 139.934 166.528C138.013 165.91 136.124 165.225 134.272 164.432C133.881 164.267 133.571 163.954 133.411 163.561C133.251 163.168 133.254 162.728 133.419 162.337C133.56 161.993 133.818 161.711 134.146 161.538C134.475 161.365 134.854 161.314 135.217 161.392C137.099 161.788 139.027 162.192 140.932 162.535C142.837 162.878 144.742 163.213 146.639 163.449C148.472 163.71 150.32 163.856 152.171 163.883C152.986 163.9 153.8 163.836 154.602 163.693C154.879 163.642 155.149 163.563 155.41 163.457C155.459 163.439 155.503 163.41 155.539 163.373C155.539 163.373 155.486 163.373 155.418 163.464L155.669 163.198C157.193 161.674 158.641 160.15 160.104 158.587L164.478 153.825L173.164 144.216C173.727 143.575 174.522 143.183 175.374 143.127C176.225 143.071 177.064 143.356 177.706 143.919C178.348 144.482 178.739 145.276 178.795 146.128C178.851 146.98 178.566 147.819 178.003 148.461L178.026 148.483Z" fill="#FF8B7B"/>
<path d="M136.497 161.826L133.35 156.317L131.14 162.306C131.14 162.306 133.815 165.354 136.36 164.752L136.497 161.826Z" fill="#FF8B7B"/>
<path d="M129.357 156.477L128.595 159.045C128.508 159.332 128.508 159.639 128.595 159.926C128.682 160.214 128.851 160.469 129.083 160.66L131.148 162.337L133.327 156.317L131.392 155.555C131.198 155.474 130.99 155.433 130.781 155.436C130.571 155.439 130.364 155.486 130.173 155.572C129.982 155.659 129.811 155.784 129.671 155.939C129.53 156.095 129.424 156.278 129.357 156.477Z" fill="#FF8B7B"/>
<path d="M178.087 140.795C173.606 140.033 171.625 143.157 169.484 145.512C169.995 149.672 177.333 158.207 177.333 158.207C177.333 158.207 186.233 142.121 178.087 140.795Z" fill="#407BFF"/>
<path d="M172.128 145.9C172.7 150.434 174.864 163.16 180.929 182.21L207.378 178.308C205.549 168.722 203.027 159.662 204.193 140.574C204.225 140.047 204.149 139.52 203.97 139.024C203.79 138.528 203.51 138.074 203.148 137.691C202.786 137.307 202.349 137.002 201.864 136.794C201.38 136.586 200.857 136.48 200.33 136.482C198.539 136.482 196.329 136.558 194.028 136.787C190.162 137.082 186.323 137.65 182.537 138.486C180.099 139.08 177.516 139.873 175.55 140.513C174.444 140.876 173.499 141.612 172.875 142.594C172.251 143.577 171.987 144.745 172.128 145.9Z" fill="#407BFF"/>
<path d="M182.537 138.471L194.028 136.771C194.028 136.771 193.502 141.183 186.263 146.982C180.762 141.877 182.537 138.471 182.537 138.471Z" fill="white"/>
<path d="M190.98 124C190.797 127.81 191.079 134.668 194.028 136.771C192.172 139.779 189.631 142.307 186.614 144.148C185.475 143.673 184.49 142.89 183.77 141.888C183.05 140.885 182.623 139.702 182.537 138.471C186.515 136.878 185.958 133.838 184.823 131.072L190.98 124Z" fill="#FF8B7B"/>
<path opacity="0.2" d="M188.465 126.888L184.815 131.064C185.093 131.706 185.312 132.372 185.471 133.053C186.995 132.596 188.923 130.546 188.846 128.87C188.842 128.191 188.713 127.52 188.465 126.888Z" fill="black"/>
<path d="M193.876 116.647C193.312 122.873 193.205 125.517 189.967 128.626C185.09 133.312 177.569 131.262 176.251 124.991C175.07 119.352 176.182 110.117 182.347 107.808C183.707 107.287 185.179 107.124 186.62 107.333C188.062 107.543 189.426 108.118 190.582 109.005C191.738 109.891 192.648 111.059 193.224 112.397C193.801 113.735 194.025 115.198 193.876 116.647Z" fill="#FF8B7B"/>
<path d="M189.098 111.801C188.549 115.527 190.751 120.091 192.656 120.137C194.561 120.183 195.994 112.989 195.994 112.989L189.098 111.801Z" fill="#263238"/>
<path d="M178.514 109.896C182.575 112.776 194.645 117.097 194.897 113.37C195.148 109.644 190.111 106.634 186.385 106.634C182.659 106.634 179.657 108.12 178.514 109.896Z" fill="#263238"/>
<path opacity="0.2" d="M192.1 238.697L204.292 233.904C204.231 231 204.132 227.922 203.987 224.76L190.5 229.652C191.056 232.882 191.613 235.946 192.1 238.697Z" fill="black"/>
<path opacity="0.2" d="M220.218 218.808L206.121 223.944C207.233 226.703 208.308 229.385 209.314 231.915L222.268 226.802C221.643 224.219 220.98 221.536 220.218 218.808Z" fill="black"/>
<path d="M184.747 118.285C184.747 118.796 184.457 119.2 184.122 119.184C183.787 119.169 183.535 118.758 183.55 118.255C183.566 117.752 183.84 117.34 184.175 117.348C184.511 117.356 184.762 117.775 184.747 118.285Z" fill="#263238"/>
<path d="M179.007 118.122C179.021 117.613 178.763 117.193 178.431 117.183C178.099 117.174 177.818 117.579 177.803 118.088C177.789 118.597 178.046 119.017 178.379 119.027C178.711 119.036 178.992 118.631 179.007 118.122Z" fill="#263238"/>
<path d="M178.582 117.218L177.371 116.83C177.371 116.83 177.973 117.805 178.582 117.218Z" fill="#263238"/>
<path d="M180.503 119.04C180.018 120.184 179.376 121.256 178.598 122.225C178.852 122.418 179.145 122.554 179.457 122.623C179.769 122.691 180.092 122.691 180.403 122.621L180.503 119.04Z" fill="#FF5652"/>
<path d="M182.202 124.511C181.919 124.553 181.634 124.57 181.348 124.564C181.31 124.561 181.274 124.543 181.247 124.515C181.221 124.487 181.205 124.45 181.204 124.412C181.204 124.392 181.208 124.373 181.215 124.355C181.223 124.336 181.234 124.32 181.249 124.307C181.263 124.293 181.28 124.283 181.298 124.276C181.317 124.269 181.336 124.266 181.356 124.267C181.987 124.299 182.617 124.181 183.194 123.925C183.771 123.668 184.28 123.279 184.678 122.789C184.689 122.773 184.703 122.759 184.72 122.748C184.736 122.738 184.754 122.731 184.773 122.727C184.792 122.724 184.812 122.724 184.831 122.728C184.85 122.732 184.868 122.74 184.884 122.751C184.9 122.762 184.914 122.776 184.924 122.792C184.935 122.808 184.942 122.827 184.946 122.846C184.949 122.865 184.949 122.884 184.945 122.903C184.941 122.922 184.933 122.94 184.922 122.956C184.254 123.81 183.277 124.369 182.202 124.511Z" fill="#263238"/>
<path d="M195.217 119.947C195.071 120.528 194.812 121.074 194.454 121.554C194.095 122.035 193.645 122.439 193.129 122.743C191.75 123.551 190.652 122.415 190.698 120.899C190.736 119.535 191.506 117.47 193.06 117.28C193.399 117.243 193.742 117.293 194.057 117.423C194.372 117.554 194.65 117.761 194.864 118.026C195.079 118.291 195.223 118.606 195.285 118.942C195.346 119.277 195.323 119.622 195.217 119.947Z" fill="#FF8B7B"/>
<path d="M186.88 115.664C186.84 115.669 186.799 115.665 186.761 115.651C186.723 115.638 186.688 115.616 186.659 115.588C186.393 115.323 186.067 115.126 185.71 115.012C185.352 114.898 184.972 114.871 184.602 114.933C184.529 114.938 184.457 114.918 184.398 114.875C184.34 114.832 184.298 114.769 184.282 114.698C184.265 114.627 184.274 114.553 184.308 114.488C184.342 114.423 184.397 114.373 184.465 114.346C184.931 114.266 185.41 114.297 185.861 114.437C186.313 114.578 186.725 114.823 187.063 115.153C187.092 115.181 187.114 115.213 187.13 115.249C187.145 115.285 187.153 115.324 187.153 115.363C187.153 115.402 187.145 115.441 187.13 115.477C187.114 115.513 187.092 115.546 187.063 115.573C187.04 115.599 187.012 115.621 186.981 115.637C186.95 115.652 186.915 115.662 186.88 115.664Z" fill="#263238"/>
<path d="M177.546 115.184C177.509 115.177 177.473 115.163 177.442 115.142C177.41 115.121 177.384 115.094 177.363 115.062C177.34 115.03 177.324 114.994 177.315 114.956C177.307 114.918 177.306 114.878 177.313 114.84C177.32 114.802 177.335 114.765 177.357 114.732C177.379 114.7 177.407 114.672 177.439 114.651C177.822 114.372 178.266 114.189 178.734 114.117C179.202 114.045 179.681 114.087 180.129 114.239C180.202 114.269 180.26 114.327 180.29 114.4C180.32 114.473 180.32 114.555 180.289 114.628C180.275 114.664 180.253 114.698 180.226 114.726C180.199 114.755 180.166 114.777 180.13 114.793C180.094 114.808 180.055 114.817 180.016 114.817C179.976 114.818 179.937 114.81 179.901 114.795C179.545 114.678 179.166 114.648 178.796 114.708C178.426 114.767 178.076 114.915 177.775 115.138C177.707 115.183 177.625 115.2 177.546 115.184Z" fill="#263238"/>
<path d="M184.32 117.348L183.109 116.967C183.109 116.967 183.71 117.965 184.32 117.348Z" fill="#263238"/>
<path d="M180.929 182.21L189.776 234.528L222.9 224.706C220.218 197.053 213.36 183.36 207.378 178.308L180.929 182.21Z" fill="#263238"/>
<path opacity="0.2" d="M194.348 211.608L200.97 200.726L199.834 193.068L194.348 211.608Z" fill="black"/>
<path d="M203.858 139.096C204.422 139.599 205.115 140.178 205.755 140.711C206.395 141.245 207.089 141.793 207.775 142.311C209.139 143.34 210.51 144.353 211.935 145.268C214.645 147.102 217.611 148.527 220.736 149.497C220.919 149.558 221.11 149.588 221.292 149.634L221.567 149.703C221.651 149.703 221.567 149.703 221.567 149.703H221.46C221.155 149.703 221.041 149.84 221.125 149.809C221.562 149.514 221.937 149.136 222.23 148.697C223.159 147.363 223.96 145.945 224.622 144.46C225.384 142.936 226.055 141.298 226.687 139.652C227.32 138.006 227.968 136.337 228.562 134.691C228.693 134.315 228.96 134.002 229.31 133.812C229.66 133.622 230.069 133.57 230.455 133.665C230.842 133.76 231.18 133.996 231.401 134.327C231.623 134.658 231.714 135.059 231.656 135.453C231.136 139.135 230.3 142.766 229.156 146.304C228.552 148.197 227.744 150.018 226.748 151.737C226.113 152.849 225.257 153.818 224.234 154.587C223.395 155.18 222.396 155.504 221.369 155.517C221.219 155.528 221.069 155.528 220.919 155.517L220.561 155.471L220.172 155.402C219.921 155.357 219.654 155.326 219.41 155.265C217.445 154.85 215.529 154.226 213.695 153.406C211.924 152.629 210.211 151.728 208.567 150.709C206.94 149.725 205.366 148.656 203.85 147.508C203.093 146.939 202.354 146.352 201.633 145.748C200.871 145.131 200.216 144.544 199.454 143.82C198.872 143.231 198.539 142.44 198.524 141.612C198.509 140.785 198.814 139.983 199.374 139.373C199.935 138.764 200.708 138.393 201.535 138.339C202.361 138.284 203.176 138.55 203.812 139.08L203.858 139.096Z" fill="#FF8B7B"/>
<path d="M200.04 136.467C204.612 136.2 206.35 138.578 208.232 141.138C207.302 145.222 202.349 152.21 202.349 152.21C202.349 152.21 191.803 136.954 200.04 136.467Z" fill="#407BFF"/>
<path d="M228.326 135.065L229.469 128.351L233.606 133.243C233.606 133.243 232.159 137.053 229.56 137.351L228.326 135.065Z" fill="#FF8B7B"/>
<path d="M233.248 126.53L235.732 128.709C235.951 128.902 236.091 129.169 236.126 129.458C236.162 129.747 236.089 130.04 235.923 130.279L233.172 134.173L229.476 128.351L231.762 126.507C231.975 126.339 232.239 126.249 232.509 126.254C232.78 126.258 233.041 126.355 233.248 126.53Z" fill="#FF8B7B"/>
<path d="M189.677 315.933C190.45 315.37 191.31 314.938 192.222 314.653C192.222 314.653 196.733 312.1 199.08 304.442L204.3 303.139C204.429 303.107 204.565 303.102 204.696 303.126C204.828 303.15 204.952 303.201 205.063 303.277C205.173 303.352 205.266 303.45 205.335 303.565C205.405 303.679 205.449 303.806 205.466 303.939C205.511 304.35 205.542 304.823 205.595 305.204C205.652 306.033 205.652 306.866 205.595 307.696C205.549 310.279 205.26 316.078 205.26 316.078H204.658C204.654 314.313 204.547 312.549 204.338 310.797C204.033 309.09 202.814 311.109 202.159 313.037C201.503 314.965 198.768 317.03 194.821 317.122C190.21 317.259 188.336 317.053 189.677 315.933Z" fill="#263238"/>
<path d="M247.863 297.942C248.012 296.998 248.313 296.084 248.755 295.237C248.755 295.237 250.134 290.238 246.37 283.167L249.128 278.557C249.196 278.441 249.287 278.341 249.396 278.264C249.505 278.187 249.63 278.133 249.761 278.108C249.892 278.083 250.028 278.086 250.158 278.117C250.288 278.149 250.41 278.208 250.515 278.29C250.843 278.549 251.201 278.861 251.506 279.052C252.132 279.6 252.723 280.188 253.274 280.812C255.072 282.671 258.989 286.984 258.989 286.984L258.562 287.419C257.31 286.171 255.985 285.001 254.592 283.914C253.175 282.923 253.754 285.201 254.645 287.038C255.537 288.874 255.072 292.257 252.359 295.115C249.174 298.513 247.711 299.695 247.863 297.942Z" fill="#263238"/>
<path opacity="0.9" d="M227.777 78.8212L147.432 71.1174C145.454 70.9368 143.485 71.545 141.953 72.8095C140.422 74.074 139.452 75.8925 139.255 77.8687L127.742 198.12C127.555 200.098 128.16 202.069 129.424 203.602C130.688 205.134 132.508 206.103 134.485 206.296L214.823 214C216.801 214.183 218.771 213.575 220.303 212.31C221.835 211.045 222.804 209.226 222.999 207.249L234.521 87.0356C234.618 86.0534 234.52 85.0617 234.233 84.1173C233.947 83.1728 233.477 82.2941 232.851 81.5313C232.224 80.7684 231.454 80.1365 230.583 79.6715C229.713 79.2065 228.759 78.9176 227.777 78.8212ZM210.579 124.861C210.023 130.603 207.682 136.026 203.885 140.369C200.089 144.712 195.027 147.757 189.412 149.076C183.796 150.394 177.908 149.921 172.575 147.722C167.242 145.523 162.732 141.708 159.679 136.814C156.625 131.921 155.181 126.193 155.549 120.436C155.918 114.68 158.08 109.183 161.733 104.718C165.385 100.254 170.345 97.0452 175.914 95.5438C181.484 94.0424 187.384 94.3234 192.786 96.3472C194.945 97.155 196.994 98.2329 198.882 99.5552C202.905 102.353 206.111 106.172 208.168 110.62C210.225 115.068 211.06 119.984 210.586 124.861H210.579Z" fill="white"/>
<path d="M187.17 49.3852L195.872 51.054C196.94 51.2794 197.888 51.8903 198.535 52.7702C199.182 53.65 199.481 54.7372 199.377 55.8241L197.693 71.1555C197.671 71.3564 197.633 71.5552 197.579 71.7499C197.346 72.6595 196.772 73.4448 195.977 73.9439C195.181 74.443 194.225 74.6178 193.304 74.4321L184.602 72.7938C183.628 72.5866 182.751 72.0591 182.111 71.2953C181.472 70.5315 181.107 69.5756 181.074 68.58C181.055 68.3772 181.055 68.1731 181.074 67.9704L182.758 52.6389C182.807 52.124 182.964 51.6252 183.219 51.1752C183.474 50.7251 183.821 50.3337 184.237 50.0267C184.654 49.7197 185.13 49.5039 185.635 49.3934C186.141 49.2828 186.664 49.28 187.17 49.3852ZM190.805 56.7004C190.402 56.6196 189.987 56.6245 189.586 56.7148C189.185 56.8051 188.808 56.9789 188.478 57.2247C188.149 57.4706 187.875 57.783 187.675 58.1417C187.474 58.5003 187.352 58.8972 187.315 59.3064C187.225 60.1742 187.461 61.0444 187.976 61.7483C188.491 62.4523 189.249 62.9398 190.104 63.1164C190.507 63.1985 190.923 63.1945 191.324 63.1047C191.725 63.0148 192.103 62.8412 192.433 62.5951C192.762 62.3491 193.036 62.0362 193.236 61.6769C193.436 61.3176 193.558 60.9201 193.594 60.5104C193.682 59.643 193.446 58.7736 192.931 58.0701C192.416 57.3665 191.658 56.8786 190.805 56.7004Z" fill="#263238"/>
<path d="M213.985 81.8617C213.808 81.8617 213.635 81.8116 213.485 81.7172C213.335 81.6228 213.215 81.4879 213.139 81.3283L209.779 74.3864C209.552 73.9137 209.207 73.5076 208.777 73.2072C208.347 72.9069 207.847 72.7225 207.325 72.6719L168.676 68.9686C168.155 68.9183 167.629 69.0034 167.15 69.2157C166.67 69.4279 166.254 69.7601 165.941 70.1802L161.323 76.3676C161.249 76.4677 161.157 76.5523 161.051 76.6166C160.944 76.6809 160.827 76.7237 160.704 76.7424C160.581 76.7612 160.456 76.7555 160.335 76.7259C160.215 76.6962 160.101 76.6431 160.001 76.5696C159.901 76.496 159.816 76.4035 159.752 76.2972C159.688 76.191 159.645 76.0731 159.626 75.9504C159.607 75.8276 159.613 75.7023 159.643 75.5817C159.672 75.4611 159.725 75.3476 159.799 75.2475L164.417 69.0601C164.925 68.3838 165.598 67.8489 166.372 67.5061C167.145 67.1633 167.994 67.0241 168.836 67.1017L207.477 70.805C208.32 70.8902 209.127 71.189 209.821 71.673C210.516 72.157 211.076 72.8104 211.447 73.5711L214.8 80.5129C214.87 80.6555 214.902 80.8135 214.894 80.972C214.886 81.1305 214.838 81.2843 214.754 81.4191C214.67 81.5539 214.554 81.6652 214.415 81.7426C214.277 81.82 214.121 81.861 213.962 81.8617H213.985Z" fill="#407BFF"/>
<path d="M134.874 103.281L134.257 103.22L134.684 98.7474L135.308 98.8084L134.874 103.281ZM135.636 94.625L135.019 94.564L135.987 84.4294L136.611 84.4904L135.636 94.625Z" fill="#407BFF"/>
<path d="M215.547 214.305C215.292 214.308 215.038 214.295 214.785 214.267L134.447 206.57C132.387 206.37 130.49 205.36 129.173 203.763C127.856 202.166 127.226 200.112 127.422 198.051L138.935 77.8382C139.138 75.7787 140.148 73.8833 141.745 72.5666C143.341 71.2499 145.394 70.6193 147.455 70.8126L227.838 78.4859C229.899 78.6865 231.796 79.6958 233.115 81.2926C234.433 82.8893 235.064 84.9435 234.871 87.0051L223.312 207.264C223.121 209.194 222.222 210.984 220.788 212.289C219.353 213.594 217.486 214.32 215.547 214.328V214.305ZM146.715 71.3993C144.93 71.404 143.211 72.0717 141.89 73.2727C140.569 74.4737 139.742 76.1225 139.568 77.8992L128.016 198.12C127.844 200.016 128.427 201.903 129.638 203.371C130.85 204.839 132.591 205.77 134.485 205.961L214.884 213.649C216.78 213.826 218.668 213.244 220.136 212.032C221.604 210.819 222.532 209.075 222.717 207.18L234.239 86.967C234.413 85.072 233.832 83.185 232.622 81.7165C231.412 80.2479 229.67 79.3169 227.777 79.126L147.401 71.4298C147.173 71.4069 146.944 71.3993 146.715 71.3993ZM183.124 150.175C182.225 150.175 181.318 150.129 180.411 150.045C176.452 149.663 172.621 148.441 169.173 146.459C165.725 144.477 162.739 141.782 160.416 138.554C158.093 135.326 156.485 131.64 155.701 127.741C154.917 123.842 154.975 119.82 155.869 115.945C156.764 112.07 158.476 108.431 160.89 105.27C163.304 102.11 166.365 99.501 169.868 97.6184C173.372 95.7358 177.236 94.6227 181.204 94.3535C185.172 94.0844 189.152 94.6654 192.877 96.0576C195.065 96.8715 197.139 97.9625 199.05 99.3037C203.118 102.133 206.359 105.995 208.44 110.492C210.521 114.989 211.367 119.959 210.891 124.892C210.23 131.802 207.021 138.219 201.888 142.893C196.755 147.567 190.066 150.163 183.124 150.175ZM183.055 94.907C177.764 94.9105 172.588 96.4504 168.155 99.3398C163.723 102.229 160.225 106.344 158.086 111.183C155.948 116.023 155.261 121.379 156.108 126.602C156.956 131.825 159.303 136.689 162.862 140.603C166.422 144.518 171.042 147.315 176.161 148.653C181.28 149.992 186.677 149.816 191.698 148.145C196.718 146.475 201.145 143.382 204.442 139.244C207.738 135.105 209.762 130.098 210.266 124.831C210.731 120.01 209.903 115.152 207.869 110.757C205.835 106.362 202.667 102.588 198.691 99.8219C196.825 98.5089 194.797 97.4434 192.656 96.652C190.414 95.8082 188.069 95.2675 185.684 95.0442C184.8 94.9527 183.924 94.907 183.055 94.907Z" fill="#407BFF"/>
<path opacity="0.8" d="M192.786 96.3472C187.689 94.4417 182.143 94.0832 176.843 95.3168C171.543 96.5504 166.725 99.3211 162.993 103.282C159.261 107.242 156.782 112.216 155.865 117.58C154.948 122.944 155.636 128.459 157.841 133.434L131.933 154.831L139.309 77.8687C139.506 75.8925 140.475 74.074 142.007 72.8095C143.538 71.545 145.507 70.9368 147.485 71.1174L174.109 73.6701L182.628 84.0028L192.786 96.3472Z" fill="#407BFF"/>
<path opacity="0.5" d="M234.521 86.9974L229.362 140.711L210.312 117.63C209.699 114.01 208.373 110.548 206.411 107.446C204.448 104.343 201.889 101.661 198.882 99.5551L224.394 78.4858L227.777 78.8135C229.755 79.0083 231.575 79.9788 232.839 81.5127C234.103 83.0465 234.708 85.0187 234.521 86.9974Z" fill="#407BFF"/>
<path d="M224.394 78.486L198.882 99.5553C196.994 98.233 194.945 97.155 192.786 96.3473L182.598 84.0029L174.056 73.6702L224.394 78.486Z" fill="#407BFF"/>
<path opacity="0.5" d="M203.382 161.522L155.701 156.956C154.901 156.879 154.19 157.466 154.113 158.266L153.875 160.754C153.798 161.554 154.385 162.265 155.185 162.342L202.866 166.908C203.666 166.984 204.377 166.398 204.454 165.598L204.692 163.11C204.769 162.309 204.182 161.599 203.382 161.522Z" fill="#407BFF"/>
<path opacity="0.5" d="M198.723 170.854L158.505 167.003C157.705 166.926 156.995 167.513 156.918 168.313L156.68 170.801C156.603 171.601 157.19 172.312 157.99 172.389L198.207 176.24C199.007 176.316 199.718 175.73 199.795 174.93L200.033 172.442C200.109 171.642 199.523 170.931 198.723 170.854Z" fill="#407BFF"/>
<path opacity="0.5" d="M152.007 191.198L140.053 190.054L139.866 192.011L151.82 193.155L152.007 191.198Z" fill="#407BFF"/>
<path opacity="0.5" d="M164.34 192.383L154.699 191.46L154.511 193.417L164.152 194.34L164.34 192.383Z" fill="#407BFF"/>
<path opacity="0.5" d="M167.341 197.113L139.632 194.459L139.444 196.416L167.154 199.07L167.341 197.113Z" fill="#407BFF"/>
<path opacity="0.5" d="M172.883 190.428L140.232 187.163L140.035 189.129L172.687 192.394L172.883 190.428Z" fill="#407BFF"/>
<path d="M195.072 50.6958L186.233 49.088C185.706 48.9948 185.167 49.0062 184.645 49.1215C184.123 49.2369 183.629 49.454 183.191 49.7604C182.753 50.0668 182.379 50.4566 182.092 50.9073C181.805 51.3581 181.609 51.861 181.516 52.3875L178.758 67.7418C178.717 67.9424 178.7 68.1468 178.704 68.3514C178.673 69.3261 178.992 70.2798 179.602 71.0401C180.213 71.8004 181.076 72.317 182.034 72.4966L190.851 74.1045C191.81 74.2777 192.801 74.0997 193.64 73.603C194.48 73.1064 195.112 72.3241 195.423 71.3994C195.495 71.207 195.549 71.0079 195.583 70.805L198.333 55.4507C198.525 54.3884 198.29 53.2932 197.68 52.403C197.069 51.5128 196.132 50.8993 195.072 50.6958ZM189.471 56.388C190.107 56.4967 190.696 56.7921 191.164 57.2365C191.632 57.6809 191.957 58.2543 192.098 58.8838C192.239 59.5133 192.19 60.1706 191.956 60.7721C191.723 61.3735 191.316 61.892 190.787 62.2617C190.259 62.6314 189.632 62.8356 188.987 62.8482C188.342 62.8609 187.708 62.6816 187.165 62.333C186.622 61.9844 186.195 61.4823 185.938 60.8905C185.681 60.2986 185.606 59.6438 185.722 59.0092C185.878 58.1678 186.359 57.4214 187.06 56.9311C187.761 56.4407 188.627 56.2456 189.471 56.388Z" fill="#263238"/>
<path opacity="0.2" d="M195.072 50.6958L186.233 49.088C185.706 48.9948 185.167 49.0062 184.645 49.1215C184.123 49.2369 183.629 49.454 183.191 49.7604C182.753 50.0668 182.379 50.4566 182.092 50.9073C181.805 51.3581 181.609 51.861 181.516 52.3875L178.758 67.7418C178.717 67.9424 178.7 68.1468 178.704 68.3514C178.673 69.3261 178.992 70.2798 179.602 71.0401C180.213 71.8004 181.076 72.317 182.034 72.4966L190.851 74.1045C191.81 74.2777 192.801 74.0997 193.64 73.603C194.48 73.1064 195.112 72.3241 195.423 71.3994C195.495 71.207 195.549 71.0079 195.583 70.805L198.333 55.4507C198.525 54.3884 198.29 53.2932 197.68 52.403C197.069 51.5128 196.132 50.8993 195.072 50.6958ZM189.471 56.388C190.107 56.4967 190.696 56.7921 191.164 57.2365C191.632 57.6809 191.957 58.2543 192.098 58.8838C192.239 59.5133 192.19 60.1706 191.956 60.7721C191.723 61.3735 191.316 61.892 190.787 62.2617C190.259 62.6314 189.632 62.8356 188.987 62.8482C188.342 62.8609 187.708 62.6816 187.165 62.333C186.622 61.9844 186.195 61.4823 185.938 60.8905C185.681 60.2986 185.606 59.6438 185.722 59.0092C185.878 58.1678 186.359 57.4214 187.06 56.9311C187.761 56.4407 188.627 56.2456 189.471 56.388Z" fill="white"/>
<path opacity="0.2" d="M211.509 201.722C213.81 199.823 214.136 196.418 212.237 194.117C210.338 191.815 206.933 191.489 204.632 193.388C202.33 195.287 202.004 198.693 203.903 200.994C205.802 203.295 209.208 203.621 211.509 201.722Z" fill="#407BFF"/>
<path opacity="0.8" d="M197.204 200.349C199.506 198.45 199.832 195.045 197.933 192.744C196.033 190.442 192.628 190.116 190.327 192.015C188.026 193.915 187.699 197.32 189.599 199.621C191.498 201.922 194.903 202.248 197.204 200.349Z" fill="#407BFF"/>
</svg>
